%TF.GenerationSoftware,KiCad,Pcbnew,9.0.4*%
%TF.CreationDate,2025-09-12T11:32:33-04:00*%
%TF.ProjectId,Power-Board_rev1,506f7765-722d-4426-9f61-72645f726576,rev?*%
%TF.SameCoordinates,Original*%
%TF.FileFunction,Copper,L1,Top*%
%TF.FilePolarity,Positive*%
%FSLAX46Y46*%
G04 Gerber Fmt 4.6, Leading zero omitted, Abs format (unit mm)*
G04 Created by KiCad (PCBNEW 9.0.4) date 2025-09-12 11:32:33*
%MOMM*%
%LPD*%
G01*
G04 APERTURE LIST*
G04 Aperture macros list*
%AMRoundRect*
0 Rectangle with rounded corners*
0 $1 Rounding radius*
0 $2 $3 $4 $5 $6 $7 $8 $9 X,Y pos of 4 corners*
0 Add a 4 corners polygon primitive as box body*
4,1,4,$2,$3,$4,$5,$6,$7,$8,$9,$2,$3,0*
0 Add four circle primitives for the rounded corners*
1,1,$1+$1,$2,$3*
1,1,$1+$1,$4,$5*
1,1,$1+$1,$6,$7*
1,1,$1+$1,$8,$9*
0 Add four rect primitives between the rounded corners*
20,1,$1+$1,$2,$3,$4,$5,0*
20,1,$1+$1,$4,$5,$6,$7,0*
20,1,$1+$1,$6,$7,$8,$9,0*
20,1,$1+$1,$8,$9,$2,$3,0*%
G04 Aperture macros list end*
%TA.AperFunction,SMDPad,CuDef*%
%ADD10RoundRect,0.250000X0.475000X-0.337500X0.475000X0.337500X-0.475000X0.337500X-0.475000X-0.337500X0*%
%TD*%
%TA.AperFunction,SMDPad,CuDef*%
%ADD11RoundRect,0.237500X-0.237500X0.250000X-0.237500X-0.250000X0.237500X-0.250000X0.237500X0.250000X0*%
%TD*%
%TA.AperFunction,SMDPad,CuDef*%
%ADD12RoundRect,0.237500X1.012500X-0.237500X1.012500X0.237500X-1.012500X0.237500X-1.012500X-0.237500X0*%
%TD*%
%TA.AperFunction,SMDPad,CuDef*%
%ADD13RoundRect,0.250000X-0.337500X-0.475000X0.337500X-0.475000X0.337500X0.475000X-0.337500X0.475000X0*%
%TD*%
%TA.AperFunction,SMDPad,CuDef*%
%ADD14RoundRect,0.250000X0.337500X0.475000X-0.337500X0.475000X-0.337500X-0.475000X0.337500X-0.475000X0*%
%TD*%
%TA.AperFunction,SMDPad,CuDef*%
%ADD15RoundRect,0.250000X-0.475000X0.337500X-0.475000X-0.337500X0.475000X-0.337500X0.475000X0.337500X0*%
%TD*%
%TA.AperFunction,SMDPad,CuDef*%
%ADD16RoundRect,0.032500X-0.372500X-0.097500X0.372500X-0.097500X0.372500X0.097500X-0.372500X0.097500X0*%
%TD*%
%TA.AperFunction,SMDPad,CuDef*%
%ADD17R,1.630000X2.480000*%
%TD*%
%TA.AperFunction,ComponentPad*%
%ADD18C,1.700000*%
%TD*%
%TA.AperFunction,ComponentPad*%
%ADD19R,1.700000X1.700000*%
%TD*%
%TA.AperFunction,ViaPad*%
%ADD20C,0.500000*%
%TD*%
%TA.AperFunction,ViaPad*%
%ADD21C,0.600000*%
%TD*%
%TA.AperFunction,Conductor*%
%ADD22C,0.300000*%
%TD*%
%TA.AperFunction,Conductor*%
%ADD23C,0.200000*%
%TD*%
%TA.AperFunction,Conductor*%
%ADD24C,0.400000*%
%TD*%
%TA.AperFunction,Conductor*%
%ADD25C,0.500000*%
%TD*%
G04 APERTURE END LIST*
D10*
%TO.P,C3,1*%
%TO.N,/VOUT*%
X154000000Y-98537500D03*
%TO.P,C3,2*%
%TO.N,GND*%
X154000000Y-96462500D03*
%TD*%
D11*
%TO.P,R1,1*%
%TO.N,/VOUT*%
X162100000Y-95587500D03*
%TO.P,R1,2*%
%TO.N,Net-(Q1-FB)*%
X162100000Y-97412500D03*
%TD*%
D10*
%TO.P,C2,1*%
%TO.N,/VOUT*%
X156500000Y-98537500D03*
%TO.P,C2,2*%
%TO.N,GND*%
X156500000Y-96462500D03*
%TD*%
D12*
%TO.P,L1,1*%
%TO.N,Net-(Q1-LX1)*%
X154300000Y-102325000D03*
%TO.P,L1,2*%
%TO.N,Net-(Q1-LX2)*%
X154300000Y-100675000D03*
%TD*%
D13*
%TO.P,C1,1*%
%TO.N,/VIN*%
X157362500Y-104500000D03*
%TO.P,C1,2*%
%TO.N,GND*%
X159437500Y-104500000D03*
%TD*%
D14*
%TO.P,C4,1*%
%TO.N,/VIN*%
X155437500Y-104500000D03*
%TO.P,C4,2*%
%TO.N,GND*%
X153362500Y-104500000D03*
%TD*%
D15*
%TO.P,C5,1*%
%TO.N,/VOUT*%
X164000000Y-95662500D03*
%TO.P,C5,2*%
%TO.N,GND*%
X164000000Y-97737500D03*
%TD*%
D16*
%TO.P,Q1,1,VOUT*%
%TO.N,/VOUT*%
X157110000Y-100500000D03*
%TO.P,Q1,2,LX2*%
%TO.N,Net-(Q1-LX2)*%
X157110000Y-101000000D03*
%TO.P,Q1,3,GND*%
%TO.N,GND*%
X157110000Y-101500000D03*
%TO.P,Q1,4,LX1*%
%TO.N,Net-(Q1-LX1)*%
X157110000Y-102000000D03*
%TO.P,Q1,5,VIN*%
%TO.N,/VIN*%
X157110000Y-102500000D03*
%TO.P,Q1,6,EN*%
%TO.N,/EN*%
X160000000Y-102500000D03*
%TO.P,Q1,7,PS*%
X160000000Y-102000000D03*
%TO.P,Q1,8,VINA*%
%TO.N,/VIN*%
X160000000Y-101500000D03*
%TO.P,Q1,9,GND*%
%TO.N,GND*%
X160000000Y-101000000D03*
%TO.P,Q1,10,FB*%
%TO.N,Net-(Q1-FB)*%
X160000000Y-100500000D03*
D17*
%TO.P,Q1,11,EXP*%
%TO.N,GND*%
X158555000Y-101500000D03*
%TD*%
D18*
%TO.P,J1,1,Pin_1*%
%TO.N,/VOUT*%
X167000000Y-96190000D03*
D19*
%TO.P,J1,2,Pin_2*%
%TO.N,GND*%
X167000000Y-98730000D03*
D18*
%TO.P,J1,3,Pin_3*%
%TO.N,/VIN*%
X167000000Y-101270000D03*
%TO.P,J1,4,Pin_4*%
%TO.N,/EN*%
X167000000Y-103810000D03*
%TD*%
D11*
%TO.P,R2,1*%
%TO.N,Net-(Q1-FB)*%
X162100000Y-99087500D03*
%TO.P,R2,2*%
%TO.N,GND*%
X162100000Y-100912500D03*
%TD*%
D20*
%TO.N,/VIN*%
X157110000Y-103400000D03*
X161300000Y-102000000D03*
D21*
%TO.N,GND*%
X158950000Y-102300000D03*
X158950000Y-101500000D03*
X158150000Y-100700000D03*
X158150000Y-101500000D03*
X158950000Y-100700000D03*
X158150000Y-102300000D03*
D20*
%TO.N,/VOUT*%
X161000000Y-95600000D03*
X157900000Y-98500000D03*
%TD*%
D22*
%TO.N,GND*%
X152388500Y-105474000D02*
X152200000Y-105474000D01*
X153362500Y-104500000D02*
X152388500Y-105474000D01*
X159500000Y-104500000D02*
X160500000Y-103500000D01*
X167000000Y-98700000D02*
X165700000Y-97400000D01*
X167000000Y-98730000D02*
X167000000Y-98700000D01*
%TO.N,/VIN*%
X160000000Y-101500000D02*
X160800000Y-101500000D01*
X157362500Y-104500000D02*
X157362500Y-103652500D01*
X157110000Y-103400000D02*
X157110000Y-102500000D01*
X167000000Y-101280000D02*
X166990000Y-101280000D01*
X157110000Y-104347500D02*
X157262500Y-104500000D01*
X167000000Y-101270000D02*
X166270000Y-102000000D01*
X161300000Y-102000000D02*
X166270000Y-102000000D01*
X155437500Y-104500000D02*
X157362500Y-104500000D01*
X157362500Y-103652500D02*
X157110000Y-103400000D01*
X160800000Y-101500000D02*
X161300000Y-102000000D01*
%TO.N,GND*%
X158555000Y-103617500D02*
X158555000Y-102500000D01*
X160411500Y-105474000D02*
X160600000Y-105474000D01*
X159437500Y-104500000D02*
X160411500Y-105474000D01*
X153362500Y-104500000D02*
X153362500Y-104362500D01*
X153362500Y-104362500D02*
X152400000Y-103400000D01*
X167000000Y-98900000D02*
X165800000Y-100100000D01*
X159437500Y-104500000D02*
X159500000Y-104500000D01*
D23*
X160000000Y-101000000D02*
X162012500Y-101000000D01*
X162012500Y-101000000D02*
X162100000Y-100912500D01*
D22*
X159437500Y-104500000D02*
X158555000Y-103617500D01*
X160600000Y-105474000D02*
X160626000Y-105474000D01*
D23*
X159055000Y-101000000D02*
X158555000Y-101500000D01*
X157110000Y-101500000D02*
X158555000Y-101500000D01*
X160000000Y-101000000D02*
X159055000Y-101000000D01*
D22*
X167000000Y-98730000D02*
X167000000Y-98900000D01*
X158555000Y-102500000D02*
X158555000Y-101500000D01*
%TO.N,/VOUT*%
X161012500Y-95587500D02*
X161000000Y-95600000D01*
D24*
X156500000Y-99839000D02*
X157110000Y-100449000D01*
X156500000Y-98537500D02*
X156500000Y-98500000D01*
X156500000Y-98537500D02*
X154000000Y-98537500D01*
D22*
X164000000Y-95662500D02*
X164262500Y-95662500D01*
X163925000Y-95587500D02*
X164000000Y-95662500D01*
D24*
X156500000Y-98537500D02*
X157862500Y-98537500D01*
D22*
X167000000Y-96190000D02*
X164527500Y-96190000D01*
D24*
X157862500Y-98537500D02*
X157900000Y-98500000D01*
D22*
X164527500Y-96190000D02*
X164000000Y-95662500D01*
X162100000Y-95587500D02*
X161012500Y-95587500D01*
X162100000Y-95587500D02*
X163925000Y-95587500D01*
D24*
X156500000Y-98537500D02*
X156500000Y-99839000D01*
D22*
%TO.N,/EN*%
X160000000Y-102500000D02*
X160200000Y-102700000D01*
X165900000Y-102710000D02*
X165890000Y-102710000D01*
X165890000Y-102700000D02*
X165890000Y-102710000D01*
X167000000Y-103810000D02*
X165900000Y-102710000D01*
X160200000Y-102700000D02*
X165890000Y-102700000D01*
X160000000Y-102000000D02*
X160000000Y-102500000D01*
%TO.N,Net-(Q1-LX2)*%
X154325000Y-101000000D02*
X154000000Y-100675000D01*
D25*
X156200000Y-101000000D02*
X155875000Y-100675000D01*
X156400000Y-101000000D02*
X156200000Y-101000000D01*
D22*
X154625000Y-101000000D02*
X154300000Y-100675000D01*
D25*
X155875000Y-100675000D02*
X154300000Y-100675000D01*
D22*
X157110000Y-101000000D02*
X156400000Y-101000000D01*
%TO.N,Net-(Q1-LX1)*%
X154325000Y-102000000D02*
X154000000Y-102325000D01*
D25*
X156400000Y-102000000D02*
X156100000Y-102000000D01*
X155775000Y-102325000D02*
X154300000Y-102325000D01*
X156100000Y-102000000D02*
X155775000Y-102325000D01*
D22*
X157110000Y-102000000D02*
X156400000Y-102000000D01*
X154625000Y-102000000D02*
X154300000Y-102325000D01*
D23*
%TO.N,Net-(Q1-FB)*%
X160000000Y-100500000D02*
X160687500Y-100500000D01*
X160687500Y-100500000D02*
X162100000Y-99087500D01*
X162100000Y-99087500D02*
X162100000Y-97412500D01*
%TD*%
%TA.AperFunction,Conductor*%
%TO.N,GND*%
G36*
X161718010Y-94395185D02*
G01*
X161763765Y-94447989D01*
X161773709Y-94517147D01*
X161744684Y-94580703D01*
X161689976Y-94617206D01*
X161548484Y-94664092D01*
X161548481Y-94664093D01*
X161401651Y-94754659D01*
X161315037Y-94841273D01*
X161253713Y-94874757D01*
X161203165Y-94875208D01*
X161073922Y-94849500D01*
X161073918Y-94849500D01*
X160926082Y-94849500D01*
X160926080Y-94849500D01*
X160781092Y-94878340D01*
X160781082Y-94878343D01*
X160644511Y-94934912D01*
X160644498Y-94934919D01*
X160521584Y-95017048D01*
X160521580Y-95017051D01*
X160417051Y-95121580D01*
X160417048Y-95121584D01*
X160334919Y-95244498D01*
X160334912Y-95244511D01*
X160278343Y-95381082D01*
X160278340Y-95381092D01*
X160249500Y-95526079D01*
X160249500Y-95526082D01*
X160249500Y-95673918D01*
X160249500Y-95673920D01*
X160249499Y-95673920D01*
X160278340Y-95818907D01*
X160278343Y-95818917D01*
X160334912Y-95955488D01*
X160334919Y-95955501D01*
X160417048Y-96078415D01*
X160417051Y-96078419D01*
X160521580Y-96182948D01*
X160521584Y-96182951D01*
X160644498Y-96265080D01*
X160644511Y-96265087D01*
X160780343Y-96321350D01*
X160781087Y-96321658D01*
X160781091Y-96321658D01*
X160781092Y-96321659D01*
X160926079Y-96350500D01*
X160926082Y-96350500D01*
X161073920Y-96350500D01*
X161224016Y-96320643D01*
X161231923Y-96321350D01*
X161239362Y-96318576D01*
X161266225Y-96324419D01*
X161293608Y-96326870D01*
X161301617Y-96332118D01*
X161307635Y-96333428D01*
X161335889Y-96354579D01*
X161393629Y-96412319D01*
X161427114Y-96473642D01*
X161422130Y-96543334D01*
X161393629Y-96587681D01*
X161279661Y-96701648D01*
X161189093Y-96848481D01*
X161189091Y-96848486D01*
X161174051Y-96893875D01*
X161134826Y-97012247D01*
X161134826Y-97012248D01*
X161134825Y-97012248D01*
X161124500Y-97113315D01*
X161124500Y-97711669D01*
X161124501Y-97711687D01*
X161134825Y-97812752D01*
X161189092Y-97976515D01*
X161189093Y-97976518D01*
X161279661Y-98123351D01*
X161318629Y-98162319D01*
X161352114Y-98223642D01*
X161347130Y-98293334D01*
X161318629Y-98337681D01*
X161279661Y-98376648D01*
X161189093Y-98523481D01*
X161189091Y-98523486D01*
X161172380Y-98573918D01*
X161134826Y-98687247D01*
X161134826Y-98687248D01*
X161134825Y-98687248D01*
X161124500Y-98788315D01*
X161124500Y-99162401D01*
X161104815Y-99229440D01*
X161088181Y-99250082D01*
X160505083Y-99833181D01*
X160443760Y-99866666D01*
X160417402Y-99869500D01*
X159723962Y-99869500D01*
X159656923Y-99849815D01*
X159649650Y-99844766D01*
X159612091Y-99816648D01*
X159477376Y-99766402D01*
X159477372Y-99766401D01*
X159417844Y-99760000D01*
X158805000Y-99760000D01*
X158805000Y-103256556D01*
X158785315Y-103323595D01*
X158746097Y-103362094D01*
X158631659Y-103432680D01*
X158631655Y-103432683D01*
X158507683Y-103556655D01*
X158507679Y-103556660D01*
X158505826Y-103559665D01*
X158504018Y-103561290D01*
X158503202Y-103562323D01*
X158503025Y-103562183D01*
X158453874Y-103606385D01*
X158384911Y-103617601D01*
X158320831Y-103589752D01*
X158310576Y-103580156D01*
X158301589Y-103570737D01*
X158292712Y-103556344D01*
X158187010Y-103450642D01*
X158186013Y-103449597D01*
X158170632Y-103419784D01*
X158154564Y-103390358D01*
X158154671Y-103388849D01*
X158153978Y-103387504D01*
X158157156Y-103354112D01*
X158159548Y-103320666D01*
X158160454Y-103319454D01*
X158160598Y-103317949D01*
X158181329Y-103291569D01*
X158201420Y-103264733D01*
X158202836Y-103264204D01*
X158203772Y-103263014D01*
X158235484Y-103252027D01*
X158266884Y-103240316D01*
X158269566Y-103240220D01*
X158269792Y-103240142D01*
X158270044Y-103240203D01*
X158275730Y-103240000D01*
X158305000Y-103240000D01*
X158305000Y-101750000D01*
X158079703Y-101750000D01*
X158012664Y-101730315D01*
X157974227Y-101691199D01*
X157968408Y-101681786D01*
X157951463Y-101638815D01*
X157899441Y-101570215D01*
X157896341Y-101565199D01*
X157888588Y-101536973D01*
X157878190Y-101509615D01*
X157879443Y-101503676D01*
X157877836Y-101497824D01*
X157886572Y-101469893D01*
X157892617Y-101441251D01*
X157898295Y-101432416D01*
X157898694Y-101431141D01*
X157899603Y-101430380D01*
X157903014Y-101425074D01*
X157951463Y-101361185D01*
X157964348Y-101328509D01*
X158007254Y-101273366D01*
X158073162Y-101250173D01*
X158079703Y-101250000D01*
X158305000Y-101250000D01*
X158305000Y-99760000D01*
X157692155Y-99760000D01*
X157632627Y-99766401D01*
X157632619Y-99766403D01*
X157551011Y-99796841D01*
X157533227Y-99798112D01*
X157516524Y-99804343D01*
X157499102Y-99800553D01*
X157481319Y-99801825D01*
X157465671Y-99793280D01*
X157448251Y-99789491D01*
X157419997Y-99768340D01*
X157353974Y-99702317D01*
X157320489Y-99640994D01*
X157325473Y-99571302D01*
X157367345Y-99515369D01*
X157376550Y-99509102D01*
X157443656Y-99467712D01*
X157567712Y-99343656D01*
X157596549Y-99296902D01*
X157604136Y-99290078D01*
X157608375Y-99280797D01*
X157629674Y-99267108D01*
X157648497Y-99250179D01*
X157660132Y-99247534D01*
X157667153Y-99243023D01*
X157702088Y-99238000D01*
X157751029Y-99238000D01*
X157775221Y-99240383D01*
X157826080Y-99250500D01*
X157826082Y-99250500D01*
X157973920Y-99250500D01*
X158079791Y-99229440D01*
X158118913Y-99221658D01*
X158255495Y-99165084D01*
X158378416Y-99082951D01*
X158482951Y-98978416D01*
X158565084Y-98855495D01*
X158621658Y-98718913D01*
X158650500Y-98573918D01*
X158650500Y-98426082D01*
X158650500Y-98426079D01*
X158621659Y-98281092D01*
X158621658Y-98281091D01*
X158621658Y-98281087D01*
X158621656Y-98281082D01*
X158565087Y-98144511D01*
X158565080Y-98144498D01*
X158482951Y-98021584D01*
X158482948Y-98021580D01*
X158378419Y-97917051D01*
X158378415Y-97917048D01*
X158255501Y-97834919D01*
X158255488Y-97834912D01*
X158118917Y-97778343D01*
X158118907Y-97778340D01*
X157973920Y-97749500D01*
X157973918Y-97749500D01*
X157826082Y-97749500D01*
X157826077Y-97749500D01*
X157689635Y-97776640D01*
X157682656Y-97776015D01*
X157676127Y-97778562D01*
X157648310Y-97772942D01*
X157620043Y-97770413D01*
X157612857Y-97765779D01*
X157607641Y-97764726D01*
X157595237Y-97754418D01*
X157579076Y-97743998D01*
X157570206Y-97735388D01*
X157567712Y-97731344D01*
X157443656Y-97607288D01*
X157428802Y-97598126D01*
X157419072Y-97588681D01*
X157408281Y-97569599D01*
X157393618Y-97553297D01*
X157391418Y-97539780D01*
X157384679Y-97527862D01*
X157385917Y-97505972D01*
X157382397Y-97484334D01*
X157387853Y-97471776D01*
X157388627Y-97458104D01*
X157401504Y-97440358D01*
X157410240Y-97420252D01*
X157426007Y-97406590D01*
X157429662Y-97401554D01*
X157433586Y-97400023D01*
X157440348Y-97394165D01*
X157443342Y-97392318D01*
X157567315Y-97268345D01*
X157659356Y-97119124D01*
X157659358Y-97119119D01*
X157714505Y-96952697D01*
X157714506Y-96952690D01*
X157724999Y-96849986D01*
X157725000Y-96849973D01*
X157725000Y-96712500D01*
X152775001Y-96712500D01*
X152775001Y-96849986D01*
X152785494Y-96952697D01*
X152840641Y-97119119D01*
X152840643Y-97119124D01*
X152932684Y-97268345D01*
X153056655Y-97392316D01*
X153056659Y-97392319D01*
X153059656Y-97394168D01*
X153061279Y-97395972D01*
X153062323Y-97396798D01*
X153062181Y-97396976D01*
X153106381Y-97446116D01*
X153117602Y-97515079D01*
X153089759Y-97579161D01*
X153059661Y-97605241D01*
X153056349Y-97607283D01*
X153056343Y-97607288D01*
X152932289Y-97731342D01*
X152840187Y-97880663D01*
X152840186Y-97880666D01*
X152785001Y-98047203D01*
X152785001Y-98047204D01*
X152785000Y-98047204D01*
X152774500Y-98149983D01*
X152774500Y-98925001D01*
X152774501Y-98925019D01*
X152785000Y-99027796D01*
X152785001Y-99027799D01*
X152829604Y-99162401D01*
X152840186Y-99194334D01*
X152932288Y-99343656D01*
X153056344Y-99467712D01*
X153113637Y-99503050D01*
X153160362Y-99554997D01*
X153171585Y-99623960D01*
X153143742Y-99688042D01*
X153087546Y-99726295D01*
X152973484Y-99764092D01*
X152973481Y-99764093D01*
X152826648Y-99854661D01*
X152704661Y-99976648D01*
X152614093Y-100123481D01*
X152614091Y-100123486D01*
X152588087Y-100201961D01*
X152559826Y-100287247D01*
X152559826Y-100287248D01*
X152559825Y-100287248D01*
X152549500Y-100388315D01*
X152549500Y-100961669D01*
X152549501Y-100961687D01*
X152559825Y-101062752D01*
X152587853Y-101147332D01*
X152614092Y-101226516D01*
X152697157Y-101361186D01*
X152704661Y-101373351D01*
X152743629Y-101412319D01*
X152777114Y-101473642D01*
X152772130Y-101543334D01*
X152743629Y-101587681D01*
X152704661Y-101626648D01*
X152614093Y-101773481D01*
X152614091Y-101773486D01*
X152586719Y-101856088D01*
X152559826Y-101937247D01*
X152559826Y-101937248D01*
X152559825Y-101937248D01*
X152549500Y-102038315D01*
X152549500Y-102611669D01*
X152549501Y-102611687D01*
X152559825Y-102712752D01*
X152563845Y-102724882D01*
X152614092Y-102876516D01*
X152702018Y-103019067D01*
X152704661Y-103023351D01*
X152801131Y-103119821D01*
X152834616Y-103181144D01*
X152829632Y-103250836D01*
X152787760Y-103306769D01*
X152752455Y-103325207D01*
X152705886Y-103340638D01*
X152705875Y-103340643D01*
X152556654Y-103432684D01*
X152432684Y-103556654D01*
X152340643Y-103705875D01*
X152340641Y-103705880D01*
X152285494Y-103872302D01*
X152285493Y-103872309D01*
X152275000Y-103975013D01*
X152275000Y-104250000D01*
X153238500Y-104250000D01*
X153305539Y-104269685D01*
X153351294Y-104322489D01*
X153362500Y-104374000D01*
X153362500Y-104626000D01*
X153342815Y-104693039D01*
X153290011Y-104738794D01*
X153238500Y-104750000D01*
X152275001Y-104750000D01*
X152275001Y-105024986D01*
X152285494Y-105127697D01*
X152340641Y-105294119D01*
X152340643Y-105294124D01*
X152427785Y-105435403D01*
X152446225Y-105502796D01*
X152425302Y-105569459D01*
X152371660Y-105614229D01*
X152322246Y-105624500D01*
X150974500Y-105624500D01*
X150907461Y-105604815D01*
X150861706Y-105552011D01*
X150850500Y-105500500D01*
X150850500Y-96075013D01*
X152775000Y-96075013D01*
X152775000Y-96212500D01*
X153750000Y-96212500D01*
X154250000Y-96212500D01*
X156250000Y-96212500D01*
X156750000Y-96212500D01*
X157724999Y-96212500D01*
X157724999Y-96075028D01*
X157724998Y-96075013D01*
X157714505Y-95972302D01*
X157659358Y-95805880D01*
X157659356Y-95805875D01*
X157567315Y-95656654D01*
X157443345Y-95532684D01*
X157294124Y-95440643D01*
X157294119Y-95440641D01*
X157127697Y-95385494D01*
X157127690Y-95385493D01*
X157024986Y-95375000D01*
X156750000Y-95375000D01*
X156750000Y-96212500D01*
X156250000Y-96212500D01*
X156250000Y-95375000D01*
X155975029Y-95375000D01*
X155975012Y-95375001D01*
X155872302Y-95385494D01*
X155705880Y-95440641D01*
X155705875Y-95440643D01*
X155556654Y-95532684D01*
X155432683Y-95656655D01*
X155432680Y-95656659D01*
X155355538Y-95781726D01*
X155303590Y-95828451D01*
X155234628Y-95839672D01*
X155170546Y-95811829D01*
X155144462Y-95781726D01*
X155067319Y-95656659D01*
X155067316Y-95656655D01*
X154943345Y-95532684D01*
X154794124Y-95440643D01*
X154794119Y-95440641D01*
X154627697Y-95385494D01*
X154627690Y-95385493D01*
X154524986Y-95375000D01*
X154250000Y-95375000D01*
X154250000Y-96212500D01*
X153750000Y-96212500D01*
X153750000Y-95375000D01*
X153475029Y-95375000D01*
X153475012Y-95375001D01*
X153372302Y-95385494D01*
X153205880Y-95440641D01*
X153205875Y-95440643D01*
X153056654Y-95532684D01*
X152932684Y-95656654D01*
X152840643Y-95805875D01*
X152840641Y-95805880D01*
X152785494Y-95972302D01*
X152785493Y-95972309D01*
X152775000Y-96075013D01*
X150850500Y-96075013D01*
X150850500Y-94499500D01*
X150870185Y-94432461D01*
X150922989Y-94386706D01*
X150974500Y-94375500D01*
X161650971Y-94375500D01*
X161718010Y-94395185D01*
G37*
%TD.AperFunction*%
%TA.AperFunction,Conductor*%
G36*
X165578196Y-103355766D02*
G01*
X165596889Y-103356034D01*
X165611025Y-103365406D01*
X165627298Y-103370185D01*
X165639539Y-103384312D01*
X165655122Y-103394644D01*
X165661947Y-103410172D01*
X165673053Y-103422989D01*
X165675713Y-103441493D01*
X165683236Y-103458608D01*
X165682778Y-103490628D01*
X165682997Y-103492147D01*
X165682739Y-103493850D01*
X165649500Y-103703713D01*
X165649500Y-103916287D01*
X165682754Y-104126243D01*
X165746518Y-104322489D01*
X165748444Y-104328414D01*
X165844951Y-104517820D01*
X165969890Y-104689786D01*
X166120213Y-104840109D01*
X166292179Y-104965048D01*
X166292181Y-104965049D01*
X166292184Y-104965051D01*
X166481588Y-105061557D01*
X166683757Y-105127246D01*
X166893713Y-105160500D01*
X166893714Y-105160500D01*
X167106286Y-105160500D01*
X167106287Y-105160500D01*
X167316243Y-105127246D01*
X167518412Y-105061557D01*
X167707816Y-104965051D01*
X167729789Y-104949086D01*
X167879786Y-104840109D01*
X167879788Y-104840106D01*
X167879792Y-104840104D01*
X168030104Y-104689792D01*
X168030107Y-104689787D01*
X168031214Y-104688493D01*
X168031758Y-104688137D01*
X168033549Y-104686347D01*
X168033925Y-104686723D01*
X168089723Y-104650302D01*
X168159591Y-104649807D01*
X168218635Y-104687164D01*
X168248110Y-104750512D01*
X168249500Y-104769029D01*
X168249500Y-105500500D01*
X168229815Y-105567539D01*
X168177011Y-105613294D01*
X168125500Y-105624500D01*
X160477754Y-105624500D01*
X160410715Y-105604815D01*
X160364960Y-105552011D01*
X160355016Y-105482853D01*
X160372215Y-105435403D01*
X160459356Y-105294124D01*
X160459358Y-105294119D01*
X160514505Y-105127697D01*
X160514506Y-105127690D01*
X160524999Y-105024986D01*
X160525000Y-105024973D01*
X160525000Y-104750000D01*
X159561500Y-104750000D01*
X159494461Y-104730315D01*
X159448706Y-104677511D01*
X159437500Y-104626000D01*
X159437500Y-104374000D01*
X159457185Y-104306961D01*
X159509989Y-104261206D01*
X159561500Y-104250000D01*
X160524999Y-104250000D01*
X160524999Y-103975028D01*
X160524998Y-103975013D01*
X160514505Y-103872302D01*
X160459358Y-103705880D01*
X160459356Y-103705875D01*
X160367315Y-103556654D01*
X160363168Y-103551409D01*
X160337029Y-103486613D01*
X160350071Y-103417971D01*
X160398153Y-103367277D01*
X160460436Y-103350500D01*
X165560259Y-103350500D01*
X165578196Y-103355766D01*
G37*
%TD.AperFunction*%
%TA.AperFunction,Conductor*%
G36*
X165750344Y-96843425D02*
G01*
X165760651Y-96842168D01*
X165783295Y-96853101D01*
X165807421Y-96860185D01*
X165815891Y-96868838D01*
X165823571Y-96872546D01*
X165841575Y-96894245D01*
X165842085Y-96893875D01*
X165969890Y-97069786D01*
X166083818Y-97183714D01*
X166117303Y-97245037D01*
X166112319Y-97314729D01*
X166070447Y-97370662D01*
X166039471Y-97387577D01*
X165907912Y-97436646D01*
X165907906Y-97436649D01*
X165792812Y-97522809D01*
X165792809Y-97522812D01*
X165706649Y-97637906D01*
X165706645Y-97637913D01*
X165656403Y-97772620D01*
X165656401Y-97772627D01*
X165650000Y-97832155D01*
X165650000Y-98480000D01*
X166566988Y-98480000D01*
X166534075Y-98537007D01*
X166500000Y-98664174D01*
X166500000Y-98795826D01*
X166534075Y-98922993D01*
X166566988Y-98980000D01*
X165650000Y-98980000D01*
X165650000Y-99627844D01*
X165656401Y-99687372D01*
X165656403Y-99687379D01*
X165706645Y-99822086D01*
X165706649Y-99822093D01*
X165792809Y-99937187D01*
X165792812Y-99937190D01*
X165907906Y-100023350D01*
X165907913Y-100023354D01*
X166039470Y-100072422D01*
X166095404Y-100114293D01*
X166119821Y-100179758D01*
X166104969Y-100248031D01*
X166083819Y-100276285D01*
X165969889Y-100390215D01*
X165844951Y-100562179D01*
X165748444Y-100751585D01*
X165682753Y-100953760D01*
X165649500Y-101163713D01*
X165649500Y-101225500D01*
X165629815Y-101292539D01*
X165577011Y-101338294D01*
X165525500Y-101349500D01*
X163198230Y-101349500D01*
X163131191Y-101329815D01*
X163085436Y-101277011D01*
X163075191Y-101214821D01*
X163074839Y-101214804D01*
X163074921Y-101213181D01*
X163074873Y-101212886D01*
X163074999Y-101211646D01*
X163075000Y-101211641D01*
X163075000Y-101162500D01*
X161433808Y-101162500D01*
X161404367Y-101153855D01*
X161374381Y-101147332D01*
X161369365Y-101143577D01*
X161366769Y-101142815D01*
X161346131Y-101126185D01*
X161216020Y-100996074D01*
X161182536Y-100934751D01*
X161187520Y-100865059D01*
X161216017Y-100820716D01*
X161337917Y-100698816D01*
X161399238Y-100665334D01*
X161425596Y-100662500D01*
X163074999Y-100662500D01*
X163074999Y-100613360D01*
X163074998Y-100613345D01*
X163064680Y-100512347D01*
X163010453Y-100348699D01*
X163010448Y-100348688D01*
X162919947Y-100201965D01*
X162919944Y-100201961D01*
X162806017Y-100088034D01*
X162772532Y-100026711D01*
X162777516Y-99957019D01*
X162806013Y-99912676D01*
X162920340Y-99798350D01*
X163010908Y-99651516D01*
X163065174Y-99487753D01*
X163075500Y-99386677D01*
X163075499Y-98887873D01*
X163095183Y-98820835D01*
X163147987Y-98775080D01*
X163217146Y-98765136D01*
X163238503Y-98770168D01*
X163372302Y-98814505D01*
X163372309Y-98814506D01*
X163475019Y-98824999D01*
X163749999Y-98824999D01*
X164250000Y-98824999D01*
X164524972Y-98824999D01*
X164524986Y-98824998D01*
X164627697Y-98814505D01*
X164794119Y-98759358D01*
X164794124Y-98759356D01*
X164943345Y-98667315D01*
X165067315Y-98543345D01*
X165159356Y-98394124D01*
X165159358Y-98394119D01*
X165214505Y-98227697D01*
X165214506Y-98227690D01*
X165224999Y-98124986D01*
X165225000Y-98124973D01*
X165225000Y-97987500D01*
X164250000Y-97987500D01*
X164250000Y-98824999D01*
X163749999Y-98824999D01*
X163750000Y-98824998D01*
X163750000Y-97861500D01*
X163769685Y-97794461D01*
X163822489Y-97748706D01*
X163874000Y-97737500D01*
X164000000Y-97737500D01*
X164000000Y-97611500D01*
X164019685Y-97544461D01*
X164072489Y-97498706D01*
X164124000Y-97487500D01*
X165224999Y-97487500D01*
X165224999Y-97350028D01*
X165224998Y-97350013D01*
X165214505Y-97247302D01*
X165159358Y-97080880D01*
X165159356Y-97080875D01*
X165127727Y-97029597D01*
X165109287Y-96962205D01*
X165130209Y-96895541D01*
X165183851Y-96850771D01*
X165233266Y-96840500D01*
X165740382Y-96840500D01*
X165750344Y-96843425D01*
G37*
%TD.AperFunction*%
%TD*%
M02*
