%TF.GenerationSoftware,KiCad,Pcbnew,9.0.4*%
%TF.CreationDate,2025-09-12T11:32:33-04:00*%
%TF.ProjectId,Power-Board_rev1,506f7765-722d-4426-9f61-72645f726576,rev?*%
%TF.SameCoordinates,Original*%
%TF.FileFunction,Legend,Bot*%
%TF.FilePolarity,Positive*%
%FSLAX46Y46*%
G04 Gerber Fmt 4.6, Leading zero omitted, Abs format (unit mm)*
G04 Created by KiCad (PCBNEW 9.0.4) date 2025-09-12 11:32:33*
%MOMM*%
%LPD*%
G01*
G04 APERTURE LIST*
%ADD10C,0.100000*%
G04 APERTURE END LIST*
D10*
X163261027Y-101827580D02*
X163594360Y-100827580D01*
X163594360Y-100827580D02*
X163927693Y-101827580D01*
X164261027Y-100827580D02*
X164261027Y-101827580D01*
X164737217Y-100827580D02*
X164737217Y-101827580D01*
X164737217Y-101827580D02*
X165308645Y-100827580D01*
X165308645Y-100827580D02*
X165308645Y-101827580D01*
X163603884Y-104051390D02*
X163937217Y-104051390D01*
X164080074Y-103527580D02*
X163603884Y-103527580D01*
X163603884Y-103527580D02*
X163603884Y-104527580D01*
X163603884Y-104527580D02*
X164080074Y-104527580D01*
X164508646Y-103527580D02*
X164508646Y-104527580D01*
X164508646Y-104527580D02*
X165080074Y-103527580D01*
X165080074Y-103527580D02*
X165080074Y-104527580D01*
X163327693Y-99279961D02*
X163232455Y-99327580D01*
X163232455Y-99327580D02*
X163089598Y-99327580D01*
X163089598Y-99327580D02*
X162946741Y-99279961D01*
X162946741Y-99279961D02*
X162851503Y-99184723D01*
X162851503Y-99184723D02*
X162803884Y-99089485D01*
X162803884Y-99089485D02*
X162756265Y-98899009D01*
X162756265Y-98899009D02*
X162756265Y-98756152D01*
X162756265Y-98756152D02*
X162803884Y-98565676D01*
X162803884Y-98565676D02*
X162851503Y-98470438D01*
X162851503Y-98470438D02*
X162946741Y-98375200D01*
X162946741Y-98375200D02*
X163089598Y-98327580D01*
X163089598Y-98327580D02*
X163184836Y-98327580D01*
X163184836Y-98327580D02*
X163327693Y-98375200D01*
X163327693Y-98375200D02*
X163375312Y-98422819D01*
X163375312Y-98422819D02*
X163375312Y-98756152D01*
X163375312Y-98756152D02*
X163184836Y-98756152D01*
X163803884Y-98327580D02*
X163803884Y-99327580D01*
X163803884Y-99327580D02*
X164375312Y-98327580D01*
X164375312Y-98327580D02*
X164375312Y-99327580D01*
X164851503Y-98327580D02*
X164851503Y-99327580D01*
X164851503Y-99327580D02*
X165089598Y-99327580D01*
X165089598Y-99327580D02*
X165232455Y-99279961D01*
X165232455Y-99279961D02*
X165327693Y-99184723D01*
X165327693Y-99184723D02*
X165375312Y-99089485D01*
X165375312Y-99089485D02*
X165422931Y-98899009D01*
X165422931Y-98899009D02*
X165422931Y-98756152D01*
X165422931Y-98756152D02*
X165375312Y-98565676D01*
X165375312Y-98565676D02*
X165327693Y-98470438D01*
X165327693Y-98470438D02*
X165232455Y-98375200D01*
X165232455Y-98375200D02*
X165089598Y-98327580D01*
X165089598Y-98327580D02*
X164851503Y-98327580D01*
X161761027Y-96627580D02*
X162094360Y-95627580D01*
X162094360Y-95627580D02*
X162427693Y-96627580D01*
X162951503Y-96627580D02*
X163141979Y-96627580D01*
X163141979Y-96627580D02*
X163237217Y-96579961D01*
X163237217Y-96579961D02*
X163332455Y-96484723D01*
X163332455Y-96484723D02*
X163380074Y-96294247D01*
X163380074Y-96294247D02*
X163380074Y-95960914D01*
X163380074Y-95960914D02*
X163332455Y-95770438D01*
X163332455Y-95770438D02*
X163237217Y-95675200D01*
X163237217Y-95675200D02*
X163141979Y-95627580D01*
X163141979Y-95627580D02*
X162951503Y-95627580D01*
X162951503Y-95627580D02*
X162856265Y-95675200D01*
X162856265Y-95675200D02*
X162761027Y-95770438D01*
X162761027Y-95770438D02*
X162713408Y-95960914D01*
X162713408Y-95960914D02*
X162713408Y-96294247D01*
X162713408Y-96294247D02*
X162761027Y-96484723D01*
X162761027Y-96484723D02*
X162856265Y-96579961D01*
X162856265Y-96579961D02*
X162951503Y-96627580D01*
X163808646Y-96627580D02*
X163808646Y-95818057D01*
X163808646Y-95818057D02*
X163856265Y-95722819D01*
X163856265Y-95722819D02*
X163903884Y-95675200D01*
X163903884Y-95675200D02*
X163999122Y-95627580D01*
X163999122Y-95627580D02*
X164189598Y-95627580D01*
X164189598Y-95627580D02*
X164284836Y-95675200D01*
X164284836Y-95675200D02*
X164332455Y-95722819D01*
X164332455Y-95722819D02*
X164380074Y-95818057D01*
X164380074Y-95818057D02*
X164380074Y-96627580D01*
X164713408Y-96627580D02*
X165284836Y-96627580D01*
X164999122Y-95627580D02*
X164999122Y-96627580D01*
M02*
