%TF.GenerationSoftware,KiCad,Pcbnew,9.0.4*%
%TF.CreationDate,2025-09-12T11:32:33-04:00*%
%TF.ProjectId,Power-Board_rev1,506f7765-722d-4426-9f61-72645f726576,rev?*%
%TF.SameCoordinates,Original*%
%TF.FileFunction,Legend,Top*%
%TF.FilePolarity,Positive*%
%FSLAX46Y46*%
G04 Gerber Fmt 4.6, Leading zero omitted, Abs format (unit mm)*
G04 Created by KiCad (PCBNEW 9.0.4) date 2025-09-12 11:32:33*
%MOMM*%
%LPD*%
G01*
G04 APERTURE LIST*
%ADD10C,0.150000*%
%ADD11C,0.120000*%
%ADD12C,0.127000*%
%ADD13C,0.200000*%
G04 APERTURE END LIST*
D10*
X153833333Y-95359580D02*
X153785714Y-95407200D01*
X153785714Y-95407200D02*
X153642857Y-95454819D01*
X153642857Y-95454819D02*
X153547619Y-95454819D01*
X153547619Y-95454819D02*
X153404762Y-95407200D01*
X153404762Y-95407200D02*
X153309524Y-95311961D01*
X153309524Y-95311961D02*
X153261905Y-95216723D01*
X153261905Y-95216723D02*
X153214286Y-95026247D01*
X153214286Y-95026247D02*
X153214286Y-94883390D01*
X153214286Y-94883390D02*
X153261905Y-94692914D01*
X153261905Y-94692914D02*
X153309524Y-94597676D01*
X153309524Y-94597676D02*
X153404762Y-94502438D01*
X153404762Y-94502438D02*
X153547619Y-94454819D01*
X153547619Y-94454819D02*
X153642857Y-94454819D01*
X153642857Y-94454819D02*
X153785714Y-94502438D01*
X153785714Y-94502438D02*
X153833333Y-94550057D01*
X154166667Y-94454819D02*
X154785714Y-94454819D01*
X154785714Y-94454819D02*
X154452381Y-94835771D01*
X154452381Y-94835771D02*
X154595238Y-94835771D01*
X154595238Y-94835771D02*
X154690476Y-94883390D01*
X154690476Y-94883390D02*
X154738095Y-94931009D01*
X154738095Y-94931009D02*
X154785714Y-95026247D01*
X154785714Y-95026247D02*
X154785714Y-95264342D01*
X154785714Y-95264342D02*
X154738095Y-95359580D01*
X154738095Y-95359580D02*
X154690476Y-95407200D01*
X154690476Y-95407200D02*
X154595238Y-95454819D01*
X154595238Y-95454819D02*
X154309524Y-95454819D01*
X154309524Y-95454819D02*
X154214286Y-95407200D01*
X154214286Y-95407200D02*
X154166667Y-95359580D01*
X160233333Y-97054819D02*
X159900000Y-96578628D01*
X159661905Y-97054819D02*
X159661905Y-96054819D01*
X159661905Y-96054819D02*
X160042857Y-96054819D01*
X160042857Y-96054819D02*
X160138095Y-96102438D01*
X160138095Y-96102438D02*
X160185714Y-96150057D01*
X160185714Y-96150057D02*
X160233333Y-96245295D01*
X160233333Y-96245295D02*
X160233333Y-96388152D01*
X160233333Y-96388152D02*
X160185714Y-96483390D01*
X160185714Y-96483390D02*
X160138095Y-96531009D01*
X160138095Y-96531009D02*
X160042857Y-96578628D01*
X160042857Y-96578628D02*
X159661905Y-96578628D01*
X161185714Y-97054819D02*
X160614286Y-97054819D01*
X160900000Y-97054819D02*
X160900000Y-96054819D01*
X160900000Y-96054819D02*
X160804762Y-96197676D01*
X160804762Y-96197676D02*
X160709524Y-96292914D01*
X160709524Y-96292914D02*
X160614286Y-96340533D01*
X156333333Y-95359580D02*
X156285714Y-95407200D01*
X156285714Y-95407200D02*
X156142857Y-95454819D01*
X156142857Y-95454819D02*
X156047619Y-95454819D01*
X156047619Y-95454819D02*
X155904762Y-95407200D01*
X155904762Y-95407200D02*
X155809524Y-95311961D01*
X155809524Y-95311961D02*
X155761905Y-95216723D01*
X155761905Y-95216723D02*
X155714286Y-95026247D01*
X155714286Y-95026247D02*
X155714286Y-94883390D01*
X155714286Y-94883390D02*
X155761905Y-94692914D01*
X155761905Y-94692914D02*
X155809524Y-94597676D01*
X155809524Y-94597676D02*
X155904762Y-94502438D01*
X155904762Y-94502438D02*
X156047619Y-94454819D01*
X156047619Y-94454819D02*
X156142857Y-94454819D01*
X156142857Y-94454819D02*
X156285714Y-94502438D01*
X156285714Y-94502438D02*
X156333333Y-94550057D01*
X156714286Y-94550057D02*
X156761905Y-94502438D01*
X156761905Y-94502438D02*
X156857143Y-94454819D01*
X156857143Y-94454819D02*
X157095238Y-94454819D01*
X157095238Y-94454819D02*
X157190476Y-94502438D01*
X157190476Y-94502438D02*
X157238095Y-94550057D01*
X157238095Y-94550057D02*
X157285714Y-94645295D01*
X157285714Y-94645295D02*
X157285714Y-94740533D01*
X157285714Y-94740533D02*
X157238095Y-94883390D01*
X157238095Y-94883390D02*
X156666667Y-95454819D01*
X156666667Y-95454819D02*
X157285714Y-95454819D01*
X151633333Y-101954819D02*
X151157143Y-101954819D01*
X151157143Y-101954819D02*
X151157143Y-100954819D01*
X152490476Y-101954819D02*
X151919048Y-101954819D01*
X152204762Y-101954819D02*
X152204762Y-100954819D01*
X152204762Y-100954819D02*
X152109524Y-101097676D01*
X152109524Y-101097676D02*
X152014286Y-101192914D01*
X152014286Y-101192914D02*
X151919048Y-101240533D01*
X161033333Y-104859580D02*
X160985714Y-104907200D01*
X160985714Y-104907200D02*
X160842857Y-104954819D01*
X160842857Y-104954819D02*
X160747619Y-104954819D01*
X160747619Y-104954819D02*
X160604762Y-104907200D01*
X160604762Y-104907200D02*
X160509524Y-104811961D01*
X160509524Y-104811961D02*
X160461905Y-104716723D01*
X160461905Y-104716723D02*
X160414286Y-104526247D01*
X160414286Y-104526247D02*
X160414286Y-104383390D01*
X160414286Y-104383390D02*
X160461905Y-104192914D01*
X160461905Y-104192914D02*
X160509524Y-104097676D01*
X160509524Y-104097676D02*
X160604762Y-104002438D01*
X160604762Y-104002438D02*
X160747619Y-103954819D01*
X160747619Y-103954819D02*
X160842857Y-103954819D01*
X160842857Y-103954819D02*
X160985714Y-104002438D01*
X160985714Y-104002438D02*
X161033333Y-104050057D01*
X161985714Y-104954819D02*
X161414286Y-104954819D01*
X161700000Y-104954819D02*
X161700000Y-103954819D01*
X161700000Y-103954819D02*
X161604762Y-104097676D01*
X161604762Y-104097676D02*
X161509524Y-104192914D01*
X161509524Y-104192914D02*
X161414286Y-104240533D01*
X151333333Y-104859580D02*
X151285714Y-104907200D01*
X151285714Y-104907200D02*
X151142857Y-104954819D01*
X151142857Y-104954819D02*
X151047619Y-104954819D01*
X151047619Y-104954819D02*
X150904762Y-104907200D01*
X150904762Y-104907200D02*
X150809524Y-104811961D01*
X150809524Y-104811961D02*
X150761905Y-104716723D01*
X150761905Y-104716723D02*
X150714286Y-104526247D01*
X150714286Y-104526247D02*
X150714286Y-104383390D01*
X150714286Y-104383390D02*
X150761905Y-104192914D01*
X150761905Y-104192914D02*
X150809524Y-104097676D01*
X150809524Y-104097676D02*
X150904762Y-104002438D01*
X150904762Y-104002438D02*
X151047619Y-103954819D01*
X151047619Y-103954819D02*
X151142857Y-103954819D01*
X151142857Y-103954819D02*
X151285714Y-104002438D01*
X151285714Y-104002438D02*
X151333333Y-104050057D01*
X152190476Y-104288152D02*
X152190476Y-104954819D01*
X151952381Y-103907200D02*
X151714286Y-104621485D01*
X151714286Y-104621485D02*
X152333333Y-104621485D01*
X163833333Y-99659580D02*
X163785714Y-99707200D01*
X163785714Y-99707200D02*
X163642857Y-99754819D01*
X163642857Y-99754819D02*
X163547619Y-99754819D01*
X163547619Y-99754819D02*
X163404762Y-99707200D01*
X163404762Y-99707200D02*
X163309524Y-99611961D01*
X163309524Y-99611961D02*
X163261905Y-99516723D01*
X163261905Y-99516723D02*
X163214286Y-99326247D01*
X163214286Y-99326247D02*
X163214286Y-99183390D01*
X163214286Y-99183390D02*
X163261905Y-98992914D01*
X163261905Y-98992914D02*
X163309524Y-98897676D01*
X163309524Y-98897676D02*
X163404762Y-98802438D01*
X163404762Y-98802438D02*
X163547619Y-98754819D01*
X163547619Y-98754819D02*
X163642857Y-98754819D01*
X163642857Y-98754819D02*
X163785714Y-98802438D01*
X163785714Y-98802438D02*
X163833333Y-98850057D01*
X164738095Y-98754819D02*
X164261905Y-98754819D01*
X164261905Y-98754819D02*
X164214286Y-99231009D01*
X164214286Y-99231009D02*
X164261905Y-99183390D01*
X164261905Y-99183390D02*
X164357143Y-99135771D01*
X164357143Y-99135771D02*
X164595238Y-99135771D01*
X164595238Y-99135771D02*
X164690476Y-99183390D01*
X164690476Y-99183390D02*
X164738095Y-99231009D01*
X164738095Y-99231009D02*
X164785714Y-99326247D01*
X164785714Y-99326247D02*
X164785714Y-99564342D01*
X164785714Y-99564342D02*
X164738095Y-99659580D01*
X164738095Y-99659580D02*
X164690476Y-99707200D01*
X164690476Y-99707200D02*
X164595238Y-99754819D01*
X164595238Y-99754819D02*
X164357143Y-99754819D01*
X164357143Y-99754819D02*
X164261905Y-99707200D01*
X164261905Y-99707200D02*
X164214286Y-99659580D01*
X159904761Y-99550057D02*
X159809523Y-99502438D01*
X159809523Y-99502438D02*
X159714285Y-99407200D01*
X159714285Y-99407200D02*
X159571428Y-99264342D01*
X159571428Y-99264342D02*
X159476190Y-99216723D01*
X159476190Y-99216723D02*
X159380952Y-99216723D01*
X159428571Y-99454819D02*
X159333333Y-99407200D01*
X159333333Y-99407200D02*
X159238095Y-99311961D01*
X159238095Y-99311961D02*
X159190476Y-99121485D01*
X159190476Y-99121485D02*
X159190476Y-98788152D01*
X159190476Y-98788152D02*
X159238095Y-98597676D01*
X159238095Y-98597676D02*
X159333333Y-98502438D01*
X159333333Y-98502438D02*
X159428571Y-98454819D01*
X159428571Y-98454819D02*
X159619047Y-98454819D01*
X159619047Y-98454819D02*
X159714285Y-98502438D01*
X159714285Y-98502438D02*
X159809523Y-98597676D01*
X159809523Y-98597676D02*
X159857142Y-98788152D01*
X159857142Y-98788152D02*
X159857142Y-99121485D01*
X159857142Y-99121485D02*
X159809523Y-99311961D01*
X159809523Y-99311961D02*
X159714285Y-99407200D01*
X159714285Y-99407200D02*
X159619047Y-99454819D01*
X159619047Y-99454819D02*
X159428571Y-99454819D01*
X160809523Y-99454819D02*
X160238095Y-99454819D01*
X160523809Y-99454819D02*
X160523809Y-98454819D01*
X160523809Y-98454819D02*
X160428571Y-98597676D01*
X160428571Y-98597676D02*
X160333333Y-98692914D01*
X160333333Y-98692914D02*
X160238095Y-98740533D01*
X163966666Y-104354819D02*
X163966666Y-105069104D01*
X163966666Y-105069104D02*
X163919047Y-105211961D01*
X163919047Y-105211961D02*
X163823809Y-105307200D01*
X163823809Y-105307200D02*
X163680952Y-105354819D01*
X163680952Y-105354819D02*
X163585714Y-105354819D01*
X164966666Y-105354819D02*
X164395238Y-105354819D01*
X164680952Y-105354819D02*
X164680952Y-104354819D01*
X164680952Y-104354819D02*
X164585714Y-104497676D01*
X164585714Y-104497676D02*
X164490476Y-104592914D01*
X164490476Y-104592914D02*
X164395238Y-104640533D01*
X163733333Y-101654819D02*
X163400000Y-101178628D01*
X163161905Y-101654819D02*
X163161905Y-100654819D01*
X163161905Y-100654819D02*
X163542857Y-100654819D01*
X163542857Y-100654819D02*
X163638095Y-100702438D01*
X163638095Y-100702438D02*
X163685714Y-100750057D01*
X163685714Y-100750057D02*
X163733333Y-100845295D01*
X163733333Y-100845295D02*
X163733333Y-100988152D01*
X163733333Y-100988152D02*
X163685714Y-101083390D01*
X163685714Y-101083390D02*
X163638095Y-101131009D01*
X163638095Y-101131009D02*
X163542857Y-101178628D01*
X163542857Y-101178628D02*
X163161905Y-101178628D01*
X164114286Y-100750057D02*
X164161905Y-100702438D01*
X164161905Y-100702438D02*
X164257143Y-100654819D01*
X164257143Y-100654819D02*
X164495238Y-100654819D01*
X164495238Y-100654819D02*
X164590476Y-100702438D01*
X164590476Y-100702438D02*
X164638095Y-100750057D01*
X164638095Y-100750057D02*
X164685714Y-100845295D01*
X164685714Y-100845295D02*
X164685714Y-100940533D01*
X164685714Y-100940533D02*
X164638095Y-101083390D01*
X164638095Y-101083390D02*
X164066667Y-101654819D01*
X164066667Y-101654819D02*
X164685714Y-101654819D01*
D11*
%TO.C,C3*%
X153265000Y-97761252D02*
X153265000Y-97238748D01*
X154735000Y-97761252D02*
X154735000Y-97238748D01*
%TO.C,R1*%
X161577500Y-96245276D02*
X161577500Y-96754724D01*
X162622500Y-96245276D02*
X162622500Y-96754724D01*
%TO.C,C2*%
X155765000Y-97761252D02*
X155765000Y-97238748D01*
X157235000Y-97761252D02*
X157235000Y-97238748D01*
%TO.C,L1*%
X152790000Y-102860000D02*
X152790000Y-100140000D01*
X155810000Y-100140000D02*
X155810000Y-102860000D01*
%TO.C,C1*%
X158138748Y-103765000D02*
X158661252Y-103765000D01*
X158138748Y-105235000D02*
X158661252Y-105235000D01*
%TO.C,C4*%
X154661252Y-103765000D02*
X154138748Y-103765000D01*
X154661252Y-105235000D02*
X154138748Y-105235000D01*
%TO.C,C5*%
X163265000Y-96438748D02*
X163265000Y-96961252D01*
X164735000Y-96438748D02*
X164735000Y-96961252D01*
D12*
%TO.C,Q1*%
X157030000Y-99942500D02*
X160080000Y-99942500D01*
X157030000Y-103057500D02*
X160080000Y-103057500D01*
D13*
X156200000Y-100500000D02*
G75*
G02*
X156000000Y-100500000I-100000J0D01*
G01*
X156000000Y-100500000D02*
G75*
G02*
X156200000Y-100500000I100000J0D01*
G01*
D11*
%TO.C,J1*%
X165620000Y-94810000D02*
X167000000Y-94810000D01*
X165620000Y-96190000D02*
X165620000Y-94810000D01*
X165620000Y-97460000D02*
X165620000Y-105190000D01*
X165620000Y-97460000D02*
X168380000Y-97460000D01*
X165620000Y-105190000D02*
X168380000Y-105190000D01*
X168380000Y-97460000D02*
X168380000Y-105190000D01*
%TO.C,R2*%
X161577500Y-99745276D02*
X161577500Y-100254724D01*
X162622500Y-99745276D02*
X162622500Y-100254724D01*
%TD*%
M02*
