M48
; DRILL file {KiCad 9.0.0} date 2025-09-12T14:09:01-0400
; FORMAT={-:-/ absolute / metric / decimal}
; #@! TF.CreationDate,2025-09-12T14:09:01-04:00
; #@! TF.GenerationSoftware,Kicad,Pcbnew,9.0.0
; #@! TF.FileFunction,Plated,1,4,PTH
FMAT,2
METRIC
; #@! TA.AperFunction,Plated,PTH,ViaDrill
T1C0.200
; #@! TA.AperFunction,Plated,PTH,ViaDrill
T2C0.300
; #@! TA.AperFunction,Plated,PTH,ComponentDrill
T3C0.600
; #@! TA.AperFunction,Plated,PTH,ComponentDrill
T4C0.750
; #@! TA.AperFunction,Plated,PTH,ComponentDrill
T5C0.800
; #@! TA.AperFunction,Plated,PTH,ComponentDrill
T6C1.000
%
G90
G05
T1
X142.85Y-90.22
X142.85Y-91.47
X143.48Y-89.59
X143.48Y-90.84
X143.48Y-92.08
X144.11Y-90.22
X144.11Y-91.47
X144.73Y-89.59
X144.73Y-90.84
X144.73Y-92.08
X145.35Y-90.22
X145.36Y-91.47
T2
X116.41Y-92.67
X121.93Y-82.48
X122.99Y-101.87
X143.15Y-96.53
X148.34Y-92.09
X154.99Y-102.54
X155.98Y-97.15
X156.4Y-101.61
X157.04Y-85.1
X163.02Y-73.76
X163.85Y-84.42
T4
X115.34Y-84.09
X115.34Y-86.09
X115.34Y-88.09
X115.35Y-76.3
X115.35Y-78.3
T5
X125.96Y-98.2
X127.905Y-90.2
X128.5Y-98.2
X128.56Y-75.1
X130.445Y-90.2
X131.1Y-75.1
X133.7Y-75.1
X138.7Y-75.1
X155.205Y-87.3
X157.745Y-87.3
X158.51Y-82.72
X159.16Y-79.3
X161.0Y-71.8
X161.0Y-74.34
X161.05Y-82.72
X161.7Y-79.3
X167.4Y-91.6
X167.4Y-96.6
T6
X114.5Y-100.36
X114.5Y-102.9
X114.8Y-55.9
X114.8Y-58.44
X114.8Y-60.98
X114.8Y-63.52
X114.8Y-66.06
X114.8Y-68.6
X120.48Y-58.38
X120.48Y-60.92
X120.48Y-63.46
X120.48Y-66.0
X120.48Y-68.54
X128.1Y-58.38
X128.1Y-60.92
X128.1Y-63.46
X128.1Y-66.0
X128.1Y-68.54
X130.09Y-107.4
X132.63Y-107.4
X134.0Y-58.18
X134.0Y-60.72
X134.0Y-63.26
X134.0Y-65.8
X135.17Y-107.4
X137.71Y-107.4
X140.25Y-107.4
X142.79Y-107.4
X143.96Y-74.8
X145.33Y-107.4
X146.5Y-74.8
X147.87Y-107.4
X150.41Y-107.4
X152.95Y-107.4
X155.49Y-107.4
X156.08Y-58.54
X156.08Y-61.08
X156.08Y-63.62
X156.08Y-66.16
X156.08Y-68.7
X163.7Y-58.54
X163.7Y-61.08
X163.7Y-63.62
X163.7Y-66.16
X163.7Y-68.7
X169.3Y-56.1
X169.3Y-58.64
X169.3Y-61.18
X169.3Y-63.72
X169.3Y-66.26
X169.3Y-68.8
T3
G00X164.48Y-72.975
M15
G01X165.58Y-72.975
M16
G05
G00X164.48Y-81.625
M15
G01X165.58Y-81.625
M16
G05
G00X168.8Y-72.975
M15
G01X169.6Y-72.975
M16
G05
G00X168.8Y-81.625
M15
G01X169.6Y-81.625
M16
G05
M30
