%TF.GenerationSoftware,KiCad,Pcbnew,9.0.0*%
%TF.CreationDate,2025-09-12T14:39:53-04:00*%
%TF.ProjectId,Full-Board_rev1,46756c6c-2d42-46f6-9172-645f72657631,rev?*%
%TF.SameCoordinates,Original*%
%TF.FileFunction,Copper,L4,Bot*%
%TF.FilePolarity,Positive*%
%FSLAX46Y46*%
G04 Gerber Fmt 4.6, Leading zero omitted, Abs format (unit mm)*
G04 Created by KiCad (PCBNEW 9.0.0) date 2025-09-12 14:39:53*
%MOMM*%
%LPD*%
G01*
G04 APERTURE LIST*
G04 Aperture macros list*
%AMRoundRect*
0 Rectangle with rounded corners*
0 $1 Rounding radius*
0 $2 $3 $4 $5 $6 $7 $8 $9 X,Y pos of 4 corners*
0 Add a 4 corners polygon primitive as box body*
4,1,4,$2,$3,$4,$5,$6,$7,$8,$9,$2,$3,0*
0 Add four circle primitives for the rounded corners*
1,1,$1+$1,$2,$3*
1,1,$1+$1,$4,$5*
1,1,$1+$1,$6,$7*
1,1,$1+$1,$8,$9*
0 Add four rect primitives between the rounded corners*
20,1,$1+$1,$2,$3,$4,$5,0*
20,1,$1+$1,$4,$5,$6,$7,0*
20,1,$1+$1,$6,$7,$8,$9,0*
20,1,$1+$1,$8,$9,$2,$3,0*%
G04 Aperture macros list end*
%TA.AperFunction,ComponentPad*%
%ADD10C,1.150000*%
%TD*%
%TA.AperFunction,ComponentPad*%
%ADD11R,1.700000X1.700000*%
%TD*%
%TA.AperFunction,ComponentPad*%
%ADD12O,1.700000X1.700000*%
%TD*%
%TA.AperFunction,ComponentPad*%
%ADD13RoundRect,0.250000X-0.625000X0.350000X-0.625000X-0.350000X0.625000X-0.350000X0.625000X0.350000X0*%
%TD*%
%TA.AperFunction,ComponentPad*%
%ADD14O,1.750000X1.200000*%
%TD*%
%TA.AperFunction,ComponentPad*%
%ADD15C,1.600000*%
%TD*%
%TA.AperFunction,ComponentPad*%
%ADD16O,1.600000X1.600000*%
%TD*%
%TA.AperFunction,ComponentPad*%
%ADD17O,2.000000X0.900000*%
%TD*%
%TA.AperFunction,ComponentPad*%
%ADD18O,1.700000X0.900000*%
%TD*%
%TA.AperFunction,ViaPad*%
%ADD19C,0.600000*%
%TD*%
%TA.AperFunction,ViaPad*%
%ADD20C,0.400000*%
%TD*%
%TA.AperFunction,Conductor*%
%ADD21C,0.200000*%
%TD*%
%TA.AperFunction,Conductor*%
%ADD22C,0.700000*%
%TD*%
%TA.AperFunction,Conductor*%
%ADD23C,0.400000*%
%TD*%
G04 APERTURE END LIST*
D10*
%TO.P,C7,1*%
%TO.N,GND*%
X138700000Y-75100000D03*
%TO.P,C7,2*%
%TO.N,/GPIO9*%
X133700000Y-75100000D03*
%TD*%
D11*
%TO.P,J12,1,Pin_1*%
%TO.N,Net-(J12-Pin_1)*%
X114500000Y-102900000D03*
D12*
%TO.P,J12,2,Pin_2*%
%TO.N,Net-(J12-Pin_2)*%
X114500000Y-100360000D03*
%TD*%
D13*
%TO.P,J8,1,Pin_1*%
%TO.N,/6V*%
X115340000Y-84090000D03*
D14*
%TO.P,J8,2,Pin_2*%
%TO.N,GND*%
X115340000Y-86090000D03*
%TO.P,J8,3,Pin_3*%
%TO.N,unconnected-(J8-Pin_3-Pad3)*%
X115340000Y-88090000D03*
%TD*%
D11*
%TO.P,J5,1,Pin_1*%
%TO.N,GND*%
X120480000Y-58380000D03*
D12*
%TO.P,J5,2,Pin_2*%
%TO.N,/6V*%
X120480000Y-60920000D03*
%TO.P,J5,3,Pin_3*%
%TO.N,/M2_O2*%
X120480000Y-63460000D03*
%TO.P,J5,4,Pin_4*%
%TO.N,/M2_O1*%
X120480000Y-66000000D03*
%TO.P,J5,5,Pin_5*%
%TO.N,unconnected-(J5-Pin_5-Pad5)*%
X120480000Y-68540000D03*
%TD*%
D11*
%TO.P,J13,1,Pin_1*%
%TO.N,Net-(J11-Pin_2)*%
X134000000Y-65800000D03*
D12*
%TO.P,J13,2,Pin_2*%
%TO.N,GND*%
X134000000Y-63260000D03*
%TO.P,J13,3,Pin_3*%
%TO.N,/VIN*%
X134000000Y-60720000D03*
%TO.P,J13,4,Pin_4*%
X134000000Y-58180000D03*
%TD*%
D15*
%TO.P,R8,1*%
%TO.N,/3V3*%
X128500000Y-98200000D03*
D16*
%TO.P,R8,2*%
%TO.N,Net-(D1-PadA)*%
X125960000Y-98200000D03*
%TD*%
D15*
%TO.P,R3,1*%
%TO.N,Net-(J1-CC1)*%
X161700000Y-79300000D03*
D16*
%TO.P,R3,2*%
%TO.N,GND*%
X159160000Y-79300000D03*
%TD*%
D11*
%TO.P,J11,1,Pin_1*%
%TO.N,/3V3*%
X146500000Y-74800000D03*
D12*
%TO.P,J11,2,Pin_2*%
%TO.N,Net-(J11-Pin_2)*%
X143960000Y-74800000D03*
%TD*%
D15*
%TO.P,R7,1*%
%TO.N,/3V3*%
X128560000Y-75100000D03*
D16*
%TO.P,R7,2*%
%TO.N,/GPIO9*%
X131100000Y-75100000D03*
%TD*%
D11*
%TO.P,J6,1,Pin_1*%
%TO.N,GND*%
X114800000Y-68600000D03*
D12*
%TO.P,J6,2,Pin_2*%
%TO.N,/ENC_PH_A_M2*%
X114800000Y-66060000D03*
%TO.P,J6,3,Pin_3*%
%TO.N,/ENC_PH_B_M2*%
X114800000Y-63520000D03*
%TO.P,J6,4,Pin_4*%
%TO.N,/3V3*%
X114800000Y-60980000D03*
%TO.P,J6,5,Pin_5*%
%TO.N,/M2_O1*%
X114800000Y-58440000D03*
%TO.P,J6,6,Pin_6*%
%TO.N,/M2_O2*%
X114800000Y-55900000D03*
%TD*%
D15*
%TO.P,R5,1*%
%TO.N,/3V3*%
X161050000Y-82720000D03*
D16*
%TO.P,R5,2*%
%TO.N,/CHIP_PU*%
X158510000Y-82720000D03*
%TD*%
D11*
%TO.P,J4,1,Pin_1*%
%TO.N,GND*%
X128100000Y-58380000D03*
D12*
%TO.P,J4,2,Pin_2*%
%TO.N,/3V3*%
X128100000Y-60920000D03*
%TO.P,J4,3,Pin_3*%
%TO.N,/M2_PWM_EN*%
X128100000Y-63460000D03*
%TO.P,J4,4,Pin_4*%
%TO.N,/M2_PWM_PH*%
X128100000Y-66000000D03*
%TO.P,J4,5,Pin_5*%
%TO.N,unconnected-(J4-Pin_5-Pad5)*%
X128100000Y-68540000D03*
%TD*%
D17*
%TO.P,J1,S1,SHIELD*%
%TO.N,GND*%
X165030000Y-81625000D03*
%TO.P,J1,S2,SHIELD*%
X165030000Y-72975000D03*
D18*
%TO.P,J1,S3,SHIELD*%
X169200000Y-81625000D03*
%TO.P,J1,S4,SHIELD*%
X169200000Y-72975000D03*
%TD*%
D15*
%TO.P,R1,1*%
%TO.N,/Status_LED/LED_GPIO*%
X130445000Y-90200000D03*
D16*
%TO.P,R1,2*%
%TO.N,Net-(D2-DIN)*%
X127905000Y-90200000D03*
%TD*%
D11*
%TO.P,J7,1,Pin_1*%
%TO.N,GND*%
X169300000Y-68800000D03*
D12*
%TO.P,J7,2,Pin_2*%
%TO.N,/ENC_PH_A_M1*%
X169300000Y-66260000D03*
%TO.P,J7,3,Pin_3*%
%TO.N,/ENC_PH_B_M1*%
X169300000Y-63720000D03*
%TO.P,J7,4,Pin_4*%
%TO.N,/3V3*%
X169300000Y-61180000D03*
%TO.P,J7,5,Pin_5*%
%TO.N,/M1_O1*%
X169300000Y-58640000D03*
%TO.P,J7,6,Pin_6*%
%TO.N,/M1_O2*%
X169300000Y-56100000D03*
%TD*%
D11*
%TO.P,J3,1,Pin_1*%
%TO.N,GND*%
X163700000Y-58540000D03*
D12*
%TO.P,J3,2,Pin_2*%
%TO.N,/3V3*%
X163700000Y-61080000D03*
%TO.P,J3,3,Pin_3*%
%TO.N,/M1_PWM_EN*%
X163700000Y-63620000D03*
%TO.P,J3,4,Pin_4*%
%TO.N,/M1_PWM_PH*%
X163700000Y-66160000D03*
%TO.P,J3,5,Pin_5*%
%TO.N,unconnected-(J3-Pin_5-Pad5)*%
X163700000Y-68700000D03*
%TD*%
D11*
%TO.P,J2,1,Pin_1*%
%TO.N,GND*%
X156080000Y-58540000D03*
D12*
%TO.P,J2,2,Pin_2*%
%TO.N,/6V*%
X156080000Y-61080000D03*
%TO.P,J2,3,Pin_3*%
%TO.N,/M1_O2*%
X156080000Y-63620000D03*
%TO.P,J2,4,Pin_4*%
%TO.N,/M1_O1*%
X156080000Y-66160000D03*
%TO.P,J2,5,Pin_5*%
%TO.N,unconnected-(J2-Pin_5-Pad5)*%
X156080000Y-68700000D03*
%TD*%
D13*
%TO.P,J9,1,Pin_1*%
%TO.N,/VIN*%
X115350000Y-76300000D03*
D14*
%TO.P,J9,2,Pin_2*%
%TO.N,GND*%
X115350000Y-78300000D03*
%TD*%
D10*
%TO.P,C8,1*%
%TO.N,/CHIP_PU*%
X167400000Y-91600000D03*
%TO.P,C8,2*%
%TO.N,GND*%
X167400000Y-96600000D03*
%TD*%
D11*
%TO.P,J10,1,Pin_1*%
%TO.N,GND*%
X130090000Y-107400000D03*
D12*
%TO.P,J10,2,Pin_2*%
%TO.N,/3V3*%
X132630000Y-107400000D03*
%TO.P,J10,3,Pin_3*%
%TO.N,unconnected-(J10-Pin_3-Pad3)*%
X135170000Y-107400000D03*
%TO.P,J10,4,Pin_4*%
%TO.N,/IR_O1*%
X137710000Y-107400000D03*
%TO.P,J10,5,Pin_5*%
%TO.N,/IR_O2*%
X140250000Y-107400000D03*
%TO.P,J10,6,Pin_6*%
%TO.N,/IR_O3*%
X142790000Y-107400000D03*
%TO.P,J10,7,Pin_7*%
%TO.N,/IR_O4*%
X145330000Y-107400000D03*
%TO.P,J10,8,Pin_8*%
%TO.N,/IR_O5*%
X147870000Y-107400000D03*
%TO.P,J10,9,Pin_9*%
%TO.N,/IR_O6*%
X150410000Y-107400000D03*
%TO.P,J10,10,Pin_10*%
%TO.N,/IR_O7*%
X152950000Y-107400000D03*
%TO.P,J10,11,Pin_11*%
%TO.N,/IR_O8*%
X155490000Y-107400000D03*
%TD*%
D15*
%TO.P,R4,1*%
%TO.N,Net-(J1-CC2)*%
X161000000Y-74340000D03*
D16*
%TO.P,R4,2*%
%TO.N,GND*%
X161000000Y-71800000D03*
%TD*%
D15*
%TO.P,R6,1*%
%TO.N,/3V3*%
X157745000Y-87300000D03*
D16*
%TO.P,R6,2*%
%TO.N,Net-(Q2-GPIO8)*%
X155205000Y-87300000D03*
%TD*%
D19*
%TO.N,/3V3*%
X156400000Y-101610000D03*
X116410000Y-92670000D03*
D20*
%TO.N,GND*%
X143480000Y-89590000D03*
X144110000Y-91470000D03*
X143480000Y-92080000D03*
X144110000Y-90220000D03*
D19*
X163850000Y-84420000D03*
D20*
X143480000Y-90840000D03*
D19*
X163020000Y-73760000D03*
X143150000Y-96530000D03*
X157040000Y-85100000D03*
D20*
X142850000Y-91470000D03*
D19*
X154990000Y-102540000D03*
X155980000Y-97150000D03*
X122990000Y-101870000D03*
D20*
X144730000Y-90840000D03*
X145360000Y-91470000D03*
X145350000Y-90220000D03*
X142850000Y-90220000D03*
D19*
X121930000Y-82480000D03*
D20*
X144730000Y-92080000D03*
X144730000Y-89590000D03*
D19*
%TO.N,/CHIP_PU*%
X148340000Y-92090000D03*
%TD*%
D21*
%TO.N,/CHIP_PU*%
X148830000Y-91600000D02*
X148340000Y-92090000D01*
X167400000Y-91600000D02*
X148830000Y-91600000D01*
D22*
%TO.N,/6V*%
X124621000Y-56779000D02*
X120480000Y-60920000D01*
X151779000Y-56779000D02*
X124621000Y-56779000D01*
X115340000Y-84090000D02*
X113910000Y-82660000D01*
X119079000Y-67123000D02*
X119079000Y-62321000D01*
X119079000Y-62321000D02*
X120480000Y-60920000D01*
X113910000Y-82660000D02*
X113910000Y-72292000D01*
X156080000Y-61080000D02*
X151779000Y-56779000D01*
X113910000Y-72292000D02*
X119079000Y-67123000D01*
D23*
%TO.N,/VIN*%
X115350000Y-76300000D02*
X126939000Y-64711000D01*
X134000000Y-60720000D02*
X134000000Y-58180000D01*
X126939000Y-64711000D02*
X130009000Y-64711000D01*
X130009000Y-64711000D02*
X134000000Y-60720000D01*
%TO.N,Net-(J11-Pin_2)*%
X134960000Y-65800000D02*
X143960000Y-74800000D01*
X134000000Y-65800000D02*
X134960000Y-65800000D01*
%TD*%
M02*
