%TF.GenerationSoftware,KiCad,Pcbnew,9.0.0*%
%TF.CreationDate,2025-09-12T14:09:26-04:00*%
%TF.ProjectId,Full-Board_rev1,46756c6c-2d42-46f6-9172-645f72657631,rev?*%
%TF.SameCoordinates,Original*%
%TF.FileFunction,Copper,L2,Inr*%
%TF.FilePolarity,Positive*%
%FSLAX46Y46*%
G04 Gerber Fmt 4.6, Leading zero omitted, Abs format (unit mm)*
G04 Created by KiCad (PCBNEW 9.0.0) date 2025-09-12 14:09:26*
%MOMM*%
%LPD*%
G01*
G04 APERTURE LIST*
G04 Aperture macros list*
%AMRoundRect*
0 Rectangle with rounded corners*
0 $1 Rounding radius*
0 $2 $3 $4 $5 $6 $7 $8 $9 X,Y pos of 4 corners*
0 Add a 4 corners polygon primitive as box body*
4,1,4,$2,$3,$4,$5,$6,$7,$8,$9,$2,$3,0*
0 Add four circle primitives for the rounded corners*
1,1,$1+$1,$2,$3*
1,1,$1+$1,$4,$5*
1,1,$1+$1,$6,$7*
1,1,$1+$1,$8,$9*
0 Add four rect primitives between the rounded corners*
20,1,$1+$1,$2,$3,$4,$5,0*
20,1,$1+$1,$4,$5,$6,$7,0*
20,1,$1+$1,$6,$7,$8,$9,0*
20,1,$1+$1,$8,$9,$2,$3,0*%
G04 Aperture macros list end*
%TA.AperFunction,ComponentPad*%
%ADD10RoundRect,0.250000X-0.625000X0.350000X-0.625000X-0.350000X0.625000X-0.350000X0.625000X0.350000X0*%
%TD*%
%TA.AperFunction,ComponentPad*%
%ADD11O,1.750000X1.200000*%
%TD*%
%TA.AperFunction,ComponentPad*%
%ADD12C,1.150000*%
%TD*%
%TA.AperFunction,ComponentPad*%
%ADD13R,1.700000X1.700000*%
%TD*%
%TA.AperFunction,ComponentPad*%
%ADD14O,1.700000X1.700000*%
%TD*%
%TA.AperFunction,ComponentPad*%
%ADD15C,1.600000*%
%TD*%
%TA.AperFunction,ComponentPad*%
%ADD16O,1.600000X1.600000*%
%TD*%
%TA.AperFunction,ComponentPad*%
%ADD17O,2.000000X0.900000*%
%TD*%
%TA.AperFunction,ComponentPad*%
%ADD18O,1.700000X0.900000*%
%TD*%
%TA.AperFunction,ViaPad*%
%ADD19C,0.600000*%
%TD*%
%TA.AperFunction,ViaPad*%
%ADD20C,0.400000*%
%TD*%
G04 APERTURE END LIST*
D10*
%TO.N,/6V*%
%TO.C,J8*%
X115340000Y-84090000D03*
D11*
%TO.N,GND*%
X115340000Y-86090000D03*
%TO.N,unconnected-(J8-Pin_3-Pad3)*%
X115340000Y-88090000D03*
%TD*%
D12*
%TO.N,GND*%
%TO.C,C7*%
X138700000Y-75100000D03*
%TO.N,/GPIO9*%
X133700000Y-75100000D03*
%TD*%
D13*
%TO.N,Net-(J12-Pin_1)*%
%TO.C,J12*%
X114500000Y-102900000D03*
D14*
%TO.N,Net-(J12-Pin_2)*%
X114500000Y-100360000D03*
%TD*%
D13*
%TO.N,GND*%
%TO.C,J5*%
X120480000Y-58380000D03*
D14*
%TO.N,/6V*%
X120480000Y-60920000D03*
%TO.N,/M2_O2*%
X120480000Y-63460000D03*
%TO.N,/M2_O1*%
X120480000Y-66000000D03*
%TO.N,unconnected-(J5-Pin_5-Pad5)*%
X120480000Y-68540000D03*
%TD*%
D13*
%TO.N,Net-(J11-Pin_2)*%
%TO.C,J13*%
X134000000Y-65800000D03*
D14*
%TO.N,GND*%
X134000000Y-63260000D03*
%TO.N,/VIN*%
X134000000Y-60720000D03*
X134000000Y-58180000D03*
%TD*%
D15*
%TO.N,/3V3*%
%TO.C,R8*%
X128500000Y-98200000D03*
D16*
%TO.N,Net-(D1-PadA)*%
X125960000Y-98200000D03*
%TD*%
D15*
%TO.N,Net-(J1-CC1)*%
%TO.C,R3*%
X161700000Y-79300000D03*
D16*
%TO.N,GND*%
X159160000Y-79300000D03*
%TD*%
D13*
%TO.N,/3V3*%
%TO.C,J11*%
X146500000Y-74800000D03*
D14*
%TO.N,Net-(J11-Pin_2)*%
X143960000Y-74800000D03*
%TD*%
D15*
%TO.N,/3V3*%
%TO.C,R7*%
X128560000Y-75100000D03*
D16*
%TO.N,/GPIO9*%
X131100000Y-75100000D03*
%TD*%
D13*
%TO.N,GND*%
%TO.C,J6*%
X114800000Y-68600000D03*
D14*
%TO.N,/ENC_PH_A_M2*%
X114800000Y-66060000D03*
%TO.N,/ENC_PH_B_M2*%
X114800000Y-63520000D03*
%TO.N,/3V3*%
X114800000Y-60980000D03*
%TO.N,/M2_O1*%
X114800000Y-58440000D03*
%TO.N,/M2_O2*%
X114800000Y-55900000D03*
%TD*%
D15*
%TO.N,/3V3*%
%TO.C,R5*%
X161050000Y-82720000D03*
D16*
%TO.N,/CHIP_PU*%
X158510000Y-82720000D03*
%TD*%
D13*
%TO.N,GND*%
%TO.C,J4*%
X128100000Y-58380000D03*
D14*
%TO.N,/3V3*%
X128100000Y-60920000D03*
%TO.N,/M2_PWM_EN*%
X128100000Y-63460000D03*
%TO.N,/M2_PWM_PH*%
X128100000Y-66000000D03*
%TO.N,unconnected-(J4-Pin_5-Pad5)*%
X128100000Y-68540000D03*
%TD*%
D17*
%TO.N,GND*%
%TO.C,J1*%
X165030000Y-81625000D03*
X165030000Y-72975000D03*
D18*
X169200000Y-81625000D03*
X169200000Y-72975000D03*
%TD*%
D15*
%TO.N,/Status_LED/LED_GPIO*%
%TO.C,R1*%
X130445000Y-90200000D03*
D16*
%TO.N,Net-(D2-DIN)*%
X127905000Y-90200000D03*
%TD*%
D13*
%TO.N,GND*%
%TO.C,J7*%
X169300000Y-68800000D03*
D14*
%TO.N,/ENC_PH_A_M1*%
X169300000Y-66260000D03*
%TO.N,/ENC_PH_B_M1*%
X169300000Y-63720000D03*
%TO.N,/3V3*%
X169300000Y-61180000D03*
%TO.N,/M1_O1*%
X169300000Y-58640000D03*
%TO.N,/M1_O2*%
X169300000Y-56100000D03*
%TD*%
D13*
%TO.N,GND*%
%TO.C,J3*%
X163700000Y-58540000D03*
D14*
%TO.N,/3V3*%
X163700000Y-61080000D03*
%TO.N,/M1_PWM_EN*%
X163700000Y-63620000D03*
%TO.N,/M1_PWM_PH*%
X163700000Y-66160000D03*
%TO.N,unconnected-(J3-Pin_5-Pad5)*%
X163700000Y-68700000D03*
%TD*%
D13*
%TO.N,GND*%
%TO.C,J2*%
X156080000Y-58540000D03*
D14*
%TO.N,/6V*%
X156080000Y-61080000D03*
%TO.N,/M1_O2*%
X156080000Y-63620000D03*
%TO.N,/M1_O1*%
X156080000Y-66160000D03*
%TO.N,unconnected-(J2-Pin_5-Pad5)*%
X156080000Y-68700000D03*
%TD*%
D10*
%TO.N,/VIN*%
%TO.C,J9*%
X115350000Y-76300000D03*
D11*
%TO.N,GND*%
X115350000Y-78300000D03*
%TD*%
D12*
%TO.N,/CHIP_PU*%
%TO.C,C8*%
X167400000Y-91600000D03*
%TO.N,GND*%
X167400000Y-96600000D03*
%TD*%
D13*
%TO.N,GND*%
%TO.C,J10*%
X130090000Y-107400000D03*
D14*
%TO.N,/3V3*%
X132630000Y-107400000D03*
%TO.N,unconnected-(J10-Pin_3-Pad3)*%
X135170000Y-107400000D03*
%TO.N,/IR_O1*%
X137710000Y-107400000D03*
%TO.N,/IR_O2*%
X140250000Y-107400000D03*
%TO.N,/IR_O3*%
X142790000Y-107400000D03*
%TO.N,/IR_O4*%
X145330000Y-107400000D03*
%TO.N,/IR_O5*%
X147870000Y-107400000D03*
%TO.N,/IR_O6*%
X150410000Y-107400000D03*
%TO.N,/IR_O7*%
X152950000Y-107400000D03*
%TO.N,/IR_O8*%
X155490000Y-107400000D03*
%TD*%
D15*
%TO.N,Net-(J1-CC2)*%
%TO.C,R4*%
X161000000Y-74340000D03*
D16*
%TO.N,GND*%
X161000000Y-71800000D03*
%TD*%
D15*
%TO.N,/3V3*%
%TO.C,R6*%
X157745000Y-87300000D03*
D16*
%TO.N,Net-(Q2-GPIO8)*%
X155205000Y-87300000D03*
%TD*%
D19*
%TO.N,/3V3*%
X156400000Y-101610000D03*
X116410000Y-92670000D03*
D20*
%TO.N,GND*%
X143480000Y-89590000D03*
X144110000Y-91470000D03*
X143480000Y-92080000D03*
X144110000Y-90220000D03*
D19*
X163850000Y-84420000D03*
D20*
X143480000Y-90840000D03*
D19*
X163020000Y-73760000D03*
X143150000Y-96530000D03*
X157040000Y-85100000D03*
D20*
X142850000Y-91470000D03*
D19*
X154990000Y-102540000D03*
X155980000Y-97150000D03*
X122990000Y-101870000D03*
D20*
X144730000Y-90840000D03*
X145360000Y-91470000D03*
X145350000Y-90220000D03*
X142850000Y-90220000D03*
D19*
X121930000Y-82480000D03*
D20*
X144730000Y-92080000D03*
X144730000Y-89590000D03*
D19*
%TO.N,/CHIP_PU*%
X148340000Y-92090000D03*
%TD*%
%TA.AperFunction,Conductor*%
%TO.N,GND*%
G36*
X171502430Y-53470185D02*
G01*
X171548185Y-53522989D01*
X171559391Y-53574522D01*
X171554642Y-80690500D01*
X171549745Y-108651557D01*
X171549609Y-109425522D01*
X171529913Y-109492558D01*
X171477101Y-109538303D01*
X171425609Y-109549500D01*
X112574500Y-109549500D01*
X112507461Y-109529815D01*
X112461706Y-109477011D01*
X112450500Y-109425500D01*
X112450500Y-106502155D01*
X128740000Y-106502155D01*
X128740000Y-107150000D01*
X129656988Y-107150000D01*
X129624075Y-107207007D01*
X129590000Y-107334174D01*
X129590000Y-107465826D01*
X129624075Y-107592993D01*
X129656988Y-107650000D01*
X128740000Y-107650000D01*
X128740000Y-108297844D01*
X128746401Y-108357372D01*
X128746403Y-108357379D01*
X128796645Y-108492086D01*
X128796649Y-108492093D01*
X128882809Y-108607187D01*
X128882812Y-108607190D01*
X128997906Y-108693350D01*
X128997913Y-108693354D01*
X129132620Y-108743596D01*
X129132627Y-108743598D01*
X129192155Y-108749999D01*
X129192172Y-108750000D01*
X129840000Y-108750000D01*
X129840000Y-107833012D01*
X129897007Y-107865925D01*
X130024174Y-107900000D01*
X130155826Y-107900000D01*
X130282993Y-107865925D01*
X130340000Y-107833012D01*
X130340000Y-108750000D01*
X130987828Y-108750000D01*
X130987844Y-108749999D01*
X131047372Y-108743598D01*
X131047379Y-108743596D01*
X131182086Y-108693354D01*
X131182093Y-108693350D01*
X131297187Y-108607190D01*
X131297190Y-108607187D01*
X131383350Y-108492093D01*
X131383354Y-108492086D01*
X131432422Y-108360529D01*
X131474293Y-108304595D01*
X131539757Y-108280178D01*
X131608030Y-108295030D01*
X131636285Y-108316181D01*
X131750213Y-108430109D01*
X131922179Y-108555048D01*
X131922181Y-108555049D01*
X131922184Y-108555051D01*
X132111588Y-108651557D01*
X132313757Y-108717246D01*
X132523713Y-108750500D01*
X132523714Y-108750500D01*
X132736286Y-108750500D01*
X132736287Y-108750500D01*
X132946243Y-108717246D01*
X133148412Y-108651557D01*
X133337816Y-108555051D01*
X133424471Y-108492093D01*
X133509786Y-108430109D01*
X133509788Y-108430106D01*
X133509792Y-108430104D01*
X133660104Y-108279792D01*
X133660106Y-108279788D01*
X133660109Y-108279786D01*
X133785048Y-108107820D01*
X133785047Y-108107820D01*
X133785051Y-108107816D01*
X133789514Y-108099054D01*
X133837488Y-108048259D01*
X133905308Y-108031463D01*
X133971444Y-108053999D01*
X134010486Y-108099056D01*
X134014951Y-108107820D01*
X134139890Y-108279786D01*
X134290213Y-108430109D01*
X134462179Y-108555048D01*
X134462181Y-108555049D01*
X134462184Y-108555051D01*
X134651588Y-108651557D01*
X134853757Y-108717246D01*
X135063713Y-108750500D01*
X135063714Y-108750500D01*
X135276286Y-108750500D01*
X135276287Y-108750500D01*
X135486243Y-108717246D01*
X135688412Y-108651557D01*
X135877816Y-108555051D01*
X135964471Y-108492093D01*
X136049786Y-108430109D01*
X136049788Y-108430106D01*
X136049792Y-108430104D01*
X136200104Y-108279792D01*
X136200106Y-108279788D01*
X136200109Y-108279786D01*
X136325048Y-108107820D01*
X136325047Y-108107820D01*
X136325051Y-108107816D01*
X136329514Y-108099054D01*
X136377488Y-108048259D01*
X136445308Y-108031463D01*
X136511444Y-108053999D01*
X136550486Y-108099056D01*
X136554951Y-108107820D01*
X136679890Y-108279786D01*
X136830213Y-108430109D01*
X137002179Y-108555048D01*
X137002181Y-108555049D01*
X137002184Y-108555051D01*
X137191588Y-108651557D01*
X137393757Y-108717246D01*
X137603713Y-108750500D01*
X137603714Y-108750500D01*
X137816286Y-108750500D01*
X137816287Y-108750500D01*
X138026243Y-108717246D01*
X138228412Y-108651557D01*
X138417816Y-108555051D01*
X138504471Y-108492093D01*
X138589786Y-108430109D01*
X138589788Y-108430106D01*
X138589792Y-108430104D01*
X138740104Y-108279792D01*
X138740106Y-108279788D01*
X138740109Y-108279786D01*
X138865048Y-108107820D01*
X138865047Y-108107820D01*
X138865051Y-108107816D01*
X138869514Y-108099054D01*
X138917488Y-108048259D01*
X138985308Y-108031463D01*
X139051444Y-108053999D01*
X139090486Y-108099056D01*
X139094951Y-108107820D01*
X139219890Y-108279786D01*
X139370213Y-108430109D01*
X139542179Y-108555048D01*
X139542181Y-108555049D01*
X139542184Y-108555051D01*
X139731588Y-108651557D01*
X139933757Y-108717246D01*
X140143713Y-108750500D01*
X140143714Y-108750500D01*
X140356286Y-108750500D01*
X140356287Y-108750500D01*
X140566243Y-108717246D01*
X140768412Y-108651557D01*
X140957816Y-108555051D01*
X141044471Y-108492093D01*
X141129786Y-108430109D01*
X141129788Y-108430106D01*
X141129792Y-108430104D01*
X141280104Y-108279792D01*
X141280106Y-108279788D01*
X141280109Y-108279786D01*
X141405048Y-108107820D01*
X141405047Y-108107820D01*
X141405051Y-108107816D01*
X141409514Y-108099054D01*
X141457488Y-108048259D01*
X141525308Y-108031463D01*
X141591444Y-108053999D01*
X141630486Y-108099056D01*
X141634951Y-108107820D01*
X141759890Y-108279786D01*
X141910213Y-108430109D01*
X142082179Y-108555048D01*
X142082181Y-108555049D01*
X142082184Y-108555051D01*
X142271588Y-108651557D01*
X142473757Y-108717246D01*
X142683713Y-108750500D01*
X142683714Y-108750500D01*
X142896286Y-108750500D01*
X142896287Y-108750500D01*
X143106243Y-108717246D01*
X143308412Y-108651557D01*
X143497816Y-108555051D01*
X143584471Y-108492093D01*
X143669786Y-108430109D01*
X143669788Y-108430106D01*
X143669792Y-108430104D01*
X143820104Y-108279792D01*
X143820106Y-108279788D01*
X143820109Y-108279786D01*
X143945048Y-108107820D01*
X143945047Y-108107820D01*
X143945051Y-108107816D01*
X143949514Y-108099054D01*
X143997488Y-108048259D01*
X144065308Y-108031463D01*
X144131444Y-108053999D01*
X144170486Y-108099056D01*
X144174951Y-108107820D01*
X144299890Y-108279786D01*
X144450213Y-108430109D01*
X144622179Y-108555048D01*
X144622181Y-108555049D01*
X144622184Y-108555051D01*
X144811588Y-108651557D01*
X145013757Y-108717246D01*
X145223713Y-108750500D01*
X145223714Y-108750500D01*
X145436286Y-108750500D01*
X145436287Y-108750500D01*
X145646243Y-108717246D01*
X145848412Y-108651557D01*
X146037816Y-108555051D01*
X146124471Y-108492093D01*
X146209786Y-108430109D01*
X146209788Y-108430106D01*
X146209792Y-108430104D01*
X146360104Y-108279792D01*
X146360106Y-108279788D01*
X146360109Y-108279786D01*
X146485048Y-108107820D01*
X146485047Y-108107820D01*
X146485051Y-108107816D01*
X146489514Y-108099054D01*
X146537488Y-108048259D01*
X146605308Y-108031463D01*
X146671444Y-108053999D01*
X146710486Y-108099056D01*
X146714951Y-108107820D01*
X146839890Y-108279786D01*
X146990213Y-108430109D01*
X147162179Y-108555048D01*
X147162181Y-108555049D01*
X147162184Y-108555051D01*
X147351588Y-108651557D01*
X147553757Y-108717246D01*
X147763713Y-108750500D01*
X147763714Y-108750500D01*
X147976286Y-108750500D01*
X147976287Y-108750500D01*
X148186243Y-108717246D01*
X148388412Y-108651557D01*
X148577816Y-108555051D01*
X148664471Y-108492093D01*
X148749786Y-108430109D01*
X148749788Y-108430106D01*
X148749792Y-108430104D01*
X148900104Y-108279792D01*
X148900106Y-108279788D01*
X148900109Y-108279786D01*
X149025048Y-108107820D01*
X149025047Y-108107820D01*
X149025051Y-108107816D01*
X149029514Y-108099054D01*
X149077488Y-108048259D01*
X149145308Y-108031463D01*
X149211444Y-108053999D01*
X149250486Y-108099056D01*
X149254951Y-108107820D01*
X149379890Y-108279786D01*
X149530213Y-108430109D01*
X149702179Y-108555048D01*
X149702181Y-108555049D01*
X149702184Y-108555051D01*
X149891588Y-108651557D01*
X150093757Y-108717246D01*
X150303713Y-108750500D01*
X150303714Y-108750500D01*
X150516286Y-108750500D01*
X150516287Y-108750500D01*
X150726243Y-108717246D01*
X150928412Y-108651557D01*
X151117816Y-108555051D01*
X151204471Y-108492093D01*
X151289786Y-108430109D01*
X151289788Y-108430106D01*
X151289792Y-108430104D01*
X151440104Y-108279792D01*
X151440106Y-108279788D01*
X151440109Y-108279786D01*
X151565048Y-108107820D01*
X151565047Y-108107820D01*
X151565051Y-108107816D01*
X151569514Y-108099054D01*
X151617488Y-108048259D01*
X151685308Y-108031463D01*
X151751444Y-108053999D01*
X151790486Y-108099056D01*
X151794951Y-108107820D01*
X151919890Y-108279786D01*
X152070213Y-108430109D01*
X152242179Y-108555048D01*
X152242181Y-108555049D01*
X152242184Y-108555051D01*
X152431588Y-108651557D01*
X152633757Y-108717246D01*
X152843713Y-108750500D01*
X152843714Y-108750500D01*
X153056286Y-108750500D01*
X153056287Y-108750500D01*
X153266243Y-108717246D01*
X153468412Y-108651557D01*
X153657816Y-108555051D01*
X153744471Y-108492093D01*
X153829786Y-108430109D01*
X153829788Y-108430106D01*
X153829792Y-108430104D01*
X153980104Y-108279792D01*
X153980106Y-108279788D01*
X153980109Y-108279786D01*
X154105048Y-108107820D01*
X154105047Y-108107820D01*
X154105051Y-108107816D01*
X154109514Y-108099054D01*
X154157488Y-108048259D01*
X154225308Y-108031463D01*
X154291444Y-108053999D01*
X154330486Y-108099056D01*
X154334951Y-108107820D01*
X154459890Y-108279786D01*
X154610213Y-108430109D01*
X154782179Y-108555048D01*
X154782181Y-108555049D01*
X154782184Y-108555051D01*
X154971588Y-108651557D01*
X155173757Y-108717246D01*
X155383713Y-108750500D01*
X155383714Y-108750500D01*
X155596286Y-108750500D01*
X155596287Y-108750500D01*
X155806243Y-108717246D01*
X156008412Y-108651557D01*
X156197816Y-108555051D01*
X156284471Y-108492093D01*
X156369786Y-108430109D01*
X156369788Y-108430106D01*
X156369792Y-108430104D01*
X156520104Y-108279792D01*
X156520106Y-108279788D01*
X156520109Y-108279786D01*
X156645048Y-108107820D01*
X156645047Y-108107820D01*
X156645051Y-108107816D01*
X156741557Y-107918412D01*
X156807246Y-107716243D01*
X156840500Y-107506287D01*
X156840500Y-107293713D01*
X156807246Y-107083757D01*
X156741557Y-106881588D01*
X156645051Y-106692184D01*
X156645049Y-106692181D01*
X156645048Y-106692179D01*
X156520109Y-106520213D01*
X156369786Y-106369890D01*
X156197820Y-106244951D01*
X156008414Y-106148444D01*
X156008413Y-106148443D01*
X156008412Y-106148443D01*
X155806243Y-106082754D01*
X155806241Y-106082753D01*
X155806240Y-106082753D01*
X155644957Y-106057208D01*
X155596287Y-106049500D01*
X155383713Y-106049500D01*
X155335042Y-106057208D01*
X155173760Y-106082753D01*
X154971585Y-106148444D01*
X154782179Y-106244951D01*
X154610213Y-106369890D01*
X154459890Y-106520213D01*
X154334949Y-106692182D01*
X154330484Y-106700946D01*
X154282509Y-106751742D01*
X154214688Y-106768536D01*
X154148553Y-106745998D01*
X154109516Y-106700946D01*
X154105050Y-106692182D01*
X153980109Y-106520213D01*
X153829786Y-106369890D01*
X153657820Y-106244951D01*
X153468414Y-106148444D01*
X153468413Y-106148443D01*
X153468412Y-106148443D01*
X153266243Y-106082754D01*
X153266241Y-106082753D01*
X153266240Y-106082753D01*
X153104957Y-106057208D01*
X153056287Y-106049500D01*
X152843713Y-106049500D01*
X152795042Y-106057208D01*
X152633760Y-106082753D01*
X152431585Y-106148444D01*
X152242179Y-106244951D01*
X152070213Y-106369890D01*
X151919890Y-106520213D01*
X151794949Y-106692182D01*
X151790484Y-106700946D01*
X151742509Y-106751742D01*
X151674688Y-106768536D01*
X151608553Y-106745998D01*
X151569516Y-106700946D01*
X151565050Y-106692182D01*
X151440109Y-106520213D01*
X151289786Y-106369890D01*
X151117820Y-106244951D01*
X150928414Y-106148444D01*
X150928413Y-106148443D01*
X150928412Y-106148443D01*
X150726243Y-106082754D01*
X150726241Y-106082753D01*
X150726240Y-106082753D01*
X150564957Y-106057208D01*
X150516287Y-106049500D01*
X150303713Y-106049500D01*
X150255042Y-106057208D01*
X150093760Y-106082753D01*
X149891585Y-106148444D01*
X149702179Y-106244951D01*
X149530213Y-106369890D01*
X149379890Y-106520213D01*
X149254949Y-106692182D01*
X149250484Y-106700946D01*
X149202509Y-106751742D01*
X149134688Y-106768536D01*
X149068553Y-106745998D01*
X149029516Y-106700946D01*
X149025050Y-106692182D01*
X148900109Y-106520213D01*
X148749786Y-106369890D01*
X148577820Y-106244951D01*
X148388414Y-106148444D01*
X148388413Y-106148443D01*
X148388412Y-106148443D01*
X148186243Y-106082754D01*
X148186241Y-106082753D01*
X148186240Y-106082753D01*
X148024957Y-106057208D01*
X147976287Y-106049500D01*
X147763713Y-106049500D01*
X147715042Y-106057208D01*
X147553760Y-106082753D01*
X147351585Y-106148444D01*
X147162179Y-106244951D01*
X146990213Y-106369890D01*
X146839890Y-106520213D01*
X146714949Y-106692182D01*
X146710484Y-106700946D01*
X146662509Y-106751742D01*
X146594688Y-106768536D01*
X146528553Y-106745998D01*
X146489516Y-106700946D01*
X146485050Y-106692182D01*
X146360109Y-106520213D01*
X146209786Y-106369890D01*
X146037820Y-106244951D01*
X145848414Y-106148444D01*
X145848413Y-106148443D01*
X145848412Y-106148443D01*
X145646243Y-106082754D01*
X145646241Y-106082753D01*
X145646240Y-106082753D01*
X145484957Y-106057208D01*
X145436287Y-106049500D01*
X145223713Y-106049500D01*
X145175042Y-106057208D01*
X145013760Y-106082753D01*
X144811585Y-106148444D01*
X144622179Y-106244951D01*
X144450213Y-106369890D01*
X144299890Y-106520213D01*
X144174949Y-106692182D01*
X144170484Y-106700946D01*
X144122509Y-106751742D01*
X144054688Y-106768536D01*
X143988553Y-106745998D01*
X143949516Y-106700946D01*
X143945050Y-106692182D01*
X143820109Y-106520213D01*
X143669786Y-106369890D01*
X143497820Y-106244951D01*
X143308414Y-106148444D01*
X143308413Y-106148443D01*
X143308412Y-106148443D01*
X143106243Y-106082754D01*
X143106241Y-106082753D01*
X143106240Y-106082753D01*
X142944957Y-106057208D01*
X142896287Y-106049500D01*
X142683713Y-106049500D01*
X142635042Y-106057208D01*
X142473760Y-106082753D01*
X142271585Y-106148444D01*
X142082179Y-106244951D01*
X141910213Y-106369890D01*
X141759890Y-106520213D01*
X141634949Y-106692182D01*
X141630484Y-106700946D01*
X141582509Y-106751742D01*
X141514688Y-106768536D01*
X141448553Y-106745998D01*
X141409516Y-106700946D01*
X141405050Y-106692182D01*
X141280109Y-106520213D01*
X141129786Y-106369890D01*
X140957820Y-106244951D01*
X140768414Y-106148444D01*
X140768413Y-106148443D01*
X140768412Y-106148443D01*
X140566243Y-106082754D01*
X140566241Y-106082753D01*
X140566240Y-106082753D01*
X140404957Y-106057208D01*
X140356287Y-106049500D01*
X140143713Y-106049500D01*
X140095042Y-106057208D01*
X139933760Y-106082753D01*
X139731585Y-106148444D01*
X139542179Y-106244951D01*
X139370213Y-106369890D01*
X139219890Y-106520213D01*
X139094949Y-106692182D01*
X139090484Y-106700946D01*
X139042509Y-106751742D01*
X138974688Y-106768536D01*
X138908553Y-106745998D01*
X138869516Y-106700946D01*
X138865050Y-106692182D01*
X138740109Y-106520213D01*
X138589786Y-106369890D01*
X138417820Y-106244951D01*
X138228414Y-106148444D01*
X138228413Y-106148443D01*
X138228412Y-106148443D01*
X138026243Y-106082754D01*
X138026241Y-106082753D01*
X138026240Y-106082753D01*
X137864957Y-106057208D01*
X137816287Y-106049500D01*
X137603713Y-106049500D01*
X137555042Y-106057208D01*
X137393760Y-106082753D01*
X137191585Y-106148444D01*
X137002179Y-106244951D01*
X136830213Y-106369890D01*
X136679890Y-106520213D01*
X136554949Y-106692182D01*
X136550484Y-106700946D01*
X136502509Y-106751742D01*
X136434688Y-106768536D01*
X136368553Y-106745998D01*
X136329516Y-106700946D01*
X136325050Y-106692182D01*
X136200109Y-106520213D01*
X136049786Y-106369890D01*
X135877820Y-106244951D01*
X135688414Y-106148444D01*
X135688413Y-106148443D01*
X135688412Y-106148443D01*
X135486243Y-106082754D01*
X135486241Y-106082753D01*
X135486240Y-106082753D01*
X135324957Y-106057208D01*
X135276287Y-106049500D01*
X135063713Y-106049500D01*
X135015042Y-106057208D01*
X134853760Y-106082753D01*
X134651585Y-106148444D01*
X134462179Y-106244951D01*
X134290213Y-106369890D01*
X134139890Y-106520213D01*
X134014949Y-106692182D01*
X134010484Y-106700946D01*
X133962509Y-106751742D01*
X133894688Y-106768536D01*
X133828553Y-106745998D01*
X133789516Y-106700946D01*
X133785050Y-106692182D01*
X133660109Y-106520213D01*
X133509786Y-106369890D01*
X133337820Y-106244951D01*
X133148414Y-106148444D01*
X133148413Y-106148443D01*
X133148412Y-106148443D01*
X132946243Y-106082754D01*
X132946241Y-106082753D01*
X132946240Y-106082753D01*
X132784957Y-106057208D01*
X132736287Y-106049500D01*
X132523713Y-106049500D01*
X132475042Y-106057208D01*
X132313760Y-106082753D01*
X132111585Y-106148444D01*
X131922179Y-106244951D01*
X131750215Y-106369889D01*
X131636285Y-106483819D01*
X131574962Y-106517303D01*
X131505270Y-106512319D01*
X131449337Y-106470447D01*
X131432422Y-106439470D01*
X131383354Y-106307913D01*
X131383350Y-106307906D01*
X131297190Y-106192812D01*
X131297187Y-106192809D01*
X131182093Y-106106649D01*
X131182086Y-106106645D01*
X131047379Y-106056403D01*
X131047372Y-106056401D01*
X130987844Y-106050000D01*
X130340000Y-106050000D01*
X130340000Y-106966988D01*
X130282993Y-106934075D01*
X130155826Y-106900000D01*
X130024174Y-106900000D01*
X129897007Y-106934075D01*
X129840000Y-106966988D01*
X129840000Y-106050000D01*
X129192155Y-106050000D01*
X129132627Y-106056401D01*
X129132620Y-106056403D01*
X128997913Y-106106645D01*
X128997906Y-106106649D01*
X128882812Y-106192809D01*
X128882809Y-106192812D01*
X128796649Y-106307906D01*
X128796645Y-106307913D01*
X128746403Y-106442620D01*
X128746401Y-106442627D01*
X128740000Y-106502155D01*
X112450500Y-106502155D01*
X112450500Y-100253713D01*
X113149500Y-100253713D01*
X113149500Y-100466286D01*
X113182753Y-100676239D01*
X113248444Y-100878414D01*
X113344951Y-101067820D01*
X113469890Y-101239786D01*
X113583430Y-101353326D01*
X113616915Y-101414649D01*
X113611931Y-101484341D01*
X113570059Y-101540274D01*
X113539083Y-101557189D01*
X113407669Y-101606203D01*
X113407664Y-101606206D01*
X113292455Y-101692452D01*
X113292452Y-101692455D01*
X113206206Y-101807664D01*
X113206202Y-101807671D01*
X113155908Y-101942517D01*
X113150893Y-101989172D01*
X113149501Y-102002123D01*
X113149500Y-102002135D01*
X113149500Y-103797870D01*
X113149501Y-103797876D01*
X113155908Y-103857483D01*
X113206202Y-103992328D01*
X113206206Y-103992335D01*
X113292452Y-104107544D01*
X113292455Y-104107547D01*
X113407664Y-104193793D01*
X113407671Y-104193797D01*
X113542517Y-104244091D01*
X113542516Y-104244091D01*
X113549444Y-104244835D01*
X113602127Y-104250500D01*
X115397872Y-104250499D01*
X115457483Y-104244091D01*
X115592331Y-104193796D01*
X115707546Y-104107546D01*
X115793796Y-103992331D01*
X115844091Y-103857483D01*
X115850500Y-103797873D01*
X115850499Y-102002128D01*
X115844091Y-101942517D01*
X115807160Y-101843501D01*
X115793797Y-101807671D01*
X115793793Y-101807664D01*
X115707547Y-101692455D01*
X115707544Y-101692452D01*
X115627482Y-101632517D01*
X115627478Y-101632515D01*
X115592331Y-101606204D01*
X115457483Y-101555909D01*
X115457391Y-101555899D01*
X115453322Y-101554066D01*
X115429792Y-101533890D01*
X115426136Y-101531153D01*
X155599500Y-101531153D01*
X155599500Y-101688846D01*
X155630261Y-101843489D01*
X155630264Y-101843501D01*
X155690602Y-101989172D01*
X155690609Y-101989185D01*
X155778210Y-102120288D01*
X155778213Y-102120292D01*
X155889707Y-102231786D01*
X155889711Y-102231789D01*
X156020814Y-102319390D01*
X156020827Y-102319397D01*
X156166498Y-102379735D01*
X156166503Y-102379737D01*
X156321153Y-102410499D01*
X156321156Y-102410500D01*
X156321158Y-102410500D01*
X156478844Y-102410500D01*
X156478845Y-102410499D01*
X156633497Y-102379737D01*
X156779179Y-102319394D01*
X156910289Y-102231789D01*
X157021789Y-102120289D01*
X157109394Y-101989179D01*
X157169737Y-101843497D01*
X157200500Y-101688842D01*
X157200500Y-101531158D01*
X157200500Y-101531155D01*
X157200499Y-101531153D01*
X157182695Y-101441648D01*
X157169737Y-101376503D01*
X157160137Y-101353326D01*
X157109397Y-101230827D01*
X157109390Y-101230814D01*
X157021789Y-101099711D01*
X157021786Y-101099707D01*
X156910292Y-100988213D01*
X156910288Y-100988210D01*
X156779185Y-100900609D01*
X156779172Y-100900602D01*
X156633501Y-100840264D01*
X156633489Y-100840261D01*
X156478845Y-100809500D01*
X156478842Y-100809500D01*
X156321158Y-100809500D01*
X156321155Y-100809500D01*
X156166510Y-100840261D01*
X156166498Y-100840264D01*
X156020827Y-100900602D01*
X156020814Y-100900609D01*
X155889711Y-100988210D01*
X155889707Y-100988213D01*
X155778213Y-101099707D01*
X155778210Y-101099711D01*
X155690609Y-101230814D01*
X155690602Y-101230827D01*
X155630264Y-101376498D01*
X155630261Y-101376510D01*
X155599500Y-101531153D01*
X115426136Y-101531153D01*
X115404983Y-101515318D01*
X115403501Y-101511345D01*
X115400282Y-101508585D01*
X115391396Y-101478890D01*
X115380566Y-101449853D01*
X115381467Y-101445709D01*
X115380252Y-101441648D01*
X115388829Y-101411868D01*
X115395418Y-101381580D01*
X115398887Y-101376944D01*
X115399590Y-101374507D01*
X115402848Y-101371653D01*
X115416563Y-101353332D01*
X115530104Y-101239792D01*
X115536618Y-101230827D01*
X115655048Y-101067820D01*
X115655047Y-101067820D01*
X115655051Y-101067816D01*
X115751557Y-100878412D01*
X115817246Y-100676243D01*
X115850500Y-100466287D01*
X115850500Y-100253713D01*
X115817246Y-100043757D01*
X115751557Y-99841588D01*
X115655051Y-99652184D01*
X115655049Y-99652181D01*
X115655048Y-99652179D01*
X115530109Y-99480213D01*
X115379786Y-99329890D01*
X115207820Y-99204951D01*
X115018414Y-99108444D01*
X115018413Y-99108443D01*
X115018412Y-99108443D01*
X114816243Y-99042754D01*
X114816241Y-99042753D01*
X114816240Y-99042753D01*
X114654957Y-99017208D01*
X114606287Y-99009500D01*
X114393713Y-99009500D01*
X114345042Y-99017208D01*
X114183760Y-99042753D01*
X113981585Y-99108444D01*
X113792179Y-99204951D01*
X113620213Y-99329890D01*
X113469890Y-99480213D01*
X113344951Y-99652179D01*
X113248444Y-99841585D01*
X113182753Y-100043760D01*
X113149500Y-100253713D01*
X112450500Y-100253713D01*
X112450500Y-98097648D01*
X124659500Y-98097648D01*
X124659500Y-98302351D01*
X124691522Y-98504534D01*
X124754781Y-98699223D01*
X124847715Y-98881613D01*
X124968028Y-99047213D01*
X125112786Y-99191971D01*
X125267749Y-99304556D01*
X125278390Y-99312287D01*
X125394607Y-99371503D01*
X125460776Y-99405218D01*
X125460778Y-99405218D01*
X125460781Y-99405220D01*
X125565137Y-99439127D01*
X125655465Y-99468477D01*
X125729531Y-99480208D01*
X125857648Y-99500500D01*
X125857649Y-99500500D01*
X126062351Y-99500500D01*
X126062352Y-99500500D01*
X126264534Y-99468477D01*
X126459219Y-99405220D01*
X126641610Y-99312287D01*
X126789347Y-99204951D01*
X126807213Y-99191971D01*
X126807215Y-99191968D01*
X126807219Y-99191966D01*
X126951966Y-99047219D01*
X126951968Y-99047215D01*
X126951971Y-99047213D01*
X127072284Y-98881614D01*
X127072285Y-98881613D01*
X127072287Y-98881610D01*
X127119516Y-98788917D01*
X127167489Y-98738123D01*
X127235310Y-98721328D01*
X127301445Y-98743865D01*
X127340485Y-98788919D01*
X127387715Y-98881614D01*
X127508028Y-99047213D01*
X127652786Y-99191971D01*
X127807749Y-99304556D01*
X127818390Y-99312287D01*
X127934607Y-99371503D01*
X128000776Y-99405218D01*
X128000778Y-99405218D01*
X128000781Y-99405220D01*
X128105137Y-99439127D01*
X128195465Y-99468477D01*
X128269531Y-99480208D01*
X128397648Y-99500500D01*
X128397649Y-99500500D01*
X128602351Y-99500500D01*
X128602352Y-99500500D01*
X128804534Y-99468477D01*
X128999219Y-99405220D01*
X129181610Y-99312287D01*
X129329347Y-99204951D01*
X129347213Y-99191971D01*
X129347215Y-99191968D01*
X129347219Y-99191966D01*
X129491966Y-99047219D01*
X129491968Y-99047215D01*
X129491971Y-99047213D01*
X129544732Y-98974590D01*
X129612287Y-98881610D01*
X129705220Y-98699219D01*
X129768477Y-98504534D01*
X129800500Y-98302352D01*
X129800500Y-98097648D01*
X129768477Y-97895466D01*
X129705220Y-97700781D01*
X129705218Y-97700778D01*
X129705218Y-97700776D01*
X129651953Y-97596239D01*
X129612288Y-97518391D01*
X129612286Y-97518387D01*
X129491971Y-97352786D01*
X129347213Y-97208028D01*
X129181613Y-97087715D01*
X129181612Y-97087714D01*
X129181610Y-97087713D01*
X129124653Y-97058691D01*
X128999223Y-96994781D01*
X128804534Y-96931522D01*
X128629995Y-96903878D01*
X128602352Y-96899500D01*
X128397648Y-96899500D01*
X128373329Y-96903351D01*
X128195465Y-96931522D01*
X128000776Y-96994781D01*
X127818386Y-97087715D01*
X127652786Y-97208028D01*
X127508028Y-97352786D01*
X127387715Y-97518386D01*
X127340485Y-97611080D01*
X127292510Y-97661876D01*
X127224689Y-97678671D01*
X127158554Y-97656134D01*
X127119515Y-97611080D01*
X127111953Y-97596239D01*
X127072287Y-97518390D01*
X127064556Y-97507749D01*
X126951971Y-97352786D01*
X126807213Y-97208028D01*
X126641613Y-97087715D01*
X126641612Y-97087714D01*
X126641610Y-97087713D01*
X126584653Y-97058691D01*
X126459223Y-96994781D01*
X126264534Y-96931522D01*
X126089995Y-96903878D01*
X126062352Y-96899500D01*
X125857648Y-96899500D01*
X125833329Y-96903351D01*
X125655465Y-96931522D01*
X125460776Y-96994781D01*
X125278386Y-97087715D01*
X125112786Y-97208028D01*
X124968028Y-97352786D01*
X124847715Y-97518386D01*
X124754781Y-97700776D01*
X124691522Y-97895465D01*
X124659500Y-98097648D01*
X112450500Y-98097648D01*
X112450500Y-96515390D01*
X166325000Y-96515390D01*
X166325000Y-96684609D01*
X166351469Y-96851726D01*
X166403760Y-97012659D01*
X166480580Y-97163427D01*
X166481606Y-97164838D01*
X166481607Y-97164839D01*
X167000000Y-96646446D01*
X167000000Y-96652661D01*
X167027259Y-96754394D01*
X167079920Y-96845606D01*
X167154394Y-96920080D01*
X167245606Y-96972741D01*
X167347339Y-97000000D01*
X167353553Y-97000000D01*
X166835159Y-97518391D01*
X166836578Y-97519422D01*
X166987340Y-97596239D01*
X167148273Y-97648530D01*
X167315391Y-97675000D01*
X167484609Y-97675000D01*
X167651726Y-97648530D01*
X167812659Y-97596239D01*
X167963424Y-97519420D01*
X167964839Y-97518391D01*
X167446448Y-97000000D01*
X167452661Y-97000000D01*
X167554394Y-96972741D01*
X167645606Y-96920080D01*
X167720080Y-96845606D01*
X167772741Y-96754394D01*
X167800000Y-96652661D01*
X167800000Y-96646447D01*
X168318391Y-97164839D01*
X168319420Y-97163424D01*
X168396239Y-97012659D01*
X168448530Y-96851726D01*
X168475000Y-96684609D01*
X168475000Y-96515390D01*
X168448530Y-96348273D01*
X168396239Y-96187340D01*
X168319422Y-96036578D01*
X168318391Y-96035159D01*
X167800000Y-96553551D01*
X167800000Y-96547339D01*
X167772741Y-96445606D01*
X167720080Y-96354394D01*
X167645606Y-96279920D01*
X167554394Y-96227259D01*
X167452661Y-96200000D01*
X167446447Y-96200000D01*
X167964839Y-95681607D01*
X167964838Y-95681606D01*
X167963427Y-95680580D01*
X167812659Y-95603760D01*
X167651726Y-95551469D01*
X167484609Y-95525000D01*
X167315391Y-95525000D01*
X167148273Y-95551469D01*
X166987340Y-95603760D01*
X166836575Y-95680579D01*
X166836572Y-95680581D01*
X166835160Y-95681606D01*
X166835160Y-95681607D01*
X167353554Y-96200000D01*
X167347339Y-96200000D01*
X167245606Y-96227259D01*
X167154394Y-96279920D01*
X167079920Y-96354394D01*
X167027259Y-96445606D01*
X167000000Y-96547339D01*
X167000000Y-96553553D01*
X166481607Y-96035160D01*
X166481606Y-96035160D01*
X166480581Y-96036572D01*
X166480579Y-96036575D01*
X166403760Y-96187340D01*
X166351469Y-96348273D01*
X166325000Y-96515390D01*
X112450500Y-96515390D01*
X112450500Y-92591153D01*
X115609500Y-92591153D01*
X115609500Y-92748846D01*
X115640261Y-92903489D01*
X115640264Y-92903501D01*
X115700602Y-93049172D01*
X115700609Y-93049185D01*
X115788210Y-93180288D01*
X115788213Y-93180292D01*
X115899707Y-93291786D01*
X115899711Y-93291789D01*
X116030814Y-93379390D01*
X116030827Y-93379397D01*
X116176498Y-93439735D01*
X116176503Y-93439737D01*
X116331153Y-93470499D01*
X116331156Y-93470500D01*
X116331158Y-93470500D01*
X116488844Y-93470500D01*
X116488845Y-93470499D01*
X116643497Y-93439737D01*
X116789179Y-93379394D01*
X116920289Y-93291789D01*
X117031789Y-93180289D01*
X117119394Y-93049179D01*
X117179737Y-92903497D01*
X117210500Y-92748842D01*
X117210500Y-92591158D01*
X117210500Y-92591155D01*
X117210499Y-92591153D01*
X117186238Y-92469185D01*
X117179737Y-92436503D01*
X117173045Y-92420346D01*
X117119397Y-92290827D01*
X117119390Y-92290814D01*
X117031789Y-92159711D01*
X117031786Y-92159707D01*
X116920292Y-92048213D01*
X116920288Y-92048210D01*
X116864829Y-92011153D01*
X147539500Y-92011153D01*
X147539500Y-92168846D01*
X147570261Y-92323489D01*
X147570264Y-92323501D01*
X147630602Y-92469172D01*
X147630609Y-92469185D01*
X147718210Y-92600288D01*
X147718213Y-92600292D01*
X147829707Y-92711786D01*
X147829711Y-92711789D01*
X147960814Y-92799390D01*
X147960827Y-92799397D01*
X148106498Y-92859735D01*
X148106503Y-92859737D01*
X148261153Y-92890499D01*
X148261156Y-92890500D01*
X148261158Y-92890500D01*
X148418844Y-92890500D01*
X148418845Y-92890499D01*
X148573497Y-92859737D01*
X148719179Y-92799394D01*
X148850289Y-92711789D01*
X148961789Y-92600289D01*
X149049394Y-92469179D01*
X149109737Y-92323497D01*
X149140500Y-92168842D01*
X149140500Y-92011158D01*
X149140500Y-92011155D01*
X149140499Y-92011153D01*
X149130445Y-91960609D01*
X149109737Y-91856503D01*
X149109735Y-91856498D01*
X149049397Y-91710827D01*
X149049390Y-91710814D01*
X148961790Y-91579712D01*
X148961786Y-91579707D01*
X148897429Y-91515350D01*
X166324500Y-91515350D01*
X166324500Y-91684649D01*
X166350981Y-91851847D01*
X166403296Y-92012853D01*
X166456150Y-92116582D01*
X166478125Y-92159711D01*
X166480152Y-92163688D01*
X166579648Y-92300634D01*
X166579652Y-92300639D01*
X166699360Y-92420347D01*
X166699365Y-92420351D01*
X166766562Y-92469172D01*
X166836315Y-92519850D01*
X166932425Y-92568820D01*
X166987146Y-92596703D01*
X166987148Y-92596703D01*
X166987151Y-92596705D01*
X167073450Y-92624745D01*
X167148152Y-92649018D01*
X167315351Y-92675500D01*
X167315356Y-92675500D01*
X167484649Y-92675500D01*
X167651847Y-92649018D01*
X167812849Y-92596705D01*
X167963685Y-92519850D01*
X168100641Y-92420346D01*
X168220346Y-92300641D01*
X168319850Y-92163685D01*
X168396705Y-92012849D01*
X168449018Y-91851847D01*
X168475500Y-91684649D01*
X168475500Y-91515350D01*
X168449018Y-91348152D01*
X168396703Y-91187146D01*
X168368820Y-91132425D01*
X168319850Y-91036315D01*
X168307137Y-91018817D01*
X168220351Y-90899365D01*
X168220347Y-90899360D01*
X168100639Y-90779652D01*
X168100634Y-90779648D01*
X167963688Y-90680152D01*
X167963687Y-90680151D01*
X167963685Y-90680150D01*
X167916582Y-90656150D01*
X167812853Y-90603296D01*
X167651847Y-90550981D01*
X167484649Y-90524500D01*
X167484644Y-90524500D01*
X167315356Y-90524500D01*
X167315351Y-90524500D01*
X167148152Y-90550981D01*
X166987146Y-90603296D01*
X166836311Y-90680152D01*
X166699365Y-90779648D01*
X166699360Y-90779652D01*
X166579652Y-90899360D01*
X166579648Y-90899365D01*
X166480152Y-91036311D01*
X166403296Y-91187146D01*
X166350981Y-91348152D01*
X166324500Y-91515350D01*
X148897429Y-91515350D01*
X148850292Y-91468213D01*
X148850288Y-91468210D01*
X148719185Y-91380609D01*
X148719172Y-91380602D01*
X148573501Y-91320264D01*
X148573489Y-91320261D01*
X148418845Y-91289500D01*
X148418842Y-91289500D01*
X148261158Y-91289500D01*
X148261155Y-91289500D01*
X148106510Y-91320261D01*
X148106498Y-91320264D01*
X147960827Y-91380602D01*
X147960814Y-91380609D01*
X147829711Y-91468210D01*
X147829707Y-91468213D01*
X147718213Y-91579707D01*
X147718210Y-91579711D01*
X147630609Y-91710814D01*
X147630602Y-91710827D01*
X147570264Y-91856498D01*
X147570261Y-91856510D01*
X147539500Y-92011153D01*
X116864829Y-92011153D01*
X116789185Y-91960609D01*
X116789172Y-91960602D01*
X116643501Y-91900264D01*
X116643489Y-91900261D01*
X116488845Y-91869500D01*
X116488842Y-91869500D01*
X116331158Y-91869500D01*
X116331155Y-91869500D01*
X116176510Y-91900261D01*
X116176498Y-91900264D01*
X116030827Y-91960602D01*
X116030814Y-91960609D01*
X115899711Y-92048210D01*
X115899707Y-92048213D01*
X115788213Y-92159707D01*
X115788210Y-92159711D01*
X115700609Y-92290814D01*
X115700602Y-92290827D01*
X115640264Y-92436498D01*
X115640261Y-92436510D01*
X115609500Y-92591153D01*
X112450500Y-92591153D01*
X112450500Y-90097648D01*
X126604500Y-90097648D01*
X126604500Y-90302351D01*
X126636522Y-90504534D01*
X126699781Y-90699223D01*
X126792715Y-90881613D01*
X126913028Y-91047213D01*
X127057786Y-91191971D01*
X127192026Y-91289500D01*
X127223390Y-91312287D01*
X127339607Y-91371503D01*
X127405776Y-91405218D01*
X127405778Y-91405218D01*
X127405781Y-91405220D01*
X127510137Y-91439127D01*
X127600465Y-91468477D01*
X127701557Y-91484488D01*
X127802648Y-91500500D01*
X127802649Y-91500500D01*
X128007351Y-91500500D01*
X128007352Y-91500500D01*
X128209534Y-91468477D01*
X128404219Y-91405220D01*
X128586610Y-91312287D01*
X128679590Y-91244732D01*
X128752213Y-91191971D01*
X128752215Y-91191968D01*
X128752219Y-91191966D01*
X128896966Y-91047219D01*
X128896968Y-91047215D01*
X128896971Y-91047213D01*
X129017284Y-90881614D01*
X129017285Y-90881613D01*
X129017287Y-90881610D01*
X129064516Y-90788917D01*
X129112489Y-90738123D01*
X129180310Y-90721328D01*
X129246445Y-90743865D01*
X129285485Y-90788919D01*
X129332715Y-90881614D01*
X129453028Y-91047213D01*
X129597786Y-91191971D01*
X129732026Y-91289500D01*
X129763390Y-91312287D01*
X129879607Y-91371503D01*
X129945776Y-91405218D01*
X129945778Y-91405218D01*
X129945781Y-91405220D01*
X130050137Y-91439127D01*
X130140465Y-91468477D01*
X130241557Y-91484488D01*
X130342648Y-91500500D01*
X130342649Y-91500500D01*
X130547351Y-91500500D01*
X130547352Y-91500500D01*
X130749534Y-91468477D01*
X130944219Y-91405220D01*
X131126610Y-91312287D01*
X131219590Y-91244732D01*
X131292213Y-91191971D01*
X131292215Y-91191968D01*
X131292219Y-91191966D01*
X131436966Y-91047219D01*
X131436968Y-91047215D01*
X131436971Y-91047213D01*
X131544387Y-90899365D01*
X131557287Y-90881610D01*
X131650220Y-90699219D01*
X131713477Y-90504534D01*
X131745500Y-90302352D01*
X131745500Y-90097648D01*
X131713477Y-89895466D01*
X131650220Y-89700781D01*
X131650218Y-89700778D01*
X131650218Y-89700776D01*
X131604515Y-89611080D01*
X131557287Y-89518390D01*
X131549556Y-89507749D01*
X131436971Y-89352786D01*
X131292213Y-89208028D01*
X131126613Y-89087715D01*
X131126612Y-89087714D01*
X131126610Y-89087713D01*
X131069653Y-89058691D01*
X130944223Y-88994781D01*
X130749534Y-88931522D01*
X130574995Y-88903878D01*
X130547352Y-88899500D01*
X130342648Y-88899500D01*
X130318329Y-88903351D01*
X130140465Y-88931522D01*
X129945776Y-88994781D01*
X129763386Y-89087715D01*
X129597786Y-89208028D01*
X129453028Y-89352786D01*
X129332715Y-89518386D01*
X129285485Y-89611080D01*
X129237510Y-89661876D01*
X129169689Y-89678671D01*
X129103554Y-89656134D01*
X129064515Y-89611080D01*
X129063883Y-89609840D01*
X129017287Y-89518390D01*
X129009556Y-89507749D01*
X128896971Y-89352786D01*
X128752213Y-89208028D01*
X128586613Y-89087715D01*
X128586612Y-89087714D01*
X128586610Y-89087713D01*
X128529653Y-89058691D01*
X128404223Y-88994781D01*
X128209534Y-88931522D01*
X128034995Y-88903878D01*
X128007352Y-88899500D01*
X127802648Y-88899500D01*
X127778329Y-88903351D01*
X127600465Y-88931522D01*
X127405776Y-88994781D01*
X127223386Y-89087715D01*
X127057786Y-89208028D01*
X126913028Y-89352786D01*
X126792715Y-89518386D01*
X126699781Y-89700776D01*
X126636522Y-89895465D01*
X126604500Y-90097648D01*
X112450500Y-90097648D01*
X112450500Y-83689983D01*
X113964500Y-83689983D01*
X113964500Y-84490001D01*
X113964501Y-84490019D01*
X113975000Y-84592796D01*
X113975001Y-84592799D01*
X114030185Y-84759331D01*
X114030186Y-84759334D01*
X114122288Y-84908656D01*
X114246344Y-85032712D01*
X114310981Y-85072580D01*
X114357705Y-85124526D01*
X114368928Y-85193489D01*
X114341085Y-85257571D01*
X114333566Y-85265799D01*
X114225964Y-85373401D01*
X114124195Y-85513475D01*
X114045591Y-85667744D01*
X113992085Y-85832415D01*
X113990884Y-85839999D01*
X113990885Y-85840000D01*
X115059670Y-85840000D01*
X115039925Y-85859745D01*
X114990556Y-85945255D01*
X114965000Y-86040630D01*
X114965000Y-86139370D01*
X114990556Y-86234745D01*
X115039925Y-86320255D01*
X115059670Y-86340000D01*
X113990885Y-86340000D01*
X113992085Y-86347584D01*
X114045591Y-86512255D01*
X114124195Y-86666524D01*
X114225967Y-86806602D01*
X114348401Y-86929036D01*
X114431447Y-86989371D01*
X114474114Y-87044701D01*
X114480093Y-87114314D01*
X114447488Y-87176109D01*
X114431450Y-87190007D01*
X114348072Y-87250585D01*
X114225588Y-87373069D01*
X114225588Y-87373070D01*
X114225586Y-87373072D01*
X114204313Y-87402352D01*
X114123768Y-87513211D01*
X114045128Y-87667552D01*
X113991597Y-87832302D01*
X113989766Y-87843865D01*
X113964500Y-88003389D01*
X113964500Y-88176611D01*
X113991598Y-88347701D01*
X114045127Y-88512445D01*
X114123768Y-88666788D01*
X114225586Y-88806928D01*
X114348072Y-88929414D01*
X114488212Y-89031232D01*
X114642555Y-89109873D01*
X114807299Y-89163402D01*
X114978389Y-89190500D01*
X114978390Y-89190500D01*
X115701610Y-89190500D01*
X115701611Y-89190500D01*
X115872701Y-89163402D01*
X116037445Y-89109873D01*
X116191788Y-89031232D01*
X116331928Y-88929414D01*
X116454414Y-88806928D01*
X116556232Y-88666788D01*
X116634873Y-88512445D01*
X116688402Y-88347701D01*
X116715500Y-88176611D01*
X116715500Y-88003389D01*
X116688402Y-87832299D01*
X116634873Y-87667555D01*
X116556232Y-87513212D01*
X116454414Y-87373072D01*
X116331928Y-87250586D01*
X116259065Y-87197648D01*
X153904500Y-87197648D01*
X153904500Y-87402351D01*
X153936522Y-87604534D01*
X153999781Y-87799223D01*
X154092715Y-87981613D01*
X154213028Y-88147213D01*
X154357786Y-88291971D01*
X154512749Y-88404556D01*
X154523390Y-88412287D01*
X154639607Y-88471503D01*
X154705776Y-88505218D01*
X154705778Y-88505218D01*
X154705781Y-88505220D01*
X154810137Y-88539127D01*
X154900465Y-88568477D01*
X155001557Y-88584488D01*
X155102648Y-88600500D01*
X155102649Y-88600500D01*
X155307351Y-88600500D01*
X155307352Y-88600500D01*
X155509534Y-88568477D01*
X155704219Y-88505220D01*
X155886610Y-88412287D01*
X155979590Y-88344732D01*
X156052213Y-88291971D01*
X156052215Y-88291968D01*
X156052219Y-88291966D01*
X156196966Y-88147219D01*
X156196968Y-88147215D01*
X156196971Y-88147213D01*
X156317284Y-87981614D01*
X156317285Y-87981613D01*
X156317287Y-87981610D01*
X156364516Y-87888917D01*
X156412489Y-87838123D01*
X156480310Y-87821328D01*
X156546445Y-87843865D01*
X156585485Y-87888919D01*
X156632715Y-87981614D01*
X156753028Y-88147213D01*
X156897786Y-88291971D01*
X157052749Y-88404556D01*
X157063390Y-88412287D01*
X157179607Y-88471503D01*
X157245776Y-88505218D01*
X157245778Y-88505218D01*
X157245781Y-88505220D01*
X157350137Y-88539127D01*
X157440465Y-88568477D01*
X157541557Y-88584488D01*
X157642648Y-88600500D01*
X157642649Y-88600500D01*
X157847351Y-88600500D01*
X157847352Y-88600500D01*
X158049534Y-88568477D01*
X158244219Y-88505220D01*
X158426610Y-88412287D01*
X158519590Y-88344732D01*
X158592213Y-88291971D01*
X158592215Y-88291968D01*
X158592219Y-88291966D01*
X158736966Y-88147219D01*
X158736968Y-88147215D01*
X158736971Y-88147213D01*
X158789732Y-88074590D01*
X158857287Y-87981610D01*
X158950220Y-87799219D01*
X159013477Y-87604534D01*
X159045500Y-87402352D01*
X159045500Y-87197648D01*
X159025302Y-87070127D01*
X159013477Y-86995465D01*
X158950218Y-86800776D01*
X158904515Y-86711080D01*
X158857287Y-86618390D01*
X158849556Y-86607749D01*
X158736971Y-86452786D01*
X158592213Y-86308028D01*
X158426613Y-86187715D01*
X158426612Y-86187714D01*
X158426610Y-86187713D01*
X158331732Y-86139370D01*
X158244223Y-86094781D01*
X158049534Y-86031522D01*
X157874995Y-86003878D01*
X157847352Y-85999500D01*
X157642648Y-85999500D01*
X157618329Y-86003351D01*
X157440465Y-86031522D01*
X157245776Y-86094781D01*
X157063386Y-86187715D01*
X156897786Y-86308028D01*
X156753028Y-86452786D01*
X156632715Y-86618386D01*
X156585485Y-86711080D01*
X156537510Y-86761876D01*
X156469689Y-86778671D01*
X156403554Y-86756134D01*
X156364515Y-86711080D01*
X156363883Y-86709840D01*
X156317287Y-86618390D01*
X156309556Y-86607749D01*
X156196971Y-86452786D01*
X156052213Y-86308028D01*
X155886613Y-86187715D01*
X155886612Y-86187714D01*
X155886610Y-86187713D01*
X155791732Y-86139370D01*
X155704223Y-86094781D01*
X155509534Y-86031522D01*
X155334995Y-86003878D01*
X155307352Y-85999500D01*
X155102648Y-85999500D01*
X155078329Y-86003351D01*
X154900465Y-86031522D01*
X154705776Y-86094781D01*
X154523386Y-86187715D01*
X154357786Y-86308028D01*
X154213028Y-86452786D01*
X154092715Y-86618386D01*
X153999781Y-86800776D01*
X153936522Y-86995465D01*
X153904500Y-87197648D01*
X116259065Y-87197648D01*
X116246071Y-87188207D01*
X116243675Y-87186278D01*
X116225416Y-87160006D01*
X116205885Y-87134677D01*
X116205613Y-87131512D01*
X116203800Y-87128904D01*
X116202642Y-87096927D01*
X116199906Y-87065064D01*
X116201387Y-87062255D01*
X116201273Y-87059080D01*
X116217585Y-87031557D01*
X116232512Y-87003269D01*
X116236295Y-86999990D01*
X116236898Y-86998974D01*
X116238252Y-86998295D01*
X116248552Y-86989371D01*
X116331598Y-86929036D01*
X116454032Y-86806602D01*
X116555804Y-86666524D01*
X116634408Y-86512255D01*
X116687914Y-86347584D01*
X116689115Y-86340000D01*
X115620330Y-86340000D01*
X115640075Y-86320255D01*
X115689444Y-86234745D01*
X115715000Y-86139370D01*
X115715000Y-86040630D01*
X115689444Y-85945255D01*
X115640075Y-85859745D01*
X115620330Y-85840000D01*
X116689115Y-85840000D01*
X116689115Y-85839999D01*
X116687914Y-85832415D01*
X116634408Y-85667744D01*
X116555804Y-85513475D01*
X116454032Y-85373397D01*
X116346434Y-85265799D01*
X116312949Y-85204476D01*
X116317933Y-85134784D01*
X116359805Y-85078851D01*
X116368995Y-85072594D01*
X116433656Y-85032712D01*
X116557712Y-84908656D01*
X116649814Y-84759334D01*
X116704999Y-84592797D01*
X116715500Y-84490009D01*
X116715499Y-83689992D01*
X116704999Y-83587203D01*
X116649814Y-83420666D01*
X116557712Y-83271344D01*
X116433656Y-83147288D01*
X116284334Y-83055186D01*
X116117797Y-83000001D01*
X116117795Y-83000000D01*
X116015010Y-82989500D01*
X114664998Y-82989500D01*
X114664981Y-82989501D01*
X114562203Y-83000000D01*
X114562200Y-83000001D01*
X114395668Y-83055185D01*
X114395663Y-83055187D01*
X114246342Y-83147289D01*
X114122289Y-83271342D01*
X114030187Y-83420663D01*
X114030186Y-83420666D01*
X113975001Y-83587203D01*
X113975001Y-83587204D01*
X113975000Y-83587204D01*
X113964500Y-83689983D01*
X112450500Y-83689983D01*
X112450500Y-82617648D01*
X157209500Y-82617648D01*
X157209500Y-82822351D01*
X157241522Y-83024534D01*
X157304781Y-83219223D01*
X157397715Y-83401613D01*
X157518028Y-83567213D01*
X157662786Y-83711971D01*
X157817749Y-83824556D01*
X157828390Y-83832287D01*
X157944607Y-83891503D01*
X158010776Y-83925218D01*
X158010778Y-83925218D01*
X158010781Y-83925220D01*
X158115137Y-83959127D01*
X158205465Y-83988477D01*
X158306557Y-84004488D01*
X158407648Y-84020500D01*
X158407649Y-84020500D01*
X158612351Y-84020500D01*
X158612352Y-84020500D01*
X158814534Y-83988477D01*
X159009219Y-83925220D01*
X159191610Y-83832287D01*
X159284590Y-83764732D01*
X159357213Y-83711971D01*
X159357215Y-83711968D01*
X159357219Y-83711966D01*
X159501966Y-83567219D01*
X159501968Y-83567215D01*
X159501971Y-83567213D01*
X159622284Y-83401614D01*
X159622285Y-83401613D01*
X159622287Y-83401610D01*
X159669516Y-83308917D01*
X159717489Y-83258123D01*
X159785310Y-83241328D01*
X159851445Y-83263865D01*
X159890485Y-83308919D01*
X159937715Y-83401614D01*
X160058028Y-83567213D01*
X160202786Y-83711971D01*
X160357749Y-83824556D01*
X160368390Y-83832287D01*
X160484607Y-83891503D01*
X160550776Y-83925218D01*
X160550778Y-83925218D01*
X160550781Y-83925220D01*
X160655137Y-83959127D01*
X160745465Y-83988477D01*
X160846557Y-84004488D01*
X160947648Y-84020500D01*
X160947649Y-84020500D01*
X161152351Y-84020500D01*
X161152352Y-84020500D01*
X161354534Y-83988477D01*
X161549219Y-83925220D01*
X161731610Y-83832287D01*
X161824590Y-83764732D01*
X161897213Y-83711971D01*
X161897215Y-83711968D01*
X161897219Y-83711966D01*
X162041966Y-83567219D01*
X162041968Y-83567215D01*
X162041971Y-83567213D01*
X162094732Y-83494590D01*
X162162287Y-83401610D01*
X162255220Y-83219219D01*
X162318477Y-83024534D01*
X162350500Y-82822352D01*
X162350500Y-82617648D01*
X162318477Y-82415466D01*
X162301401Y-82362913D01*
X162258408Y-82230593D01*
X162255220Y-82220781D01*
X162255218Y-82220778D01*
X162255218Y-82220776D01*
X162162287Y-82038390D01*
X162072318Y-81914557D01*
X162072317Y-81914554D01*
X162041971Y-81872787D01*
X162041967Y-81872782D01*
X161897213Y-81728028D01*
X161731614Y-81607715D01*
X161557134Y-81518813D01*
X161557133Y-81518812D01*
X161557132Y-81518812D01*
X161549222Y-81514781D01*
X161354534Y-81451522D01*
X161179995Y-81423878D01*
X161152352Y-81419500D01*
X160947648Y-81419500D01*
X160923329Y-81423351D01*
X160745465Y-81451522D01*
X160550776Y-81514781D01*
X160368386Y-81607715D01*
X160202786Y-81728028D01*
X160058028Y-81872786D01*
X159937715Y-82038386D01*
X159890485Y-82131080D01*
X159842510Y-82181876D01*
X159774689Y-82198671D01*
X159708554Y-82176134D01*
X159669515Y-82131080D01*
X159668883Y-82129840D01*
X159622287Y-82038390D01*
X159614556Y-82027749D01*
X159501971Y-81872786D01*
X159357213Y-81728028D01*
X159191613Y-81607715D01*
X159191612Y-81607714D01*
X159191610Y-81607713D01*
X159134653Y-81578691D01*
X159009223Y-81514781D01*
X158814534Y-81451522D01*
X158639995Y-81423878D01*
X158612352Y-81419500D01*
X158407648Y-81419500D01*
X158383329Y-81423351D01*
X158205465Y-81451522D01*
X158010776Y-81514781D01*
X157828386Y-81607715D01*
X157662786Y-81728028D01*
X157518028Y-81872786D01*
X157397715Y-82038386D01*
X157304781Y-82220776D01*
X157241522Y-82415465D01*
X157209500Y-82617648D01*
X112450500Y-82617648D01*
X112450500Y-81374999D01*
X163561115Y-81374999D01*
X163561116Y-81375000D01*
X164313012Y-81375000D01*
X164295795Y-81384940D01*
X164239940Y-81440795D01*
X164200444Y-81509204D01*
X164180000Y-81585504D01*
X164180000Y-81664496D01*
X164200444Y-81740796D01*
X164239940Y-81809205D01*
X164295795Y-81865060D01*
X164313012Y-81875000D01*
X163561116Y-81875000D01*
X163566506Y-81902100D01*
X163566507Y-81902103D01*
X163638119Y-82074991D01*
X163638124Y-82075000D01*
X163742086Y-82230589D01*
X163742089Y-82230593D01*
X163874406Y-82362910D01*
X163874410Y-82362913D01*
X164029999Y-82466875D01*
X164030008Y-82466880D01*
X164202894Y-82538491D01*
X164202902Y-82538493D01*
X164386428Y-82574999D01*
X164386431Y-82575000D01*
X164780000Y-82575000D01*
X164780000Y-81925000D01*
X165280000Y-81925000D01*
X165280000Y-82575000D01*
X165673569Y-82575000D01*
X165673571Y-82574999D01*
X165857097Y-82538493D01*
X165857105Y-82538491D01*
X166029991Y-82466880D01*
X166030000Y-82466875D01*
X166185589Y-82362913D01*
X166185593Y-82362910D01*
X166317910Y-82230593D01*
X166317913Y-82230589D01*
X166421875Y-82075000D01*
X166421880Y-82074991D01*
X166493492Y-81902103D01*
X166493493Y-81902100D01*
X166498884Y-81875000D01*
X165746988Y-81875000D01*
X165764205Y-81865060D01*
X165820060Y-81809205D01*
X165859556Y-81740796D01*
X165880000Y-81664496D01*
X165880000Y-81585504D01*
X165859556Y-81509204D01*
X165820060Y-81440795D01*
X165764205Y-81384940D01*
X165746988Y-81375000D01*
X166498884Y-81375000D01*
X166498884Y-81374999D01*
X167881115Y-81374999D01*
X167881116Y-81375000D01*
X168633012Y-81375000D01*
X168615795Y-81384940D01*
X168559940Y-81440795D01*
X168520444Y-81509204D01*
X168500000Y-81585504D01*
X168500000Y-81664496D01*
X168520444Y-81740796D01*
X168559940Y-81809205D01*
X168615795Y-81865060D01*
X168633012Y-81875000D01*
X167881116Y-81875000D01*
X167886506Y-81902100D01*
X167886507Y-81902103D01*
X167958119Y-82074991D01*
X167958124Y-82075000D01*
X168062086Y-82230589D01*
X168062089Y-82230593D01*
X168194406Y-82362910D01*
X168194410Y-82362913D01*
X168349999Y-82466875D01*
X168350008Y-82466880D01*
X168522894Y-82538491D01*
X168522902Y-82538493D01*
X168706428Y-82574999D01*
X168706431Y-82575000D01*
X168950000Y-82575000D01*
X168950000Y-81925000D01*
X169450000Y-81925000D01*
X169450000Y-82575000D01*
X169693569Y-82575000D01*
X169693571Y-82574999D01*
X169877097Y-82538493D01*
X169877105Y-82538491D01*
X170049991Y-82466880D01*
X170050000Y-82466875D01*
X170205589Y-82362913D01*
X170205593Y-82362910D01*
X170337910Y-82230593D01*
X170337913Y-82230589D01*
X170441875Y-82075000D01*
X170441880Y-82074991D01*
X170513492Y-81902103D01*
X170513493Y-81902100D01*
X170518884Y-81875000D01*
X169766988Y-81875000D01*
X169784205Y-81865060D01*
X169840060Y-81809205D01*
X169879556Y-81740796D01*
X169900000Y-81664496D01*
X169900000Y-81585504D01*
X169879556Y-81509204D01*
X169840060Y-81440795D01*
X169784205Y-81384940D01*
X169766988Y-81375000D01*
X170518884Y-81375000D01*
X170518884Y-81374999D01*
X170513493Y-81347899D01*
X170513492Y-81347896D01*
X170441880Y-81175008D01*
X170441875Y-81174999D01*
X170337913Y-81019410D01*
X170337910Y-81019406D01*
X170205593Y-80887089D01*
X170205589Y-80887086D01*
X170050000Y-80783124D01*
X170049991Y-80783119D01*
X169877105Y-80711508D01*
X169877097Y-80711506D01*
X169693570Y-80675000D01*
X169450000Y-80675000D01*
X169450000Y-81325000D01*
X168950000Y-81325000D01*
X168950000Y-80675000D01*
X168706430Y-80675000D01*
X168522902Y-80711506D01*
X168522894Y-80711508D01*
X168350008Y-80783119D01*
X168349999Y-80783124D01*
X168194410Y-80887086D01*
X168194406Y-80887089D01*
X168062089Y-81019406D01*
X168062086Y-81019410D01*
X167958124Y-81174999D01*
X167958119Y-81175008D01*
X167886507Y-81347896D01*
X167886506Y-81347899D01*
X167881115Y-81374999D01*
X166498884Y-81374999D01*
X166493493Y-81347899D01*
X166493492Y-81347896D01*
X166421880Y-81175008D01*
X166421875Y-81174999D01*
X166317913Y-81019410D01*
X166317910Y-81019406D01*
X166185593Y-80887089D01*
X166185589Y-80887086D01*
X166030000Y-80783124D01*
X166029990Y-80783119D01*
X165921926Y-80738357D01*
X165867523Y-80694516D01*
X165845458Y-80628221D01*
X165862738Y-80560522D01*
X165881695Y-80536118D01*
X165920500Y-80497314D01*
X165986392Y-80383186D01*
X166020500Y-80255892D01*
X166020500Y-80124108D01*
X165986392Y-79996814D01*
X165920500Y-79882686D01*
X165827314Y-79789500D01*
X165770250Y-79756554D01*
X165713187Y-79723608D01*
X165625079Y-79700000D01*
X165585892Y-79689500D01*
X165454108Y-79689500D01*
X165326812Y-79723608D01*
X165212686Y-79789500D01*
X165212683Y-79789502D01*
X165119502Y-79882683D01*
X165119500Y-79882686D01*
X165053608Y-79996812D01*
X165019500Y-80124108D01*
X165019500Y-80255891D01*
X165053608Y-80383187D01*
X165086554Y-80440250D01*
X165119500Y-80497314D01*
X165212686Y-80590500D01*
X165218000Y-80593568D01*
X165266216Y-80644135D01*
X165280000Y-80700955D01*
X165280000Y-81325000D01*
X164780000Y-81325000D01*
X164780000Y-80675000D01*
X164386430Y-80675000D01*
X164202902Y-80711506D01*
X164202894Y-80711508D01*
X164030008Y-80783119D01*
X164029999Y-80783124D01*
X163874410Y-80887086D01*
X163874406Y-80887089D01*
X163742089Y-81019406D01*
X163742086Y-81019410D01*
X163638124Y-81174999D01*
X163638119Y-81175008D01*
X163566507Y-81347896D01*
X163566506Y-81347899D01*
X163561115Y-81374999D01*
X112450500Y-81374999D01*
X112450500Y-75899983D01*
X113974500Y-75899983D01*
X113974500Y-76700001D01*
X113974501Y-76700019D01*
X113985000Y-76802796D01*
X113985001Y-76802799D01*
X114040185Y-76969331D01*
X114040186Y-76969334D01*
X114132288Y-77118656D01*
X114256344Y-77242712D01*
X114320981Y-77282580D01*
X114367705Y-77334526D01*
X114378928Y-77403489D01*
X114351085Y-77467571D01*
X114343566Y-77475799D01*
X114235964Y-77583401D01*
X114134195Y-77723475D01*
X114055591Y-77877744D01*
X114002085Y-78042415D01*
X114000884Y-78049999D01*
X114000885Y-78050000D01*
X115069670Y-78050000D01*
X115049925Y-78069745D01*
X115000556Y-78155255D01*
X114975000Y-78250630D01*
X114975000Y-78349370D01*
X115000556Y-78444745D01*
X115049925Y-78530255D01*
X115069670Y-78550000D01*
X114000885Y-78550000D01*
X114002085Y-78557584D01*
X114055591Y-78722255D01*
X114134195Y-78876524D01*
X114235967Y-79016602D01*
X114358397Y-79139032D01*
X114498475Y-79240804D01*
X114652742Y-79319408D01*
X114817415Y-79372914D01*
X114988429Y-79400000D01*
X115100000Y-79400000D01*
X115100000Y-78580330D01*
X115119745Y-78600075D01*
X115205255Y-78649444D01*
X115300630Y-78675000D01*
X115399370Y-78675000D01*
X115494745Y-78649444D01*
X115580255Y-78600075D01*
X115600000Y-78580330D01*
X115600000Y-79400000D01*
X115711571Y-79400000D01*
X115771779Y-79390464D01*
X115882584Y-79372914D01*
X116047257Y-79319408D01*
X116201524Y-79240804D01*
X116341602Y-79139032D01*
X116430634Y-79050000D01*
X157883391Y-79050000D01*
X158844314Y-79050000D01*
X158839920Y-79054394D01*
X158787259Y-79145606D01*
X158760000Y-79247339D01*
X158760000Y-79352661D01*
X158787259Y-79454394D01*
X158839920Y-79545606D01*
X158844314Y-79550000D01*
X157883391Y-79550000D01*
X157892009Y-79604413D01*
X157955244Y-79799029D01*
X158048140Y-79981349D01*
X158168417Y-80146894D01*
X158168417Y-80146895D01*
X158313104Y-80291582D01*
X158478650Y-80411859D01*
X158660968Y-80504754D01*
X158855578Y-80567988D01*
X158910000Y-80576607D01*
X158910000Y-79615686D01*
X158914394Y-79620080D01*
X159005606Y-79672741D01*
X159107339Y-79700000D01*
X159212661Y-79700000D01*
X159314394Y-79672741D01*
X159405606Y-79620080D01*
X159410000Y-79615686D01*
X159410000Y-80576606D01*
X159464421Y-80567988D01*
X159659031Y-80504754D01*
X159841349Y-80411859D01*
X160006894Y-80291582D01*
X160006895Y-80291582D01*
X160151582Y-80146895D01*
X160151582Y-80146894D01*
X160271861Y-79981347D01*
X160319234Y-79888371D01*
X160367208Y-79837575D01*
X160435028Y-79820779D01*
X160501164Y-79843316D01*
X160540203Y-79888369D01*
X160587713Y-79981611D01*
X160708028Y-80147213D01*
X160852786Y-80291971D01*
X160978337Y-80383187D01*
X161018390Y-80412287D01*
X161134607Y-80471503D01*
X161200776Y-80505218D01*
X161200778Y-80505218D01*
X161200781Y-80505220D01*
X161295863Y-80536114D01*
X161395465Y-80568477D01*
X161496557Y-80584488D01*
X161597648Y-80600500D01*
X161597649Y-80600500D01*
X161802351Y-80600500D01*
X161802352Y-80600500D01*
X162004534Y-80568477D01*
X162199219Y-80505220D01*
X162381610Y-80412287D01*
X162474590Y-80344732D01*
X162547213Y-80291971D01*
X162547215Y-80291968D01*
X162547219Y-80291966D01*
X162691966Y-80147219D01*
X162691968Y-80147215D01*
X162691971Y-80147213D01*
X162767616Y-80043096D01*
X162790072Y-80012185D01*
X162812287Y-79981610D01*
X162905220Y-79799219D01*
X162968477Y-79604534D01*
X163000500Y-79402352D01*
X163000500Y-79197648D01*
X162991216Y-79139032D01*
X162968477Y-78995465D01*
X162905218Y-78800776D01*
X162841131Y-78675000D01*
X162812287Y-78618390D01*
X162804556Y-78607749D01*
X162691971Y-78452786D01*
X162547213Y-78308028D01*
X162381613Y-78187715D01*
X162381612Y-78187714D01*
X162381610Y-78187713D01*
X162317908Y-78155255D01*
X162199223Y-78094781D01*
X162004534Y-78031522D01*
X161829995Y-78003878D01*
X161802352Y-77999500D01*
X161597648Y-77999500D01*
X161573329Y-78003351D01*
X161395465Y-78031522D01*
X161200776Y-78094781D01*
X161018386Y-78187715D01*
X160852786Y-78308028D01*
X160708028Y-78452786D01*
X160587713Y-78618388D01*
X160540203Y-78711630D01*
X160492228Y-78762426D01*
X160424407Y-78779220D01*
X160358272Y-78756682D01*
X160319234Y-78711628D01*
X160271861Y-78618652D01*
X160151582Y-78453105D01*
X160151582Y-78453104D01*
X160006895Y-78308417D01*
X159841349Y-78188140D01*
X159659029Y-78095244D01*
X159464413Y-78032009D01*
X159410000Y-78023390D01*
X159410000Y-78984314D01*
X159405606Y-78979920D01*
X159314394Y-78927259D01*
X159212661Y-78900000D01*
X159107339Y-78900000D01*
X159005606Y-78927259D01*
X158914394Y-78979920D01*
X158910000Y-78984314D01*
X158910000Y-78023390D01*
X158855586Y-78032009D01*
X158660970Y-78095244D01*
X158478650Y-78188140D01*
X158313105Y-78308417D01*
X158313104Y-78308417D01*
X158168417Y-78453104D01*
X158168417Y-78453105D01*
X158048140Y-78618650D01*
X157955244Y-78800970D01*
X157892009Y-78995586D01*
X157883391Y-79050000D01*
X116430634Y-79050000D01*
X116464036Y-79016598D01*
X116465794Y-79014179D01*
X116465794Y-79014178D01*
X116565801Y-78876528D01*
X116644408Y-78722255D01*
X116697914Y-78557584D01*
X116699115Y-78550000D01*
X115630330Y-78550000D01*
X115650075Y-78530255D01*
X115699444Y-78444745D01*
X115725000Y-78349370D01*
X115725000Y-78250630D01*
X115699444Y-78155255D01*
X115650075Y-78069745D01*
X115630330Y-78050000D01*
X116699115Y-78050000D01*
X116699115Y-78049999D01*
X116697914Y-78042415D01*
X116644408Y-77877744D01*
X116565804Y-77723475D01*
X116464032Y-77583397D01*
X116356434Y-77475799D01*
X116322949Y-77414476D01*
X116327933Y-77344784D01*
X116369805Y-77288851D01*
X116378995Y-77282594D01*
X116443656Y-77242712D01*
X116567712Y-77118656D01*
X116659814Y-76969334D01*
X116714999Y-76802797D01*
X116725500Y-76700009D01*
X116725499Y-75899992D01*
X116724716Y-75892331D01*
X116714999Y-75797203D01*
X116714997Y-75797196D01*
X116688279Y-75716569D01*
X116659814Y-75630666D01*
X116567712Y-75481344D01*
X116443656Y-75357288D01*
X116294334Y-75265186D01*
X116127797Y-75210001D01*
X116127795Y-75210000D01*
X116025010Y-75199500D01*
X114674998Y-75199500D01*
X114674981Y-75199501D01*
X114572203Y-75210000D01*
X114572200Y-75210001D01*
X114405668Y-75265185D01*
X114405663Y-75265187D01*
X114256342Y-75357289D01*
X114132289Y-75481342D01*
X114040187Y-75630663D01*
X114040185Y-75630668D01*
X114028862Y-75664838D01*
X113985001Y-75797203D01*
X113985001Y-75797204D01*
X113985000Y-75797204D01*
X113974500Y-75899983D01*
X112450500Y-75899983D01*
X112450500Y-74997648D01*
X127259500Y-74997648D01*
X127259500Y-75202351D01*
X127291522Y-75404534D01*
X127354781Y-75599223D01*
X127405042Y-75697864D01*
X127437169Y-75760917D01*
X127447715Y-75781613D01*
X127568028Y-75947213D01*
X127712786Y-76091971D01*
X127867749Y-76204556D01*
X127878390Y-76212287D01*
X127994607Y-76271503D01*
X128060776Y-76305218D01*
X128060778Y-76305218D01*
X128060781Y-76305220D01*
X128165137Y-76339127D01*
X128255465Y-76368477D01*
X128356557Y-76384488D01*
X128457648Y-76400500D01*
X128457649Y-76400500D01*
X128662351Y-76400500D01*
X128662352Y-76400500D01*
X128864534Y-76368477D01*
X129059219Y-76305220D01*
X129241610Y-76212287D01*
X129372424Y-76117246D01*
X129407213Y-76091971D01*
X129407215Y-76091968D01*
X129407219Y-76091966D01*
X129551966Y-75947219D01*
X129551968Y-75947215D01*
X129551971Y-75947213D01*
X129672284Y-75781614D01*
X129672285Y-75781613D01*
X129672287Y-75781610D01*
X129719516Y-75688917D01*
X129767489Y-75638123D01*
X129835310Y-75621328D01*
X129901445Y-75643865D01*
X129940483Y-75688917D01*
X129975419Y-75757482D01*
X129987715Y-75781614D01*
X130108028Y-75947213D01*
X130252786Y-76091971D01*
X130407749Y-76204556D01*
X130418390Y-76212287D01*
X130534607Y-76271503D01*
X130600776Y-76305218D01*
X130600778Y-76305218D01*
X130600781Y-76305220D01*
X130705137Y-76339127D01*
X130795465Y-76368477D01*
X130896557Y-76384488D01*
X130997648Y-76400500D01*
X130997649Y-76400500D01*
X131202351Y-76400500D01*
X131202352Y-76400500D01*
X131404534Y-76368477D01*
X131599219Y-76305220D01*
X131781610Y-76212287D01*
X131912424Y-76117246D01*
X131947213Y-76091971D01*
X131947215Y-76091968D01*
X131947219Y-76091966D01*
X132091966Y-75947219D01*
X132091968Y-75947215D01*
X132091971Y-75947213D01*
X132177050Y-75830110D01*
X132212287Y-75781610D01*
X132305220Y-75599219D01*
X132368477Y-75404534D01*
X132391429Y-75259621D01*
X132421357Y-75196489D01*
X132480668Y-75159557D01*
X132550531Y-75160555D01*
X132608764Y-75199164D01*
X132636374Y-75259622D01*
X132650982Y-75351848D01*
X132703296Y-75512853D01*
X132747303Y-75599219D01*
X132767125Y-75638123D01*
X132780152Y-75663688D01*
X132879648Y-75800634D01*
X132879652Y-75800639D01*
X132999360Y-75920347D01*
X132999365Y-75920351D01*
X133118817Y-76007137D01*
X133136315Y-76019850D01*
X133232425Y-76068820D01*
X133287146Y-76096703D01*
X133287148Y-76096703D01*
X133287151Y-76096705D01*
X133373450Y-76124745D01*
X133448152Y-76149018D01*
X133615351Y-76175500D01*
X133615356Y-76175500D01*
X133784649Y-76175500D01*
X133951847Y-76149018D01*
X133953349Y-76148530D01*
X134112849Y-76096705D01*
X134263685Y-76019850D01*
X134400641Y-75920346D01*
X134520346Y-75800641D01*
X134619850Y-75663685D01*
X134696705Y-75512849D01*
X134749018Y-75351847D01*
X134754314Y-75318412D01*
X134775500Y-75184649D01*
X134775500Y-75015390D01*
X137625000Y-75015390D01*
X137625000Y-75184609D01*
X137651469Y-75351726D01*
X137703760Y-75512659D01*
X137780580Y-75663427D01*
X137781606Y-75664838D01*
X137781607Y-75664839D01*
X138300000Y-75146446D01*
X138300000Y-75152661D01*
X138327259Y-75254394D01*
X138379920Y-75345606D01*
X138454394Y-75420080D01*
X138545606Y-75472741D01*
X138647339Y-75500000D01*
X138653553Y-75500000D01*
X138135159Y-76018391D01*
X138136578Y-76019422D01*
X138287340Y-76096239D01*
X138448273Y-76148530D01*
X138615391Y-76175000D01*
X138784609Y-76175000D01*
X138951726Y-76148530D01*
X139112659Y-76096239D01*
X139263424Y-76019420D01*
X139264839Y-76018391D01*
X138746448Y-75500000D01*
X138752661Y-75500000D01*
X138854394Y-75472741D01*
X138945606Y-75420080D01*
X139020080Y-75345606D01*
X139072741Y-75254394D01*
X139100000Y-75152661D01*
X139100000Y-75146447D01*
X139618391Y-75664839D01*
X139619420Y-75663424D01*
X139696239Y-75512659D01*
X139748530Y-75351726D01*
X139775000Y-75184609D01*
X139775000Y-75015390D01*
X139748530Y-74848273D01*
X139709178Y-74727159D01*
X139698310Y-74693713D01*
X142609500Y-74693713D01*
X142609500Y-74906286D01*
X142631840Y-75047339D01*
X142642754Y-75116243D01*
X142691148Y-75265185D01*
X142708444Y-75318414D01*
X142804951Y-75507820D01*
X142929890Y-75679786D01*
X143080213Y-75830109D01*
X143252179Y-75955048D01*
X143252181Y-75955049D01*
X143252184Y-75955051D01*
X143441588Y-76051557D01*
X143643757Y-76117246D01*
X143853713Y-76150500D01*
X143853714Y-76150500D01*
X144066286Y-76150500D01*
X144066287Y-76150500D01*
X144276243Y-76117246D01*
X144478412Y-76051557D01*
X144667816Y-75955051D01*
X144725141Y-75913402D01*
X144839784Y-75830110D01*
X144839784Y-75830109D01*
X144839792Y-75830104D01*
X144953329Y-75716566D01*
X145014648Y-75683084D01*
X145084340Y-75688068D01*
X145140274Y-75729939D01*
X145157189Y-75760917D01*
X145206202Y-75892328D01*
X145206206Y-75892335D01*
X145292452Y-76007544D01*
X145292455Y-76007547D01*
X145407664Y-76093793D01*
X145407671Y-76093797D01*
X145542517Y-76144091D01*
X145542516Y-76144091D01*
X145549444Y-76144835D01*
X145602127Y-76150500D01*
X147397872Y-76150499D01*
X147457483Y-76144091D01*
X147592331Y-76093796D01*
X147707546Y-76007546D01*
X147793796Y-75892331D01*
X147844091Y-75757483D01*
X147850500Y-75697873D01*
X147850499Y-74237648D01*
X159699500Y-74237648D01*
X159699500Y-74442351D01*
X159731522Y-74644534D01*
X159794781Y-74839223D01*
X159848987Y-74945606D01*
X159884526Y-75015356D01*
X159887715Y-75021613D01*
X160008028Y-75187213D01*
X160152786Y-75331971D01*
X160301759Y-75440204D01*
X160318390Y-75452287D01*
X160434607Y-75511503D01*
X160500776Y-75545218D01*
X160500778Y-75545218D01*
X160500781Y-75545220D01*
X160605137Y-75579127D01*
X160695465Y-75608477D01*
X160776603Y-75621328D01*
X160897648Y-75640500D01*
X160897649Y-75640500D01*
X161102351Y-75640500D01*
X161102352Y-75640500D01*
X161304534Y-75608477D01*
X161499219Y-75545220D01*
X161681610Y-75452287D01*
X161819855Y-75351847D01*
X161847213Y-75331971D01*
X161847215Y-75331968D01*
X161847219Y-75331966D01*
X161991966Y-75187219D01*
X161991968Y-75187215D01*
X161991971Y-75187213D01*
X162055334Y-75100000D01*
X162112287Y-75021610D01*
X162205220Y-74839219D01*
X162268477Y-74644534D01*
X162300500Y-74442352D01*
X162300500Y-74237648D01*
X162279123Y-74102683D01*
X162268477Y-74035465D01*
X162231027Y-73920208D01*
X162205220Y-73840781D01*
X162205218Y-73840778D01*
X162205218Y-73840776D01*
X162169099Y-73769890D01*
X162112287Y-73658390D01*
X162064383Y-73592455D01*
X161991971Y-73492786D01*
X161847217Y-73348032D01*
X161847212Y-73348028D01*
X161773945Y-73294797D01*
X161773938Y-73294792D01*
X161681610Y-73227713D01*
X161583952Y-73177953D01*
X161579707Y-73175343D01*
X161559503Y-73152941D01*
X161537574Y-73132229D01*
X161536343Y-73127259D01*
X161532914Y-73123457D01*
X161528028Y-73093682D01*
X161520779Y-73064407D01*
X161522430Y-73059562D01*
X161521601Y-73054509D01*
X161533587Y-73026822D01*
X161543317Y-72998273D01*
X161547526Y-72994625D01*
X161549360Y-72990391D01*
X161562897Y-72981306D01*
X161588371Y-72959234D01*
X161681347Y-72911861D01*
X161846894Y-72791582D01*
X161846895Y-72791582D01*
X161913479Y-72724999D01*
X163561115Y-72724999D01*
X163561116Y-72725000D01*
X164313012Y-72725000D01*
X164295795Y-72734940D01*
X164239940Y-72790795D01*
X164200444Y-72859204D01*
X164180000Y-72935504D01*
X164180000Y-73014496D01*
X164200444Y-73090796D01*
X164239940Y-73159205D01*
X164295795Y-73215060D01*
X164313012Y-73225000D01*
X163561116Y-73225000D01*
X163566506Y-73252100D01*
X163566507Y-73252103D01*
X163638119Y-73424991D01*
X163638124Y-73425000D01*
X163742086Y-73580589D01*
X163742089Y-73580593D01*
X163874406Y-73712910D01*
X163874410Y-73712913D01*
X164029999Y-73816875D01*
X164030008Y-73816880D01*
X164202894Y-73888491D01*
X164202902Y-73888493D01*
X164386428Y-73924999D01*
X164386431Y-73925000D01*
X164780000Y-73925000D01*
X164780000Y-73275000D01*
X165280000Y-73275000D01*
X165280000Y-73899044D01*
X165260315Y-73966083D01*
X165218006Y-74006427D01*
X165212695Y-74009493D01*
X165212683Y-74009502D01*
X165119502Y-74102683D01*
X165119500Y-74102686D01*
X165053608Y-74216812D01*
X165036770Y-74279654D01*
X165019500Y-74344108D01*
X165019500Y-74475892D01*
X165021608Y-74483760D01*
X165053608Y-74603187D01*
X165077480Y-74644534D01*
X165119500Y-74717314D01*
X165212686Y-74810500D01*
X165326814Y-74876392D01*
X165454108Y-74910500D01*
X165454110Y-74910500D01*
X165585890Y-74910500D01*
X165585892Y-74910500D01*
X165713186Y-74876392D01*
X165827314Y-74810500D01*
X165920500Y-74717314D01*
X165986392Y-74603186D01*
X166020500Y-74475892D01*
X166020500Y-74344108D01*
X165986392Y-74216814D01*
X165920500Y-74102686D01*
X165881698Y-74063884D01*
X165848213Y-74002561D01*
X165853197Y-73932869D01*
X165895069Y-73876936D01*
X165921927Y-73861642D01*
X166029987Y-73816882D01*
X166030000Y-73816875D01*
X166185589Y-73712913D01*
X166185593Y-73712910D01*
X166317910Y-73580593D01*
X166317913Y-73580589D01*
X166421875Y-73425000D01*
X166421880Y-73424991D01*
X166493492Y-73252103D01*
X166493493Y-73252100D01*
X166498884Y-73225000D01*
X165746988Y-73225000D01*
X165764205Y-73215060D01*
X165820060Y-73159205D01*
X165859556Y-73090796D01*
X165880000Y-73014496D01*
X165880000Y-72935504D01*
X165859556Y-72859204D01*
X165820060Y-72790795D01*
X165764205Y-72734940D01*
X165746988Y-72725000D01*
X166498884Y-72725000D01*
X166498884Y-72724999D01*
X167881115Y-72724999D01*
X167881116Y-72725000D01*
X168633012Y-72725000D01*
X168615795Y-72734940D01*
X168559940Y-72790795D01*
X168520444Y-72859204D01*
X168500000Y-72935504D01*
X168500000Y-73014496D01*
X168520444Y-73090796D01*
X168559940Y-73159205D01*
X168615795Y-73215060D01*
X168633012Y-73225000D01*
X167881116Y-73225000D01*
X167886506Y-73252100D01*
X167886507Y-73252103D01*
X167958119Y-73424991D01*
X167958124Y-73425000D01*
X168062086Y-73580589D01*
X168062089Y-73580593D01*
X168194406Y-73712910D01*
X168194410Y-73712913D01*
X168349999Y-73816875D01*
X168350008Y-73816880D01*
X168522894Y-73888491D01*
X168522902Y-73888493D01*
X168706428Y-73924999D01*
X168706431Y-73925000D01*
X168950000Y-73925000D01*
X168950000Y-73275000D01*
X169450000Y-73275000D01*
X169450000Y-73925000D01*
X169693569Y-73925000D01*
X169693571Y-73924999D01*
X169877097Y-73888493D01*
X169877105Y-73888491D01*
X170049991Y-73816880D01*
X170050000Y-73816875D01*
X170205589Y-73712913D01*
X170205593Y-73712910D01*
X170337910Y-73580593D01*
X170337913Y-73580589D01*
X170441875Y-73425000D01*
X170441880Y-73424991D01*
X170513492Y-73252103D01*
X170513493Y-73252100D01*
X170518884Y-73225000D01*
X169766988Y-73225000D01*
X169784205Y-73215060D01*
X169840060Y-73159205D01*
X169879556Y-73090796D01*
X169900000Y-73014496D01*
X169900000Y-72935504D01*
X169879556Y-72859204D01*
X169840060Y-72790795D01*
X169784205Y-72734940D01*
X169766988Y-72725000D01*
X170518884Y-72725000D01*
X170518884Y-72724999D01*
X170513493Y-72697899D01*
X170513492Y-72697896D01*
X170441880Y-72525008D01*
X170441875Y-72524999D01*
X170337913Y-72369410D01*
X170337910Y-72369406D01*
X170205593Y-72237089D01*
X170205589Y-72237086D01*
X170050000Y-72133124D01*
X170049991Y-72133119D01*
X169877105Y-72061508D01*
X169877097Y-72061506D01*
X169693570Y-72025000D01*
X169450000Y-72025000D01*
X169450000Y-72675000D01*
X168950000Y-72675000D01*
X168950000Y-72025000D01*
X168706430Y-72025000D01*
X168522902Y-72061506D01*
X168522894Y-72061508D01*
X168350008Y-72133119D01*
X168349999Y-72133124D01*
X168194410Y-72237086D01*
X168194406Y-72237089D01*
X168062089Y-72369406D01*
X168062086Y-72369410D01*
X167958124Y-72524999D01*
X167958119Y-72525008D01*
X167886507Y-72697896D01*
X167886506Y-72697899D01*
X167881115Y-72724999D01*
X166498884Y-72724999D01*
X166493493Y-72697899D01*
X166493492Y-72697896D01*
X166421880Y-72525008D01*
X166421875Y-72524999D01*
X166317913Y-72369410D01*
X166317910Y-72369406D01*
X166185593Y-72237089D01*
X166185589Y-72237086D01*
X166030000Y-72133124D01*
X166029991Y-72133119D01*
X165857105Y-72061508D01*
X165857097Y-72061506D01*
X165673570Y-72025000D01*
X165280000Y-72025000D01*
X165280000Y-72675000D01*
X164780000Y-72675000D01*
X164780000Y-72025000D01*
X164386430Y-72025000D01*
X164202902Y-72061506D01*
X164202894Y-72061508D01*
X164030008Y-72133119D01*
X164029999Y-72133124D01*
X163874410Y-72237086D01*
X163874406Y-72237089D01*
X163742089Y-72369406D01*
X163742086Y-72369410D01*
X163638124Y-72524999D01*
X163638119Y-72525008D01*
X163566507Y-72697896D01*
X163566506Y-72697899D01*
X163561115Y-72724999D01*
X161913479Y-72724999D01*
X161967831Y-72670647D01*
X161991582Y-72646895D01*
X161991582Y-72646894D01*
X162111859Y-72481349D01*
X162204755Y-72299029D01*
X162267990Y-72104413D01*
X162276609Y-72050000D01*
X161315686Y-72050000D01*
X161320080Y-72045606D01*
X161372741Y-71954394D01*
X161400000Y-71852661D01*
X161400000Y-71747339D01*
X161372741Y-71645606D01*
X161320080Y-71554394D01*
X161315686Y-71550000D01*
X162276609Y-71550000D01*
X162267990Y-71495586D01*
X162204755Y-71300970D01*
X162111859Y-71118650D01*
X161991582Y-70953105D01*
X161991582Y-70953104D01*
X161846895Y-70808417D01*
X161681349Y-70688140D01*
X161499029Y-70595244D01*
X161304413Y-70532009D01*
X161250000Y-70523390D01*
X161250000Y-71484314D01*
X161245606Y-71479920D01*
X161154394Y-71427259D01*
X161052661Y-71400000D01*
X160947339Y-71400000D01*
X160845606Y-71427259D01*
X160754394Y-71479920D01*
X160750000Y-71484314D01*
X160750000Y-70523390D01*
X160695586Y-70532009D01*
X160500970Y-70595244D01*
X160318650Y-70688140D01*
X160153105Y-70808417D01*
X160153104Y-70808417D01*
X160008417Y-70953104D01*
X160008417Y-70953105D01*
X159888140Y-71118650D01*
X159795244Y-71300970D01*
X159732009Y-71495586D01*
X159723391Y-71550000D01*
X160684314Y-71550000D01*
X160679920Y-71554394D01*
X160627259Y-71645606D01*
X160600000Y-71747339D01*
X160600000Y-71852661D01*
X160627259Y-71954394D01*
X160679920Y-72045606D01*
X160684314Y-72050000D01*
X159723391Y-72050000D01*
X159732009Y-72104413D01*
X159795244Y-72299029D01*
X159888140Y-72481349D01*
X160008417Y-72646894D01*
X160008417Y-72646895D01*
X160153104Y-72791582D01*
X160318652Y-72911861D01*
X160411628Y-72959234D01*
X160462425Y-73007208D01*
X160479220Y-73075029D01*
X160456683Y-73141164D01*
X160411630Y-73180203D01*
X160318388Y-73227713D01*
X160152786Y-73348028D01*
X160008028Y-73492786D01*
X159887715Y-73658386D01*
X159794781Y-73840776D01*
X159731522Y-74035465D01*
X159699500Y-74237648D01*
X147850499Y-74237648D01*
X147850499Y-73902128D01*
X147844091Y-73842517D01*
X147842810Y-73839083D01*
X147793797Y-73707671D01*
X147793793Y-73707664D01*
X147707547Y-73592455D01*
X147707544Y-73592452D01*
X147592335Y-73506206D01*
X147592328Y-73506202D01*
X147457482Y-73455908D01*
X147457483Y-73455908D01*
X147397883Y-73449501D01*
X147397881Y-73449500D01*
X147397873Y-73449500D01*
X147397864Y-73449500D01*
X145602129Y-73449500D01*
X145602123Y-73449501D01*
X145542516Y-73455908D01*
X145407671Y-73506202D01*
X145407664Y-73506206D01*
X145292455Y-73592452D01*
X145292452Y-73592455D01*
X145206206Y-73707664D01*
X145206203Y-73707669D01*
X145157189Y-73839083D01*
X145115317Y-73895016D01*
X145049853Y-73919433D01*
X144981580Y-73904581D01*
X144953326Y-73883430D01*
X144839786Y-73769890D01*
X144667820Y-73644951D01*
X144478414Y-73548444D01*
X144478413Y-73548443D01*
X144478412Y-73548443D01*
X144276243Y-73482754D01*
X144276241Y-73482753D01*
X144276240Y-73482753D01*
X144114957Y-73457208D01*
X144066287Y-73449500D01*
X143853713Y-73449500D01*
X143805042Y-73457208D01*
X143643760Y-73482753D01*
X143441585Y-73548444D01*
X143252179Y-73644951D01*
X143080213Y-73769890D01*
X142929890Y-73920213D01*
X142804951Y-74092179D01*
X142708444Y-74281585D01*
X142642753Y-74483760D01*
X142609500Y-74693713D01*
X139698310Y-74693713D01*
X139696239Y-74687338D01*
X139619422Y-74536578D01*
X139618391Y-74535159D01*
X139100000Y-75053551D01*
X139100000Y-75047339D01*
X139072741Y-74945606D01*
X139020080Y-74854394D01*
X138945606Y-74779920D01*
X138854394Y-74727259D01*
X138752661Y-74700000D01*
X138746447Y-74700000D01*
X139264839Y-74181607D01*
X139264838Y-74181606D01*
X139263427Y-74180580D01*
X139112659Y-74103760D01*
X138951726Y-74051469D01*
X138784609Y-74025000D01*
X138615391Y-74025000D01*
X138448273Y-74051469D01*
X138287340Y-74103760D01*
X138136575Y-74180579D01*
X138136572Y-74180581D01*
X138135160Y-74181606D01*
X138135160Y-74181607D01*
X138653554Y-74700000D01*
X138647339Y-74700000D01*
X138545606Y-74727259D01*
X138454394Y-74779920D01*
X138379920Y-74854394D01*
X138327259Y-74945606D01*
X138300000Y-75047339D01*
X138300000Y-75053553D01*
X137781607Y-74535160D01*
X137781606Y-74535160D01*
X137780581Y-74536572D01*
X137780579Y-74536575D01*
X137703760Y-74687340D01*
X137651469Y-74848273D01*
X137625000Y-75015390D01*
X134775500Y-75015390D01*
X134775500Y-75015350D01*
X134749018Y-74848152D01*
X134706506Y-74717316D01*
X134696705Y-74687151D01*
X134696703Y-74687148D01*
X134696703Y-74687146D01*
X134653923Y-74603187D01*
X134619850Y-74536315D01*
X134581665Y-74483757D01*
X134520351Y-74399365D01*
X134520347Y-74399360D01*
X134400639Y-74279652D01*
X134400634Y-74279648D01*
X134263688Y-74180152D01*
X134263687Y-74180151D01*
X134263685Y-74180150D01*
X134216582Y-74156150D01*
X134112853Y-74103296D01*
X133951847Y-74050981D01*
X133784649Y-74024500D01*
X133784644Y-74024500D01*
X133615356Y-74024500D01*
X133615351Y-74024500D01*
X133448152Y-74050981D01*
X133287146Y-74103296D01*
X133136311Y-74180152D01*
X132999365Y-74279648D01*
X132999360Y-74279652D01*
X132879652Y-74399360D01*
X132879648Y-74399365D01*
X132780152Y-74536311D01*
X132703296Y-74687146D01*
X132650982Y-74848151D01*
X132636374Y-74940377D01*
X132606444Y-75003512D01*
X132547132Y-75040442D01*
X132477269Y-75039444D01*
X132419037Y-75000833D01*
X132391429Y-74940377D01*
X132368477Y-74795466D01*
X132352549Y-74746446D01*
X132319436Y-74644534D01*
X132305220Y-74600781D01*
X132305218Y-74600778D01*
X132305218Y-74600776D01*
X132259515Y-74511080D01*
X132212287Y-74418390D01*
X132158320Y-74344110D01*
X132091971Y-74252786D01*
X131947213Y-74108028D01*
X131781613Y-73987715D01*
X131781612Y-73987714D01*
X131781610Y-73987713D01*
X131724653Y-73958691D01*
X131599223Y-73894781D01*
X131404534Y-73831522D01*
X131229995Y-73803878D01*
X131202352Y-73799500D01*
X130997648Y-73799500D01*
X130973329Y-73803351D01*
X130795465Y-73831522D01*
X130600776Y-73894781D01*
X130418386Y-73987715D01*
X130252786Y-74108028D01*
X130108028Y-74252786D01*
X129987715Y-74418386D01*
X129940485Y-74511080D01*
X129892510Y-74561876D01*
X129824689Y-74578671D01*
X129758554Y-74556134D01*
X129719515Y-74511080D01*
X129718883Y-74509840D01*
X129672287Y-74418390D01*
X129618320Y-74344110D01*
X129551971Y-74252786D01*
X129407213Y-74108028D01*
X129241613Y-73987715D01*
X129241612Y-73987714D01*
X129241610Y-73987713D01*
X129184653Y-73958691D01*
X129059223Y-73894781D01*
X128864534Y-73831522D01*
X128689995Y-73803878D01*
X128662352Y-73799500D01*
X128457648Y-73799500D01*
X128433329Y-73803351D01*
X128255465Y-73831522D01*
X128060776Y-73894781D01*
X127878386Y-73987715D01*
X127712786Y-74108028D01*
X127568028Y-74252786D01*
X127447715Y-74418386D01*
X127354781Y-74600776D01*
X127291522Y-74795465D01*
X127259500Y-74997648D01*
X112450500Y-74997648D01*
X112450500Y-55793713D01*
X113449500Y-55793713D01*
X113449500Y-56006287D01*
X113482754Y-56216243D01*
X113547738Y-56416243D01*
X113548444Y-56418414D01*
X113644951Y-56607820D01*
X113769890Y-56779786D01*
X113920213Y-56930109D01*
X114092182Y-57055050D01*
X114100946Y-57059516D01*
X114151742Y-57107491D01*
X114168536Y-57175312D01*
X114145998Y-57241447D01*
X114100946Y-57280484D01*
X114092182Y-57284949D01*
X113920213Y-57409890D01*
X113769890Y-57560213D01*
X113644951Y-57732179D01*
X113548444Y-57921585D01*
X113482753Y-58123760D01*
X113449500Y-58333713D01*
X113449500Y-58546286D01*
X113479071Y-58732993D01*
X113482754Y-58756243D01*
X113547738Y-58956243D01*
X113548444Y-58958414D01*
X113644951Y-59147820D01*
X113769890Y-59319786D01*
X113920213Y-59470109D01*
X114092182Y-59595050D01*
X114100946Y-59599516D01*
X114151742Y-59647491D01*
X114168536Y-59715312D01*
X114145998Y-59781447D01*
X114100946Y-59820484D01*
X114092182Y-59824949D01*
X113920213Y-59949890D01*
X113769890Y-60100213D01*
X113644951Y-60272179D01*
X113548444Y-60461585D01*
X113482753Y-60663760D01*
X113449500Y-60873713D01*
X113449500Y-61086286D01*
X113473594Y-61238414D01*
X113482754Y-61296243D01*
X113547738Y-61496243D01*
X113548444Y-61498414D01*
X113644951Y-61687820D01*
X113769890Y-61859786D01*
X113920213Y-62010109D01*
X114092182Y-62135050D01*
X114100946Y-62139516D01*
X114151742Y-62187491D01*
X114168536Y-62255312D01*
X114145998Y-62321447D01*
X114100946Y-62360484D01*
X114092182Y-62364949D01*
X113920213Y-62489890D01*
X113769890Y-62640213D01*
X113644951Y-62812179D01*
X113548444Y-63001585D01*
X113482753Y-63203760D01*
X113449500Y-63413713D01*
X113449500Y-63626286D01*
X113473563Y-63778217D01*
X113482754Y-63836243D01*
X113547738Y-64036243D01*
X113548444Y-64038414D01*
X113644951Y-64227820D01*
X113769890Y-64399786D01*
X113920213Y-64550109D01*
X114092182Y-64675050D01*
X114100946Y-64679516D01*
X114151742Y-64727491D01*
X114168536Y-64795312D01*
X114145998Y-64861447D01*
X114100946Y-64900484D01*
X114092182Y-64904949D01*
X113920213Y-65029890D01*
X113769890Y-65180213D01*
X113644951Y-65352179D01*
X113548444Y-65541585D01*
X113482753Y-65743760D01*
X113449500Y-65953713D01*
X113449500Y-66166286D01*
X113465338Y-66266287D01*
X113482754Y-66376243D01*
X113547738Y-66576243D01*
X113548444Y-66578414D01*
X113644951Y-66767820D01*
X113769890Y-66939786D01*
X113883818Y-67053714D01*
X113917303Y-67115037D01*
X113912319Y-67184729D01*
X113870447Y-67240662D01*
X113839471Y-67257577D01*
X113707912Y-67306646D01*
X113707906Y-67306649D01*
X113592812Y-67392809D01*
X113592809Y-67392812D01*
X113506649Y-67507906D01*
X113506645Y-67507913D01*
X113456403Y-67642620D01*
X113456401Y-67642627D01*
X113450000Y-67702155D01*
X113450000Y-68350000D01*
X114366988Y-68350000D01*
X114334075Y-68407007D01*
X114300000Y-68534174D01*
X114300000Y-68665826D01*
X114334075Y-68792993D01*
X114366988Y-68850000D01*
X113450000Y-68850000D01*
X113450000Y-69497844D01*
X113456401Y-69557372D01*
X113456403Y-69557379D01*
X113506645Y-69692086D01*
X113506649Y-69692093D01*
X113592809Y-69807187D01*
X113592812Y-69807190D01*
X113707906Y-69893350D01*
X113707913Y-69893354D01*
X113842620Y-69943596D01*
X113842627Y-69943598D01*
X113902155Y-69949999D01*
X113902172Y-69950000D01*
X114550000Y-69950000D01*
X114550000Y-69033012D01*
X114607007Y-69065925D01*
X114734174Y-69100000D01*
X114865826Y-69100000D01*
X114992993Y-69065925D01*
X115050000Y-69033012D01*
X115050000Y-69950000D01*
X115697828Y-69950000D01*
X115697844Y-69949999D01*
X115757372Y-69943598D01*
X115757379Y-69943596D01*
X115892086Y-69893354D01*
X115892093Y-69893350D01*
X116007187Y-69807190D01*
X116007190Y-69807187D01*
X116093350Y-69692093D01*
X116093354Y-69692086D01*
X116143596Y-69557379D01*
X116143598Y-69557372D01*
X116149999Y-69497844D01*
X116150000Y-69497827D01*
X116150000Y-68850000D01*
X115233012Y-68850000D01*
X115265925Y-68792993D01*
X115300000Y-68665826D01*
X115300000Y-68534174D01*
X115265925Y-68407007D01*
X115233012Y-68350000D01*
X116150000Y-68350000D01*
X116150000Y-67702172D01*
X116149999Y-67702155D01*
X116143598Y-67642627D01*
X116143596Y-67642620D01*
X116093354Y-67507913D01*
X116093350Y-67507906D01*
X116007190Y-67392812D01*
X116007187Y-67392809D01*
X115892093Y-67306649D01*
X115892088Y-67306646D01*
X115760528Y-67257577D01*
X115704595Y-67215705D01*
X115680178Y-67150241D01*
X115695030Y-67081968D01*
X115716175Y-67053720D01*
X115830104Y-66939792D01*
X115955051Y-66767816D01*
X116051557Y-66578412D01*
X116117246Y-66376243D01*
X116150500Y-66166287D01*
X116150500Y-65953713D01*
X116117246Y-65743757D01*
X116051557Y-65541588D01*
X115955051Y-65352184D01*
X115955049Y-65352181D01*
X115955048Y-65352179D01*
X115830109Y-65180213D01*
X115679786Y-65029890D01*
X115507820Y-64904951D01*
X115502279Y-64902128D01*
X115499054Y-64900485D01*
X115448259Y-64852512D01*
X115431463Y-64784692D01*
X115453999Y-64718556D01*
X115499054Y-64679515D01*
X115507816Y-64675051D01*
X115584257Y-64619514D01*
X115679786Y-64550109D01*
X115679788Y-64550106D01*
X115679792Y-64550104D01*
X115830104Y-64399792D01*
X115830106Y-64399788D01*
X115830109Y-64399786D01*
X115955048Y-64227820D01*
X115955047Y-64227820D01*
X115955051Y-64227816D01*
X116051557Y-64038412D01*
X116117246Y-63836243D01*
X116150500Y-63626287D01*
X116150500Y-63413713D01*
X116117246Y-63203757D01*
X116051557Y-63001588D01*
X115955051Y-62812184D01*
X115955049Y-62812181D01*
X115955048Y-62812179D01*
X115830109Y-62640213D01*
X115679786Y-62489890D01*
X115507820Y-62364951D01*
X115507115Y-62364591D01*
X115499054Y-62360485D01*
X115448259Y-62312512D01*
X115431463Y-62244692D01*
X115453999Y-62178556D01*
X115499054Y-62139515D01*
X115507816Y-62135051D01*
X115584257Y-62079514D01*
X115679786Y-62010109D01*
X115679788Y-62010106D01*
X115679792Y-62010104D01*
X115830104Y-61859792D01*
X115830106Y-61859788D01*
X115830109Y-61859786D01*
X115955048Y-61687820D01*
X115955047Y-61687820D01*
X115955051Y-61687816D01*
X116051557Y-61498412D01*
X116117246Y-61296243D01*
X116150500Y-61086287D01*
X116150500Y-60873713D01*
X116140997Y-60813713D01*
X119129500Y-60813713D01*
X119129500Y-61026286D01*
X119154841Y-61186287D01*
X119162754Y-61236243D01*
X119225001Y-61427820D01*
X119228444Y-61438414D01*
X119324951Y-61627820D01*
X119449890Y-61799786D01*
X119600213Y-61950109D01*
X119772182Y-62075050D01*
X119780946Y-62079516D01*
X119831742Y-62127491D01*
X119848536Y-62195312D01*
X119825998Y-62261447D01*
X119780946Y-62300484D01*
X119772182Y-62304949D01*
X119600213Y-62429890D01*
X119449890Y-62580213D01*
X119324951Y-62752179D01*
X119228444Y-62941585D01*
X119162753Y-63143760D01*
X119129500Y-63353713D01*
X119129500Y-63566286D01*
X119154841Y-63726287D01*
X119162754Y-63776243D01*
X119214741Y-63936243D01*
X119228444Y-63978414D01*
X119324951Y-64167820D01*
X119449890Y-64339786D01*
X119600213Y-64490109D01*
X119772182Y-64615050D01*
X119780946Y-64619516D01*
X119831742Y-64667491D01*
X119848536Y-64735312D01*
X119825998Y-64801447D01*
X119780946Y-64840484D01*
X119772182Y-64844949D01*
X119600213Y-64969890D01*
X119449890Y-65120213D01*
X119324951Y-65292179D01*
X119228444Y-65481585D01*
X119162753Y-65683760D01*
X119129500Y-65893713D01*
X119129500Y-66106286D01*
X119154841Y-66266287D01*
X119162754Y-66316243D01*
X119214741Y-66476243D01*
X119228444Y-66518414D01*
X119324951Y-66707820D01*
X119449890Y-66879786D01*
X119600213Y-67030109D01*
X119772182Y-67155050D01*
X119780946Y-67159516D01*
X119831742Y-67207491D01*
X119848536Y-67275312D01*
X119825998Y-67341447D01*
X119780946Y-67380484D01*
X119772182Y-67384949D01*
X119600213Y-67509890D01*
X119449890Y-67660213D01*
X119324951Y-67832179D01*
X119228444Y-68021585D01*
X119162753Y-68223760D01*
X119129500Y-68433713D01*
X119129500Y-68646286D01*
X119154841Y-68806287D01*
X119162754Y-68856243D01*
X119214741Y-69016243D01*
X119228444Y-69058414D01*
X119324951Y-69247820D01*
X119449890Y-69419786D01*
X119600213Y-69570109D01*
X119772179Y-69695048D01*
X119772181Y-69695049D01*
X119772184Y-69695051D01*
X119961588Y-69791557D01*
X120163757Y-69857246D01*
X120373713Y-69890500D01*
X120373714Y-69890500D01*
X120586286Y-69890500D01*
X120586287Y-69890500D01*
X120796243Y-69857246D01*
X120998412Y-69791557D01*
X121187816Y-69695051D01*
X121346458Y-69579792D01*
X121359786Y-69570109D01*
X121359788Y-69570106D01*
X121359792Y-69570104D01*
X121510104Y-69419792D01*
X121510106Y-69419788D01*
X121510109Y-69419786D01*
X121635048Y-69247820D01*
X121635047Y-69247820D01*
X121635051Y-69247816D01*
X121731557Y-69058412D01*
X121797246Y-68856243D01*
X121830500Y-68646287D01*
X121830500Y-68433713D01*
X121797246Y-68223757D01*
X121731557Y-68021588D01*
X121635051Y-67832184D01*
X121635049Y-67832181D01*
X121635048Y-67832179D01*
X121510109Y-67660213D01*
X121359786Y-67509890D01*
X121187820Y-67384951D01*
X121187115Y-67384591D01*
X121179054Y-67380485D01*
X121128259Y-67332512D01*
X121111463Y-67264692D01*
X121133999Y-67198556D01*
X121179054Y-67159515D01*
X121187816Y-67155051D01*
X121242891Y-67115037D01*
X121359786Y-67030109D01*
X121359788Y-67030106D01*
X121359792Y-67030104D01*
X121510104Y-66879792D01*
X121510106Y-66879788D01*
X121510109Y-66879786D01*
X121635048Y-66707820D01*
X121635047Y-66707820D01*
X121635051Y-66707816D01*
X121731557Y-66518412D01*
X121797246Y-66316243D01*
X121830500Y-66106287D01*
X121830500Y-65893713D01*
X121797246Y-65683757D01*
X121731557Y-65481588D01*
X121635051Y-65292184D01*
X121635049Y-65292181D01*
X121635048Y-65292179D01*
X121510109Y-65120213D01*
X121359786Y-64969890D01*
X121187820Y-64844951D01*
X121187115Y-64844591D01*
X121179054Y-64840485D01*
X121128259Y-64792512D01*
X121111463Y-64724692D01*
X121133999Y-64658556D01*
X121179054Y-64619515D01*
X121187816Y-64615051D01*
X121277209Y-64550104D01*
X121359786Y-64490109D01*
X121359788Y-64490106D01*
X121359792Y-64490104D01*
X121510104Y-64339792D01*
X121510106Y-64339788D01*
X121510109Y-64339786D01*
X121635048Y-64167820D01*
X121635047Y-64167820D01*
X121635051Y-64167816D01*
X121731557Y-63978412D01*
X121797246Y-63776243D01*
X121830500Y-63566287D01*
X121830500Y-63353713D01*
X121797246Y-63143757D01*
X121731557Y-62941588D01*
X121635051Y-62752184D01*
X121635049Y-62752181D01*
X121635048Y-62752179D01*
X121510109Y-62580213D01*
X121359786Y-62429890D01*
X121187820Y-62304951D01*
X121187115Y-62304591D01*
X121179054Y-62300485D01*
X121128259Y-62252512D01*
X121111463Y-62184692D01*
X121133999Y-62118556D01*
X121179054Y-62079515D01*
X121187816Y-62075051D01*
X121218459Y-62052788D01*
X121359786Y-61950109D01*
X121359788Y-61950106D01*
X121359792Y-61950104D01*
X121510104Y-61799792D01*
X121510106Y-61799788D01*
X121510109Y-61799786D01*
X121635048Y-61627820D01*
X121635047Y-61627820D01*
X121635051Y-61627816D01*
X121731557Y-61438412D01*
X121797246Y-61236243D01*
X121830500Y-61026287D01*
X121830500Y-60813713D01*
X126749500Y-60813713D01*
X126749500Y-61026286D01*
X126774841Y-61186287D01*
X126782754Y-61236243D01*
X126845001Y-61427820D01*
X126848444Y-61438414D01*
X126944951Y-61627820D01*
X127069890Y-61799786D01*
X127220213Y-61950109D01*
X127392182Y-62075050D01*
X127400946Y-62079516D01*
X127451742Y-62127491D01*
X127468536Y-62195312D01*
X127445998Y-62261447D01*
X127400946Y-62300484D01*
X127392182Y-62304949D01*
X127220213Y-62429890D01*
X127069890Y-62580213D01*
X126944951Y-62752179D01*
X126848444Y-62941585D01*
X126782753Y-63143760D01*
X126749500Y-63353713D01*
X126749500Y-63566286D01*
X126774841Y-63726287D01*
X126782754Y-63776243D01*
X126834741Y-63936243D01*
X126848444Y-63978414D01*
X126944951Y-64167820D01*
X127069890Y-64339786D01*
X127220213Y-64490109D01*
X127392182Y-64615050D01*
X127400946Y-64619516D01*
X127451742Y-64667491D01*
X127468536Y-64735312D01*
X127445998Y-64801447D01*
X127400946Y-64840484D01*
X127392182Y-64844949D01*
X127220213Y-64969890D01*
X127069890Y-65120213D01*
X126944951Y-65292179D01*
X126848444Y-65481585D01*
X126782753Y-65683760D01*
X126749500Y-65893713D01*
X126749500Y-66106286D01*
X126774841Y-66266287D01*
X126782754Y-66316243D01*
X126834741Y-66476243D01*
X126848444Y-66518414D01*
X126944951Y-66707820D01*
X127069890Y-66879786D01*
X127220213Y-67030109D01*
X127392182Y-67155050D01*
X127400946Y-67159516D01*
X127451742Y-67207491D01*
X127468536Y-67275312D01*
X127445998Y-67341447D01*
X127400946Y-67380484D01*
X127392182Y-67384949D01*
X127220213Y-67509890D01*
X127069890Y-67660213D01*
X126944951Y-67832179D01*
X126848444Y-68021585D01*
X126782753Y-68223760D01*
X126749500Y-68433713D01*
X126749500Y-68646286D01*
X126774841Y-68806287D01*
X126782754Y-68856243D01*
X126834741Y-69016243D01*
X126848444Y-69058414D01*
X126944951Y-69247820D01*
X127069890Y-69419786D01*
X127220213Y-69570109D01*
X127392179Y-69695048D01*
X127392181Y-69695049D01*
X127392184Y-69695051D01*
X127581588Y-69791557D01*
X127783757Y-69857246D01*
X127993713Y-69890500D01*
X127993714Y-69890500D01*
X128206286Y-69890500D01*
X128206287Y-69890500D01*
X128416243Y-69857246D01*
X128618412Y-69791557D01*
X128807816Y-69695051D01*
X128966458Y-69579792D01*
X128979786Y-69570109D01*
X128979788Y-69570106D01*
X128979792Y-69570104D01*
X129130104Y-69419792D01*
X129130106Y-69419788D01*
X129130109Y-69419786D01*
X129255048Y-69247820D01*
X129255047Y-69247820D01*
X129255051Y-69247816D01*
X129351557Y-69058412D01*
X129417246Y-68856243D01*
X129450500Y-68646287D01*
X129450500Y-68433713D01*
X129417246Y-68223757D01*
X129351557Y-68021588D01*
X129255051Y-67832184D01*
X129255049Y-67832181D01*
X129255048Y-67832179D01*
X129130109Y-67660213D01*
X128979786Y-67509890D01*
X128807820Y-67384951D01*
X128807115Y-67384591D01*
X128799054Y-67380485D01*
X128748259Y-67332512D01*
X128731463Y-67264692D01*
X128753999Y-67198556D01*
X128799054Y-67159515D01*
X128807816Y-67155051D01*
X128862891Y-67115037D01*
X128979786Y-67030109D01*
X128979788Y-67030106D01*
X128979792Y-67030104D01*
X129130104Y-66879792D01*
X129130106Y-66879788D01*
X129130109Y-66879786D01*
X129255048Y-66707820D01*
X129255047Y-66707820D01*
X129255051Y-66707816D01*
X129351557Y-66518412D01*
X129417246Y-66316243D01*
X129450500Y-66106287D01*
X129450500Y-65893713D01*
X129417246Y-65683757D01*
X129351557Y-65481588D01*
X129255051Y-65292184D01*
X129255049Y-65292181D01*
X129255048Y-65292179D01*
X129130109Y-65120213D01*
X128979786Y-64969890D01*
X128807820Y-64844951D01*
X128807115Y-64844591D01*
X128799054Y-64840485D01*
X128748259Y-64792512D01*
X128731463Y-64724692D01*
X128753999Y-64658556D01*
X128799054Y-64619515D01*
X128807816Y-64615051D01*
X128897209Y-64550104D01*
X128979786Y-64490109D01*
X128979788Y-64490106D01*
X128979792Y-64490104D01*
X129130104Y-64339792D01*
X129130106Y-64339788D01*
X129130109Y-64339786D01*
X129255048Y-64167820D01*
X129255047Y-64167820D01*
X129255051Y-64167816D01*
X129351557Y-63978412D01*
X129417246Y-63776243D01*
X129450500Y-63566287D01*
X129450500Y-63353713D01*
X129417246Y-63143757D01*
X129351557Y-62941588D01*
X129255051Y-62752184D01*
X129255049Y-62752181D01*
X129255048Y-62752179D01*
X129130109Y-62580213D01*
X128979786Y-62429890D01*
X128807820Y-62304951D01*
X128807115Y-62304591D01*
X128799054Y-62300485D01*
X128748259Y-62252512D01*
X128731463Y-62184692D01*
X128753999Y-62118556D01*
X128799054Y-62079515D01*
X128807816Y-62075051D01*
X128838459Y-62052788D01*
X128979786Y-61950109D01*
X128979788Y-61950106D01*
X128979792Y-61950104D01*
X129130104Y-61799792D01*
X129130106Y-61799788D01*
X129130109Y-61799786D01*
X129255048Y-61627820D01*
X129255047Y-61627820D01*
X129255051Y-61627816D01*
X129351557Y-61438412D01*
X129417246Y-61236243D01*
X129450500Y-61026287D01*
X129450500Y-60813713D01*
X129417246Y-60603757D01*
X129351557Y-60401588D01*
X129255051Y-60212184D01*
X129255049Y-60212181D01*
X129255048Y-60212179D01*
X129130109Y-60040213D01*
X129016181Y-59926285D01*
X128982696Y-59864962D01*
X128987680Y-59795270D01*
X129029552Y-59739337D01*
X129060529Y-59722422D01*
X129192086Y-59673354D01*
X129192093Y-59673350D01*
X129307187Y-59587190D01*
X129307190Y-59587187D01*
X129393350Y-59472093D01*
X129393354Y-59472086D01*
X129443596Y-59337379D01*
X129443598Y-59337372D01*
X129449999Y-59277844D01*
X129450000Y-59277827D01*
X129450000Y-58630000D01*
X128533012Y-58630000D01*
X128565925Y-58572993D01*
X128600000Y-58445826D01*
X128600000Y-58314174D01*
X128565925Y-58187007D01*
X128533012Y-58130000D01*
X129450000Y-58130000D01*
X129450000Y-58073713D01*
X132649500Y-58073713D01*
X132649500Y-58286286D01*
X132679258Y-58474174D01*
X132682754Y-58496243D01*
X132744737Y-58687007D01*
X132748444Y-58698414D01*
X132844951Y-58887820D01*
X132969890Y-59059786D01*
X133120213Y-59210109D01*
X133292182Y-59335050D01*
X133300946Y-59339516D01*
X133351742Y-59387491D01*
X133368536Y-59455312D01*
X133345998Y-59521447D01*
X133300946Y-59560484D01*
X133292182Y-59564949D01*
X133120213Y-59689890D01*
X132969890Y-59840213D01*
X132844951Y-60012179D01*
X132748444Y-60201585D01*
X132682753Y-60403760D01*
X132673594Y-60461588D01*
X132649500Y-60613713D01*
X132649500Y-60826287D01*
X132682754Y-61036243D01*
X132747738Y-61236243D01*
X132748444Y-61238414D01*
X132844951Y-61427820D01*
X132969890Y-61599786D01*
X133120213Y-61750109D01*
X133292179Y-61875048D01*
X133292181Y-61875049D01*
X133292184Y-61875051D01*
X133301493Y-61879794D01*
X133352290Y-61927766D01*
X133369087Y-61995587D01*
X133346552Y-62061722D01*
X133301502Y-62100762D01*
X133292443Y-62105378D01*
X133120540Y-62230272D01*
X133120535Y-62230276D01*
X132970276Y-62380535D01*
X132970272Y-62380540D01*
X132845379Y-62552442D01*
X132748904Y-62741782D01*
X132683242Y-62943870D01*
X132683242Y-62943873D01*
X132672769Y-63010000D01*
X133566988Y-63010000D01*
X133534075Y-63067007D01*
X133500000Y-63194174D01*
X133500000Y-63325826D01*
X133534075Y-63452993D01*
X133566988Y-63510000D01*
X132672769Y-63510000D01*
X132683242Y-63576126D01*
X132683242Y-63576129D01*
X132748904Y-63778217D01*
X132845379Y-63967557D01*
X132970272Y-64139459D01*
X132970276Y-64139464D01*
X133083946Y-64253134D01*
X133117431Y-64314457D01*
X133112447Y-64384149D01*
X133070575Y-64440082D01*
X133039598Y-64456997D01*
X132907671Y-64506202D01*
X132907664Y-64506206D01*
X132792455Y-64592452D01*
X132792452Y-64592455D01*
X132706206Y-64707664D01*
X132706202Y-64707671D01*
X132655908Y-64842517D01*
X132649676Y-64900486D01*
X132649501Y-64902123D01*
X132649500Y-64902135D01*
X132649500Y-66697870D01*
X132649501Y-66697876D01*
X132655908Y-66757483D01*
X132706202Y-66892328D01*
X132706206Y-66892335D01*
X132792452Y-67007544D01*
X132792455Y-67007547D01*
X132907664Y-67093793D01*
X132907671Y-67093797D01*
X133042517Y-67144091D01*
X133042516Y-67144091D01*
X133049444Y-67144835D01*
X133102127Y-67150500D01*
X134897872Y-67150499D01*
X134957483Y-67144091D01*
X135092331Y-67093796D01*
X135207546Y-67007546D01*
X135293796Y-66892331D01*
X135344091Y-66757483D01*
X135350500Y-66697873D01*
X135350499Y-64902128D01*
X135344353Y-64844951D01*
X135344091Y-64842516D01*
X135293797Y-64707671D01*
X135293793Y-64707664D01*
X135207547Y-64592455D01*
X135207544Y-64592452D01*
X135092335Y-64506206D01*
X135092328Y-64506202D01*
X134960401Y-64456997D01*
X134904467Y-64415126D01*
X134880050Y-64349662D01*
X134894902Y-64281389D01*
X134916053Y-64253133D01*
X135029728Y-64139458D01*
X135154620Y-63967557D01*
X135251095Y-63778217D01*
X135316757Y-63576129D01*
X135316757Y-63576126D01*
X135327231Y-63510000D01*
X134433012Y-63510000D01*
X134465925Y-63452993D01*
X134500000Y-63325826D01*
X134500000Y-63194174D01*
X134465925Y-63067007D01*
X134433012Y-63010000D01*
X135327231Y-63010000D01*
X135316757Y-62943873D01*
X135316757Y-62943870D01*
X135251095Y-62741782D01*
X135154620Y-62552442D01*
X135029727Y-62380540D01*
X135029723Y-62380535D01*
X134879464Y-62230276D01*
X134879459Y-62230272D01*
X134707555Y-62105377D01*
X134698500Y-62100763D01*
X134647706Y-62052788D01*
X134630912Y-61984966D01*
X134653451Y-61918832D01*
X134698508Y-61879793D01*
X134707816Y-61875051D01*
X134827886Y-61787816D01*
X134879786Y-61750109D01*
X134879788Y-61750106D01*
X134879792Y-61750104D01*
X135030104Y-61599792D01*
X135030106Y-61599788D01*
X135030109Y-61599786D01*
X135155048Y-61427820D01*
X135155047Y-61427820D01*
X135155051Y-61427816D01*
X135251557Y-61238412D01*
X135317246Y-61036243D01*
X135327150Y-60973713D01*
X154729500Y-60973713D01*
X154729500Y-61186286D01*
X154745338Y-61286287D01*
X154762754Y-61396243D01*
X154776456Y-61438414D01*
X154828444Y-61598414D01*
X154924951Y-61787820D01*
X155049890Y-61959786D01*
X155200213Y-62110109D01*
X155372182Y-62235050D01*
X155380946Y-62239516D01*
X155431742Y-62287491D01*
X155448536Y-62355312D01*
X155425998Y-62421447D01*
X155380946Y-62460484D01*
X155372182Y-62464949D01*
X155200213Y-62589890D01*
X155049890Y-62740213D01*
X154924951Y-62912179D01*
X154828444Y-63101585D01*
X154762753Y-63303760D01*
X154729500Y-63513713D01*
X154729500Y-63726286D01*
X154745338Y-63826287D01*
X154762754Y-63936243D01*
X154776456Y-63978414D01*
X154828444Y-64138414D01*
X154924951Y-64327820D01*
X155049890Y-64499786D01*
X155200213Y-64650109D01*
X155372182Y-64775050D01*
X155380946Y-64779516D01*
X155431742Y-64827491D01*
X155448536Y-64895312D01*
X155425998Y-64961447D01*
X155380946Y-65000484D01*
X155372182Y-65004949D01*
X155200213Y-65129890D01*
X155049890Y-65280213D01*
X154924951Y-65452179D01*
X154828444Y-65641585D01*
X154762753Y-65843760D01*
X154729500Y-66053713D01*
X154729500Y-66266286D01*
X154745338Y-66366287D01*
X154762754Y-66476243D01*
X154776456Y-66518414D01*
X154828444Y-66678414D01*
X154924951Y-66867820D01*
X155049890Y-67039786D01*
X155200213Y-67190109D01*
X155372182Y-67315050D01*
X155380946Y-67319516D01*
X155431742Y-67367491D01*
X155448536Y-67435312D01*
X155425998Y-67501447D01*
X155380946Y-67540484D01*
X155372182Y-67544949D01*
X155200213Y-67669890D01*
X155049890Y-67820213D01*
X154924951Y-67992179D01*
X154828444Y-68181585D01*
X154762753Y-68383760D01*
X154729500Y-68593713D01*
X154729500Y-68806286D01*
X154759071Y-68992993D01*
X154762754Y-69016243D01*
X154789968Y-69100000D01*
X154828444Y-69218414D01*
X154924951Y-69407820D01*
X155049890Y-69579786D01*
X155200213Y-69730109D01*
X155372179Y-69855048D01*
X155372181Y-69855049D01*
X155372184Y-69855051D01*
X155561588Y-69951557D01*
X155763757Y-70017246D01*
X155973713Y-70050500D01*
X155973714Y-70050500D01*
X156186286Y-70050500D01*
X156186287Y-70050500D01*
X156396243Y-70017246D01*
X156598412Y-69951557D01*
X156787816Y-69855051D01*
X156809789Y-69839086D01*
X156959786Y-69730109D01*
X156959788Y-69730106D01*
X156959792Y-69730104D01*
X157110104Y-69579792D01*
X157110106Y-69579788D01*
X157110109Y-69579786D01*
X157235048Y-69407820D01*
X157235047Y-69407820D01*
X157235051Y-69407816D01*
X157331557Y-69218412D01*
X157397246Y-69016243D01*
X157430500Y-68806287D01*
X157430500Y-68593713D01*
X157397246Y-68383757D01*
X157331557Y-68181588D01*
X157235051Y-67992184D01*
X157235049Y-67992181D01*
X157235048Y-67992179D01*
X157110109Y-67820213D01*
X156959786Y-67669890D01*
X156787820Y-67544951D01*
X156787115Y-67544591D01*
X156779054Y-67540485D01*
X156728259Y-67492512D01*
X156711463Y-67424692D01*
X156733999Y-67358556D01*
X156779054Y-67319515D01*
X156787816Y-67315051D01*
X156833351Y-67281968D01*
X156959786Y-67190109D01*
X156959788Y-67190106D01*
X156959792Y-67190104D01*
X157110104Y-67039792D01*
X157110106Y-67039788D01*
X157110109Y-67039786D01*
X157235048Y-66867820D01*
X157235047Y-66867820D01*
X157235051Y-66867816D01*
X157331557Y-66678412D01*
X157397246Y-66476243D01*
X157430500Y-66266287D01*
X157430500Y-66053713D01*
X157397246Y-65843757D01*
X157331557Y-65641588D01*
X157235051Y-65452184D01*
X157235049Y-65452181D01*
X157235048Y-65452179D01*
X157110109Y-65280213D01*
X156959786Y-65129890D01*
X156787820Y-65004951D01*
X156787115Y-65004591D01*
X156779054Y-65000485D01*
X156728259Y-64952512D01*
X156711463Y-64884692D01*
X156733999Y-64818556D01*
X156779054Y-64779515D01*
X156787816Y-64775051D01*
X156824439Y-64748443D01*
X156959786Y-64650109D01*
X156959788Y-64650106D01*
X156959792Y-64650104D01*
X157110104Y-64499792D01*
X157110106Y-64499788D01*
X157110109Y-64499786D01*
X157235048Y-64327820D01*
X157235047Y-64327820D01*
X157235051Y-64327816D01*
X157331557Y-64138412D01*
X157397246Y-63936243D01*
X157430500Y-63726287D01*
X157430500Y-63513713D01*
X157397246Y-63303757D01*
X157331557Y-63101588D01*
X157235051Y-62912184D01*
X157235049Y-62912181D01*
X157235048Y-62912179D01*
X157110109Y-62740213D01*
X156959786Y-62589890D01*
X156787820Y-62464951D01*
X156787115Y-62464591D01*
X156779054Y-62460485D01*
X156728259Y-62412512D01*
X156711463Y-62344692D01*
X156733999Y-62278556D01*
X156779054Y-62239515D01*
X156787816Y-62235051D01*
X156824439Y-62208443D01*
X156959786Y-62110109D01*
X156959788Y-62110106D01*
X156959792Y-62110104D01*
X157110104Y-61959792D01*
X157110106Y-61959788D01*
X157110109Y-61959786D01*
X157235048Y-61787820D01*
X157235047Y-61787820D01*
X157235051Y-61787816D01*
X157331557Y-61598412D01*
X157397246Y-61396243D01*
X157430500Y-61186287D01*
X157430500Y-60973713D01*
X162349500Y-60973713D01*
X162349500Y-61186286D01*
X162365338Y-61286287D01*
X162382754Y-61396243D01*
X162396456Y-61438414D01*
X162448444Y-61598414D01*
X162544951Y-61787820D01*
X162669890Y-61959786D01*
X162820213Y-62110109D01*
X162992182Y-62235050D01*
X163000946Y-62239516D01*
X163051742Y-62287491D01*
X163068536Y-62355312D01*
X163045998Y-62421447D01*
X163000946Y-62460484D01*
X162992182Y-62464949D01*
X162820213Y-62589890D01*
X162669890Y-62740213D01*
X162544951Y-62912179D01*
X162448444Y-63101585D01*
X162382753Y-63303760D01*
X162349500Y-63513713D01*
X162349500Y-63726286D01*
X162365338Y-63826287D01*
X162382754Y-63936243D01*
X162396456Y-63978414D01*
X162448444Y-64138414D01*
X162544951Y-64327820D01*
X162669890Y-64499786D01*
X162820213Y-64650109D01*
X162992182Y-64775050D01*
X163000946Y-64779516D01*
X163051742Y-64827491D01*
X163068536Y-64895312D01*
X163045998Y-64961447D01*
X163000946Y-65000484D01*
X162992182Y-65004949D01*
X162820213Y-65129890D01*
X162669890Y-65280213D01*
X162544951Y-65452179D01*
X162448444Y-65641585D01*
X162382753Y-65843760D01*
X162349500Y-66053713D01*
X162349500Y-66266286D01*
X162365338Y-66366287D01*
X162382754Y-66476243D01*
X162396456Y-66518414D01*
X162448444Y-66678414D01*
X162544951Y-66867820D01*
X162669890Y-67039786D01*
X162820213Y-67190109D01*
X162992182Y-67315050D01*
X163000946Y-67319516D01*
X163051742Y-67367491D01*
X163068536Y-67435312D01*
X163045998Y-67501447D01*
X163000946Y-67540484D01*
X162992182Y-67544949D01*
X162820213Y-67669890D01*
X162669890Y-67820213D01*
X162544951Y-67992179D01*
X162448444Y-68181585D01*
X162382753Y-68383760D01*
X162349500Y-68593713D01*
X162349500Y-68806286D01*
X162379071Y-68992993D01*
X162382754Y-69016243D01*
X162409968Y-69100000D01*
X162448444Y-69218414D01*
X162544951Y-69407820D01*
X162669890Y-69579786D01*
X162820213Y-69730109D01*
X162992179Y-69855048D01*
X162992181Y-69855049D01*
X162992184Y-69855051D01*
X163181588Y-69951557D01*
X163383757Y-70017246D01*
X163593713Y-70050500D01*
X163593714Y-70050500D01*
X163806286Y-70050500D01*
X163806287Y-70050500D01*
X164016243Y-70017246D01*
X164218412Y-69951557D01*
X164407816Y-69855051D01*
X164429789Y-69839086D01*
X164579786Y-69730109D01*
X164579788Y-69730106D01*
X164579792Y-69730104D01*
X164730104Y-69579792D01*
X164730106Y-69579788D01*
X164730109Y-69579786D01*
X164855048Y-69407820D01*
X164855047Y-69407820D01*
X164855051Y-69407816D01*
X164951557Y-69218412D01*
X165017246Y-69016243D01*
X165050500Y-68806287D01*
X165050500Y-68593713D01*
X165017246Y-68383757D01*
X164951557Y-68181588D01*
X164855051Y-67992184D01*
X164855049Y-67992181D01*
X164855048Y-67992179D01*
X164730109Y-67820213D01*
X164579786Y-67669890D01*
X164407820Y-67544951D01*
X164407115Y-67544591D01*
X164399054Y-67540485D01*
X164348259Y-67492512D01*
X164331463Y-67424692D01*
X164353999Y-67358556D01*
X164399054Y-67319515D01*
X164407816Y-67315051D01*
X164453351Y-67281968D01*
X164579786Y-67190109D01*
X164579788Y-67190106D01*
X164579792Y-67190104D01*
X164730104Y-67039792D01*
X164730106Y-67039788D01*
X164730109Y-67039786D01*
X164855048Y-66867820D01*
X164855047Y-66867820D01*
X164855051Y-66867816D01*
X164951557Y-66678412D01*
X165017246Y-66476243D01*
X165050500Y-66266287D01*
X165050500Y-66053713D01*
X165017246Y-65843757D01*
X164951557Y-65641588D01*
X164855051Y-65452184D01*
X164855049Y-65452181D01*
X164855048Y-65452179D01*
X164730109Y-65280213D01*
X164579786Y-65129890D01*
X164407820Y-65004951D01*
X164407115Y-65004591D01*
X164399054Y-65000485D01*
X164348259Y-64952512D01*
X164331463Y-64884692D01*
X164353999Y-64818556D01*
X164399054Y-64779515D01*
X164407816Y-64775051D01*
X164444439Y-64748443D01*
X164579786Y-64650109D01*
X164579788Y-64650106D01*
X164579792Y-64650104D01*
X164730104Y-64499792D01*
X164730106Y-64499788D01*
X164730109Y-64499786D01*
X164855048Y-64327820D01*
X164855047Y-64327820D01*
X164855051Y-64327816D01*
X164951557Y-64138412D01*
X165017246Y-63936243D01*
X165050500Y-63726287D01*
X165050500Y-63513713D01*
X165017246Y-63303757D01*
X164951557Y-63101588D01*
X164855051Y-62912184D01*
X164855049Y-62912181D01*
X164855048Y-62912179D01*
X164730109Y-62740213D01*
X164579786Y-62589890D01*
X164407820Y-62464951D01*
X164407115Y-62464591D01*
X164399054Y-62460485D01*
X164348259Y-62412512D01*
X164331463Y-62344692D01*
X164353999Y-62278556D01*
X164399054Y-62239515D01*
X164407816Y-62235051D01*
X164444439Y-62208443D01*
X164579786Y-62110109D01*
X164579788Y-62110106D01*
X164579792Y-62110104D01*
X164730104Y-61959792D01*
X164730106Y-61959788D01*
X164730109Y-61959786D01*
X164855048Y-61787820D01*
X164855047Y-61787820D01*
X164855051Y-61787816D01*
X164951557Y-61598412D01*
X165017246Y-61396243D01*
X165050500Y-61186287D01*
X165050500Y-60973713D01*
X165017246Y-60763757D01*
X164951557Y-60561588D01*
X164855051Y-60372184D01*
X164855049Y-60372181D01*
X164855048Y-60372179D01*
X164730109Y-60200213D01*
X164616181Y-60086285D01*
X164582696Y-60024962D01*
X164587680Y-59955270D01*
X164629552Y-59899337D01*
X164660529Y-59882422D01*
X164792086Y-59833354D01*
X164792093Y-59833350D01*
X164907187Y-59747190D01*
X164907190Y-59747187D01*
X164993350Y-59632093D01*
X164993354Y-59632086D01*
X165043596Y-59497379D01*
X165043598Y-59497372D01*
X165049999Y-59437844D01*
X165050000Y-59437827D01*
X165050000Y-58790000D01*
X164133012Y-58790000D01*
X164165925Y-58732993D01*
X164200000Y-58605826D01*
X164200000Y-58474174D01*
X164165925Y-58347007D01*
X164133012Y-58290000D01*
X165050000Y-58290000D01*
X165050000Y-57642172D01*
X165049999Y-57642155D01*
X165043598Y-57582627D01*
X165043596Y-57582620D01*
X164993354Y-57447913D01*
X164993350Y-57447906D01*
X164907190Y-57332812D01*
X164907187Y-57332809D01*
X164792093Y-57246649D01*
X164792086Y-57246645D01*
X164657379Y-57196403D01*
X164657372Y-57196401D01*
X164597844Y-57190000D01*
X163950000Y-57190000D01*
X163950000Y-58106988D01*
X163892993Y-58074075D01*
X163765826Y-58040000D01*
X163634174Y-58040000D01*
X163507007Y-58074075D01*
X163450000Y-58106988D01*
X163450000Y-57190000D01*
X162802155Y-57190000D01*
X162742627Y-57196401D01*
X162742620Y-57196403D01*
X162607913Y-57246645D01*
X162607906Y-57246649D01*
X162492812Y-57332809D01*
X162492809Y-57332812D01*
X162406649Y-57447906D01*
X162406645Y-57447913D01*
X162356403Y-57582620D01*
X162356401Y-57582627D01*
X162350000Y-57642155D01*
X162350000Y-58290000D01*
X163266988Y-58290000D01*
X163234075Y-58347007D01*
X163200000Y-58474174D01*
X163200000Y-58605826D01*
X163234075Y-58732993D01*
X163266988Y-58790000D01*
X162350000Y-58790000D01*
X162350000Y-59437844D01*
X162356401Y-59497372D01*
X162356403Y-59497379D01*
X162406645Y-59632086D01*
X162406649Y-59632093D01*
X162492809Y-59747187D01*
X162492812Y-59747190D01*
X162607906Y-59833350D01*
X162607913Y-59833354D01*
X162739470Y-59882422D01*
X162795404Y-59924293D01*
X162819821Y-59989758D01*
X162804969Y-60058031D01*
X162783819Y-60086285D01*
X162669889Y-60200215D01*
X162544951Y-60372179D01*
X162448444Y-60561585D01*
X162382753Y-60763760D01*
X162349500Y-60973713D01*
X157430500Y-60973713D01*
X157397246Y-60763757D01*
X157331557Y-60561588D01*
X157235051Y-60372184D01*
X157235049Y-60372181D01*
X157235048Y-60372179D01*
X157110109Y-60200213D01*
X156996181Y-60086285D01*
X156962696Y-60024962D01*
X156967680Y-59955270D01*
X157009552Y-59899337D01*
X157040529Y-59882422D01*
X157172086Y-59833354D01*
X157172093Y-59833350D01*
X157287187Y-59747190D01*
X157287190Y-59747187D01*
X157373350Y-59632093D01*
X157373354Y-59632086D01*
X157423596Y-59497379D01*
X157423598Y-59497372D01*
X157429999Y-59437844D01*
X157430000Y-59437827D01*
X157430000Y-58790000D01*
X156513012Y-58790000D01*
X156545925Y-58732993D01*
X156580000Y-58605826D01*
X156580000Y-58474174D01*
X156545925Y-58347007D01*
X156513012Y-58290000D01*
X157430000Y-58290000D01*
X157430000Y-57642172D01*
X157429999Y-57642155D01*
X157423598Y-57582627D01*
X157423596Y-57582620D01*
X157373354Y-57447913D01*
X157373350Y-57447906D01*
X157287190Y-57332812D01*
X157287187Y-57332809D01*
X157172093Y-57246649D01*
X157172086Y-57246645D01*
X157037379Y-57196403D01*
X157037372Y-57196401D01*
X156977844Y-57190000D01*
X156330000Y-57190000D01*
X156330000Y-58106988D01*
X156272993Y-58074075D01*
X156145826Y-58040000D01*
X156014174Y-58040000D01*
X155887007Y-58074075D01*
X155830000Y-58106988D01*
X155830000Y-57190000D01*
X155182155Y-57190000D01*
X155122627Y-57196401D01*
X155122620Y-57196403D01*
X154987913Y-57246645D01*
X154987906Y-57246649D01*
X154872812Y-57332809D01*
X154872809Y-57332812D01*
X154786649Y-57447906D01*
X154786645Y-57447913D01*
X154736403Y-57582620D01*
X154736401Y-57582627D01*
X154730000Y-57642155D01*
X154730000Y-58290000D01*
X155646988Y-58290000D01*
X155614075Y-58347007D01*
X155580000Y-58474174D01*
X155580000Y-58605826D01*
X155614075Y-58732993D01*
X155646988Y-58790000D01*
X154730000Y-58790000D01*
X154730000Y-59437844D01*
X154736401Y-59497372D01*
X154736403Y-59497379D01*
X154786645Y-59632086D01*
X154786649Y-59632093D01*
X154872809Y-59747187D01*
X154872812Y-59747190D01*
X154987906Y-59833350D01*
X154987913Y-59833354D01*
X155119470Y-59882422D01*
X155175404Y-59924293D01*
X155199821Y-59989758D01*
X155184969Y-60058031D01*
X155163819Y-60086285D01*
X155049889Y-60200215D01*
X154924951Y-60372179D01*
X154828444Y-60561585D01*
X154762753Y-60763760D01*
X154729500Y-60973713D01*
X135327150Y-60973713D01*
X135350500Y-60826287D01*
X135350500Y-60613713D01*
X135317246Y-60403757D01*
X135251557Y-60201588D01*
X135155051Y-60012184D01*
X135155049Y-60012181D01*
X135155048Y-60012179D01*
X135030109Y-59840213D01*
X134879786Y-59689890D01*
X134707820Y-59564951D01*
X134707115Y-59564591D01*
X134699054Y-59560485D01*
X134648259Y-59512512D01*
X134631463Y-59444692D01*
X134653999Y-59378556D01*
X134699054Y-59339515D01*
X134707816Y-59335051D01*
X134729789Y-59319086D01*
X134879786Y-59210109D01*
X134879788Y-59210106D01*
X134879792Y-59210104D01*
X135030104Y-59059792D01*
X135030106Y-59059788D01*
X135030109Y-59059786D01*
X135155048Y-58887820D01*
X135155047Y-58887820D01*
X135155051Y-58887816D01*
X135251557Y-58698412D01*
X135317246Y-58496243D01*
X135350500Y-58286287D01*
X135350500Y-58073713D01*
X135317246Y-57863757D01*
X135251557Y-57661588D01*
X135155051Y-57472184D01*
X135155049Y-57472181D01*
X135155048Y-57472179D01*
X135030109Y-57300213D01*
X134879786Y-57149890D01*
X134707820Y-57024951D01*
X134518414Y-56928444D01*
X134518413Y-56928443D01*
X134518412Y-56928443D01*
X134316243Y-56862754D01*
X134316241Y-56862753D01*
X134316240Y-56862753D01*
X134154957Y-56837208D01*
X134106287Y-56829500D01*
X133893713Y-56829500D01*
X133845042Y-56837208D01*
X133683760Y-56862753D01*
X133481585Y-56928444D01*
X133292179Y-57024951D01*
X133120213Y-57149890D01*
X132969890Y-57300213D01*
X132844951Y-57472179D01*
X132748444Y-57661585D01*
X132682753Y-57863760D01*
X132649500Y-58073713D01*
X129450000Y-58073713D01*
X129450000Y-57482172D01*
X129449999Y-57482155D01*
X129443598Y-57422627D01*
X129443596Y-57422620D01*
X129393354Y-57287913D01*
X129393350Y-57287906D01*
X129307190Y-57172812D01*
X129307187Y-57172809D01*
X129192093Y-57086649D01*
X129192086Y-57086645D01*
X129057379Y-57036403D01*
X129057372Y-57036401D01*
X128997844Y-57030000D01*
X128350000Y-57030000D01*
X128350000Y-57946988D01*
X128292993Y-57914075D01*
X128165826Y-57880000D01*
X128034174Y-57880000D01*
X127907007Y-57914075D01*
X127850000Y-57946988D01*
X127850000Y-57030000D01*
X127202155Y-57030000D01*
X127142627Y-57036401D01*
X127142620Y-57036403D01*
X127007913Y-57086645D01*
X127007906Y-57086649D01*
X126892812Y-57172809D01*
X126892809Y-57172812D01*
X126806649Y-57287906D01*
X126806645Y-57287913D01*
X126756403Y-57422620D01*
X126756401Y-57422627D01*
X126750000Y-57482155D01*
X126750000Y-58130000D01*
X127666988Y-58130000D01*
X127634075Y-58187007D01*
X127600000Y-58314174D01*
X127600000Y-58445826D01*
X127634075Y-58572993D01*
X127666988Y-58630000D01*
X126750000Y-58630000D01*
X126750000Y-59277844D01*
X126756401Y-59337372D01*
X126756403Y-59337379D01*
X126806645Y-59472086D01*
X126806649Y-59472093D01*
X126892809Y-59587187D01*
X126892812Y-59587190D01*
X127007906Y-59673350D01*
X127007913Y-59673354D01*
X127139470Y-59722422D01*
X127195404Y-59764293D01*
X127219821Y-59829758D01*
X127204969Y-59898031D01*
X127183819Y-59926285D01*
X127069889Y-60040215D01*
X126944951Y-60212179D01*
X126848444Y-60401585D01*
X126782753Y-60603760D01*
X126749500Y-60813713D01*
X121830500Y-60813713D01*
X121797246Y-60603757D01*
X121731557Y-60401588D01*
X121635051Y-60212184D01*
X121635049Y-60212181D01*
X121635048Y-60212179D01*
X121510109Y-60040213D01*
X121396181Y-59926285D01*
X121362696Y-59864962D01*
X121367680Y-59795270D01*
X121409552Y-59739337D01*
X121440529Y-59722422D01*
X121572086Y-59673354D01*
X121572093Y-59673350D01*
X121687187Y-59587190D01*
X121687190Y-59587187D01*
X121773350Y-59472093D01*
X121773354Y-59472086D01*
X121823596Y-59337379D01*
X121823598Y-59337372D01*
X121829999Y-59277844D01*
X121830000Y-59277827D01*
X121830000Y-58630000D01*
X120913012Y-58630000D01*
X120945925Y-58572993D01*
X120980000Y-58445826D01*
X120980000Y-58314174D01*
X120945925Y-58187007D01*
X120913012Y-58130000D01*
X121830000Y-58130000D01*
X121830000Y-57482172D01*
X121829999Y-57482155D01*
X121823598Y-57422627D01*
X121823596Y-57422620D01*
X121773354Y-57287913D01*
X121773350Y-57287906D01*
X121687190Y-57172812D01*
X121687187Y-57172809D01*
X121572093Y-57086649D01*
X121572086Y-57086645D01*
X121437379Y-57036403D01*
X121437372Y-57036401D01*
X121377844Y-57030000D01*
X120730000Y-57030000D01*
X120730000Y-57946988D01*
X120672993Y-57914075D01*
X120545826Y-57880000D01*
X120414174Y-57880000D01*
X120287007Y-57914075D01*
X120230000Y-57946988D01*
X120230000Y-57030000D01*
X119582155Y-57030000D01*
X119522627Y-57036401D01*
X119522620Y-57036403D01*
X119387913Y-57086645D01*
X119387906Y-57086649D01*
X119272812Y-57172809D01*
X119272809Y-57172812D01*
X119186649Y-57287906D01*
X119186645Y-57287913D01*
X119136403Y-57422620D01*
X119136401Y-57422627D01*
X119130000Y-57482155D01*
X119130000Y-58130000D01*
X120046988Y-58130000D01*
X120014075Y-58187007D01*
X119980000Y-58314174D01*
X119980000Y-58445826D01*
X120014075Y-58572993D01*
X120046988Y-58630000D01*
X119130000Y-58630000D01*
X119130000Y-59277844D01*
X119136401Y-59337372D01*
X119136403Y-59337379D01*
X119186645Y-59472086D01*
X119186649Y-59472093D01*
X119272809Y-59587187D01*
X119272812Y-59587190D01*
X119387906Y-59673350D01*
X119387913Y-59673354D01*
X119519470Y-59722422D01*
X119575404Y-59764293D01*
X119599821Y-59829758D01*
X119584969Y-59898031D01*
X119563819Y-59926285D01*
X119449889Y-60040215D01*
X119324951Y-60212179D01*
X119228444Y-60401585D01*
X119162753Y-60603760D01*
X119129500Y-60813713D01*
X116140997Y-60813713D01*
X116117246Y-60663757D01*
X116051557Y-60461588D01*
X115955051Y-60272184D01*
X115955049Y-60272181D01*
X115955048Y-60272179D01*
X115830109Y-60100213D01*
X115679786Y-59949890D01*
X115507820Y-59824951D01*
X115507115Y-59824591D01*
X115499054Y-59820485D01*
X115448259Y-59772512D01*
X115431463Y-59704692D01*
X115453999Y-59638556D01*
X115499054Y-59599515D01*
X115507816Y-59595051D01*
X115542984Y-59569500D01*
X115679786Y-59470109D01*
X115679788Y-59470106D01*
X115679792Y-59470104D01*
X115830104Y-59319792D01*
X115830106Y-59319788D01*
X115830109Y-59319786D01*
X115955048Y-59147820D01*
X115955047Y-59147820D01*
X115955051Y-59147816D01*
X116051557Y-58958412D01*
X116117246Y-58756243D01*
X116150500Y-58546287D01*
X116150500Y-58333713D01*
X116117246Y-58123757D01*
X116051557Y-57921588D01*
X115955051Y-57732184D01*
X115955049Y-57732181D01*
X115955048Y-57732179D01*
X115830113Y-57560219D01*
X115830106Y-57560211D01*
X115830104Y-57560208D01*
X115679792Y-57409896D01*
X115679786Y-57409890D01*
X115507820Y-57284951D01*
X115507115Y-57284591D01*
X115499054Y-57280485D01*
X115448259Y-57232512D01*
X115431463Y-57164692D01*
X115453999Y-57098556D01*
X115499054Y-57059515D01*
X115507816Y-57055051D01*
X115542296Y-57030000D01*
X115679786Y-56930109D01*
X115679788Y-56930106D01*
X115679792Y-56930104D01*
X115830104Y-56779792D01*
X115830106Y-56779788D01*
X115830109Y-56779786D01*
X115955048Y-56607820D01*
X115955047Y-56607820D01*
X115955051Y-56607816D01*
X116051557Y-56418412D01*
X116117246Y-56216243D01*
X116150500Y-56006287D01*
X116150500Y-55993713D01*
X167949500Y-55993713D01*
X167949500Y-56206287D01*
X167982754Y-56416243D01*
X168045001Y-56607820D01*
X168048444Y-56618414D01*
X168144951Y-56807820D01*
X168269890Y-56979786D01*
X168420213Y-57130109D01*
X168592182Y-57255050D01*
X168600946Y-57259516D01*
X168651742Y-57307491D01*
X168668536Y-57375312D01*
X168645998Y-57441447D01*
X168600946Y-57480484D01*
X168592182Y-57484949D01*
X168420213Y-57609890D01*
X168269890Y-57760213D01*
X168144951Y-57932179D01*
X168048444Y-58121585D01*
X167982753Y-58323760D01*
X167963420Y-58445826D01*
X167949500Y-58533713D01*
X167949500Y-58746287D01*
X167982754Y-58956243D01*
X168045001Y-59147820D01*
X168048444Y-59158414D01*
X168144951Y-59347820D01*
X168269890Y-59519786D01*
X168420213Y-59670109D01*
X168592182Y-59795050D01*
X168600946Y-59799516D01*
X168651742Y-59847491D01*
X168668536Y-59915312D01*
X168645998Y-59981447D01*
X168600946Y-60020484D01*
X168592182Y-60024949D01*
X168420213Y-60149890D01*
X168269890Y-60300213D01*
X168144951Y-60472179D01*
X168048444Y-60661585D01*
X167982753Y-60863760D01*
X167949500Y-61073713D01*
X167949500Y-61286286D01*
X167973594Y-61438414D01*
X167982754Y-61496243D01*
X168045001Y-61687820D01*
X168048444Y-61698414D01*
X168144951Y-61887820D01*
X168269890Y-62059786D01*
X168420213Y-62210109D01*
X168592182Y-62335050D01*
X168600946Y-62339516D01*
X168651742Y-62387491D01*
X168668536Y-62455312D01*
X168645998Y-62521447D01*
X168600946Y-62560484D01*
X168592182Y-62564949D01*
X168420213Y-62689890D01*
X168269890Y-62840213D01*
X168144951Y-63012179D01*
X168048444Y-63201585D01*
X167982753Y-63403760D01*
X167949500Y-63613713D01*
X167949500Y-63826286D01*
X167973594Y-63978414D01*
X167982754Y-64036243D01*
X168045001Y-64227820D01*
X168048444Y-64238414D01*
X168144951Y-64427820D01*
X168269890Y-64599786D01*
X168420213Y-64750109D01*
X168592182Y-64875050D01*
X168600946Y-64879516D01*
X168651742Y-64927491D01*
X168668536Y-64995312D01*
X168645998Y-65061447D01*
X168600946Y-65100484D01*
X168592182Y-65104949D01*
X168420213Y-65229890D01*
X168269890Y-65380213D01*
X168144951Y-65552179D01*
X168048444Y-65741585D01*
X167982753Y-65943760D01*
X167949500Y-66153713D01*
X167949500Y-66366286D01*
X167973594Y-66518414D01*
X167982754Y-66576243D01*
X168045001Y-66767820D01*
X168048444Y-66778414D01*
X168144951Y-66967820D01*
X168269890Y-67139786D01*
X168383818Y-67253714D01*
X168417303Y-67315037D01*
X168412319Y-67384729D01*
X168370447Y-67440662D01*
X168339471Y-67457577D01*
X168207912Y-67506646D01*
X168207906Y-67506649D01*
X168092812Y-67592809D01*
X168092809Y-67592812D01*
X168006649Y-67707906D01*
X168006645Y-67707913D01*
X167956403Y-67842620D01*
X167956401Y-67842627D01*
X167950000Y-67902155D01*
X167950000Y-68550000D01*
X168866988Y-68550000D01*
X168834075Y-68607007D01*
X168800000Y-68734174D01*
X168800000Y-68865826D01*
X168834075Y-68992993D01*
X168866988Y-69050000D01*
X167950000Y-69050000D01*
X167950000Y-69697844D01*
X167956401Y-69757372D01*
X167956403Y-69757379D01*
X168006645Y-69892086D01*
X168006649Y-69892093D01*
X168092809Y-70007187D01*
X168092812Y-70007190D01*
X168207906Y-70093350D01*
X168207913Y-70093354D01*
X168342620Y-70143596D01*
X168342627Y-70143598D01*
X168402155Y-70149999D01*
X168402172Y-70150000D01*
X169050000Y-70150000D01*
X169050000Y-69233012D01*
X169107007Y-69265925D01*
X169234174Y-69300000D01*
X169365826Y-69300000D01*
X169492993Y-69265925D01*
X169550000Y-69233012D01*
X169550000Y-70150000D01*
X170197828Y-70150000D01*
X170197844Y-70149999D01*
X170257372Y-70143598D01*
X170257379Y-70143596D01*
X170392086Y-70093354D01*
X170392093Y-70093350D01*
X170507187Y-70007190D01*
X170507190Y-70007187D01*
X170593350Y-69892093D01*
X170593354Y-69892086D01*
X170643596Y-69757379D01*
X170643598Y-69757372D01*
X170649999Y-69697844D01*
X170650000Y-69697827D01*
X170650000Y-69050000D01*
X169733012Y-69050000D01*
X169765925Y-68992993D01*
X169800000Y-68865826D01*
X169800000Y-68734174D01*
X169765925Y-68607007D01*
X169733012Y-68550000D01*
X170650000Y-68550000D01*
X170650000Y-67902172D01*
X170649999Y-67902155D01*
X170643598Y-67842627D01*
X170643596Y-67842620D01*
X170593354Y-67707913D01*
X170593350Y-67707906D01*
X170507190Y-67592812D01*
X170507187Y-67592809D01*
X170392093Y-67506649D01*
X170392088Y-67506646D01*
X170260528Y-67457577D01*
X170204595Y-67415705D01*
X170180178Y-67350241D01*
X170195030Y-67281968D01*
X170216175Y-67253720D01*
X170330104Y-67139792D01*
X170348090Y-67115037D01*
X170455048Y-66967820D01*
X170455047Y-66967820D01*
X170455051Y-66967816D01*
X170551557Y-66778412D01*
X170617246Y-66576243D01*
X170650500Y-66366287D01*
X170650500Y-66153713D01*
X170617246Y-65943757D01*
X170551557Y-65741588D01*
X170455051Y-65552184D01*
X170455049Y-65552181D01*
X170455048Y-65552179D01*
X170330109Y-65380213D01*
X170179786Y-65229890D01*
X170007820Y-65104951D01*
X170007115Y-65104591D01*
X169999054Y-65100485D01*
X169948259Y-65052512D01*
X169931463Y-64984692D01*
X169953999Y-64918556D01*
X169999054Y-64879515D01*
X170007816Y-64875051D01*
X170029789Y-64859086D01*
X170179786Y-64750109D01*
X170179788Y-64750106D01*
X170179792Y-64750104D01*
X170330104Y-64599792D01*
X170330106Y-64599788D01*
X170330109Y-64599786D01*
X170455048Y-64427820D01*
X170455047Y-64427820D01*
X170455051Y-64427816D01*
X170551557Y-64238412D01*
X170617246Y-64036243D01*
X170650500Y-63826287D01*
X170650500Y-63613713D01*
X170617246Y-63403757D01*
X170551557Y-63201588D01*
X170455051Y-63012184D01*
X170455049Y-63012181D01*
X170455048Y-63012179D01*
X170330109Y-62840213D01*
X170179786Y-62689890D01*
X170007820Y-62564951D01*
X170007115Y-62564591D01*
X169999054Y-62560485D01*
X169948259Y-62512512D01*
X169931463Y-62444692D01*
X169953999Y-62378556D01*
X169999054Y-62339515D01*
X170007816Y-62335051D01*
X170029789Y-62319086D01*
X170179786Y-62210109D01*
X170179788Y-62210106D01*
X170179792Y-62210104D01*
X170330104Y-62059792D01*
X170330106Y-62059788D01*
X170330109Y-62059786D01*
X170455048Y-61887820D01*
X170455047Y-61887820D01*
X170455051Y-61887816D01*
X170551557Y-61698412D01*
X170617246Y-61496243D01*
X170650500Y-61286287D01*
X170650500Y-61073713D01*
X170617246Y-60863757D01*
X170551557Y-60661588D01*
X170455051Y-60472184D01*
X170455049Y-60472181D01*
X170455048Y-60472179D01*
X170330109Y-60300213D01*
X170179786Y-60149890D01*
X170007820Y-60024951D01*
X170007115Y-60024591D01*
X169999054Y-60020485D01*
X169948259Y-59972512D01*
X169931463Y-59904692D01*
X169953999Y-59838556D01*
X169999054Y-59799515D01*
X170007816Y-59795051D01*
X170029789Y-59779086D01*
X170179786Y-59670109D01*
X170179788Y-59670106D01*
X170179792Y-59670104D01*
X170330104Y-59519792D01*
X170330106Y-59519788D01*
X170330109Y-59519786D01*
X170455048Y-59347820D01*
X170455047Y-59347820D01*
X170455051Y-59347816D01*
X170551557Y-59158412D01*
X170617246Y-58956243D01*
X170650500Y-58746287D01*
X170650500Y-58533713D01*
X170617246Y-58323757D01*
X170551557Y-58121588D01*
X170455051Y-57932184D01*
X170455049Y-57932181D01*
X170455048Y-57932179D01*
X170330109Y-57760213D01*
X170179786Y-57609890D01*
X170007820Y-57484951D01*
X170007115Y-57484591D01*
X169999054Y-57480485D01*
X169948259Y-57432512D01*
X169931463Y-57364692D01*
X169953999Y-57298556D01*
X169999054Y-57259515D01*
X170007816Y-57255051D01*
X170029789Y-57239086D01*
X170179786Y-57130109D01*
X170179788Y-57130106D01*
X170179792Y-57130104D01*
X170330104Y-56979792D01*
X170330106Y-56979788D01*
X170330109Y-56979786D01*
X170455048Y-56807820D01*
X170455047Y-56807820D01*
X170455051Y-56807816D01*
X170551557Y-56618412D01*
X170617246Y-56416243D01*
X170650500Y-56206287D01*
X170650500Y-55993713D01*
X170617246Y-55783757D01*
X170551557Y-55581588D01*
X170455051Y-55392184D01*
X170455049Y-55392181D01*
X170455048Y-55392179D01*
X170330109Y-55220213D01*
X170179786Y-55069890D01*
X170007820Y-54944951D01*
X169818414Y-54848444D01*
X169818413Y-54848443D01*
X169818412Y-54848443D01*
X169616243Y-54782754D01*
X169616241Y-54782753D01*
X169616240Y-54782753D01*
X169454957Y-54757208D01*
X169406287Y-54749500D01*
X169193713Y-54749500D01*
X169145042Y-54757208D01*
X168983760Y-54782753D01*
X168781585Y-54848444D01*
X168592179Y-54944951D01*
X168420213Y-55069890D01*
X168269890Y-55220213D01*
X168144951Y-55392179D01*
X168048444Y-55581585D01*
X167982753Y-55783760D01*
X167981177Y-55793713D01*
X167949500Y-55993713D01*
X116150500Y-55993713D01*
X116150500Y-55793713D01*
X116117246Y-55583757D01*
X116051557Y-55381588D01*
X115955051Y-55192184D01*
X115955049Y-55192181D01*
X115955048Y-55192179D01*
X115830109Y-55020213D01*
X115679786Y-54869890D01*
X115507820Y-54744951D01*
X115318414Y-54648444D01*
X115318413Y-54648443D01*
X115318412Y-54648443D01*
X115116243Y-54582754D01*
X115116241Y-54582753D01*
X115116240Y-54582753D01*
X114954957Y-54557208D01*
X114906287Y-54549500D01*
X114693713Y-54549500D01*
X114645042Y-54557208D01*
X114483760Y-54582753D01*
X114281585Y-54648444D01*
X114092179Y-54744951D01*
X113920213Y-54869890D01*
X113769890Y-55020213D01*
X113644951Y-55192179D01*
X113548444Y-55381585D01*
X113482753Y-55583760D01*
X113451077Y-55783757D01*
X113449500Y-55793713D01*
X112450500Y-55793713D01*
X112450500Y-53574500D01*
X112470185Y-53507461D01*
X112522989Y-53461706D01*
X112574500Y-53450500D01*
X171435391Y-53450500D01*
X171502430Y-53470185D01*
G37*
%TD.AperFunction*%
%TD*%
M02*
