%TF.GenerationSoftware,KiCad,Pcbnew,9.0.0*%
%TF.CreationDate,2025-09-12T14:09:26-04:00*%
%TF.ProjectId,Full-Board_rev1,46756c6c-2d42-46f6-9172-645f72657631,rev?*%
%TF.SameCoordinates,Original*%
%TF.FileFunction,Copper,L1,Top*%
%TF.FilePolarity,Positive*%
%FSLAX46Y46*%
G04 Gerber Fmt 4.6, Leading zero omitted, Abs format (unit mm)*
G04 Created by KiCad (PCBNEW 9.0.0) date 2025-09-12 14:09:26*
%MOMM*%
%LPD*%
G01*
G04 APERTURE LIST*
G04 Aperture macros list*
%AMRoundRect*
0 Rectangle with rounded corners*
0 $1 Rounding radius*
0 $2 $3 $4 $5 $6 $7 $8 $9 X,Y pos of 4 corners*
0 Add a 4 corners polygon primitive as box body*
4,1,4,$2,$3,$4,$5,$6,$7,$8,$9,$2,$3,0*
0 Add four circle primitives for the rounded corners*
1,1,$1+$1,$2,$3*
1,1,$1+$1,$4,$5*
1,1,$1+$1,$6,$7*
1,1,$1+$1,$8,$9*
0 Add four rect primitives between the rounded corners*
20,1,$1+$1,$2,$3,$4,$5,0*
20,1,$1+$1,$4,$5,$6,$7,0*
20,1,$1+$1,$6,$7,$8,$9,0*
20,1,$1+$1,$8,$9,$2,$3,0*%
G04 Aperture macros list end*
%TA.AperFunction,ComponentPad*%
%ADD10RoundRect,0.250000X-0.625000X0.350000X-0.625000X-0.350000X0.625000X-0.350000X0.625000X0.350000X0*%
%TD*%
%TA.AperFunction,ComponentPad*%
%ADD11O,1.750000X1.200000*%
%TD*%
%TA.AperFunction,SMDPad,CuDef*%
%ADD12R,1.800000X1.350000*%
%TD*%
%TA.AperFunction,ComponentPad*%
%ADD13C,1.150000*%
%TD*%
%TA.AperFunction,ComponentPad*%
%ADD14R,1.700000X1.700000*%
%TD*%
%TA.AperFunction,ComponentPad*%
%ADD15O,1.700000X1.700000*%
%TD*%
%TA.AperFunction,SMDPad,CuDef*%
%ADD16R,0.800000X0.800000*%
%TD*%
%TA.AperFunction,ComponentPad*%
%ADD17C,1.600000*%
%TD*%
%TA.AperFunction,ComponentPad*%
%ADD18O,1.600000X1.600000*%
%TD*%
%TA.AperFunction,SMDPad,CuDef*%
%ADD19R,1.140000X0.600000*%
%TD*%
%TA.AperFunction,SMDPad,CuDef*%
%ADD20R,1.140000X0.300000*%
%TD*%
%TA.AperFunction,ComponentPad*%
%ADD21O,2.000000X0.900000*%
%TD*%
%TA.AperFunction,ComponentPad*%
%ADD22O,1.700000X0.900000*%
%TD*%
%TA.AperFunction,SMDPad,CuDef*%
%ADD23RoundRect,0.250000X-0.475000X0.337500X-0.475000X-0.337500X0.475000X-0.337500X0.475000X0.337500X0*%
%TD*%
%TA.AperFunction,SMDPad,CuDef*%
%ADD24R,1.500000X1.000000*%
%TD*%
%TA.AperFunction,SMDPad,CuDef*%
%ADD25RoundRect,0.250000X0.475000X-0.337500X0.475000X0.337500X-0.475000X0.337500X-0.475000X-0.337500X0*%
%TD*%
%TA.AperFunction,SMDPad,CuDef*%
%ADD26R,1.500000X0.900000*%
%TD*%
%TA.AperFunction,SMDPad,CuDef*%
%ADD27R,1.350000X1.800000*%
%TD*%
%TA.AperFunction,ViaPad*%
%ADD28C,0.600000*%
%TD*%
%TA.AperFunction,ViaPad*%
%ADD29C,0.400000*%
%TD*%
%TA.AperFunction,Conductor*%
%ADD30C,0.164100*%
%TD*%
%TA.AperFunction,Conductor*%
%ADD31C,0.200000*%
%TD*%
%TA.AperFunction,Conductor*%
%ADD32C,0.300000*%
%TD*%
G04 APERTURE END LIST*
D10*
%TO.P,J8,1,Pin_1*%
%TO.N,/6V*%
X115340000Y-84090000D03*
D11*
%TO.P,J8,2,Pin_2*%
%TO.N,GND*%
X115340000Y-86090000D03*
%TO.P,J8,3,Pin_3*%
%TO.N,unconnected-(J8-Pin_3-Pad3)*%
X115340000Y-88090000D03*
%TD*%
D12*
%TO.P,S2,1*%
%TO.N,GND*%
X167400000Y-85025000D03*
%TO.P,S2,2*%
%TO.N,/CHIP_PU*%
X167400000Y-89175000D03*
%TD*%
D13*
%TO.P,C7,1*%
%TO.N,GND*%
X138700000Y-75100000D03*
%TO.P,C7,2*%
%TO.N,/GPIO9*%
X133700000Y-75100000D03*
%TD*%
D14*
%TO.P,J12,1,Pin_1*%
%TO.N,Net-(J12-Pin_1)*%
X114500000Y-102900000D03*
D15*
%TO.P,J12,2,Pin_2*%
%TO.N,Net-(J12-Pin_2)*%
X114500000Y-100360000D03*
%TD*%
D14*
%TO.P,J5,1,Pin_1*%
%TO.N,GND*%
X120480000Y-58380000D03*
D15*
%TO.P,J5,2,Pin_2*%
%TO.N,/6V*%
X120480000Y-60920000D03*
%TO.P,J5,3,Pin_3*%
%TO.N,/M2_O2*%
X120480000Y-63460000D03*
%TO.P,J5,4,Pin_4*%
%TO.N,/M2_O1*%
X120480000Y-66000000D03*
%TO.P,J5,5,Pin_5*%
%TO.N,unconnected-(J5-Pin_5-Pad5)*%
X120480000Y-68540000D03*
%TD*%
D16*
%TO.P,D1,A*%
%TO.N,Net-(D1-PadA)*%
X123550000Y-98200000D03*
%TO.P,D1,C*%
%TO.N,GND*%
X122050000Y-98200000D03*
%TD*%
D14*
%TO.P,J13,1,Pin_1*%
%TO.N,Net-(J11-Pin_2)*%
X134000000Y-65800000D03*
D15*
%TO.P,J13,2,Pin_2*%
%TO.N,GND*%
X134000000Y-63260000D03*
%TO.P,J13,3,Pin_3*%
%TO.N,/VIN*%
X134000000Y-60720000D03*
%TO.P,J13,4,Pin_4*%
X134000000Y-58180000D03*
%TD*%
D17*
%TO.P,R8,1*%
%TO.N,/3V3*%
X128500000Y-98200000D03*
D18*
%TO.P,R8,2*%
%TO.N,Net-(D1-PadA)*%
X125960000Y-98200000D03*
%TD*%
D17*
%TO.P,R3,1*%
%TO.N,Net-(J1-CC1)*%
X161700000Y-79300000D03*
D18*
%TO.P,R3,2*%
%TO.N,GND*%
X159160000Y-79300000D03*
%TD*%
D14*
%TO.P,J11,1,Pin_1*%
%TO.N,/3V3*%
X146500000Y-74800000D03*
D15*
%TO.P,J11,2,Pin_2*%
%TO.N,Net-(J11-Pin_2)*%
X143960000Y-74800000D03*
%TD*%
D17*
%TO.P,R7,1*%
%TO.N,/3V3*%
X128560000Y-75100000D03*
D18*
%TO.P,R7,2*%
%TO.N,/GPIO9*%
X131100000Y-75100000D03*
%TD*%
D14*
%TO.P,J6,1,Pin_1*%
%TO.N,GND*%
X114800000Y-68600000D03*
D15*
%TO.P,J6,2,Pin_2*%
%TO.N,/ENC_PH_A_M2*%
X114800000Y-66060000D03*
%TO.P,J6,3,Pin_3*%
%TO.N,/ENC_PH_B_M2*%
X114800000Y-63520000D03*
%TO.P,J6,4,Pin_4*%
%TO.N,/3V3*%
X114800000Y-60980000D03*
%TO.P,J6,5,Pin_5*%
%TO.N,/M2_O1*%
X114800000Y-58440000D03*
%TO.P,J6,6,Pin_6*%
%TO.N,/M2_O2*%
X114800000Y-55900000D03*
%TD*%
D17*
%TO.P,R5,1*%
%TO.N,/3V3*%
X161050000Y-82720000D03*
D18*
%TO.P,R5,2*%
%TO.N,/CHIP_PU*%
X158510000Y-82720000D03*
%TD*%
D14*
%TO.P,J4,1,Pin_1*%
%TO.N,GND*%
X128100000Y-58380000D03*
D15*
%TO.P,J4,2,Pin_2*%
%TO.N,/3V3*%
X128100000Y-60920000D03*
%TO.P,J4,3,Pin_3*%
%TO.N,/M2_PWM_EN*%
X128100000Y-63460000D03*
%TO.P,J4,4,Pin_4*%
%TO.N,/M2_PWM_PH*%
X128100000Y-66000000D03*
%TO.P,J4,5,Pin_5*%
%TO.N,unconnected-(J4-Pin_5-Pad5)*%
X128100000Y-68540000D03*
%TD*%
D19*
%TO.P,J1,A1_B12,GND*%
%TO.N,GND*%
X164450000Y-80500000D03*
%TO.P,J1,A4_B9,VBUS*%
%TO.N,unconnected-(J1-VBUS-PadA4_B9)_1*%
X164450000Y-79700000D03*
D20*
%TO.P,J1,A5,CC1*%
%TO.N,Net-(J1-CC1)*%
X164450000Y-78550000D03*
%TO.P,J1,A6,DP1*%
%TO.N,/USB-C/D+*%
X164450000Y-77550000D03*
%TO.P,J1,A7,DN1*%
%TO.N,/USB-C/D-*%
X164450000Y-77050000D03*
%TO.P,J1,A8,SBU1*%
%TO.N,unconnected-(J1-SBU1-PadA8)*%
X164450000Y-76050000D03*
D19*
%TO.P,J1,B1_A12,GND*%
%TO.N,GND*%
X164450000Y-74100000D03*
%TO.P,J1,B4_A9,VBUS*%
%TO.N,unconnected-(J1-VBUS-PadA4_B9)*%
X164450000Y-74900000D03*
D20*
%TO.P,J1,B5,CC2*%
%TO.N,Net-(J1-CC2)*%
X164450000Y-75550000D03*
%TO.P,J1,B6,DP2*%
%TO.N,/USB-C/D+*%
X164450000Y-76550000D03*
%TO.P,J1,B7,DN2*%
%TO.N,/USB-C/D-*%
X164450000Y-78050000D03*
%TO.P,J1,B8,SBU2*%
%TO.N,unconnected-(J1-SBU2-PadB8)*%
X164450000Y-79050000D03*
D21*
%TO.P,J1,S1,SHIELD*%
%TO.N,GND*%
X165030000Y-81625000D03*
%TO.P,J1,S2,SHIELD*%
X165030000Y-72975000D03*
D22*
%TO.P,J1,S3,SHIELD*%
X169200000Y-81625000D03*
%TO.P,J1,S4,SHIELD*%
X169200000Y-72975000D03*
%TD*%
D17*
%TO.P,R1,1*%
%TO.N,/Status_LED/LED_GPIO*%
X130445000Y-90200000D03*
D18*
%TO.P,R1,2*%
%TO.N,Net-(D2-DIN)*%
X127905000Y-90200000D03*
%TD*%
D23*
%TO.P,C5,1*%
%TO.N,GND*%
X154100000Y-93822500D03*
%TO.P,C5,2*%
%TO.N,/3V3*%
X154100000Y-95897500D03*
%TD*%
D14*
%TO.P,J7,1,Pin_1*%
%TO.N,GND*%
X169300000Y-68800000D03*
D15*
%TO.P,J7,2,Pin_2*%
%TO.N,/ENC_PH_A_M1*%
X169300000Y-66260000D03*
%TO.P,J7,3,Pin_3*%
%TO.N,/ENC_PH_B_M1*%
X169300000Y-63720000D03*
%TO.P,J7,4,Pin_4*%
%TO.N,/3V3*%
X169300000Y-61180000D03*
%TO.P,J7,5,Pin_5*%
%TO.N,/M1_O1*%
X169300000Y-58640000D03*
%TO.P,J7,6,Pin_6*%
%TO.N,/M1_O2*%
X169300000Y-56100000D03*
%TD*%
D14*
%TO.P,J3,1,Pin_1*%
%TO.N,GND*%
X163700000Y-58540000D03*
D15*
%TO.P,J3,2,Pin_2*%
%TO.N,/3V3*%
X163700000Y-61080000D03*
%TO.P,J3,3,Pin_3*%
%TO.N,/M1_PWM_EN*%
X163700000Y-63620000D03*
%TO.P,J3,4,Pin_4*%
%TO.N,/M1_PWM_PH*%
X163700000Y-66160000D03*
%TO.P,J3,5,Pin_5*%
%TO.N,unconnected-(J3-Pin_5-Pad5)*%
X163700000Y-68700000D03*
%TD*%
D14*
%TO.P,J2,1,Pin_1*%
%TO.N,GND*%
X156080000Y-58540000D03*
D15*
%TO.P,J2,2,Pin_2*%
%TO.N,/6V*%
X156080000Y-61080000D03*
%TO.P,J2,3,Pin_3*%
%TO.N,/M1_O2*%
X156080000Y-63620000D03*
%TO.P,J2,4,Pin_4*%
%TO.N,/M1_O1*%
X156080000Y-66160000D03*
%TO.P,J2,5,Pin_5*%
%TO.N,unconnected-(J2-Pin_5-Pad5)*%
X156080000Y-68700000D03*
%TD*%
D24*
%TO.P,D2,1,VSS*%
%TO.N,GND*%
X125050000Y-93400000D03*
%TO.P,D2,2,DIN*%
%TO.N,Net-(D2-DIN)*%
X125050000Y-90200000D03*
%TO.P,D2,3,VDD*%
%TO.N,/3V3*%
X120150000Y-90200000D03*
%TO.P,D2,4,DOUT*%
%TO.N,unconnected-(D2-DOUT-Pad4)*%
X120150000Y-93400000D03*
%TD*%
D25*
%TO.P,C1,1*%
%TO.N,GND*%
X154090000Y-100145000D03*
%TO.P,C1,2*%
%TO.N,/3V3*%
X154090000Y-98070000D03*
%TD*%
D26*
%TO.P,Q2,1,GND*%
%TO.N,GND*%
X151350000Y-96560000D03*
%TO.P,Q2,2,3V3*%
%TO.N,/3V3*%
X151350000Y-95290000D03*
%TO.P,Q2,3,EN/CHIP_PU*%
%TO.N,/CHIP_PU*%
X151350000Y-94020000D03*
%TO.P,Q2,4,MTMS/GPIO4/ADC1_CH4*%
%TO.N,/IR_O5*%
X151350000Y-92750000D03*
%TO.P,Q2,5,MTDI/GPIO5/ADC1_CH5*%
%TO.N,/IR_O6*%
X151350000Y-91480000D03*
%TO.P,Q2,6,MTCK/GPIO6/ADC1_CH6*%
%TO.N,/IR_O7*%
X151350000Y-90210000D03*
%TO.P,Q2,7,MTDO/GPIO7*%
%TO.N,/IR_O8*%
X151350000Y-88940000D03*
%TO.P,Q2,8,GPIO0/ADC1_CH0/XTAL_32K_P*%
%TO.N,/M1_PWM_EN*%
X151350000Y-87670000D03*
%TO.P,Q2,9,GPIO1/ADC1_CH1/XTAL_32K_N*%
%TO.N,/M1_PWM_PH*%
X151350000Y-86400000D03*
%TO.P,Q2,10,GPIO8*%
%TO.N,Net-(Q2-GPIO8)*%
X151350000Y-85130000D03*
%TO.P,Q2,11,GPIO10*%
%TO.N,/ENC_PH_B_M1*%
X151350000Y-83860000D03*
%TO.P,Q2,12,GPIO11*%
%TO.N,/ENC_PH_A_M1*%
X151350000Y-82590000D03*
%TO.P,Q2,13,GPIO12/USB_D-*%
%TO.N,/USB-C/D-*%
X151350000Y-81320000D03*
%TO.P,Q2,14,GPIO13/USB_D+*%
%TO.N,/USB-C/D+*%
X151350000Y-80050000D03*
%TO.P,Q2,15,GPIO9*%
%TO.N,/GPIO9*%
X133850000Y-80050000D03*
%TO.P,Q2,16,GPIO18*%
%TO.N,/ENC_PH_B_M2*%
X133850000Y-81320000D03*
%TO.P,Q2,17,GPIO19*%
%TO.N,/ENC_PH_A_M2*%
X133850000Y-82590000D03*
%TO.P,Q2,18,GPIO20*%
%TO.N,/M2_PWM_PH*%
X133850000Y-83860000D03*
%TO.P,Q2,19,GPIO21*%
%TO.N,/M2_PWM_EN*%
X133850000Y-85130000D03*
%TO.P,Q2,20,GPIO22*%
%TO.N,Net-(J12-Pin_1)*%
X133850000Y-86400000D03*
%TO.P,Q2,21,GPIO23*%
%TO.N,Net-(J12-Pin_2)*%
X133850000Y-87670000D03*
%TO.P,Q2,22,NC*%
%TO.N,unconnected-(Q2-NC-Pad22)*%
X133850000Y-88940000D03*
%TO.P,Q2,23,GPIO15*%
%TO.N,/Status_LED/LED_GPIO*%
X133850000Y-90210000D03*
%TO.P,Q2,24,U0RXD/GPIO17*%
%TO.N,/IR_O1*%
X133850000Y-91480000D03*
%TO.P,Q2,25,U0TXD/GPIO16*%
%TO.N,/IR_O2*%
X133850000Y-92750000D03*
%TO.P,Q2,26,GPIO3/ADC1_CH3*%
%TO.N,/IR_O3*%
X133850000Y-94020000D03*
%TO.P,Q2,27,GPIO2/ADC1_CH2*%
%TO.N,/IR_O4*%
X133850000Y-95290000D03*
%TO.P,Q2,28,GND*%
%TO.N,GND*%
X133850000Y-96560000D03*
D16*
%TO.P,Q2,29,GND*%
X145355000Y-92090000D03*
X145355000Y-90840000D03*
X145355000Y-89590000D03*
X144105000Y-92090000D03*
X144105000Y-90840000D03*
X144105000Y-89590000D03*
X142855000Y-92090000D03*
X142855000Y-90840000D03*
X142855000Y-89590000D03*
%TD*%
D25*
%TO.P,C6,1*%
%TO.N,GND*%
X155110000Y-84107500D03*
%TO.P,C6,2*%
%TO.N,/CHIP_PU*%
X155110000Y-82032500D03*
%TD*%
D10*
%TO.P,J9,1,Pin_1*%
%TO.N,/VIN*%
X115350000Y-76300000D03*
D11*
%TO.P,J9,2,Pin_2*%
%TO.N,GND*%
X115350000Y-78300000D03*
%TD*%
D13*
%TO.P,C8,1*%
%TO.N,/CHIP_PU*%
X167400000Y-91600000D03*
%TO.P,C8,2*%
%TO.N,GND*%
X167400000Y-96600000D03*
%TD*%
D14*
%TO.P,J10,1,Pin_1*%
%TO.N,GND*%
X130090000Y-107400000D03*
D15*
%TO.P,J10,2,Pin_2*%
%TO.N,/3V3*%
X132630000Y-107400000D03*
%TO.P,J10,3,Pin_3*%
%TO.N,unconnected-(J10-Pin_3-Pad3)*%
X135170000Y-107400000D03*
%TO.P,J10,4,Pin_4*%
%TO.N,/IR_O1*%
X137710000Y-107400000D03*
%TO.P,J10,5,Pin_5*%
%TO.N,/IR_O2*%
X140250000Y-107400000D03*
%TO.P,J10,6,Pin_6*%
%TO.N,/IR_O3*%
X142790000Y-107400000D03*
%TO.P,J10,7,Pin_7*%
%TO.N,/IR_O4*%
X145330000Y-107400000D03*
%TO.P,J10,8,Pin_8*%
%TO.N,/IR_O5*%
X147870000Y-107400000D03*
%TO.P,J10,9,Pin_9*%
%TO.N,/IR_O6*%
X150410000Y-107400000D03*
%TO.P,J10,10,Pin_10*%
%TO.N,/IR_O7*%
X152950000Y-107400000D03*
%TO.P,J10,11,Pin_11*%
%TO.N,/IR_O8*%
X155490000Y-107400000D03*
%TD*%
D17*
%TO.P,R4,1*%
%TO.N,Net-(J1-CC2)*%
X161000000Y-74340000D03*
D18*
%TO.P,R4,2*%
%TO.N,GND*%
X161000000Y-71800000D03*
%TD*%
D27*
%TO.P,S1,1*%
%TO.N,GND*%
X126925000Y-80000000D03*
%TO.P,S1,2*%
%TO.N,/GPIO9*%
X131075000Y-80000000D03*
%TD*%
D17*
%TO.P,R6,1*%
%TO.N,/3V3*%
X157745000Y-87300000D03*
D18*
%TO.P,R6,2*%
%TO.N,Net-(Q2-GPIO8)*%
X155205000Y-87300000D03*
%TD*%
D28*
%TO.N,/3V3*%
X156400000Y-101610000D03*
X116410000Y-92670000D03*
D29*
%TO.N,GND*%
X143480000Y-89590000D03*
X144110000Y-91470000D03*
X143480000Y-92080000D03*
X144110000Y-90220000D03*
D28*
X163850000Y-84420000D03*
D29*
X143480000Y-90840000D03*
D28*
X163020000Y-73760000D03*
X143150000Y-96530000D03*
X157040000Y-85100000D03*
D29*
X142850000Y-91470000D03*
D28*
X154990000Y-102540000D03*
X155980000Y-97150000D03*
X122990000Y-101870000D03*
D29*
X144730000Y-90840000D03*
X145360000Y-91470000D03*
X145350000Y-90220000D03*
X142850000Y-90220000D03*
D28*
X121930000Y-82480000D03*
D29*
X144730000Y-92080000D03*
X144730000Y-89590000D03*
D28*
%TO.N,/CHIP_PU*%
X148340000Y-92090000D03*
%TD*%
D30*
%TO.N,/USB-C/D-*%
X163590000Y-77880000D02*
X163760000Y-78050000D01*
X163760000Y-78050000D02*
X164450000Y-78050000D01*
X163820000Y-77050000D02*
X163590000Y-77280000D01*
X163590000Y-77280000D02*
X163590000Y-77880000D01*
X164450000Y-77050000D02*
X163820000Y-77050000D01*
%TO.N,/USB-C/D+*%
X165070000Y-77550000D02*
X164450000Y-77550000D01*
X165320000Y-76800000D02*
X165320000Y-77300000D01*
X165070000Y-76550000D02*
X165320000Y-76800000D01*
X164450000Y-76550000D02*
X165070000Y-76550000D01*
X165320000Y-77300000D02*
X165070000Y-77550000D01*
%TO.N,/USB-C/D-*%
X152475001Y-81320000D02*
X151350000Y-81320000D01*
X152902951Y-80892050D02*
X152475001Y-81320000D01*
X153910764Y-80892050D02*
X152902951Y-80892050D01*
X157795764Y-77007050D02*
X153910764Y-80892050D01*
X163552049Y-77007050D02*
X157795764Y-77007050D01*
X163594999Y-77050000D02*
X163552049Y-77007050D01*
%TO.N,/USB-C/D+*%
X152475001Y-80050000D02*
X151350000Y-80050000D01*
X152902951Y-80477950D02*
X152475001Y-80050000D01*
%TO.N,/USB-C/D-*%
X164450000Y-77050000D02*
X163594999Y-77050000D01*
%TO.N,/USB-C/D+*%
X153739236Y-80477950D02*
X152902951Y-80477950D01*
X163552049Y-76592950D02*
X157624236Y-76592950D01*
X163594999Y-76550000D02*
X163552049Y-76592950D01*
X164450000Y-76550000D02*
X163594999Y-76550000D01*
X157624236Y-76592950D02*
X153739236Y-80477950D01*
D31*
%TO.N,GND*%
X144730000Y-90840000D02*
X145355000Y-90840000D01*
X144110000Y-92085000D02*
X144105000Y-92090000D01*
X144110000Y-91470000D02*
X144110000Y-92085000D01*
X144110000Y-90220000D02*
X144110000Y-89595000D01*
X144110000Y-89595000D02*
X144105000Y-89590000D01*
X142850000Y-89595000D02*
X142855000Y-89590000D01*
X142850000Y-90220000D02*
X142850000Y-89595000D01*
X143480000Y-90840000D02*
X142855000Y-90840000D01*
X142865000Y-92080000D02*
X142855000Y-92090000D01*
X143480000Y-92080000D02*
X142865000Y-92080000D01*
X144115000Y-92080000D02*
X144105000Y-92090000D01*
X144730000Y-92080000D02*
X144115000Y-92080000D01*
X145360000Y-92085000D02*
X145355000Y-92090000D01*
X145360000Y-91470000D02*
X145360000Y-92085000D01*
X145350000Y-90220000D02*
X145350000Y-90835000D01*
X145350000Y-90835000D02*
X145355000Y-90840000D01*
X144730000Y-89590000D02*
X145355000Y-89590000D01*
X143480000Y-89590000D02*
X144105000Y-89590000D01*
X144110000Y-90845000D02*
X144105000Y-90840000D01*
X144110000Y-91470000D02*
X144110000Y-90845000D01*
X144730000Y-90840000D02*
X144105000Y-90840000D01*
X143480000Y-90840000D02*
X144105000Y-90840000D01*
%TO.N,/IR_O8*%
X155460000Y-107687100D02*
X155460000Y-108000000D01*
X158681000Y-92541000D02*
X158681000Y-104466100D01*
X158681000Y-104466100D02*
X155460000Y-107687100D01*
X155080000Y-88940000D02*
X158681000Y-92541000D01*
X151350000Y-88940000D02*
X155080000Y-88940000D01*
%TO.N,/IR_O7*%
X154859000Y-106061000D02*
X152920000Y-108000000D01*
X156073900Y-106061000D02*
X154859000Y-106061000D01*
X156406100Y-106061000D02*
X156073900Y-106061000D01*
X156557100Y-105910000D02*
X156406100Y-106061000D01*
X156641000Y-105826100D02*
X156557100Y-105910000D01*
X158036100Y-104431000D02*
X156641000Y-105826100D01*
X158271000Y-104196100D02*
X158036100Y-104431000D01*
X158271000Y-104099000D02*
X158271000Y-104196100D01*
X158280000Y-104090000D02*
X158271000Y-104099000D01*
X158280000Y-93500000D02*
X158280000Y-104090000D01*
X151350000Y-90210000D02*
X154990000Y-90210000D01*
X154990000Y-90210000D02*
X158280000Y-93500000D01*
%TO.N,/IR_O6*%
X154950000Y-91480000D02*
X151350000Y-91480000D01*
X156240000Y-105660000D02*
X157870000Y-104030000D01*
X157870000Y-104030000D02*
X157870000Y-94400000D01*
X157870000Y-94400000D02*
X154950000Y-91480000D01*
X152180000Y-105660000D02*
X156240000Y-105660000D01*
X150380000Y-108000000D02*
X150380000Y-107460000D01*
X150380000Y-107460000D02*
X152180000Y-105660000D01*
%TO.N,/IR_O5*%
X157470000Y-95410000D02*
X154810000Y-92750000D01*
X154810000Y-92750000D02*
X151350000Y-92750000D01*
X157470000Y-103770000D02*
X157470000Y-95410000D01*
X156010000Y-105230000D02*
X157470000Y-103770000D01*
X149900000Y-105230000D02*
X156010000Y-105230000D01*
X147840000Y-107290000D02*
X149900000Y-105230000D01*
X147840000Y-108000000D02*
X147840000Y-107290000D01*
%TO.N,/IR_O4*%
X142530000Y-104700000D02*
X145300000Y-107470000D01*
X132200000Y-104000000D02*
X132900000Y-104700000D01*
X132200000Y-95990000D02*
X132200000Y-104000000D01*
X132900000Y-104700000D02*
X142530000Y-104700000D01*
X132900000Y-95290000D02*
X132200000Y-95990000D01*
X133850000Y-95290000D02*
X132900000Y-95290000D01*
%TO.N,/IR_O3*%
X140371000Y-105101000D02*
X142760000Y-107490000D01*
X131700000Y-104100000D02*
X132701000Y-105101000D01*
X132701000Y-105101000D02*
X140371000Y-105101000D01*
X131700000Y-95220000D02*
X131700000Y-104100000D01*
X132900000Y-94020000D02*
X131700000Y-95220000D01*
X133850000Y-94020000D02*
X132900000Y-94020000D01*
%TO.N,/IR_O2*%
X132632900Y-105600000D02*
X138450000Y-105600000D01*
X131299000Y-104266100D02*
X132632900Y-105600000D01*
X131299000Y-94701000D02*
X131299000Y-104266100D01*
X133250000Y-92750000D02*
X131299000Y-94701000D01*
X133850000Y-92750000D02*
X133250000Y-92750000D01*
X138450000Y-105600000D02*
X140220000Y-107370000D01*
%TO.N,/IR_O1*%
X132555800Y-106090000D02*
X135770000Y-106090000D01*
X135770000Y-106090000D02*
X137680000Y-108000000D01*
X130898000Y-104432200D02*
X132555800Y-106090000D01*
X130898000Y-93482000D02*
X130898000Y-104432200D01*
X132900000Y-91480000D02*
X130898000Y-93482000D01*
X133850000Y-91480000D02*
X132900000Y-91480000D01*
D32*
%TO.N,/3V3*%
X118880000Y-90200000D02*
X120150000Y-90200000D01*
X116410000Y-92670000D02*
X118880000Y-90200000D01*
X151350000Y-95290000D02*
X153492500Y-95290000D01*
D31*
X154100000Y-96020000D02*
X154090000Y-96030000D01*
X154100000Y-95897500D02*
X154100000Y-96020000D01*
D32*
X155210000Y-99190000D02*
X154090000Y-98070000D01*
X156400000Y-101610000D02*
X155210000Y-100420000D01*
X155210000Y-100420000D02*
X155210000Y-99190000D01*
X153492500Y-95290000D02*
X154100000Y-95897500D01*
D31*
X154100000Y-98060000D02*
X154090000Y-98070000D01*
D32*
X154100000Y-95897500D02*
X154100000Y-98060000D01*
D31*
%TO.N,GND*%
X142850000Y-90220000D02*
X142850000Y-90835000D01*
X124410000Y-80000000D02*
X121930000Y-82480000D01*
X142850000Y-91470000D02*
X142850000Y-92085000D01*
X164450000Y-74100000D02*
X163360000Y-74100000D01*
X145360000Y-91470000D02*
X145360000Y-90845000D01*
X166025000Y-85025000D02*
X167400000Y-85025000D01*
X144110000Y-90220000D02*
X144110000Y-90835000D01*
X144110000Y-90835000D02*
X144105000Y-90840000D01*
X163850000Y-84420000D02*
X163000000Y-83570000D01*
X155110000Y-84107500D02*
X156047500Y-84107500D01*
X133850000Y-96560000D02*
X143120000Y-96560000D01*
X145360000Y-90845000D02*
X145355000Y-90840000D01*
X163000000Y-81950000D02*
X164450000Y-80500000D01*
X122050000Y-98200000D02*
X122050000Y-100930000D01*
X125050000Y-95200000D02*
X122050000Y-98200000D01*
X125050000Y-93400000D02*
X125050000Y-95200000D01*
X154090000Y-100145000D02*
X154090000Y-101640000D01*
X163850000Y-84420000D02*
X165420000Y-84420000D01*
X144730000Y-92080000D02*
X145345000Y-92080000D01*
X142850000Y-92085000D02*
X142855000Y-92090000D01*
X163000000Y-83570000D02*
X163000000Y-81950000D01*
X145350000Y-89595000D02*
X145355000Y-89590000D01*
X155980000Y-95702500D02*
X155980000Y-97150000D01*
X156047500Y-84107500D02*
X157040000Y-85100000D01*
X143180000Y-96560000D02*
X143150000Y-96530000D01*
X145345000Y-92080000D02*
X145355000Y-92090000D01*
X143480000Y-89590000D02*
X142855000Y-89590000D01*
X145350000Y-90220000D02*
X145350000Y-89595000D01*
X154100000Y-93822500D02*
X155980000Y-95702500D01*
X143120000Y-96560000D02*
X143150000Y-96530000D01*
X122050000Y-100930000D02*
X122990000Y-101870000D01*
X165420000Y-84420000D02*
X166025000Y-85025000D01*
X126925000Y-80000000D02*
X124410000Y-80000000D01*
X163360000Y-74100000D02*
X163020000Y-73760000D01*
X143480000Y-92080000D02*
X144095000Y-92080000D01*
X142850000Y-90835000D02*
X142855000Y-90840000D01*
X151350000Y-96560000D02*
X143180000Y-96560000D01*
X154090000Y-101640000D02*
X154990000Y-102540000D01*
X144730000Y-89590000D02*
X144105000Y-89590000D01*
X144095000Y-92080000D02*
X144105000Y-92090000D01*
%TO.N,/CHIP_PU*%
X158510000Y-82720000D02*
X164965000Y-89175000D01*
X155110000Y-82032500D02*
X157822500Y-82032500D01*
X164965000Y-89175000D02*
X167400000Y-89175000D01*
X151350000Y-94020000D02*
X150270000Y-94020000D01*
X157822500Y-82032500D02*
X158510000Y-82720000D01*
X167400000Y-91600000D02*
X167400000Y-89175000D01*
X150270000Y-94020000D02*
X148340000Y-92090000D01*
X167500000Y-91500000D02*
X167400000Y-91600000D01*
%TO.N,/GPIO9*%
X131100000Y-79975000D02*
X131075000Y-80000000D01*
X133700000Y-75100000D02*
X131100000Y-75100000D01*
X131075000Y-80000000D02*
X133800000Y-80000000D01*
X133800000Y-80000000D02*
X133850000Y-80050000D01*
X131100000Y-75100000D02*
X131100000Y-79975000D01*
%TO.N,Net-(D1-PadA)*%
X125960000Y-98200000D02*
X123550000Y-98200000D01*
%TO.N,/USB-C/D-*%
X151650000Y-81320000D02*
X151350000Y-81320000D01*
%TO.N,/USB-C/D+*%
X151650000Y-80050000D02*
X151350000Y-80050000D01*
X164401000Y-77501000D02*
X164450000Y-77550000D01*
%TO.N,Net-(J1-CC2)*%
X162210000Y-75550000D02*
X164450000Y-75550000D01*
X161000000Y-74340000D02*
X162210000Y-75550000D01*
%TO.N,Net-(J1-CC1)*%
X162450000Y-78550000D02*
X161700000Y-79300000D01*
X164450000Y-78550000D02*
X162450000Y-78550000D01*
%TO.N,/M1_O2*%
X163600000Y-56100000D02*
X156080000Y-63620000D01*
X169300000Y-56100000D02*
X163600000Y-56100000D01*
%TO.N,/M1_O1*%
X168011000Y-59929000D02*
X162311000Y-59929000D01*
X169300000Y-58640000D02*
X168011000Y-59929000D01*
X162311000Y-59929000D02*
X156080000Y-66160000D01*
%TO.N,/M1_PWM_EN*%
X163700000Y-63620000D02*
X148697000Y-78623000D01*
X150850000Y-87670000D02*
X151350000Y-87670000D01*
X148697000Y-78623000D02*
X148697000Y-85517000D01*
X148697000Y-85517000D02*
X150850000Y-87670000D01*
%TO.N,/M1_PWM_PH*%
X163700000Y-66160000D02*
X161972900Y-66160000D01*
X149098000Y-85098000D02*
X150400000Y-86400000D01*
X161972900Y-66160000D02*
X149098000Y-79034900D01*
X150400000Y-86400000D02*
X151350000Y-86400000D01*
X149098000Y-79034900D02*
X149098000Y-85098000D01*
%TO.N,/M2_PWM_PH*%
X136901000Y-81759000D02*
X134800000Y-83860000D01*
X134800000Y-83860000D02*
X133850000Y-83860000D01*
X136901000Y-74801000D02*
X136901000Y-81759000D01*
X128100000Y-66000000D02*
X136901000Y-74801000D01*
%TO.N,/M2_PWM_EN*%
X128100000Y-63460000D02*
X137302000Y-72662000D01*
X137302000Y-72662000D02*
X137302000Y-82628000D01*
X137302000Y-82628000D02*
X134800000Y-85130000D01*
X134800000Y-85130000D02*
X133850000Y-85130000D01*
%TO.N,/M2_O2*%
X114800000Y-55900000D02*
X115951000Y-57051000D01*
X115951000Y-58931000D02*
X120480000Y-63460000D01*
X115951000Y-57051000D02*
X115951000Y-58931000D01*
%TO.N,/M2_O1*%
X114800000Y-58440000D02*
X115951000Y-59591000D01*
X115951000Y-61471000D02*
X120480000Y-66000000D01*
X115951000Y-59591000D02*
X115951000Y-61471000D01*
%TO.N,/ENC_PH_A_M2*%
X114800000Y-66060000D02*
X115118000Y-66060000D01*
X131648000Y-82590000D02*
X133850000Y-82590000D01*
X115118000Y-66060000D02*
X131648000Y-82590000D01*
%TO.N,/ENC_PH_B_M2*%
X119329000Y-69016760D02*
X124311240Y-73999000D01*
X136500000Y-76661148D02*
X136500000Y-79800000D01*
X119329000Y-68049000D02*
X119329000Y-69016760D01*
X134980000Y-81320000D02*
X133850000Y-81320000D01*
X133837852Y-73999000D02*
X136500000Y-76661148D01*
X114800000Y-63520000D02*
X119329000Y-68049000D01*
X124311240Y-73999000D02*
X133837852Y-73999000D01*
X136500000Y-79800000D02*
X134980000Y-81320000D01*
%TO.N,/ENC_PH_A_M1*%
X162321000Y-73239000D02*
X156359000Y-73239000D01*
X156359000Y-73239000D02*
X149900000Y-79698000D01*
X169300000Y-66260000D02*
X162321000Y-73239000D01*
X150990000Y-82590000D02*
X151350000Y-82590000D01*
X149900000Y-79698000D02*
X149900000Y-81500000D01*
X149900000Y-81500000D02*
X150990000Y-82590000D01*
%TO.N,/ENC_PH_B_M1*%
X165709000Y-67311000D02*
X161389000Y-67311000D01*
X149499000Y-82959000D02*
X150400000Y-83860000D01*
X150400000Y-83860000D02*
X151350000Y-83860000D01*
X161389000Y-67311000D02*
X149499000Y-79201000D01*
X149499000Y-79201000D02*
X149499000Y-82959000D01*
X169300000Y-63720000D02*
X165709000Y-67311000D01*
%TO.N,Net-(J12-Pin_1)*%
X120231900Y-92599000D02*
X119099000Y-92599000D01*
X113349000Y-98349000D02*
X113349000Y-101749000D01*
X126430900Y-86400000D02*
X120231900Y-92599000D01*
X133850000Y-86400000D02*
X126430900Y-86400000D01*
X113349000Y-101749000D02*
X114500000Y-102900000D01*
X119099000Y-92599000D02*
X113349000Y-98349000D01*
%TO.N,Net-(J12-Pin_2)*%
X133820000Y-87700000D02*
X133850000Y-87670000D01*
X125728000Y-87670000D02*
X133850000Y-87670000D01*
X114500000Y-100360000D02*
X115042000Y-100360000D01*
X123999000Y-91403000D02*
X123999000Y-89399000D01*
X123999000Y-89399000D02*
X125728000Y-87670000D01*
X115042000Y-100360000D02*
X123999000Y-91403000D01*
%TO.N,/Status_LED/LED_GPIO*%
X133840000Y-90200000D02*
X133850000Y-90210000D01*
X130445000Y-90200000D02*
X133840000Y-90200000D01*
%TO.N,Net-(Q2-GPIO8)*%
X153035000Y-85130000D02*
X155205000Y-87300000D01*
X151350000Y-85130000D02*
X153035000Y-85130000D01*
%TO.N,Net-(D2-DIN)*%
X127905000Y-90200000D02*
X125050000Y-90200000D01*
%TD*%
M02*
