%TF.GenerationSoftware,KiCad,Pcbnew,9.0.0*%
%TF.CreationDate,2025-09-12T14:39:53-04:00*%
%TF.ProjectId,Full-Board_rev1,46756c6c-2d42-46f6-9172-645f72657631,rev?*%
%TF.SameCoordinates,Original*%
%TF.FileFunction,Paste,Top*%
%TF.FilePolarity,Positive*%
%FSLAX46Y46*%
G04 Gerber Fmt 4.6, Leading zero omitted, Abs format (unit mm)*
G04 Created by KiCad (PCBNEW 9.0.0) date 2025-09-12 14:39:53*
%MOMM*%
%LPD*%
G01*
G04 APERTURE LIST*
G04 Aperture macros list*
%AMRoundRect*
0 Rectangle with rounded corners*
0 $1 Rounding radius*
0 $2 $3 $4 $5 $6 $7 $8 $9 X,Y pos of 4 corners*
0 Add a 4 corners polygon primitive as box body*
4,1,4,$2,$3,$4,$5,$6,$7,$8,$9,$2,$3,0*
0 Add four circle primitives for the rounded corners*
1,1,$1+$1,$2,$3*
1,1,$1+$1,$4,$5*
1,1,$1+$1,$6,$7*
1,1,$1+$1,$8,$9*
0 Add four rect primitives between the rounded corners*
20,1,$1+$1,$2,$3,$4,$5,0*
20,1,$1+$1,$4,$5,$6,$7,0*
20,1,$1+$1,$6,$7,$8,$9,0*
20,1,$1+$1,$8,$9,$2,$3,0*%
G04 Aperture macros list end*
%ADD10R,1.800000X1.350000*%
%ADD11R,0.800000X0.800000*%
%ADD12R,1.140000X0.600000*%
%ADD13R,1.140000X0.300000*%
%ADD14RoundRect,0.250000X-0.475000X0.337500X-0.475000X-0.337500X0.475000X-0.337500X0.475000X0.337500X0*%
%ADD15R,1.500000X1.000000*%
%ADD16RoundRect,0.250000X0.475000X-0.337500X0.475000X0.337500X-0.475000X0.337500X-0.475000X-0.337500X0*%
%ADD17R,1.500000X0.900000*%
%ADD18R,1.350000X1.800000*%
G04 APERTURE END LIST*
D10*
%TO.C,S2*%
X167400000Y-85025000D03*
X167400000Y-89175000D03*
%TD*%
D11*
%TO.C,D1*%
X123550000Y-98200000D03*
X122050000Y-98200000D03*
%TD*%
D12*
%TO.C,J1*%
X164450000Y-80500000D03*
X164450000Y-79700000D03*
D13*
X164450000Y-78550000D03*
X164450000Y-77550000D03*
X164450000Y-77050000D03*
X164450000Y-76050000D03*
D12*
X164450000Y-74100000D03*
X164450000Y-74900000D03*
D13*
X164450000Y-75550000D03*
X164450000Y-76550000D03*
X164450000Y-78050000D03*
X164450000Y-79050000D03*
%TD*%
D14*
%TO.C,C5*%
X154100000Y-93822500D03*
X154100000Y-95897500D03*
%TD*%
D15*
%TO.C,D2*%
X125050000Y-93400000D03*
X125050000Y-90200000D03*
X120150000Y-90200000D03*
X120150000Y-93400000D03*
%TD*%
D16*
%TO.C,C1*%
X154090000Y-100145000D03*
X154090000Y-98070000D03*
%TD*%
D17*
%TO.C,Q2*%
X151350000Y-96560000D03*
X151350000Y-95290000D03*
X151350000Y-94020000D03*
X151350000Y-92750000D03*
X151350000Y-91480000D03*
X151350000Y-90210000D03*
X151350000Y-88940000D03*
X151350000Y-87670000D03*
X151350000Y-86400000D03*
X151350000Y-85130000D03*
X151350000Y-83860000D03*
X151350000Y-82590000D03*
X151350000Y-81320000D03*
X151350000Y-80050000D03*
X133850000Y-80050000D03*
X133850000Y-81320000D03*
X133850000Y-82590000D03*
X133850000Y-83860000D03*
X133850000Y-85130000D03*
X133850000Y-86400000D03*
X133850000Y-87670000D03*
X133850000Y-88940000D03*
X133850000Y-90210000D03*
X133850000Y-91480000D03*
X133850000Y-92750000D03*
X133850000Y-94020000D03*
X133850000Y-95290000D03*
X133850000Y-96560000D03*
D11*
X145355000Y-92090000D03*
X145355000Y-90840000D03*
X145355000Y-89590000D03*
X144105000Y-92090000D03*
X144105000Y-90840000D03*
X144105000Y-89590000D03*
X142855000Y-92090000D03*
X142855000Y-90840000D03*
X142855000Y-89590000D03*
%TD*%
D16*
%TO.C,C6*%
X155110000Y-84107500D03*
X155110000Y-82032500D03*
%TD*%
D18*
%TO.C,S1*%
X126925000Y-80000000D03*
X131075000Y-80000000D03*
%TD*%
M02*
