%TF.GenerationSoftware,KiCad,Pcbnew,9.0.0*%
%TF.CreationDate,2025-09-12T14:09:26-04:00*%
%TF.ProjectId,Full-Board_rev1,46756c6c-2d42-46f6-9172-645f72657631,rev?*%
%TF.SameCoordinates,Original*%
%TF.FileFunction,Copper,L3,Inr*%
%TF.FilePolarity,Positive*%
%FSLAX46Y46*%
G04 Gerber Fmt 4.6, Leading zero omitted, Abs format (unit mm)*
G04 Created by KiCad (PCBNEW 9.0.0) date 2025-09-12 14:09:26*
%MOMM*%
%LPD*%
G01*
G04 APERTURE LIST*
G04 Aperture macros list*
%AMRoundRect*
0 Rectangle with rounded corners*
0 $1 Rounding radius*
0 $2 $3 $4 $5 $6 $7 $8 $9 X,Y pos of 4 corners*
0 Add a 4 corners polygon primitive as box body*
4,1,4,$2,$3,$4,$5,$6,$7,$8,$9,$2,$3,0*
0 Add four circle primitives for the rounded corners*
1,1,$1+$1,$2,$3*
1,1,$1+$1,$4,$5*
1,1,$1+$1,$6,$7*
1,1,$1+$1,$8,$9*
0 Add four rect primitives between the rounded corners*
20,1,$1+$1,$2,$3,$4,$5,0*
20,1,$1+$1,$4,$5,$6,$7,0*
20,1,$1+$1,$6,$7,$8,$9,0*
20,1,$1+$1,$8,$9,$2,$3,0*%
G04 Aperture macros list end*
%TA.AperFunction,ComponentPad*%
%ADD10RoundRect,0.250000X-0.625000X0.350000X-0.625000X-0.350000X0.625000X-0.350000X0.625000X0.350000X0*%
%TD*%
%TA.AperFunction,ComponentPad*%
%ADD11O,1.750000X1.200000*%
%TD*%
%TA.AperFunction,ComponentPad*%
%ADD12C,1.150000*%
%TD*%
%TA.AperFunction,ComponentPad*%
%ADD13R,1.700000X1.700000*%
%TD*%
%TA.AperFunction,ComponentPad*%
%ADD14O,1.700000X1.700000*%
%TD*%
%TA.AperFunction,ComponentPad*%
%ADD15C,1.600000*%
%TD*%
%TA.AperFunction,ComponentPad*%
%ADD16O,1.600000X1.600000*%
%TD*%
%TA.AperFunction,ComponentPad*%
%ADD17O,2.000000X0.900000*%
%TD*%
%TA.AperFunction,ComponentPad*%
%ADD18O,1.700000X0.900000*%
%TD*%
%TA.AperFunction,ViaPad*%
%ADD19C,0.600000*%
%TD*%
%TA.AperFunction,ViaPad*%
%ADD20C,0.400000*%
%TD*%
G04 APERTURE END LIST*
D10*
%TO.N,/6V*%
%TO.C,J8*%
X115340000Y-84090000D03*
D11*
%TO.N,GND*%
X115340000Y-86090000D03*
%TO.N,unconnected-(J8-Pin_3-Pad3)*%
X115340000Y-88090000D03*
%TD*%
D12*
%TO.N,GND*%
%TO.C,C7*%
X138700000Y-75100000D03*
%TO.N,/GPIO9*%
X133700000Y-75100000D03*
%TD*%
D13*
%TO.N,Net-(J12-Pin_1)*%
%TO.C,J12*%
X114500000Y-102900000D03*
D14*
%TO.N,Net-(J12-Pin_2)*%
X114500000Y-100360000D03*
%TD*%
D13*
%TO.N,GND*%
%TO.C,J5*%
X120480000Y-58380000D03*
D14*
%TO.N,/6V*%
X120480000Y-60920000D03*
%TO.N,/M2_O2*%
X120480000Y-63460000D03*
%TO.N,/M2_O1*%
X120480000Y-66000000D03*
%TO.N,unconnected-(J5-Pin_5-Pad5)*%
X120480000Y-68540000D03*
%TD*%
D13*
%TO.N,Net-(J11-Pin_2)*%
%TO.C,J13*%
X134000000Y-65800000D03*
D14*
%TO.N,GND*%
X134000000Y-63260000D03*
%TO.N,/VIN*%
X134000000Y-60720000D03*
X134000000Y-58180000D03*
%TD*%
D15*
%TO.N,/3V3*%
%TO.C,R8*%
X128500000Y-98200000D03*
D16*
%TO.N,Net-(D1-PadA)*%
X125960000Y-98200000D03*
%TD*%
D15*
%TO.N,Net-(J1-CC1)*%
%TO.C,R3*%
X161700000Y-79300000D03*
D16*
%TO.N,GND*%
X159160000Y-79300000D03*
%TD*%
D13*
%TO.N,/3V3*%
%TO.C,J11*%
X146500000Y-74800000D03*
D14*
%TO.N,Net-(J11-Pin_2)*%
X143960000Y-74800000D03*
%TD*%
D15*
%TO.N,/3V3*%
%TO.C,R7*%
X128560000Y-75100000D03*
D16*
%TO.N,/GPIO9*%
X131100000Y-75100000D03*
%TD*%
D13*
%TO.N,GND*%
%TO.C,J6*%
X114800000Y-68600000D03*
D14*
%TO.N,/ENC_PH_A_M2*%
X114800000Y-66060000D03*
%TO.N,/ENC_PH_B_M2*%
X114800000Y-63520000D03*
%TO.N,/3V3*%
X114800000Y-60980000D03*
%TO.N,/M2_O1*%
X114800000Y-58440000D03*
%TO.N,/M2_O2*%
X114800000Y-55900000D03*
%TD*%
D15*
%TO.N,/3V3*%
%TO.C,R5*%
X161050000Y-82720000D03*
D16*
%TO.N,/CHIP_PU*%
X158510000Y-82720000D03*
%TD*%
D13*
%TO.N,GND*%
%TO.C,J4*%
X128100000Y-58380000D03*
D14*
%TO.N,/3V3*%
X128100000Y-60920000D03*
%TO.N,/M2_PWM_EN*%
X128100000Y-63460000D03*
%TO.N,/M2_PWM_PH*%
X128100000Y-66000000D03*
%TO.N,unconnected-(J4-Pin_5-Pad5)*%
X128100000Y-68540000D03*
%TD*%
D17*
%TO.N,GND*%
%TO.C,J1*%
X165030000Y-81625000D03*
X165030000Y-72975000D03*
D18*
X169200000Y-81625000D03*
X169200000Y-72975000D03*
%TD*%
D15*
%TO.N,/Status_LED/LED_GPIO*%
%TO.C,R1*%
X130445000Y-90200000D03*
D16*
%TO.N,Net-(D2-DIN)*%
X127905000Y-90200000D03*
%TD*%
D13*
%TO.N,GND*%
%TO.C,J7*%
X169300000Y-68800000D03*
D14*
%TO.N,/ENC_PH_A_M1*%
X169300000Y-66260000D03*
%TO.N,/ENC_PH_B_M1*%
X169300000Y-63720000D03*
%TO.N,/3V3*%
X169300000Y-61180000D03*
%TO.N,/M1_O1*%
X169300000Y-58640000D03*
%TO.N,/M1_O2*%
X169300000Y-56100000D03*
%TD*%
D13*
%TO.N,GND*%
%TO.C,J3*%
X163700000Y-58540000D03*
D14*
%TO.N,/3V3*%
X163700000Y-61080000D03*
%TO.N,/M1_PWM_EN*%
X163700000Y-63620000D03*
%TO.N,/M1_PWM_PH*%
X163700000Y-66160000D03*
%TO.N,unconnected-(J3-Pin_5-Pad5)*%
X163700000Y-68700000D03*
%TD*%
D13*
%TO.N,GND*%
%TO.C,J2*%
X156080000Y-58540000D03*
D14*
%TO.N,/6V*%
X156080000Y-61080000D03*
%TO.N,/M1_O2*%
X156080000Y-63620000D03*
%TO.N,/M1_O1*%
X156080000Y-66160000D03*
%TO.N,unconnected-(J2-Pin_5-Pad5)*%
X156080000Y-68700000D03*
%TD*%
D10*
%TO.N,/VIN*%
%TO.C,J9*%
X115350000Y-76300000D03*
D11*
%TO.N,GND*%
X115350000Y-78300000D03*
%TD*%
D12*
%TO.N,/CHIP_PU*%
%TO.C,C8*%
X167400000Y-91600000D03*
%TO.N,GND*%
X167400000Y-96600000D03*
%TD*%
D13*
%TO.N,GND*%
%TO.C,J10*%
X130090000Y-107400000D03*
D14*
%TO.N,/3V3*%
X132630000Y-107400000D03*
%TO.N,unconnected-(J10-Pin_3-Pad3)*%
X135170000Y-107400000D03*
%TO.N,/IR_O1*%
X137710000Y-107400000D03*
%TO.N,/IR_O2*%
X140250000Y-107400000D03*
%TO.N,/IR_O3*%
X142790000Y-107400000D03*
%TO.N,/IR_O4*%
X145330000Y-107400000D03*
%TO.N,/IR_O5*%
X147870000Y-107400000D03*
%TO.N,/IR_O6*%
X150410000Y-107400000D03*
%TO.N,/IR_O7*%
X152950000Y-107400000D03*
%TO.N,/IR_O8*%
X155490000Y-107400000D03*
%TD*%
D15*
%TO.N,Net-(J1-CC2)*%
%TO.C,R4*%
X161000000Y-74340000D03*
D16*
%TO.N,GND*%
X161000000Y-71800000D03*
%TD*%
D15*
%TO.N,/3V3*%
%TO.C,R6*%
X157745000Y-87300000D03*
D16*
%TO.N,Net-(Q2-GPIO8)*%
X155205000Y-87300000D03*
%TD*%
D19*
%TO.N,/3V3*%
X156400000Y-101610000D03*
X116410000Y-92670000D03*
D20*
%TO.N,GND*%
X143480000Y-89590000D03*
X144110000Y-91470000D03*
X143480000Y-92080000D03*
X144110000Y-90220000D03*
D19*
X163850000Y-84420000D03*
D20*
X143480000Y-90840000D03*
D19*
X163020000Y-73760000D03*
X143150000Y-96530000D03*
X157040000Y-85100000D03*
D20*
X142850000Y-91470000D03*
D19*
X154990000Y-102540000D03*
X155980000Y-97150000D03*
X122990000Y-101870000D03*
D20*
X144730000Y-90840000D03*
X145360000Y-91470000D03*
X145350000Y-90220000D03*
X142850000Y-90220000D03*
D19*
X121930000Y-82480000D03*
D20*
X144730000Y-92080000D03*
X144730000Y-89590000D03*
D19*
%TO.N,/CHIP_PU*%
X148340000Y-92090000D03*
%TD*%
%TA.AperFunction,Conductor*%
%TO.N,/3V3*%
G36*
X171502430Y-53470185D02*
G01*
X171548185Y-53522989D01*
X171559391Y-53574522D01*
X171554981Y-78756134D01*
X171549745Y-108651557D01*
X171549609Y-109425522D01*
X171529913Y-109492558D01*
X171477101Y-109538303D01*
X171425609Y-109549500D01*
X112574500Y-109549500D01*
X112507461Y-109529815D01*
X112461706Y-109477011D01*
X112450500Y-109425500D01*
X112450500Y-106502135D01*
X128739500Y-106502135D01*
X128739500Y-108297870D01*
X128739501Y-108297876D01*
X128745908Y-108357483D01*
X128796202Y-108492328D01*
X128796206Y-108492335D01*
X128882452Y-108607544D01*
X128882455Y-108607547D01*
X128997664Y-108693793D01*
X128997671Y-108693797D01*
X129132517Y-108744091D01*
X129132516Y-108744091D01*
X129139444Y-108744835D01*
X129192127Y-108750500D01*
X130987872Y-108750499D01*
X131047483Y-108744091D01*
X131182331Y-108693796D01*
X131297546Y-108607546D01*
X131383796Y-108492331D01*
X131433002Y-108360401D01*
X131474872Y-108304468D01*
X131540337Y-108280050D01*
X131608610Y-108294901D01*
X131636865Y-108316053D01*
X131750535Y-108429723D01*
X131750540Y-108429727D01*
X131922442Y-108554620D01*
X132111782Y-108651095D01*
X132313871Y-108716757D01*
X132380000Y-108727231D01*
X132380000Y-107833012D01*
X132437007Y-107865925D01*
X132564174Y-107900000D01*
X132695826Y-107900000D01*
X132822993Y-107865925D01*
X132880000Y-107833012D01*
X132880000Y-108727230D01*
X132946126Y-108716757D01*
X132946129Y-108716757D01*
X133148217Y-108651095D01*
X133337557Y-108554620D01*
X133509459Y-108429727D01*
X133509464Y-108429723D01*
X133659723Y-108279464D01*
X133659727Y-108279459D01*
X133784620Y-108107558D01*
X133789232Y-108098507D01*
X133837205Y-108047709D01*
X133905025Y-108030912D01*
X133971161Y-108053447D01*
X134010204Y-108098504D01*
X134014949Y-108107817D01*
X134139890Y-108279786D01*
X134290213Y-108430109D01*
X134462179Y-108555048D01*
X134462181Y-108555049D01*
X134462184Y-108555051D01*
X134651588Y-108651557D01*
X134853757Y-108717246D01*
X135063713Y-108750500D01*
X135063714Y-108750500D01*
X135276286Y-108750500D01*
X135276287Y-108750500D01*
X135486243Y-108717246D01*
X135688412Y-108651557D01*
X135877816Y-108555051D01*
X135964138Y-108492335D01*
X136049786Y-108430109D01*
X136049788Y-108430106D01*
X136049792Y-108430104D01*
X136200104Y-108279792D01*
X136200106Y-108279788D01*
X136200109Y-108279786D01*
X136325048Y-108107820D01*
X136325050Y-108107817D01*
X136325051Y-108107816D01*
X136329514Y-108099054D01*
X136377488Y-108048259D01*
X136445308Y-108031463D01*
X136511444Y-108053999D01*
X136550486Y-108099056D01*
X136554951Y-108107820D01*
X136679890Y-108279786D01*
X136830213Y-108430109D01*
X137002179Y-108555048D01*
X137002181Y-108555049D01*
X137002184Y-108555051D01*
X137191588Y-108651557D01*
X137393757Y-108717246D01*
X137603713Y-108750500D01*
X137603714Y-108750500D01*
X137816286Y-108750500D01*
X137816287Y-108750500D01*
X138026243Y-108717246D01*
X138228412Y-108651557D01*
X138417816Y-108555051D01*
X138504138Y-108492335D01*
X138589786Y-108430109D01*
X138589788Y-108430106D01*
X138589792Y-108430104D01*
X138740104Y-108279792D01*
X138740106Y-108279788D01*
X138740109Y-108279786D01*
X138865048Y-108107820D01*
X138865050Y-108107817D01*
X138865051Y-108107816D01*
X138869514Y-108099054D01*
X138917488Y-108048259D01*
X138985308Y-108031463D01*
X139051444Y-108053999D01*
X139090486Y-108099056D01*
X139094951Y-108107820D01*
X139219890Y-108279786D01*
X139370213Y-108430109D01*
X139542179Y-108555048D01*
X139542181Y-108555049D01*
X139542184Y-108555051D01*
X139731588Y-108651557D01*
X139933757Y-108717246D01*
X140143713Y-108750500D01*
X140143714Y-108750500D01*
X140356286Y-108750500D01*
X140356287Y-108750500D01*
X140566243Y-108717246D01*
X140768412Y-108651557D01*
X140957816Y-108555051D01*
X141044138Y-108492335D01*
X141129786Y-108430109D01*
X141129788Y-108430106D01*
X141129792Y-108430104D01*
X141280104Y-108279792D01*
X141280106Y-108279788D01*
X141280109Y-108279786D01*
X141405048Y-108107820D01*
X141405050Y-108107817D01*
X141405051Y-108107816D01*
X141409514Y-108099054D01*
X141457488Y-108048259D01*
X141525308Y-108031463D01*
X141591444Y-108053999D01*
X141630486Y-108099056D01*
X141634951Y-108107820D01*
X141759890Y-108279786D01*
X141910213Y-108430109D01*
X142082179Y-108555048D01*
X142082181Y-108555049D01*
X142082184Y-108555051D01*
X142271588Y-108651557D01*
X142473757Y-108717246D01*
X142683713Y-108750500D01*
X142683714Y-108750500D01*
X142896286Y-108750500D01*
X142896287Y-108750500D01*
X143106243Y-108717246D01*
X143308412Y-108651557D01*
X143497816Y-108555051D01*
X143584138Y-108492335D01*
X143669786Y-108430109D01*
X143669788Y-108430106D01*
X143669792Y-108430104D01*
X143820104Y-108279792D01*
X143820106Y-108279788D01*
X143820109Y-108279786D01*
X143945048Y-108107820D01*
X143945050Y-108107817D01*
X143945051Y-108107816D01*
X143949514Y-108099054D01*
X143997488Y-108048259D01*
X144065308Y-108031463D01*
X144131444Y-108053999D01*
X144170486Y-108099056D01*
X144174951Y-108107820D01*
X144299890Y-108279786D01*
X144450213Y-108430109D01*
X144622179Y-108555048D01*
X144622181Y-108555049D01*
X144622184Y-108555051D01*
X144811588Y-108651557D01*
X145013757Y-108717246D01*
X145223713Y-108750500D01*
X145223714Y-108750500D01*
X145436286Y-108750500D01*
X145436287Y-108750500D01*
X145646243Y-108717246D01*
X145848412Y-108651557D01*
X146037816Y-108555051D01*
X146124138Y-108492335D01*
X146209786Y-108430109D01*
X146209788Y-108430106D01*
X146209792Y-108430104D01*
X146360104Y-108279792D01*
X146360106Y-108279788D01*
X146360109Y-108279786D01*
X146485048Y-108107820D01*
X146485050Y-108107817D01*
X146485051Y-108107816D01*
X146489514Y-108099054D01*
X146537488Y-108048259D01*
X146605308Y-108031463D01*
X146671444Y-108053999D01*
X146710486Y-108099056D01*
X146714951Y-108107820D01*
X146839890Y-108279786D01*
X146990213Y-108430109D01*
X147162179Y-108555048D01*
X147162181Y-108555049D01*
X147162184Y-108555051D01*
X147351588Y-108651557D01*
X147553757Y-108717246D01*
X147763713Y-108750500D01*
X147763714Y-108750500D01*
X147976286Y-108750500D01*
X147976287Y-108750500D01*
X148186243Y-108717246D01*
X148388412Y-108651557D01*
X148577816Y-108555051D01*
X148664138Y-108492335D01*
X148749786Y-108430109D01*
X148749788Y-108430106D01*
X148749792Y-108430104D01*
X148900104Y-108279792D01*
X148900106Y-108279788D01*
X148900109Y-108279786D01*
X149025048Y-108107820D01*
X149025050Y-108107817D01*
X149025051Y-108107816D01*
X149029514Y-108099054D01*
X149077488Y-108048259D01*
X149145308Y-108031463D01*
X149211444Y-108053999D01*
X149250486Y-108099056D01*
X149254951Y-108107820D01*
X149379890Y-108279786D01*
X149530213Y-108430109D01*
X149702179Y-108555048D01*
X149702181Y-108555049D01*
X149702184Y-108555051D01*
X149891588Y-108651557D01*
X150093757Y-108717246D01*
X150303713Y-108750500D01*
X150303714Y-108750500D01*
X150516286Y-108750500D01*
X150516287Y-108750500D01*
X150726243Y-108717246D01*
X150928412Y-108651557D01*
X151117816Y-108555051D01*
X151204138Y-108492335D01*
X151289786Y-108430109D01*
X151289788Y-108430106D01*
X151289792Y-108430104D01*
X151440104Y-108279792D01*
X151440106Y-108279788D01*
X151440109Y-108279786D01*
X151565048Y-108107820D01*
X151565050Y-108107817D01*
X151565051Y-108107816D01*
X151569514Y-108099054D01*
X151617488Y-108048259D01*
X151685308Y-108031463D01*
X151751444Y-108053999D01*
X151790486Y-108099056D01*
X151794951Y-108107820D01*
X151919890Y-108279786D01*
X152070213Y-108430109D01*
X152242179Y-108555048D01*
X152242181Y-108555049D01*
X152242184Y-108555051D01*
X152431588Y-108651557D01*
X152633757Y-108717246D01*
X152843713Y-108750500D01*
X152843714Y-108750500D01*
X153056286Y-108750500D01*
X153056287Y-108750500D01*
X153266243Y-108717246D01*
X153468412Y-108651557D01*
X153657816Y-108555051D01*
X153744138Y-108492335D01*
X153829786Y-108430109D01*
X153829788Y-108430106D01*
X153829792Y-108430104D01*
X153980104Y-108279792D01*
X153980106Y-108279788D01*
X153980109Y-108279786D01*
X154105048Y-108107820D01*
X154105050Y-108107817D01*
X154105051Y-108107816D01*
X154109514Y-108099054D01*
X154157488Y-108048259D01*
X154225308Y-108031463D01*
X154291444Y-108053999D01*
X154330486Y-108099056D01*
X154334951Y-108107820D01*
X154459890Y-108279786D01*
X154610213Y-108430109D01*
X154782179Y-108555048D01*
X154782181Y-108555049D01*
X154782184Y-108555051D01*
X154971588Y-108651557D01*
X155173757Y-108717246D01*
X155383713Y-108750500D01*
X155383714Y-108750500D01*
X155596286Y-108750500D01*
X155596287Y-108750500D01*
X155806243Y-108717246D01*
X156008412Y-108651557D01*
X156197816Y-108555051D01*
X156284138Y-108492335D01*
X156369786Y-108430109D01*
X156369788Y-108430106D01*
X156369792Y-108430104D01*
X156520104Y-108279792D01*
X156520106Y-108279788D01*
X156520109Y-108279786D01*
X156645048Y-108107820D01*
X156645050Y-108107817D01*
X156645051Y-108107816D01*
X156741557Y-107918412D01*
X156807246Y-107716243D01*
X156840500Y-107506287D01*
X156840500Y-107293713D01*
X156807246Y-107083757D01*
X156741557Y-106881588D01*
X156645051Y-106692184D01*
X156645049Y-106692181D01*
X156645048Y-106692179D01*
X156520109Y-106520213D01*
X156369786Y-106369890D01*
X156197820Y-106244951D01*
X156008414Y-106148444D01*
X156008413Y-106148443D01*
X156008412Y-106148443D01*
X155806243Y-106082754D01*
X155806241Y-106082753D01*
X155806240Y-106082753D01*
X155644957Y-106057208D01*
X155596287Y-106049500D01*
X155383713Y-106049500D01*
X155335042Y-106057208D01*
X155173760Y-106082753D01*
X154971585Y-106148444D01*
X154782179Y-106244951D01*
X154610213Y-106369890D01*
X154459890Y-106520213D01*
X154334949Y-106692182D01*
X154330484Y-106700946D01*
X154282509Y-106751742D01*
X154214688Y-106768536D01*
X154148553Y-106745998D01*
X154109516Y-106700946D01*
X154105050Y-106692182D01*
X153980109Y-106520213D01*
X153829786Y-106369890D01*
X153657820Y-106244951D01*
X153468414Y-106148444D01*
X153468413Y-106148443D01*
X153468412Y-106148443D01*
X153266243Y-106082754D01*
X153266241Y-106082753D01*
X153266240Y-106082753D01*
X153104957Y-106057208D01*
X153056287Y-106049500D01*
X152843713Y-106049500D01*
X152795042Y-106057208D01*
X152633760Y-106082753D01*
X152431585Y-106148444D01*
X152242179Y-106244951D01*
X152070213Y-106369890D01*
X151919890Y-106520213D01*
X151794949Y-106692182D01*
X151790484Y-106700946D01*
X151742509Y-106751742D01*
X151674688Y-106768536D01*
X151608553Y-106745998D01*
X151569516Y-106700946D01*
X151565050Y-106692182D01*
X151440109Y-106520213D01*
X151289786Y-106369890D01*
X151117820Y-106244951D01*
X150928414Y-106148444D01*
X150928413Y-106148443D01*
X150928412Y-106148443D01*
X150726243Y-106082754D01*
X150726241Y-106082753D01*
X150726240Y-106082753D01*
X150564957Y-106057208D01*
X150516287Y-106049500D01*
X150303713Y-106049500D01*
X150255042Y-106057208D01*
X150093760Y-106082753D01*
X149891585Y-106148444D01*
X149702179Y-106244951D01*
X149530213Y-106369890D01*
X149379890Y-106520213D01*
X149254949Y-106692182D01*
X149250484Y-106700946D01*
X149202509Y-106751742D01*
X149134688Y-106768536D01*
X149068553Y-106745998D01*
X149029516Y-106700946D01*
X149025050Y-106692182D01*
X148900109Y-106520213D01*
X148749786Y-106369890D01*
X148577820Y-106244951D01*
X148388414Y-106148444D01*
X148388413Y-106148443D01*
X148388412Y-106148443D01*
X148186243Y-106082754D01*
X148186241Y-106082753D01*
X148186240Y-106082753D01*
X148024957Y-106057208D01*
X147976287Y-106049500D01*
X147763713Y-106049500D01*
X147715042Y-106057208D01*
X147553760Y-106082753D01*
X147351585Y-106148444D01*
X147162179Y-106244951D01*
X146990213Y-106369890D01*
X146839890Y-106520213D01*
X146714949Y-106692182D01*
X146710484Y-106700946D01*
X146662509Y-106751742D01*
X146594688Y-106768536D01*
X146528553Y-106745998D01*
X146489516Y-106700946D01*
X146485050Y-106692182D01*
X146360109Y-106520213D01*
X146209786Y-106369890D01*
X146037820Y-106244951D01*
X145848414Y-106148444D01*
X145848413Y-106148443D01*
X145848412Y-106148443D01*
X145646243Y-106082754D01*
X145646241Y-106082753D01*
X145646240Y-106082753D01*
X145484957Y-106057208D01*
X145436287Y-106049500D01*
X145223713Y-106049500D01*
X145175042Y-106057208D01*
X145013760Y-106082753D01*
X144811585Y-106148444D01*
X144622179Y-106244951D01*
X144450213Y-106369890D01*
X144299890Y-106520213D01*
X144174949Y-106692182D01*
X144170484Y-106700946D01*
X144122509Y-106751742D01*
X144054688Y-106768536D01*
X143988553Y-106745998D01*
X143949516Y-106700946D01*
X143945050Y-106692182D01*
X143820109Y-106520213D01*
X143669786Y-106369890D01*
X143497820Y-106244951D01*
X143308414Y-106148444D01*
X143308413Y-106148443D01*
X143308412Y-106148443D01*
X143106243Y-106082754D01*
X143106241Y-106082753D01*
X143106240Y-106082753D01*
X142944957Y-106057208D01*
X142896287Y-106049500D01*
X142683713Y-106049500D01*
X142635042Y-106057208D01*
X142473760Y-106082753D01*
X142271585Y-106148444D01*
X142082179Y-106244951D01*
X141910213Y-106369890D01*
X141759890Y-106520213D01*
X141634949Y-106692182D01*
X141630484Y-106700946D01*
X141582509Y-106751742D01*
X141514688Y-106768536D01*
X141448553Y-106745998D01*
X141409516Y-106700946D01*
X141405050Y-106692182D01*
X141280109Y-106520213D01*
X141129786Y-106369890D01*
X140957820Y-106244951D01*
X140768414Y-106148444D01*
X140768413Y-106148443D01*
X140768412Y-106148443D01*
X140566243Y-106082754D01*
X140566241Y-106082753D01*
X140566240Y-106082753D01*
X140404957Y-106057208D01*
X140356287Y-106049500D01*
X140143713Y-106049500D01*
X140095042Y-106057208D01*
X139933760Y-106082753D01*
X139731585Y-106148444D01*
X139542179Y-106244951D01*
X139370213Y-106369890D01*
X139219890Y-106520213D01*
X139094949Y-106692182D01*
X139090484Y-106700946D01*
X139042509Y-106751742D01*
X138974688Y-106768536D01*
X138908553Y-106745998D01*
X138869516Y-106700946D01*
X138865050Y-106692182D01*
X138740109Y-106520213D01*
X138589786Y-106369890D01*
X138417820Y-106244951D01*
X138228414Y-106148444D01*
X138228413Y-106148443D01*
X138228412Y-106148443D01*
X138026243Y-106082754D01*
X138026241Y-106082753D01*
X138026240Y-106082753D01*
X137864957Y-106057208D01*
X137816287Y-106049500D01*
X137603713Y-106049500D01*
X137555042Y-106057208D01*
X137393760Y-106082753D01*
X137191585Y-106148444D01*
X137002179Y-106244951D01*
X136830213Y-106369890D01*
X136679890Y-106520213D01*
X136554949Y-106692182D01*
X136550484Y-106700946D01*
X136502509Y-106751742D01*
X136434688Y-106768536D01*
X136368553Y-106745998D01*
X136329516Y-106700946D01*
X136325050Y-106692182D01*
X136200109Y-106520213D01*
X136049786Y-106369890D01*
X135877820Y-106244951D01*
X135688414Y-106148444D01*
X135688413Y-106148443D01*
X135688412Y-106148443D01*
X135486243Y-106082754D01*
X135486241Y-106082753D01*
X135486240Y-106082753D01*
X135324957Y-106057208D01*
X135276287Y-106049500D01*
X135063713Y-106049500D01*
X135015042Y-106057208D01*
X134853760Y-106082753D01*
X134651585Y-106148444D01*
X134462179Y-106244951D01*
X134290213Y-106369890D01*
X134139890Y-106520213D01*
X134014949Y-106692182D01*
X134010202Y-106701499D01*
X133962227Y-106752293D01*
X133894405Y-106769087D01*
X133828271Y-106746548D01*
X133789234Y-106701495D01*
X133784622Y-106692444D01*
X133659727Y-106520540D01*
X133659723Y-106520535D01*
X133509464Y-106370276D01*
X133509459Y-106370272D01*
X133337557Y-106245379D01*
X133148215Y-106148903D01*
X132946124Y-106083241D01*
X132880000Y-106072768D01*
X132880000Y-106966988D01*
X132822993Y-106934075D01*
X132695826Y-106900000D01*
X132564174Y-106900000D01*
X132437007Y-106934075D01*
X132380000Y-106966988D01*
X132380000Y-106072768D01*
X132379999Y-106072768D01*
X132313875Y-106083241D01*
X132111784Y-106148903D01*
X131922442Y-106245379D01*
X131750541Y-106370271D01*
X131636865Y-106483947D01*
X131575542Y-106517431D01*
X131505850Y-106512447D01*
X131449917Y-106470575D01*
X131433002Y-106439598D01*
X131383797Y-106307671D01*
X131383793Y-106307664D01*
X131297547Y-106192455D01*
X131297544Y-106192452D01*
X131182335Y-106106206D01*
X131182328Y-106106202D01*
X131047482Y-106055908D01*
X131047483Y-106055908D01*
X130987883Y-106049501D01*
X130987881Y-106049500D01*
X130987873Y-106049500D01*
X130987864Y-106049500D01*
X129192129Y-106049500D01*
X129192123Y-106049501D01*
X129132516Y-106055908D01*
X128997671Y-106106202D01*
X128997664Y-106106206D01*
X128882455Y-106192452D01*
X128882452Y-106192455D01*
X128796206Y-106307664D01*
X128796202Y-106307671D01*
X128745908Y-106442517D01*
X128739501Y-106502116D01*
X128739500Y-106502135D01*
X112450500Y-106502135D01*
X112450500Y-100253713D01*
X113149500Y-100253713D01*
X113149500Y-100466286D01*
X113182753Y-100676239D01*
X113248444Y-100878414D01*
X113344951Y-101067820D01*
X113469890Y-101239786D01*
X113583430Y-101353326D01*
X113616915Y-101414649D01*
X113611931Y-101484341D01*
X113570059Y-101540274D01*
X113539083Y-101557189D01*
X113407669Y-101606203D01*
X113407664Y-101606206D01*
X113292455Y-101692452D01*
X113292452Y-101692455D01*
X113206206Y-101807664D01*
X113206202Y-101807671D01*
X113155908Y-101942517D01*
X113149501Y-102002116D01*
X113149501Y-102002123D01*
X113149500Y-102002135D01*
X113149500Y-103797870D01*
X113149501Y-103797876D01*
X113155908Y-103857483D01*
X113206202Y-103992328D01*
X113206206Y-103992335D01*
X113292452Y-104107544D01*
X113292455Y-104107547D01*
X113407664Y-104193793D01*
X113407671Y-104193797D01*
X113542517Y-104244091D01*
X113542516Y-104244091D01*
X113549444Y-104244835D01*
X113602127Y-104250500D01*
X115397872Y-104250499D01*
X115457483Y-104244091D01*
X115592331Y-104193796D01*
X115707546Y-104107546D01*
X115793796Y-103992331D01*
X115844091Y-103857483D01*
X115850500Y-103797873D01*
X115850499Y-102002128D01*
X115844091Y-101942517D01*
X115835026Y-101918213D01*
X115801528Y-101828399D01*
X115801527Y-101828397D01*
X115793798Y-101807673D01*
X115793793Y-101807664D01*
X115781433Y-101791153D01*
X122189500Y-101791153D01*
X122189500Y-101948846D01*
X122220261Y-102103489D01*
X122220264Y-102103501D01*
X122280602Y-102249172D01*
X122280609Y-102249185D01*
X122368210Y-102380288D01*
X122368213Y-102380292D01*
X122479707Y-102491786D01*
X122479711Y-102491789D01*
X122610814Y-102579390D01*
X122610827Y-102579397D01*
X122706062Y-102618844D01*
X122756503Y-102639737D01*
X122911153Y-102670499D01*
X122911156Y-102670500D01*
X122911158Y-102670500D01*
X123068844Y-102670500D01*
X123068845Y-102670499D01*
X123223497Y-102639737D01*
X123369179Y-102579394D01*
X123500289Y-102491789D01*
X123530925Y-102461153D01*
X154189500Y-102461153D01*
X154189500Y-102618846D01*
X154220261Y-102773489D01*
X154220264Y-102773501D01*
X154280602Y-102919172D01*
X154280609Y-102919185D01*
X154368210Y-103050288D01*
X154368213Y-103050292D01*
X154479707Y-103161786D01*
X154479711Y-103161789D01*
X154610814Y-103249390D01*
X154610827Y-103249397D01*
X154756498Y-103309735D01*
X154756503Y-103309737D01*
X154911153Y-103340499D01*
X154911156Y-103340500D01*
X154911158Y-103340500D01*
X155068844Y-103340500D01*
X155068845Y-103340499D01*
X155223497Y-103309737D01*
X155369179Y-103249394D01*
X155500289Y-103161789D01*
X155611789Y-103050289D01*
X155699394Y-102919179D01*
X155759737Y-102773497D01*
X155790500Y-102618842D01*
X155790500Y-102461158D01*
X155790500Y-102461155D01*
X155790499Y-102461153D01*
X155759737Y-102306503D01*
X155759735Y-102306498D01*
X155699397Y-102160827D01*
X155699390Y-102160814D01*
X155611789Y-102029711D01*
X155611786Y-102029707D01*
X155500292Y-101918213D01*
X155500288Y-101918210D01*
X155369185Y-101830609D01*
X155369172Y-101830602D01*
X155223501Y-101770264D01*
X155223489Y-101770261D01*
X155068845Y-101739500D01*
X155068842Y-101739500D01*
X154911158Y-101739500D01*
X154911155Y-101739500D01*
X154756510Y-101770261D01*
X154756498Y-101770264D01*
X154610827Y-101830602D01*
X154610814Y-101830609D01*
X154479711Y-101918210D01*
X154479707Y-101918213D01*
X154368213Y-102029707D01*
X154368210Y-102029711D01*
X154280609Y-102160814D01*
X154280602Y-102160827D01*
X154220264Y-102306498D01*
X154220261Y-102306510D01*
X154189500Y-102461153D01*
X123530925Y-102461153D01*
X123611789Y-102380289D01*
X123699394Y-102249179D01*
X123759737Y-102103497D01*
X123790500Y-101948842D01*
X123790500Y-101791158D01*
X123790500Y-101791155D01*
X123790499Y-101791153D01*
X123786343Y-101770261D01*
X123759737Y-101636503D01*
X123747187Y-101606204D01*
X123699397Y-101490827D01*
X123699390Y-101490814D01*
X123611789Y-101359711D01*
X123611786Y-101359707D01*
X123500292Y-101248213D01*
X123500288Y-101248210D01*
X123369185Y-101160609D01*
X123369172Y-101160602D01*
X123223501Y-101100264D01*
X123223489Y-101100261D01*
X123068845Y-101069500D01*
X123068842Y-101069500D01*
X122911158Y-101069500D01*
X122911155Y-101069500D01*
X122756510Y-101100261D01*
X122756498Y-101100264D01*
X122610827Y-101160602D01*
X122610814Y-101160609D01*
X122479711Y-101248210D01*
X122479707Y-101248213D01*
X122368213Y-101359707D01*
X122368210Y-101359711D01*
X122280609Y-101490814D01*
X122280602Y-101490827D01*
X122220264Y-101636498D01*
X122220261Y-101636510D01*
X122189500Y-101791153D01*
X115781433Y-101791153D01*
X115707547Y-101692455D01*
X115707544Y-101692452D01*
X115592335Y-101606206D01*
X115592328Y-101606202D01*
X115460917Y-101557189D01*
X115404983Y-101515318D01*
X115380566Y-101449853D01*
X115395418Y-101381580D01*
X115416563Y-101353332D01*
X115530104Y-101239792D01*
X115587639Y-101160602D01*
X115631478Y-101100261D01*
X115655051Y-101067816D01*
X115751557Y-100878412D01*
X115817246Y-100676243D01*
X115850500Y-100466287D01*
X115850500Y-100253713D01*
X115817246Y-100043757D01*
X115751557Y-99841588D01*
X115655051Y-99652184D01*
X115655049Y-99652181D01*
X115655048Y-99652179D01*
X115530109Y-99480213D01*
X115379786Y-99329890D01*
X115207820Y-99204951D01*
X115018414Y-99108444D01*
X115018413Y-99108443D01*
X115018412Y-99108443D01*
X114816243Y-99042754D01*
X114816241Y-99042753D01*
X114816240Y-99042753D01*
X114654957Y-99017208D01*
X114606287Y-99009500D01*
X114393713Y-99009500D01*
X114345042Y-99017208D01*
X114183760Y-99042753D01*
X113981585Y-99108444D01*
X113792179Y-99204951D01*
X113620213Y-99329890D01*
X113469890Y-99480213D01*
X113344951Y-99652179D01*
X113248444Y-99841585D01*
X113182753Y-100043760D01*
X113149500Y-100253713D01*
X112450500Y-100253713D01*
X112450500Y-98097648D01*
X124659500Y-98097648D01*
X124659500Y-98302351D01*
X124691522Y-98504534D01*
X124754781Y-98699223D01*
X124818691Y-98824653D01*
X124847585Y-98881359D01*
X124847715Y-98881613D01*
X124968028Y-99047213D01*
X125112786Y-99191971D01*
X125233226Y-99279474D01*
X125278390Y-99312287D01*
X125394607Y-99371503D01*
X125460776Y-99405218D01*
X125460778Y-99405218D01*
X125460781Y-99405220D01*
X125565137Y-99439127D01*
X125655465Y-99468477D01*
X125729531Y-99480208D01*
X125857648Y-99500500D01*
X125857649Y-99500500D01*
X126062351Y-99500500D01*
X126062352Y-99500500D01*
X126264534Y-99468477D01*
X126459219Y-99405220D01*
X126641610Y-99312287D01*
X126789347Y-99204951D01*
X126807213Y-99191971D01*
X126807215Y-99191968D01*
X126807219Y-99191966D01*
X126951966Y-99047219D01*
X126951968Y-99047215D01*
X126951971Y-99047213D01*
X127072286Y-98881611D01*
X127072415Y-98881359D01*
X127119795Y-98788369D01*
X127167769Y-98737573D01*
X127235590Y-98720778D01*
X127301725Y-98743315D01*
X127340765Y-98788369D01*
X127388141Y-98881350D01*
X127388147Y-98881359D01*
X127420523Y-98925921D01*
X127420524Y-98925922D01*
X128100000Y-98246446D01*
X128100000Y-98252661D01*
X128127259Y-98354394D01*
X128179920Y-98445606D01*
X128254394Y-98520080D01*
X128345606Y-98572741D01*
X128447339Y-98600000D01*
X128453553Y-98600000D01*
X127774076Y-99279474D01*
X127818650Y-99311859D01*
X128000968Y-99404755D01*
X128195582Y-99467990D01*
X128397683Y-99500000D01*
X128602317Y-99500000D01*
X128804417Y-99467990D01*
X128999031Y-99404755D01*
X129181349Y-99311859D01*
X129225921Y-99279474D01*
X128546447Y-98600000D01*
X128552661Y-98600000D01*
X128654394Y-98572741D01*
X128745606Y-98520080D01*
X128820080Y-98445606D01*
X128872741Y-98354394D01*
X128900000Y-98252661D01*
X128900000Y-98246448D01*
X129579474Y-98925922D01*
X129579474Y-98925921D01*
X129611859Y-98881349D01*
X129704755Y-98699031D01*
X129767990Y-98504417D01*
X129800000Y-98302317D01*
X129800000Y-98097682D01*
X129767990Y-97895582D01*
X129704755Y-97700968D01*
X129611859Y-97518650D01*
X129579474Y-97474077D01*
X129579474Y-97474076D01*
X128900000Y-98153551D01*
X128900000Y-98147339D01*
X128872741Y-98045606D01*
X128820080Y-97954394D01*
X128745606Y-97879920D01*
X128654394Y-97827259D01*
X128552661Y-97800000D01*
X128546446Y-97800000D01*
X129225922Y-97120524D01*
X129225921Y-97120523D01*
X129181359Y-97088147D01*
X129181350Y-97088141D01*
X128999031Y-96995244D01*
X128804417Y-96932009D01*
X128602317Y-96900000D01*
X128397683Y-96900000D01*
X128195582Y-96932009D01*
X128000968Y-96995244D01*
X127818644Y-97088143D01*
X127774077Y-97120523D01*
X127774077Y-97120524D01*
X128453554Y-97800000D01*
X128447339Y-97800000D01*
X128345606Y-97827259D01*
X128254394Y-97879920D01*
X128179920Y-97954394D01*
X128127259Y-98045606D01*
X128100000Y-98147339D01*
X128100000Y-98153553D01*
X127420524Y-97474077D01*
X127420523Y-97474077D01*
X127388143Y-97518644D01*
X127340765Y-97611630D01*
X127292790Y-97662426D01*
X127224969Y-97679221D01*
X127158834Y-97656683D01*
X127119795Y-97611630D01*
X127072287Y-97518390D01*
X127072285Y-97518387D01*
X127072284Y-97518385D01*
X126951971Y-97352786D01*
X126807213Y-97208028D01*
X126641613Y-97087715D01*
X126641612Y-97087714D01*
X126641610Y-97087713D01*
X126584653Y-97058691D01*
X126459223Y-96994781D01*
X126264534Y-96931522D01*
X126089995Y-96903878D01*
X126062352Y-96899500D01*
X125857648Y-96899500D01*
X125833329Y-96903351D01*
X125655465Y-96931522D01*
X125460776Y-96994781D01*
X125278386Y-97087715D01*
X125112786Y-97208028D01*
X124968028Y-97352786D01*
X124847715Y-97518386D01*
X124754781Y-97700776D01*
X124691522Y-97895465D01*
X124659500Y-98097648D01*
X112450500Y-98097648D01*
X112450500Y-96451153D01*
X142349500Y-96451153D01*
X142349500Y-96608846D01*
X142380261Y-96763489D01*
X142380264Y-96763501D01*
X142440602Y-96909172D01*
X142440609Y-96909185D01*
X142528210Y-97040288D01*
X142528213Y-97040292D01*
X142639707Y-97151786D01*
X142639711Y-97151789D01*
X142770814Y-97239390D01*
X142770827Y-97239397D01*
X142916498Y-97299735D01*
X142916503Y-97299737D01*
X143071153Y-97330499D01*
X143071156Y-97330500D01*
X143071158Y-97330500D01*
X143228844Y-97330500D01*
X143228845Y-97330499D01*
X143383497Y-97299737D01*
X143529179Y-97239394D01*
X143660289Y-97151789D01*
X143740925Y-97071153D01*
X155179500Y-97071153D01*
X155179500Y-97228846D01*
X155210261Y-97383489D01*
X155210264Y-97383501D01*
X155270602Y-97529172D01*
X155270609Y-97529185D01*
X155358210Y-97660288D01*
X155358213Y-97660292D01*
X155469707Y-97771786D01*
X155469711Y-97771789D01*
X155600814Y-97859390D01*
X155600827Y-97859397D01*
X155687907Y-97895466D01*
X155746503Y-97919737D01*
X155901153Y-97950499D01*
X155901156Y-97950500D01*
X155901158Y-97950500D01*
X156058844Y-97950500D01*
X156058845Y-97950499D01*
X156213497Y-97919737D01*
X156359179Y-97859394D01*
X156490289Y-97771789D01*
X156601789Y-97660289D01*
X156689394Y-97529179D01*
X156749737Y-97383497D01*
X156780500Y-97228842D01*
X156780500Y-97071158D01*
X156780500Y-97071155D01*
X156780499Y-97071153D01*
X156774360Y-97040289D01*
X156749737Y-96916503D01*
X156746703Y-96909179D01*
X156689397Y-96770827D01*
X156689390Y-96770814D01*
X156601789Y-96639711D01*
X156601786Y-96639707D01*
X156490292Y-96528213D01*
X156490288Y-96528210D01*
X156471042Y-96515350D01*
X166324500Y-96515350D01*
X166324500Y-96684649D01*
X166350981Y-96851847D01*
X166403296Y-97012853D01*
X166480152Y-97163688D01*
X166579648Y-97300634D01*
X166579652Y-97300639D01*
X166699360Y-97420347D01*
X166699365Y-97420351D01*
X166818817Y-97507137D01*
X166836315Y-97519850D01*
X166932425Y-97568820D01*
X166987146Y-97596703D01*
X166987148Y-97596703D01*
X166987151Y-97596705D01*
X167073450Y-97624745D01*
X167148152Y-97649018D01*
X167315351Y-97675500D01*
X167315356Y-97675500D01*
X167484649Y-97675500D01*
X167651847Y-97649018D01*
X167812849Y-97596705D01*
X167963685Y-97519850D01*
X168100641Y-97420346D01*
X168220346Y-97300641D01*
X168319850Y-97163685D01*
X168396705Y-97012849D01*
X168449018Y-96851847D01*
X168475500Y-96684649D01*
X168475500Y-96515350D01*
X168449018Y-96348152D01*
X168396703Y-96187146D01*
X168368820Y-96132425D01*
X168319850Y-96036315D01*
X168226779Y-95908213D01*
X168220351Y-95899365D01*
X168220347Y-95899360D01*
X168100639Y-95779652D01*
X168100634Y-95779648D01*
X167963688Y-95680152D01*
X167963687Y-95680151D01*
X167963685Y-95680150D01*
X167916582Y-95656150D01*
X167812853Y-95603296D01*
X167651847Y-95550981D01*
X167484649Y-95524500D01*
X167484644Y-95524500D01*
X167315356Y-95524500D01*
X167315351Y-95524500D01*
X167148152Y-95550981D01*
X166987146Y-95603296D01*
X166836311Y-95680152D01*
X166699365Y-95779648D01*
X166699360Y-95779652D01*
X166579652Y-95899360D01*
X166579648Y-95899365D01*
X166480152Y-96036311D01*
X166403296Y-96187146D01*
X166350981Y-96348152D01*
X166324500Y-96515350D01*
X156471042Y-96515350D01*
X156359185Y-96440609D01*
X156359172Y-96440602D01*
X156213501Y-96380264D01*
X156213489Y-96380261D01*
X156058845Y-96349500D01*
X156058842Y-96349500D01*
X155901158Y-96349500D01*
X155901155Y-96349500D01*
X155746510Y-96380261D01*
X155746498Y-96380264D01*
X155600827Y-96440602D01*
X155600814Y-96440609D01*
X155469711Y-96528210D01*
X155469707Y-96528213D01*
X155358213Y-96639707D01*
X155358210Y-96639711D01*
X155270609Y-96770814D01*
X155270602Y-96770827D01*
X155210264Y-96916498D01*
X155210261Y-96916510D01*
X155179500Y-97071153D01*
X143740925Y-97071153D01*
X143771789Y-97040289D01*
X143859394Y-96909179D01*
X143919737Y-96763497D01*
X143950500Y-96608842D01*
X143950500Y-96451158D01*
X143950500Y-96451155D01*
X143950499Y-96451153D01*
X143936398Y-96380263D01*
X143919737Y-96296503D01*
X143919735Y-96296498D01*
X143859397Y-96150827D01*
X143859390Y-96150814D01*
X143771789Y-96019711D01*
X143771786Y-96019707D01*
X143660292Y-95908213D01*
X143660288Y-95908210D01*
X143529185Y-95820609D01*
X143529172Y-95820602D01*
X143383501Y-95760264D01*
X143383489Y-95760261D01*
X143228845Y-95729500D01*
X143228842Y-95729500D01*
X143071158Y-95729500D01*
X143071155Y-95729500D01*
X142916510Y-95760261D01*
X142916498Y-95760264D01*
X142770827Y-95820602D01*
X142770814Y-95820609D01*
X142639711Y-95908210D01*
X142639707Y-95908213D01*
X142528213Y-96019707D01*
X142528210Y-96019711D01*
X142440609Y-96150814D01*
X142440602Y-96150827D01*
X142380264Y-96296498D01*
X142380261Y-96296510D01*
X142349500Y-96451153D01*
X112450500Y-96451153D01*
X112450500Y-90097648D01*
X126604500Y-90097648D01*
X126604500Y-90302351D01*
X126636522Y-90504534D01*
X126699781Y-90699223D01*
X126749432Y-90796666D01*
X126771906Y-90840775D01*
X126792715Y-90881613D01*
X126913028Y-91047213D01*
X127057786Y-91191971D01*
X127159229Y-91265672D01*
X127223390Y-91312287D01*
X127339607Y-91371503D01*
X127405776Y-91405218D01*
X127405778Y-91405218D01*
X127405781Y-91405220D01*
X127510137Y-91439127D01*
X127600465Y-91468477D01*
X127701557Y-91484488D01*
X127802648Y-91500500D01*
X127802649Y-91500500D01*
X128007351Y-91500500D01*
X128007352Y-91500500D01*
X128209534Y-91468477D01*
X128404219Y-91405220D01*
X128586610Y-91312287D01*
X128679590Y-91244732D01*
X128752213Y-91191971D01*
X128752215Y-91191968D01*
X128752219Y-91191966D01*
X128896966Y-91047219D01*
X128896968Y-91047215D01*
X128896971Y-91047213D01*
X129017284Y-90881614D01*
X129017285Y-90881613D01*
X129017287Y-90881610D01*
X129064516Y-90788917D01*
X129112489Y-90738123D01*
X129180310Y-90721328D01*
X129246445Y-90743865D01*
X129285483Y-90788917D01*
X129313004Y-90842928D01*
X129332715Y-90881614D01*
X129453028Y-91047213D01*
X129597786Y-91191971D01*
X129699229Y-91265672D01*
X129763390Y-91312287D01*
X129879607Y-91371503D01*
X129945776Y-91405218D01*
X129945778Y-91405218D01*
X129945781Y-91405220D01*
X130050137Y-91439127D01*
X130140465Y-91468477D01*
X130241557Y-91484488D01*
X130342648Y-91500500D01*
X130342649Y-91500500D01*
X130547351Y-91500500D01*
X130547352Y-91500500D01*
X130749534Y-91468477D01*
X130944219Y-91405220D01*
X131126610Y-91312287D01*
X131219590Y-91244732D01*
X131292213Y-91191971D01*
X131292215Y-91191968D01*
X131292219Y-91191966D01*
X131436966Y-91047219D01*
X131436968Y-91047215D01*
X131436971Y-91047213D01*
X131520182Y-90932681D01*
X131557287Y-90881610D01*
X131650220Y-90699219D01*
X131713477Y-90504534D01*
X131745500Y-90302352D01*
X131745500Y-90288995D01*
X142149499Y-90288995D01*
X142176418Y-90424322D01*
X142176421Y-90424332D01*
X142229221Y-90551804D01*
X142229228Y-90551817D01*
X142305885Y-90666541D01*
X142305888Y-90666545D01*
X142396662Y-90757319D01*
X142430147Y-90818642D01*
X142425163Y-90888334D01*
X142396662Y-90932681D01*
X142305888Y-91023454D01*
X142305885Y-91023458D01*
X142229228Y-91138182D01*
X142229221Y-91138195D01*
X142176421Y-91265667D01*
X142176418Y-91265677D01*
X142149500Y-91401004D01*
X142149500Y-91401007D01*
X142149500Y-91538993D01*
X142149500Y-91538995D01*
X142149499Y-91538995D01*
X142176418Y-91674322D01*
X142176421Y-91674332D01*
X142229221Y-91801804D01*
X142229228Y-91801817D01*
X142305885Y-91916541D01*
X142305888Y-91916545D01*
X142403454Y-92014111D01*
X142403458Y-92014114D01*
X142518182Y-92090771D01*
X142518195Y-92090778D01*
X142645667Y-92143578D01*
X142645672Y-92143580D01*
X142679548Y-92150318D01*
X142702630Y-92154910D01*
X142764541Y-92187295D01*
X142799115Y-92248010D01*
X142800056Y-92252336D01*
X142806418Y-92284320D01*
X142806421Y-92284332D01*
X142859221Y-92411804D01*
X142859228Y-92411817D01*
X142935885Y-92526541D01*
X142935888Y-92526545D01*
X143033454Y-92624111D01*
X143033458Y-92624114D01*
X143148182Y-92700771D01*
X143148195Y-92700778D01*
X143275667Y-92753578D01*
X143275672Y-92753580D01*
X143275676Y-92753580D01*
X143275677Y-92753581D01*
X143411004Y-92780500D01*
X143411007Y-92780500D01*
X143548995Y-92780500D01*
X143640041Y-92762389D01*
X143684328Y-92753580D01*
X143811811Y-92700775D01*
X143926542Y-92624114D01*
X143953953Y-92596703D01*
X144017319Y-92533338D01*
X144078642Y-92499853D01*
X144148334Y-92504837D01*
X144192681Y-92533338D01*
X144283454Y-92624111D01*
X144283458Y-92624114D01*
X144398182Y-92700771D01*
X144398195Y-92700778D01*
X144525667Y-92753578D01*
X144525672Y-92753580D01*
X144525676Y-92753580D01*
X144525677Y-92753581D01*
X144661004Y-92780500D01*
X144661007Y-92780500D01*
X144798995Y-92780500D01*
X144890041Y-92762389D01*
X144934328Y-92753580D01*
X145061811Y-92700775D01*
X145176542Y-92624114D01*
X145274114Y-92526542D01*
X145350775Y-92411811D01*
X145403580Y-92284328D01*
X145409943Y-92252335D01*
X145442325Y-92190427D01*
X145503040Y-92155851D01*
X145507319Y-92154919D01*
X145564328Y-92143580D01*
X145691811Y-92090775D01*
X145806542Y-92014114D01*
X145809503Y-92011153D01*
X147539500Y-92011153D01*
X147539500Y-92168846D01*
X147570261Y-92323489D01*
X147570264Y-92323501D01*
X147630602Y-92469172D01*
X147630609Y-92469185D01*
X147718210Y-92600288D01*
X147718213Y-92600292D01*
X147829707Y-92711786D01*
X147829711Y-92711789D01*
X147960814Y-92799390D01*
X147960827Y-92799397D01*
X148106498Y-92859735D01*
X148106503Y-92859737D01*
X148261153Y-92890499D01*
X148261156Y-92890500D01*
X148261158Y-92890500D01*
X148418844Y-92890500D01*
X148418845Y-92890499D01*
X148573497Y-92859737D01*
X148719179Y-92799394D01*
X148850289Y-92711789D01*
X148961789Y-92600289D01*
X149049394Y-92469179D01*
X149109737Y-92323497D01*
X149140500Y-92168842D01*
X149140500Y-92011158D01*
X149140500Y-92011155D01*
X149140499Y-92011153D01*
X149121680Y-91916545D01*
X149109737Y-91856503D01*
X149109735Y-91856498D01*
X149049397Y-91710827D01*
X149049390Y-91710814D01*
X148961790Y-91579712D01*
X148961786Y-91579707D01*
X148897429Y-91515350D01*
X166324500Y-91515350D01*
X166324500Y-91684649D01*
X166350981Y-91851847D01*
X166403296Y-92012853D01*
X166442998Y-92090771D01*
X166476158Y-92155851D01*
X166480152Y-92163688D01*
X166579648Y-92300634D01*
X166579652Y-92300639D01*
X166699360Y-92420347D01*
X166699365Y-92420351D01*
X166766562Y-92469172D01*
X166836315Y-92519850D01*
X166932425Y-92568820D01*
X166987146Y-92596703D01*
X166987148Y-92596703D01*
X166987151Y-92596705D01*
X167071498Y-92624111D01*
X167148152Y-92649018D01*
X167315351Y-92675500D01*
X167315356Y-92675500D01*
X167484649Y-92675500D01*
X167651847Y-92649018D01*
X167812849Y-92596705D01*
X167963685Y-92519850D01*
X168100641Y-92420346D01*
X168220346Y-92300641D01*
X168319850Y-92163685D01*
X168396705Y-92012849D01*
X168449018Y-91851847D01*
X168456944Y-91801804D01*
X168475500Y-91684649D01*
X168475500Y-91515350D01*
X168449018Y-91348152D01*
X168422218Y-91265672D01*
X168396705Y-91187151D01*
X168396703Y-91187148D01*
X168396703Y-91187146D01*
X168368820Y-91132425D01*
X168319850Y-91036315D01*
X168244556Y-90932681D01*
X168220351Y-90899365D01*
X168220347Y-90899360D01*
X168100639Y-90779652D01*
X168100634Y-90779648D01*
X167963688Y-90680152D01*
X167963687Y-90680151D01*
X167963685Y-90680150D01*
X167916582Y-90656150D01*
X167812853Y-90603296D01*
X167651847Y-90550981D01*
X167484649Y-90524500D01*
X167484644Y-90524500D01*
X167315356Y-90524500D01*
X167315351Y-90524500D01*
X167148152Y-90550981D01*
X166987146Y-90603296D01*
X166836311Y-90680152D01*
X166699365Y-90779648D01*
X166699360Y-90779652D01*
X166579652Y-90899360D01*
X166579648Y-90899365D01*
X166480152Y-91036311D01*
X166403296Y-91187146D01*
X166350981Y-91348152D01*
X166324500Y-91515350D01*
X148897429Y-91515350D01*
X148850292Y-91468213D01*
X148850288Y-91468210D01*
X148719185Y-91380609D01*
X148719172Y-91380602D01*
X148573501Y-91320264D01*
X148573489Y-91320261D01*
X148418845Y-91289500D01*
X148418842Y-91289500D01*
X148261158Y-91289500D01*
X148261155Y-91289500D01*
X148106510Y-91320261D01*
X148106498Y-91320264D01*
X147960827Y-91380602D01*
X147960814Y-91380609D01*
X147829711Y-91468210D01*
X147829707Y-91468213D01*
X147718213Y-91579707D01*
X147718210Y-91579711D01*
X147630609Y-91710814D01*
X147630602Y-91710827D01*
X147570264Y-91856498D01*
X147570261Y-91856510D01*
X147539500Y-92011153D01*
X145809503Y-92011153D01*
X145903272Y-91917385D01*
X145904111Y-91916545D01*
X145904114Y-91916542D01*
X145980775Y-91801811D01*
X146033580Y-91674328D01*
X146042389Y-91630041D01*
X146060500Y-91538995D01*
X146060500Y-91401004D01*
X146033581Y-91265677D01*
X146033580Y-91265676D01*
X146033580Y-91265672D01*
X146001054Y-91187146D01*
X145980778Y-91138195D01*
X145980771Y-91138182D01*
X145904114Y-91023458D01*
X145904111Y-91023454D01*
X145808338Y-90927681D01*
X145774853Y-90866358D01*
X145779837Y-90796666D01*
X145808338Y-90752319D01*
X145894111Y-90666545D01*
X145894114Y-90666542D01*
X145970775Y-90551811D01*
X146023580Y-90424328D01*
X146050500Y-90288993D01*
X146050500Y-90151007D01*
X146050500Y-90151004D01*
X146023581Y-90015677D01*
X146023580Y-90015676D01*
X146023580Y-90015672D01*
X145977772Y-89905081D01*
X145970778Y-89888195D01*
X145970771Y-89888182D01*
X145894114Y-89773458D01*
X145894111Y-89773454D01*
X145796545Y-89675888D01*
X145796541Y-89675885D01*
X145681817Y-89599228D01*
X145681804Y-89599221D01*
X145554330Y-89546420D01*
X145554324Y-89546418D01*
X145511922Y-89537984D01*
X145450012Y-89505598D01*
X145415438Y-89444882D01*
X145414498Y-89440558D01*
X145403581Y-89385679D01*
X145403580Y-89385672D01*
X145355000Y-89268389D01*
X145350778Y-89258195D01*
X145350771Y-89258182D01*
X145274114Y-89143458D01*
X145274111Y-89143454D01*
X145176545Y-89045888D01*
X145176541Y-89045885D01*
X145061817Y-88969228D01*
X145061804Y-88969221D01*
X144934332Y-88916421D01*
X144934322Y-88916418D01*
X144798995Y-88889500D01*
X144798993Y-88889500D01*
X144661007Y-88889500D01*
X144661005Y-88889500D01*
X144525677Y-88916418D01*
X144525667Y-88916421D01*
X144398195Y-88969221D01*
X144398182Y-88969228D01*
X144283458Y-89045885D01*
X144283454Y-89045888D01*
X144192681Y-89136662D01*
X144131358Y-89170147D01*
X144061666Y-89165163D01*
X144017319Y-89136662D01*
X143926545Y-89045888D01*
X143926541Y-89045885D01*
X143811817Y-88969228D01*
X143811804Y-88969221D01*
X143684332Y-88916421D01*
X143684322Y-88916418D01*
X143548995Y-88889500D01*
X143548993Y-88889500D01*
X143411007Y-88889500D01*
X143411005Y-88889500D01*
X143275677Y-88916418D01*
X143275667Y-88916421D01*
X143148195Y-88969221D01*
X143148182Y-88969228D01*
X143033458Y-89045885D01*
X143033454Y-89045888D01*
X142935888Y-89143454D01*
X142935885Y-89143458D01*
X142859228Y-89258182D01*
X142859221Y-89258195D01*
X142806421Y-89385667D01*
X142806418Y-89385676D01*
X142795913Y-89438489D01*
X142763527Y-89500400D01*
X142702811Y-89534973D01*
X142698489Y-89535913D01*
X142645676Y-89546418D01*
X142645667Y-89546421D01*
X142518195Y-89599221D01*
X142518182Y-89599228D01*
X142403458Y-89675885D01*
X142403454Y-89675888D01*
X142305888Y-89773454D01*
X142305885Y-89773458D01*
X142229228Y-89888182D01*
X142229221Y-89888195D01*
X142176421Y-90015667D01*
X142176418Y-90015677D01*
X142149500Y-90151004D01*
X142149500Y-90151007D01*
X142149500Y-90288993D01*
X142149500Y-90288995D01*
X142149499Y-90288995D01*
X131745500Y-90288995D01*
X131745500Y-90097648D01*
X131713477Y-89895466D01*
X131711110Y-89888182D01*
X131650218Y-89700776D01*
X131598476Y-89599228D01*
X131557287Y-89518390D01*
X131503881Y-89444882D01*
X131436971Y-89352786D01*
X131292213Y-89208028D01*
X131126613Y-89087715D01*
X131126612Y-89087714D01*
X131126610Y-89087713D01*
X131044518Y-89045885D01*
X130944223Y-88994781D01*
X130749534Y-88931522D01*
X130574995Y-88903878D01*
X130547352Y-88899500D01*
X130342648Y-88899500D01*
X130318329Y-88903351D01*
X130140465Y-88931522D01*
X129945776Y-88994781D01*
X129763386Y-89087715D01*
X129597786Y-89208028D01*
X129453028Y-89352786D01*
X129332715Y-89518386D01*
X129285485Y-89611080D01*
X129237510Y-89661876D01*
X129169689Y-89678671D01*
X129103554Y-89656134D01*
X129064515Y-89611080D01*
X129058476Y-89599228D01*
X129017287Y-89518390D01*
X128963881Y-89444882D01*
X128896971Y-89352786D01*
X128752213Y-89208028D01*
X128586613Y-89087715D01*
X128586612Y-89087714D01*
X128586610Y-89087713D01*
X128504518Y-89045885D01*
X128404223Y-88994781D01*
X128209534Y-88931522D01*
X128034995Y-88903878D01*
X128007352Y-88899500D01*
X127802648Y-88899500D01*
X127778329Y-88903351D01*
X127600465Y-88931522D01*
X127405776Y-88994781D01*
X127223386Y-89087715D01*
X127057786Y-89208028D01*
X126913028Y-89352786D01*
X126792715Y-89518386D01*
X126699781Y-89700776D01*
X126636522Y-89895465D01*
X126604500Y-90097648D01*
X112450500Y-90097648D01*
X112450500Y-83689983D01*
X113964500Y-83689983D01*
X113964500Y-84490001D01*
X113964501Y-84490019D01*
X113975000Y-84592796D01*
X113975001Y-84592799D01*
X113995112Y-84653489D01*
X114030186Y-84759334D01*
X114122288Y-84908656D01*
X114246344Y-85032712D01*
X114310543Y-85072310D01*
X114357268Y-85124258D01*
X114368489Y-85193221D01*
X114340646Y-85257303D01*
X114333128Y-85265530D01*
X114225585Y-85373073D01*
X114123768Y-85513211D01*
X114045128Y-85667552D01*
X113991597Y-85832302D01*
X113985668Y-85869737D01*
X113964500Y-86003389D01*
X113964500Y-86176611D01*
X113991598Y-86347701D01*
X114045127Y-86512445D01*
X114123768Y-86666788D01*
X114225586Y-86806928D01*
X114348072Y-86929414D01*
X114348078Y-86929418D01*
X114431023Y-86989683D01*
X114473689Y-87045013D01*
X114479667Y-87114626D01*
X114447061Y-87176421D01*
X114431023Y-87190317D01*
X114348078Y-87250581D01*
X114348069Y-87250588D01*
X114225588Y-87373069D01*
X114225588Y-87373070D01*
X114225586Y-87373072D01*
X114204313Y-87402352D01*
X114123768Y-87513211D01*
X114045128Y-87667552D01*
X113991597Y-87832302D01*
X113964500Y-88003389D01*
X113964500Y-88176610D01*
X113982770Y-88291967D01*
X113991598Y-88347701D01*
X114045127Y-88512445D01*
X114123768Y-88666788D01*
X114225586Y-88806928D01*
X114348072Y-88929414D01*
X114488212Y-89031232D01*
X114642555Y-89109873D01*
X114807299Y-89163402D01*
X114978389Y-89190500D01*
X114978390Y-89190500D01*
X115701610Y-89190500D01*
X115701611Y-89190500D01*
X115872701Y-89163402D01*
X116037445Y-89109873D01*
X116191788Y-89031232D01*
X116331928Y-88929414D01*
X116454414Y-88806928D01*
X116556232Y-88666788D01*
X116634873Y-88512445D01*
X116688402Y-88347701D01*
X116715500Y-88176611D01*
X116715500Y-88003389D01*
X116688402Y-87832299D01*
X116634873Y-87667555D01*
X116556232Y-87513212D01*
X116454414Y-87373072D01*
X116331928Y-87250586D01*
X116259065Y-87197648D01*
X153904500Y-87197648D01*
X153904500Y-87402351D01*
X153936522Y-87604534D01*
X153999781Y-87799223D01*
X154063691Y-87924653D01*
X154092585Y-87981359D01*
X154092715Y-87981613D01*
X154213028Y-88147213D01*
X154357786Y-88291971D01*
X154478226Y-88379474D01*
X154523390Y-88412287D01*
X154639607Y-88471503D01*
X154705776Y-88505218D01*
X154705778Y-88505218D01*
X154705781Y-88505220D01*
X154810137Y-88539127D01*
X154900465Y-88568477D01*
X155001557Y-88584488D01*
X155102648Y-88600500D01*
X155102649Y-88600500D01*
X155307351Y-88600500D01*
X155307352Y-88600500D01*
X155509534Y-88568477D01*
X155704219Y-88505220D01*
X155886610Y-88412287D01*
X155979590Y-88344732D01*
X156052213Y-88291971D01*
X156052215Y-88291968D01*
X156052219Y-88291966D01*
X156196966Y-88147219D01*
X156196968Y-88147215D01*
X156196971Y-88147213D01*
X156317286Y-87981611D01*
X156317415Y-87981359D01*
X156364795Y-87888369D01*
X156412769Y-87837573D01*
X156480590Y-87820778D01*
X156546725Y-87843315D01*
X156585765Y-87888369D01*
X156633141Y-87981350D01*
X156633147Y-87981359D01*
X156665523Y-88025921D01*
X156665524Y-88025922D01*
X157345000Y-87346446D01*
X157345000Y-87352661D01*
X157372259Y-87454394D01*
X157424920Y-87545606D01*
X157499394Y-87620080D01*
X157590606Y-87672741D01*
X157692339Y-87700000D01*
X157698553Y-87700000D01*
X157019076Y-88379474D01*
X157063650Y-88411859D01*
X157245968Y-88504755D01*
X157440582Y-88567990D01*
X157642683Y-88600000D01*
X157847317Y-88600000D01*
X158049417Y-88567990D01*
X158244031Y-88504755D01*
X158426349Y-88411859D01*
X158470921Y-88379474D01*
X157791447Y-87700000D01*
X157797661Y-87700000D01*
X157899394Y-87672741D01*
X157990606Y-87620080D01*
X158065080Y-87545606D01*
X158117741Y-87454394D01*
X158145000Y-87352661D01*
X158145000Y-87346448D01*
X158824474Y-88025922D01*
X158824474Y-88025921D01*
X158856859Y-87981349D01*
X158949755Y-87799031D01*
X159012990Y-87604417D01*
X159045000Y-87402317D01*
X159045000Y-87197682D01*
X159012990Y-86995582D01*
X158949755Y-86800968D01*
X158856859Y-86618650D01*
X158824474Y-86574077D01*
X158824474Y-86574076D01*
X158145000Y-87253551D01*
X158145000Y-87247339D01*
X158117741Y-87145606D01*
X158065080Y-87054394D01*
X157990606Y-86979920D01*
X157899394Y-86927259D01*
X157797661Y-86900000D01*
X157791446Y-86900000D01*
X158470922Y-86220524D01*
X158470921Y-86220523D01*
X158426359Y-86188147D01*
X158426350Y-86188141D01*
X158244031Y-86095244D01*
X158049417Y-86032009D01*
X157847317Y-86000000D01*
X157642683Y-86000000D01*
X157534054Y-86017205D01*
X157464760Y-86008250D01*
X157411308Y-85963254D01*
X157390669Y-85896503D01*
X157409394Y-85829189D01*
X157445765Y-85791630D01*
X157471415Y-85774490D01*
X157550289Y-85721789D01*
X157661789Y-85610289D01*
X157749394Y-85479179D01*
X157809737Y-85333497D01*
X157840500Y-85178842D01*
X157840500Y-85021158D01*
X157840500Y-85021155D01*
X157840499Y-85021153D01*
X157809737Y-84866503D01*
X157781848Y-84799172D01*
X157749397Y-84720827D01*
X157749390Y-84720814D01*
X157661789Y-84589711D01*
X157661786Y-84589707D01*
X157550292Y-84478213D01*
X157550288Y-84478210D01*
X157490361Y-84438168D01*
X157419185Y-84390609D01*
X157419172Y-84390602D01*
X157299790Y-84341153D01*
X163049500Y-84341153D01*
X163049500Y-84498846D01*
X163080261Y-84653489D01*
X163080264Y-84653501D01*
X163140602Y-84799172D01*
X163140609Y-84799185D01*
X163228210Y-84930288D01*
X163228213Y-84930292D01*
X163339707Y-85041786D01*
X163339711Y-85041789D01*
X163470814Y-85129390D01*
X163470827Y-85129397D01*
X163616498Y-85189735D01*
X163616503Y-85189737D01*
X163771153Y-85220499D01*
X163771156Y-85220500D01*
X163771158Y-85220500D01*
X163928844Y-85220500D01*
X163928845Y-85220499D01*
X164083497Y-85189737D01*
X164229179Y-85129394D01*
X164360289Y-85041789D01*
X164471789Y-84930289D01*
X164559394Y-84799179D01*
X164619737Y-84653497D01*
X164650500Y-84498842D01*
X164650500Y-84341158D01*
X164650500Y-84341155D01*
X164650499Y-84341153D01*
X164619738Y-84186510D01*
X164619737Y-84186503D01*
X164619735Y-84186498D01*
X164559397Y-84040827D01*
X164559390Y-84040814D01*
X164471789Y-83909711D01*
X164471786Y-83909707D01*
X164360292Y-83798213D01*
X164360288Y-83798210D01*
X164229185Y-83710609D01*
X164229172Y-83710602D01*
X164083501Y-83650264D01*
X164083489Y-83650261D01*
X163928845Y-83619500D01*
X163928842Y-83619500D01*
X163771158Y-83619500D01*
X163771155Y-83619500D01*
X163616510Y-83650261D01*
X163616498Y-83650264D01*
X163470827Y-83710602D01*
X163470814Y-83710609D01*
X163339711Y-83798210D01*
X163339707Y-83798213D01*
X163228213Y-83909707D01*
X163228210Y-83909711D01*
X163140609Y-84040814D01*
X163140602Y-84040827D01*
X163080264Y-84186498D01*
X163080261Y-84186510D01*
X163049500Y-84341153D01*
X157299790Y-84341153D01*
X157273501Y-84330264D01*
X157273489Y-84330261D01*
X157118845Y-84299500D01*
X157118842Y-84299500D01*
X156961158Y-84299500D01*
X156961155Y-84299500D01*
X156806510Y-84330261D01*
X156806498Y-84330264D01*
X156660827Y-84390602D01*
X156660814Y-84390609D01*
X156529711Y-84478210D01*
X156529707Y-84478213D01*
X156418213Y-84589707D01*
X156418210Y-84589711D01*
X156330609Y-84720814D01*
X156330602Y-84720827D01*
X156270264Y-84866498D01*
X156270261Y-84866510D01*
X156239500Y-85021153D01*
X156239500Y-85178846D01*
X156270261Y-85333489D01*
X156270264Y-85333501D01*
X156330602Y-85479172D01*
X156330609Y-85479185D01*
X156418210Y-85610288D01*
X156418213Y-85610292D01*
X156529707Y-85721786D01*
X156529711Y-85721789D01*
X156660814Y-85809390D01*
X156660827Y-85809397D01*
X156806498Y-85869735D01*
X156806503Y-85869737D01*
X156941064Y-85896503D01*
X156961153Y-85900499D01*
X156961156Y-85900500D01*
X157111680Y-85900500D01*
X157178719Y-85920185D01*
X157224474Y-85972989D01*
X157234418Y-86042147D01*
X157205393Y-86105703D01*
X157167975Y-86134985D01*
X157063644Y-86188143D01*
X157019077Y-86220523D01*
X157019077Y-86220524D01*
X157698554Y-86900000D01*
X157692339Y-86900000D01*
X157590606Y-86927259D01*
X157499394Y-86979920D01*
X157424920Y-87054394D01*
X157372259Y-87145606D01*
X157345000Y-87247339D01*
X157345000Y-87253553D01*
X156665524Y-86574077D01*
X156665523Y-86574077D01*
X156633143Y-86618644D01*
X156585765Y-86711630D01*
X156537790Y-86762426D01*
X156469969Y-86779221D01*
X156403834Y-86756683D01*
X156364795Y-86711630D01*
X156317284Y-86618385D01*
X156196971Y-86452786D01*
X156052213Y-86308028D01*
X155886613Y-86187715D01*
X155886612Y-86187714D01*
X155886610Y-86187713D01*
X155783126Y-86134985D01*
X155704223Y-86094781D01*
X155509534Y-86031522D01*
X155331906Y-86003389D01*
X155307352Y-85999500D01*
X155102648Y-85999500D01*
X155078329Y-86003351D01*
X154900465Y-86031522D01*
X154705776Y-86094781D01*
X154523386Y-86187715D01*
X154357786Y-86308028D01*
X154213028Y-86452786D01*
X154092715Y-86618386D01*
X153999781Y-86800776D01*
X153936522Y-86995465D01*
X153904500Y-87197648D01*
X116259065Y-87197648D01*
X116246482Y-87188506D01*
X116244086Y-87186576D01*
X116225839Y-87160314D01*
X116206311Y-87134988D01*
X116206038Y-87131813D01*
X116204220Y-87129196D01*
X116203068Y-87097232D01*
X116200332Y-87065374D01*
X116201818Y-87062556D01*
X116201704Y-87059371D01*
X116218015Y-87031860D01*
X116232938Y-87003579D01*
X116236733Y-87000289D01*
X116237338Y-86999271D01*
X116238693Y-86998592D01*
X116248976Y-86989682D01*
X116331928Y-86929414D01*
X116454414Y-86806928D01*
X116556232Y-86666788D01*
X116634873Y-86512445D01*
X116688402Y-86347701D01*
X116715500Y-86176611D01*
X116715500Y-86003389D01*
X116688402Y-85832299D01*
X116634873Y-85667555D01*
X116556232Y-85513212D01*
X116454414Y-85373072D01*
X116346872Y-85265530D01*
X116313387Y-85204207D01*
X116318371Y-85134515D01*
X116360243Y-85078582D01*
X116369457Y-85072310D01*
X116433656Y-85032712D01*
X116557712Y-84908656D01*
X116649814Y-84759334D01*
X116704999Y-84592797D01*
X116715500Y-84490009D01*
X116715499Y-83689992D01*
X116712898Y-83664534D01*
X116704999Y-83587203D01*
X116704998Y-83587200D01*
X116698375Y-83567213D01*
X116649814Y-83420666D01*
X116557712Y-83271344D01*
X116433656Y-83147288D01*
X116284334Y-83055186D01*
X116117797Y-83000001D01*
X116117795Y-83000000D01*
X116015010Y-82989500D01*
X114664998Y-82989500D01*
X114664981Y-82989501D01*
X114562203Y-83000000D01*
X114562200Y-83000001D01*
X114395668Y-83055185D01*
X114395663Y-83055187D01*
X114246342Y-83147289D01*
X114122289Y-83271342D01*
X114030187Y-83420663D01*
X114030186Y-83420666D01*
X113975001Y-83587203D01*
X113975001Y-83587204D01*
X113975000Y-83587204D01*
X113964500Y-83689983D01*
X112450500Y-83689983D01*
X112450500Y-82401153D01*
X121129500Y-82401153D01*
X121129500Y-82558846D01*
X121160261Y-82713489D01*
X121160264Y-82713501D01*
X121220602Y-82859172D01*
X121220609Y-82859185D01*
X121308210Y-82990288D01*
X121308213Y-82990292D01*
X121419707Y-83101786D01*
X121419711Y-83101789D01*
X121550814Y-83189390D01*
X121550827Y-83189397D01*
X121674874Y-83240778D01*
X121696503Y-83249737D01*
X121851153Y-83280499D01*
X121851156Y-83280500D01*
X121851158Y-83280500D01*
X122008844Y-83280500D01*
X122008845Y-83280499D01*
X122163497Y-83249737D01*
X122309179Y-83189394D01*
X122440289Y-83101789D01*
X122551789Y-82990289D01*
X122639394Y-82859179D01*
X122699737Y-82713497D01*
X122718802Y-82617648D01*
X157209500Y-82617648D01*
X157209500Y-82822351D01*
X157241522Y-83024534D01*
X157304781Y-83219223D01*
X157368691Y-83344653D01*
X157397585Y-83401359D01*
X157397715Y-83401613D01*
X157518028Y-83567213D01*
X157662786Y-83711971D01*
X157783226Y-83799474D01*
X157828390Y-83832287D01*
X157944607Y-83891503D01*
X158010776Y-83925218D01*
X158010778Y-83925218D01*
X158010781Y-83925220D01*
X158115137Y-83959127D01*
X158205465Y-83988477D01*
X158306557Y-84004488D01*
X158407648Y-84020500D01*
X158407649Y-84020500D01*
X158612351Y-84020500D01*
X158612352Y-84020500D01*
X158814534Y-83988477D01*
X159009219Y-83925220D01*
X159191610Y-83832287D01*
X159284590Y-83764732D01*
X159357213Y-83711971D01*
X159357215Y-83711968D01*
X159357219Y-83711966D01*
X159501966Y-83567219D01*
X159501968Y-83567215D01*
X159501971Y-83567213D01*
X159590093Y-83445921D01*
X159622287Y-83401610D01*
X159669795Y-83308369D01*
X159717769Y-83257573D01*
X159785590Y-83240778D01*
X159851725Y-83263315D01*
X159890765Y-83308369D01*
X159938141Y-83401350D01*
X159938147Y-83401359D01*
X159970523Y-83445921D01*
X159970524Y-83445922D01*
X160650000Y-82766446D01*
X160650000Y-82772661D01*
X160677259Y-82874394D01*
X160729920Y-82965606D01*
X160804394Y-83040080D01*
X160895606Y-83092741D01*
X160997339Y-83120000D01*
X161003553Y-83120000D01*
X160324076Y-83799474D01*
X160368650Y-83831859D01*
X160550968Y-83924755D01*
X160745582Y-83987990D01*
X160947683Y-84020000D01*
X161152317Y-84020000D01*
X161354417Y-83987990D01*
X161549031Y-83924755D01*
X161731349Y-83831859D01*
X161775921Y-83799474D01*
X161096447Y-83120000D01*
X161102661Y-83120000D01*
X161204394Y-83092741D01*
X161295606Y-83040080D01*
X161370080Y-82965606D01*
X161422741Y-82874394D01*
X161450000Y-82772661D01*
X161450000Y-82766447D01*
X162129474Y-83445921D01*
X162161859Y-83401349D01*
X162254755Y-83219031D01*
X162317990Y-83024417D01*
X162350000Y-82822317D01*
X162350000Y-82617682D01*
X162317990Y-82415582D01*
X162254755Y-82220968D01*
X162161859Y-82038650D01*
X162129474Y-81994077D01*
X162129474Y-81994076D01*
X161450000Y-82673551D01*
X161450000Y-82667339D01*
X161422741Y-82565606D01*
X161370080Y-82474394D01*
X161295606Y-82399920D01*
X161204394Y-82347259D01*
X161102661Y-82320000D01*
X161096446Y-82320000D01*
X161775922Y-81640524D01*
X161775921Y-81640522D01*
X161755396Y-81625610D01*
X161731357Y-81608145D01*
X161731350Y-81608141D01*
X161580697Y-81531379D01*
X163529500Y-81531379D01*
X163529500Y-81718620D01*
X163566025Y-81902243D01*
X163566027Y-81902251D01*
X163637676Y-82075228D01*
X163637681Y-82075237D01*
X163741697Y-82230907D01*
X163741700Y-82230911D01*
X163874088Y-82363299D01*
X163874092Y-82363302D01*
X164029762Y-82467318D01*
X164029768Y-82467321D01*
X164029769Y-82467322D01*
X164202749Y-82538973D01*
X164386379Y-82575499D01*
X164386383Y-82575500D01*
X164386384Y-82575500D01*
X165673617Y-82575500D01*
X165673618Y-82575499D01*
X165857251Y-82538973D01*
X166030231Y-82467322D01*
X166185908Y-82363302D01*
X166318302Y-82230908D01*
X166422322Y-82075231D01*
X166493973Y-81902251D01*
X166530500Y-81718616D01*
X166530500Y-81531384D01*
X166530499Y-81531379D01*
X167849500Y-81531379D01*
X167849500Y-81718620D01*
X167886025Y-81902243D01*
X167886027Y-81902251D01*
X167957676Y-82075228D01*
X167957681Y-82075237D01*
X168061697Y-82230907D01*
X168061700Y-82230911D01*
X168194088Y-82363299D01*
X168194092Y-82363302D01*
X168349762Y-82467318D01*
X168349768Y-82467321D01*
X168349769Y-82467322D01*
X168522749Y-82538973D01*
X168706379Y-82575499D01*
X168706383Y-82575500D01*
X168706384Y-82575500D01*
X169693617Y-82575500D01*
X169693618Y-82575499D01*
X169877251Y-82538973D01*
X170050231Y-82467322D01*
X170205908Y-82363302D01*
X170338302Y-82230908D01*
X170442322Y-82075231D01*
X170513973Y-81902251D01*
X170550500Y-81718616D01*
X170550500Y-81531384D01*
X170513973Y-81347749D01*
X170442322Y-81174769D01*
X170442321Y-81174768D01*
X170442318Y-81174762D01*
X170338302Y-81019092D01*
X170338299Y-81019088D01*
X170205911Y-80886700D01*
X170205907Y-80886697D01*
X170050237Y-80782681D01*
X170050228Y-80782676D01*
X169877251Y-80711027D01*
X169877243Y-80711025D01*
X169693620Y-80674500D01*
X169693616Y-80674500D01*
X168706384Y-80674500D01*
X168706379Y-80674500D01*
X168522756Y-80711025D01*
X168522748Y-80711027D01*
X168349771Y-80782676D01*
X168349762Y-80782681D01*
X168194092Y-80886697D01*
X168194088Y-80886700D01*
X168061700Y-81019088D01*
X168061697Y-81019092D01*
X167957681Y-81174762D01*
X167957676Y-81174771D01*
X167886027Y-81347748D01*
X167886025Y-81347756D01*
X167849500Y-81531379D01*
X166530499Y-81531379D01*
X166493973Y-81347749D01*
X166422322Y-81174769D01*
X166422321Y-81174768D01*
X166422318Y-81174762D01*
X166318302Y-81019092D01*
X166318299Y-81019088D01*
X166185911Y-80886700D01*
X166185907Y-80886697D01*
X166030237Y-80782681D01*
X166030224Y-80782674D01*
X165922309Y-80737975D01*
X165867905Y-80694134D01*
X165845840Y-80627840D01*
X165863119Y-80560141D01*
X165882077Y-80535736D01*
X165920500Y-80497314D01*
X165986392Y-80383186D01*
X166020500Y-80255892D01*
X166020500Y-80124108D01*
X165986392Y-79996814D01*
X165920500Y-79882686D01*
X165827314Y-79789500D01*
X165770250Y-79756554D01*
X165713187Y-79723608D01*
X165649539Y-79706554D01*
X165585892Y-79689500D01*
X165454108Y-79689500D01*
X165326812Y-79723608D01*
X165212686Y-79789500D01*
X165212683Y-79789502D01*
X165119502Y-79882683D01*
X165119500Y-79882686D01*
X165053608Y-79996812D01*
X165019500Y-80124108D01*
X165019500Y-80255892D01*
X165029167Y-80291971D01*
X165053609Y-80383188D01*
X165053609Y-80383189D01*
X165114411Y-80488500D01*
X165130884Y-80556400D01*
X165108032Y-80622427D01*
X165053111Y-80665617D01*
X165007024Y-80674500D01*
X164386379Y-80674500D01*
X164202756Y-80711025D01*
X164202748Y-80711027D01*
X164029771Y-80782676D01*
X164029762Y-80782681D01*
X163874092Y-80886697D01*
X163874088Y-80886700D01*
X163741700Y-81019088D01*
X163741697Y-81019092D01*
X163637681Y-81174762D01*
X163637676Y-81174771D01*
X163566027Y-81347748D01*
X163566025Y-81347756D01*
X163529500Y-81531379D01*
X161580697Y-81531379D01*
X161549031Y-81515244D01*
X161354417Y-81452009D01*
X161152317Y-81420000D01*
X160947683Y-81420000D01*
X160745582Y-81452009D01*
X160550968Y-81515244D01*
X160368644Y-81608143D01*
X160324077Y-81640523D01*
X160324077Y-81640524D01*
X161003554Y-82320000D01*
X160997339Y-82320000D01*
X160895606Y-82347259D01*
X160804394Y-82399920D01*
X160729920Y-82474394D01*
X160677259Y-82565606D01*
X160650000Y-82667339D01*
X160650000Y-82673553D01*
X159970524Y-81994077D01*
X159970523Y-81994077D01*
X159938143Y-82038644D01*
X159890765Y-82131630D01*
X159842790Y-82182426D01*
X159774969Y-82199221D01*
X159708834Y-82176683D01*
X159669795Y-82131630D01*
X159654097Y-82100821D01*
X159622287Y-82038390D01*
X159622285Y-82038387D01*
X159622284Y-82038385D01*
X159501971Y-81872786D01*
X159357213Y-81728028D01*
X159191613Y-81607715D01*
X159191612Y-81607714D01*
X159191610Y-81607713D01*
X159134653Y-81578691D01*
X159009223Y-81514781D01*
X158814534Y-81451522D01*
X158639995Y-81423878D01*
X158612352Y-81419500D01*
X158407648Y-81419500D01*
X158383329Y-81423351D01*
X158205465Y-81451522D01*
X158010776Y-81514781D01*
X157828386Y-81607715D01*
X157662786Y-81728028D01*
X157518028Y-81872786D01*
X157397715Y-82038386D01*
X157304781Y-82220776D01*
X157241522Y-82415465D01*
X157209500Y-82617648D01*
X122718802Y-82617648D01*
X122726657Y-82578160D01*
X122730500Y-82558843D01*
X122730500Y-82401155D01*
X122730499Y-82401153D01*
X122719779Y-82347259D01*
X122699737Y-82246503D01*
X122693279Y-82230911D01*
X122639397Y-82100827D01*
X122639390Y-82100814D01*
X122551787Y-81969708D01*
X122440292Y-81858213D01*
X122440288Y-81858210D01*
X122309185Y-81770609D01*
X122309172Y-81770602D01*
X122163501Y-81710264D01*
X122163489Y-81710261D01*
X122008845Y-81679500D01*
X122008842Y-81679500D01*
X121851158Y-81679500D01*
X121851155Y-81679500D01*
X121696510Y-81710261D01*
X121696498Y-81710264D01*
X121550827Y-81770602D01*
X121550814Y-81770609D01*
X121419711Y-81858210D01*
X121419707Y-81858213D01*
X121308213Y-81969707D01*
X121308213Y-81969708D01*
X121220609Y-82100814D01*
X121220602Y-82100827D01*
X121160264Y-82246498D01*
X121160261Y-82246510D01*
X121129500Y-82401153D01*
X112450500Y-82401153D01*
X112450500Y-75899983D01*
X113974500Y-75899983D01*
X113974500Y-76700001D01*
X113974501Y-76700019D01*
X113985000Y-76802796D01*
X113985001Y-76802799D01*
X114040185Y-76969331D01*
X114040186Y-76969334D01*
X114132288Y-77118656D01*
X114256344Y-77242712D01*
X114320543Y-77282310D01*
X114367268Y-77334258D01*
X114378489Y-77403221D01*
X114350646Y-77467303D01*
X114343128Y-77475530D01*
X114235585Y-77583073D01*
X114133768Y-77723211D01*
X114055128Y-77877552D01*
X114001597Y-78042302D01*
X113978567Y-78187713D01*
X113974500Y-78213389D01*
X113974500Y-78386611D01*
X114001598Y-78557701D01*
X114055127Y-78722445D01*
X114133768Y-78876788D01*
X114235586Y-79016928D01*
X114358072Y-79139414D01*
X114498212Y-79241232D01*
X114652555Y-79319873D01*
X114817299Y-79373402D01*
X114988389Y-79400500D01*
X114988390Y-79400500D01*
X115711610Y-79400500D01*
X115711611Y-79400500D01*
X115882701Y-79373402D01*
X116047445Y-79319873D01*
X116201788Y-79241232D01*
X116261776Y-79197648D01*
X157859500Y-79197648D01*
X157859500Y-79402351D01*
X157891522Y-79604534D01*
X157954781Y-79799223D01*
X158047715Y-79981613D01*
X158168028Y-80147213D01*
X158312786Y-80291971D01*
X158467749Y-80404556D01*
X158478390Y-80412287D01*
X158594607Y-80471503D01*
X158660776Y-80505218D01*
X158660778Y-80505218D01*
X158660781Y-80505220D01*
X158754687Y-80535732D01*
X158855465Y-80568477D01*
X158956557Y-80584488D01*
X159057648Y-80600500D01*
X159057649Y-80600500D01*
X159262351Y-80600500D01*
X159262352Y-80600500D01*
X159464534Y-80568477D01*
X159659219Y-80505220D01*
X159841610Y-80412287D01*
X159934590Y-80344732D01*
X160007213Y-80291971D01*
X160007215Y-80291968D01*
X160007219Y-80291966D01*
X160151966Y-80147219D01*
X160151968Y-80147215D01*
X160151971Y-80147213D01*
X160272284Y-79981614D01*
X160272285Y-79981613D01*
X160272287Y-79981610D01*
X160319516Y-79888917D01*
X160367489Y-79838123D01*
X160435310Y-79821328D01*
X160501445Y-79843865D01*
X160540485Y-79888919D01*
X160587715Y-79981614D01*
X160708028Y-80147213D01*
X160852786Y-80291971D01*
X161007749Y-80404556D01*
X161018390Y-80412287D01*
X161134607Y-80471503D01*
X161200776Y-80505218D01*
X161200778Y-80505218D01*
X161200781Y-80505220D01*
X161294687Y-80535732D01*
X161395465Y-80568477D01*
X161496557Y-80584488D01*
X161597648Y-80600500D01*
X161597649Y-80600500D01*
X161802351Y-80600500D01*
X161802352Y-80600500D01*
X162004534Y-80568477D01*
X162199219Y-80505220D01*
X162381610Y-80412287D01*
X162474590Y-80344732D01*
X162547213Y-80291971D01*
X162547215Y-80291968D01*
X162547219Y-80291966D01*
X162691966Y-80147219D01*
X162691968Y-80147215D01*
X162691971Y-80147213D01*
X162744732Y-80074590D01*
X162812287Y-79981610D01*
X162905220Y-79799219D01*
X162968477Y-79604534D01*
X163000500Y-79402352D01*
X163000500Y-79197648D01*
X162968477Y-78995465D01*
X162905218Y-78800776D01*
X162859515Y-78711080D01*
X162812287Y-78618390D01*
X162804556Y-78607749D01*
X162691971Y-78452786D01*
X162547213Y-78308028D01*
X162381613Y-78187715D01*
X162381612Y-78187714D01*
X162381610Y-78187713D01*
X162324653Y-78158691D01*
X162199223Y-78094781D01*
X162004534Y-78031522D01*
X161829995Y-78003878D01*
X161802352Y-77999500D01*
X161597648Y-77999500D01*
X161573329Y-78003351D01*
X161395465Y-78031522D01*
X161200776Y-78094781D01*
X161018386Y-78187715D01*
X160852786Y-78308028D01*
X160708028Y-78452786D01*
X160587715Y-78618386D01*
X160540485Y-78711080D01*
X160492510Y-78761876D01*
X160424689Y-78778671D01*
X160358554Y-78756134D01*
X160319515Y-78711080D01*
X160318883Y-78709840D01*
X160272287Y-78618390D01*
X160264556Y-78607749D01*
X160151971Y-78452786D01*
X160007213Y-78308028D01*
X159841613Y-78187715D01*
X159841612Y-78187714D01*
X159841610Y-78187713D01*
X159784653Y-78158691D01*
X159659223Y-78094781D01*
X159464534Y-78031522D01*
X159289995Y-78003878D01*
X159262352Y-77999500D01*
X159057648Y-77999500D01*
X159033329Y-78003351D01*
X158855465Y-78031522D01*
X158660776Y-78094781D01*
X158478386Y-78187715D01*
X158312786Y-78308028D01*
X158168028Y-78452786D01*
X158047715Y-78618386D01*
X157954781Y-78800776D01*
X157891522Y-78995465D01*
X157859500Y-79197648D01*
X116261776Y-79197648D01*
X116341928Y-79139414D01*
X116464414Y-79016928D01*
X116566232Y-78876788D01*
X116644873Y-78722445D01*
X116698402Y-78557701D01*
X116725500Y-78386611D01*
X116725500Y-78213389D01*
X116698402Y-78042299D01*
X116644873Y-77877555D01*
X116566232Y-77723212D01*
X116464414Y-77583072D01*
X116356872Y-77475530D01*
X116323387Y-77414207D01*
X116328371Y-77344515D01*
X116370243Y-77288582D01*
X116379457Y-77282310D01*
X116443656Y-77242712D01*
X116567712Y-77118656D01*
X116659814Y-76969334D01*
X116714999Y-76802797D01*
X116725500Y-76700009D01*
X116725499Y-75899992D01*
X116724691Y-75892086D01*
X116714999Y-75797203D01*
X116714997Y-75797196D01*
X116688151Y-75716181D01*
X116659814Y-75630666D01*
X116567712Y-75481344D01*
X116443656Y-75357288D01*
X116294334Y-75265186D01*
X116127797Y-75210001D01*
X116127795Y-75210000D01*
X116025010Y-75199500D01*
X114674998Y-75199500D01*
X114674981Y-75199501D01*
X114572203Y-75210000D01*
X114572200Y-75210001D01*
X114405668Y-75265185D01*
X114405663Y-75265187D01*
X114256342Y-75357289D01*
X114132289Y-75481342D01*
X114040187Y-75630663D01*
X114040185Y-75630668D01*
X114023909Y-75679786D01*
X113985001Y-75797203D01*
X113985001Y-75797204D01*
X113985000Y-75797204D01*
X113974500Y-75899983D01*
X112450500Y-75899983D01*
X112450500Y-74997682D01*
X127260000Y-74997682D01*
X127260000Y-75202317D01*
X127292009Y-75404417D01*
X127355244Y-75599031D01*
X127448141Y-75781350D01*
X127448147Y-75781359D01*
X127480523Y-75825921D01*
X127480524Y-75825922D01*
X128160000Y-75146446D01*
X128160000Y-75152661D01*
X128187259Y-75254394D01*
X128239920Y-75345606D01*
X128314394Y-75420080D01*
X128405606Y-75472741D01*
X128507339Y-75500000D01*
X128513553Y-75500000D01*
X127834076Y-76179474D01*
X127878650Y-76211859D01*
X128060968Y-76304755D01*
X128255582Y-76367990D01*
X128457683Y-76400000D01*
X128662317Y-76400000D01*
X128864417Y-76367990D01*
X129059031Y-76304755D01*
X129241349Y-76211859D01*
X129285921Y-76179474D01*
X128606447Y-75500000D01*
X128612661Y-75500000D01*
X128714394Y-75472741D01*
X128805606Y-75420080D01*
X128880080Y-75345606D01*
X128932741Y-75254394D01*
X128960000Y-75152661D01*
X128960000Y-75146447D01*
X129639474Y-75825921D01*
X129671861Y-75781347D01*
X129671861Y-75781346D01*
X129719234Y-75688371D01*
X129767208Y-75637575D01*
X129835028Y-75620779D01*
X129901164Y-75643316D01*
X129940203Y-75688369D01*
X129987713Y-75781611D01*
X130108028Y-75947213D01*
X130252786Y-76091971D01*
X130373226Y-76179474D01*
X130418390Y-76212287D01*
X130534607Y-76271503D01*
X130600776Y-76305218D01*
X130600778Y-76305218D01*
X130600781Y-76305220D01*
X130705137Y-76339127D01*
X130795465Y-76368477D01*
X130896557Y-76384488D01*
X130997648Y-76400500D01*
X130997649Y-76400500D01*
X131202351Y-76400500D01*
X131202352Y-76400500D01*
X131404534Y-76368477D01*
X131599219Y-76305220D01*
X131781610Y-76212287D01*
X131912424Y-76117246D01*
X131947213Y-76091971D01*
X131947215Y-76091968D01*
X131947219Y-76091966D01*
X132091966Y-75947219D01*
X132091968Y-75947215D01*
X132091971Y-75947213D01*
X132177050Y-75830110D01*
X132212287Y-75781610D01*
X132305220Y-75599219D01*
X132368477Y-75404534D01*
X132391429Y-75259621D01*
X132421357Y-75196489D01*
X132480668Y-75159557D01*
X132550531Y-75160555D01*
X132608764Y-75199164D01*
X132636374Y-75259622D01*
X132650982Y-75351848D01*
X132703296Y-75512853D01*
X132747207Y-75599031D01*
X132769771Y-75643316D01*
X132780152Y-75663688D01*
X132879648Y-75800634D01*
X132879652Y-75800639D01*
X132999360Y-75920347D01*
X132999365Y-75920351D01*
X133118817Y-76007137D01*
X133136315Y-76019850D01*
X133232425Y-76068820D01*
X133287146Y-76096703D01*
X133287148Y-76096703D01*
X133287151Y-76096705D01*
X133373450Y-76124745D01*
X133448152Y-76149018D01*
X133615351Y-76175500D01*
X133615356Y-76175500D01*
X133784649Y-76175500D01*
X133951847Y-76149018D01*
X133968534Y-76143596D01*
X134112849Y-76096705D01*
X134263685Y-76019850D01*
X134400641Y-75920346D01*
X134520346Y-75800641D01*
X134619850Y-75663685D01*
X134696705Y-75512849D01*
X134749018Y-75351847D01*
X134762627Y-75265925D01*
X134775500Y-75184649D01*
X134775500Y-75015350D01*
X137624500Y-75015350D01*
X137624500Y-75184649D01*
X137650981Y-75351847D01*
X137703296Y-75512853D01*
X137747207Y-75599031D01*
X137769771Y-75643316D01*
X137780152Y-75663688D01*
X137879648Y-75800634D01*
X137879652Y-75800639D01*
X137999360Y-75920347D01*
X137999365Y-75920351D01*
X138118817Y-76007137D01*
X138136315Y-76019850D01*
X138232425Y-76068820D01*
X138287146Y-76096703D01*
X138287148Y-76096703D01*
X138287151Y-76096705D01*
X138373450Y-76124745D01*
X138448152Y-76149018D01*
X138615351Y-76175500D01*
X138615356Y-76175500D01*
X138784649Y-76175500D01*
X138951847Y-76149018D01*
X138968534Y-76143596D01*
X139112849Y-76096705D01*
X139263685Y-76019850D01*
X139400641Y-75920346D01*
X139520346Y-75800641D01*
X139619850Y-75663685D01*
X139696705Y-75512849D01*
X139749018Y-75351847D01*
X139762627Y-75265925D01*
X139775500Y-75184649D01*
X139775500Y-75015350D01*
X139749018Y-74848152D01*
X139736783Y-74810497D01*
X139698837Y-74693713D01*
X142609500Y-74693713D01*
X142609500Y-74906286D01*
X142640181Y-75100001D01*
X142642754Y-75116243D01*
X142691148Y-75265185D01*
X142708444Y-75318414D01*
X142804951Y-75507820D01*
X142929890Y-75679786D01*
X143080213Y-75830109D01*
X143252179Y-75955048D01*
X143252181Y-75955049D01*
X143252184Y-75955051D01*
X143441588Y-76051557D01*
X143643757Y-76117246D01*
X143853713Y-76150500D01*
X143853714Y-76150500D01*
X144066286Y-76150500D01*
X144066287Y-76150500D01*
X144276243Y-76117246D01*
X144478412Y-76051557D01*
X144667816Y-75955051D01*
X144725141Y-75913402D01*
X144839784Y-75830110D01*
X144839784Y-75830109D01*
X144839792Y-75830104D01*
X144953717Y-75716178D01*
X145015036Y-75682696D01*
X145084728Y-75687680D01*
X145140662Y-75729551D01*
X145157577Y-75760528D01*
X145206646Y-75892088D01*
X145206649Y-75892093D01*
X145292809Y-76007187D01*
X145292812Y-76007190D01*
X145407906Y-76093350D01*
X145407913Y-76093354D01*
X145542620Y-76143596D01*
X145542627Y-76143598D01*
X145602155Y-76149999D01*
X145602172Y-76150000D01*
X146250000Y-76150000D01*
X146250000Y-75233012D01*
X146307007Y-75265925D01*
X146434174Y-75300000D01*
X146565826Y-75300000D01*
X146692993Y-75265925D01*
X146750000Y-75233012D01*
X146750000Y-76150000D01*
X147397828Y-76150000D01*
X147397844Y-76149999D01*
X147457372Y-76143598D01*
X147457379Y-76143596D01*
X147592086Y-76093354D01*
X147592093Y-76093350D01*
X147707187Y-76007190D01*
X147707190Y-76007187D01*
X147793350Y-75892093D01*
X147793354Y-75892086D01*
X147843596Y-75757379D01*
X147843598Y-75757372D01*
X147849999Y-75697844D01*
X147850000Y-75697827D01*
X147850000Y-75050000D01*
X146933012Y-75050000D01*
X146965925Y-74992993D01*
X147000000Y-74865826D01*
X147000000Y-74734174D01*
X146965925Y-74607007D01*
X146933012Y-74550000D01*
X147850000Y-74550000D01*
X147850000Y-73902172D01*
X147849999Y-73902155D01*
X147843598Y-73842627D01*
X147843596Y-73842620D01*
X147793354Y-73707913D01*
X147793350Y-73707906D01*
X147707190Y-73592812D01*
X147707187Y-73592809D01*
X147592093Y-73506649D01*
X147592086Y-73506645D01*
X147457379Y-73456403D01*
X147457372Y-73456401D01*
X147397844Y-73450000D01*
X146750000Y-73450000D01*
X146750000Y-74366988D01*
X146692993Y-74334075D01*
X146565826Y-74300000D01*
X146434174Y-74300000D01*
X146307007Y-74334075D01*
X146250000Y-74366988D01*
X146250000Y-73450000D01*
X145602155Y-73450000D01*
X145542627Y-73456401D01*
X145542620Y-73456403D01*
X145407913Y-73506645D01*
X145407906Y-73506649D01*
X145292812Y-73592809D01*
X145292809Y-73592812D01*
X145206649Y-73707906D01*
X145206646Y-73707912D01*
X145157577Y-73839471D01*
X145115705Y-73895404D01*
X145050241Y-73919821D01*
X144981968Y-73904969D01*
X144953714Y-73883818D01*
X144839786Y-73769890D01*
X144667820Y-73644951D01*
X144478414Y-73548444D01*
X144478413Y-73548443D01*
X144478412Y-73548443D01*
X144276243Y-73482754D01*
X144276241Y-73482753D01*
X144276240Y-73482753D01*
X144114957Y-73457208D01*
X144066287Y-73449500D01*
X143853713Y-73449500D01*
X143805042Y-73457208D01*
X143643760Y-73482753D01*
X143441585Y-73548444D01*
X143252179Y-73644951D01*
X143080213Y-73769890D01*
X142929890Y-73920213D01*
X142804951Y-74092179D01*
X142708444Y-74281585D01*
X142642753Y-74483760D01*
X142609500Y-74693713D01*
X139698837Y-74693713D01*
X139696705Y-74687151D01*
X139619850Y-74536315D01*
X139581665Y-74483757D01*
X139520351Y-74399365D01*
X139520347Y-74399360D01*
X139400639Y-74279652D01*
X139400634Y-74279648D01*
X139263688Y-74180152D01*
X139263687Y-74180151D01*
X139263685Y-74180150D01*
X139216582Y-74156150D01*
X139112853Y-74103296D01*
X138951847Y-74050981D01*
X138784649Y-74024500D01*
X138784644Y-74024500D01*
X138615356Y-74024500D01*
X138615351Y-74024500D01*
X138448152Y-74050981D01*
X138287146Y-74103296D01*
X138136311Y-74180152D01*
X137999365Y-74279648D01*
X137999360Y-74279652D01*
X137879652Y-74399360D01*
X137879648Y-74399365D01*
X137780152Y-74536311D01*
X137703296Y-74687146D01*
X137650981Y-74848152D01*
X137624500Y-75015350D01*
X134775500Y-75015350D01*
X134749018Y-74848152D01*
X134706506Y-74717316D01*
X134696705Y-74687151D01*
X134696703Y-74687148D01*
X134696703Y-74687146D01*
X134653923Y-74603187D01*
X134619850Y-74536315D01*
X134581665Y-74483757D01*
X134520351Y-74399365D01*
X134520347Y-74399360D01*
X134400639Y-74279652D01*
X134400634Y-74279648D01*
X134263688Y-74180152D01*
X134263687Y-74180151D01*
X134263685Y-74180150D01*
X134216582Y-74156150D01*
X134112853Y-74103296D01*
X133951847Y-74050981D01*
X133784649Y-74024500D01*
X133784644Y-74024500D01*
X133615356Y-74024500D01*
X133615351Y-74024500D01*
X133448152Y-74050981D01*
X133287146Y-74103296D01*
X133136311Y-74180152D01*
X132999365Y-74279648D01*
X132999360Y-74279652D01*
X132879652Y-74399360D01*
X132879648Y-74399365D01*
X132780152Y-74536311D01*
X132703296Y-74687146D01*
X132650982Y-74848151D01*
X132636374Y-74940377D01*
X132606444Y-75003512D01*
X132547132Y-75040442D01*
X132477269Y-75039444D01*
X132419037Y-75000833D01*
X132391429Y-74940377D01*
X132368477Y-74795466D01*
X132352549Y-74746446D01*
X132307243Y-74607007D01*
X132305220Y-74600781D01*
X132305218Y-74600778D01*
X132305218Y-74600776D01*
X132250299Y-74492993D01*
X132212287Y-74418390D01*
X132185520Y-74381548D01*
X132091971Y-74252786D01*
X131947213Y-74108028D01*
X131781613Y-73987715D01*
X131781612Y-73987714D01*
X131781610Y-73987713D01*
X131721664Y-73957169D01*
X131599223Y-73894781D01*
X131404534Y-73831522D01*
X131229995Y-73803878D01*
X131202352Y-73799500D01*
X130997648Y-73799500D01*
X130973329Y-73803351D01*
X130795465Y-73831522D01*
X130600776Y-73894781D01*
X130418386Y-73987715D01*
X130252786Y-74108028D01*
X130108028Y-74252786D01*
X129987713Y-74418388D01*
X129940203Y-74511630D01*
X129892228Y-74562426D01*
X129824407Y-74579220D01*
X129758272Y-74556682D01*
X129719234Y-74511628D01*
X129671861Y-74418652D01*
X129639474Y-74374077D01*
X129639474Y-74374076D01*
X128960000Y-75053551D01*
X128960000Y-75047339D01*
X128932741Y-74945606D01*
X128880080Y-74854394D01*
X128805606Y-74779920D01*
X128714394Y-74727259D01*
X128612661Y-74700000D01*
X128606446Y-74700000D01*
X129285922Y-74020524D01*
X129285921Y-74020523D01*
X129241359Y-73988147D01*
X129241350Y-73988141D01*
X129059031Y-73895244D01*
X128864417Y-73832009D01*
X128662317Y-73800000D01*
X128457683Y-73800000D01*
X128255582Y-73832009D01*
X128060968Y-73895244D01*
X127878644Y-73988143D01*
X127834077Y-74020523D01*
X127834077Y-74020524D01*
X128513554Y-74700000D01*
X128507339Y-74700000D01*
X128405606Y-74727259D01*
X128314394Y-74779920D01*
X128239920Y-74854394D01*
X128187259Y-74945606D01*
X128160000Y-75047339D01*
X128160000Y-75053553D01*
X127480524Y-74374077D01*
X127480523Y-74374077D01*
X127448143Y-74418644D01*
X127355244Y-74600968D01*
X127292009Y-74795582D01*
X127260000Y-74997682D01*
X112450500Y-74997682D01*
X112450500Y-71697648D01*
X159699500Y-71697648D01*
X159699500Y-71902351D01*
X159731522Y-72104534D01*
X159794781Y-72299223D01*
X159887715Y-72481613D01*
X160008028Y-72647213D01*
X160152786Y-72791971D01*
X160275848Y-72881379D01*
X160318390Y-72912287D01*
X160409840Y-72958883D01*
X160411080Y-72959515D01*
X160461876Y-73007490D01*
X160478671Y-73075311D01*
X160456134Y-73141446D01*
X160411080Y-73180485D01*
X160318386Y-73227715D01*
X160152786Y-73348028D01*
X160008028Y-73492786D01*
X159887715Y-73658386D01*
X159794781Y-73840776D01*
X159731522Y-74035465D01*
X159699500Y-74237648D01*
X159699500Y-74442351D01*
X159731522Y-74644534D01*
X159794781Y-74839223D01*
X159848987Y-74945606D01*
X159884526Y-75015356D01*
X159887715Y-75021613D01*
X160008028Y-75187213D01*
X160152786Y-75331971D01*
X160307749Y-75444556D01*
X160318390Y-75452287D01*
X160434607Y-75511503D01*
X160500776Y-75545218D01*
X160500778Y-75545218D01*
X160500781Y-75545220D01*
X160605137Y-75579127D01*
X160695465Y-75608477D01*
X160796557Y-75624488D01*
X160897648Y-75640500D01*
X160897649Y-75640500D01*
X161102351Y-75640500D01*
X161102352Y-75640500D01*
X161304534Y-75608477D01*
X161499219Y-75545220D01*
X161681610Y-75452287D01*
X161819855Y-75351847D01*
X161847213Y-75331971D01*
X161847215Y-75331968D01*
X161847219Y-75331966D01*
X161991966Y-75187219D01*
X161991968Y-75187215D01*
X161991971Y-75187213D01*
X162055334Y-75100000D01*
X162112287Y-75021610D01*
X162205220Y-74839219D01*
X162268477Y-74644534D01*
X162299315Y-74449829D01*
X162329244Y-74386696D01*
X162388556Y-74349765D01*
X162458418Y-74350763D01*
X162504490Y-74378545D01*
X162505001Y-74377924D01*
X162509272Y-74381429D01*
X162509469Y-74381548D01*
X162509707Y-74381786D01*
X162509711Y-74381789D01*
X162640814Y-74469390D01*
X162640827Y-74469397D01*
X162786498Y-74529735D01*
X162786503Y-74529737D01*
X162921964Y-74556682D01*
X162941153Y-74560499D01*
X162941156Y-74560500D01*
X162941158Y-74560500D01*
X163098844Y-74560500D01*
X163098845Y-74560499D01*
X163253497Y-74529737D01*
X163399179Y-74469394D01*
X163530289Y-74381789D01*
X163641789Y-74270289D01*
X163729394Y-74139179D01*
X163789737Y-73993497D01*
X163812624Y-73878432D01*
X163845008Y-73816524D01*
X163905724Y-73781950D01*
X163975493Y-73785689D01*
X164003130Y-73799522D01*
X164029769Y-73817322D01*
X164202749Y-73888973D01*
X164386379Y-73925499D01*
X164386383Y-73925500D01*
X164386384Y-73925500D01*
X165007024Y-73925500D01*
X165074063Y-73945185D01*
X165119818Y-73997989D01*
X165129762Y-74067147D01*
X165114411Y-74111500D01*
X165053609Y-74216810D01*
X165053609Y-74216811D01*
X165053609Y-74216812D01*
X165053608Y-74216814D01*
X165019500Y-74344108D01*
X165019500Y-74475892D01*
X165021608Y-74483760D01*
X165053608Y-74603187D01*
X165055814Y-74607007D01*
X165119500Y-74717314D01*
X165212686Y-74810500D01*
X165326814Y-74876392D01*
X165454108Y-74910500D01*
X165454110Y-74910500D01*
X165585890Y-74910500D01*
X165585892Y-74910500D01*
X165713186Y-74876392D01*
X165827314Y-74810500D01*
X165920500Y-74717314D01*
X165986392Y-74603186D01*
X166020500Y-74475892D01*
X166020500Y-74344108D01*
X165986392Y-74216814D01*
X165920500Y-74102686D01*
X165882080Y-74064266D01*
X165848595Y-74002943D01*
X165853579Y-73933251D01*
X165895451Y-73877318D01*
X165922296Y-73862030D01*
X166030231Y-73817322D01*
X166185908Y-73713302D01*
X166318302Y-73580908D01*
X166422322Y-73425231D01*
X166493973Y-73252251D01*
X166530500Y-73068616D01*
X166530500Y-72881384D01*
X166530499Y-72881379D01*
X167849500Y-72881379D01*
X167849500Y-73068620D01*
X167886025Y-73252243D01*
X167886027Y-73252251D01*
X167957676Y-73425228D01*
X167957681Y-73425237D01*
X168061697Y-73580907D01*
X168061700Y-73580911D01*
X168194088Y-73713299D01*
X168194092Y-73713302D01*
X168349762Y-73817318D01*
X168349768Y-73817321D01*
X168349769Y-73817322D01*
X168522749Y-73888973D01*
X168706379Y-73925499D01*
X168706383Y-73925500D01*
X168706384Y-73925500D01*
X169693617Y-73925500D01*
X169693618Y-73925499D01*
X169877251Y-73888973D01*
X170050231Y-73817322D01*
X170205908Y-73713302D01*
X170338302Y-73580908D01*
X170442322Y-73425231D01*
X170513973Y-73252251D01*
X170550500Y-73068616D01*
X170550500Y-72881384D01*
X170513973Y-72697749D01*
X170442322Y-72524769D01*
X170442321Y-72524768D01*
X170442318Y-72524762D01*
X170338302Y-72369092D01*
X170338299Y-72369088D01*
X170205911Y-72236700D01*
X170205907Y-72236697D01*
X170050237Y-72132681D01*
X170050228Y-72132676D01*
X169877251Y-72061027D01*
X169877243Y-72061025D01*
X169693620Y-72024500D01*
X169693616Y-72024500D01*
X168706384Y-72024500D01*
X168706379Y-72024500D01*
X168522756Y-72061025D01*
X168522748Y-72061027D01*
X168349771Y-72132676D01*
X168349762Y-72132681D01*
X168194092Y-72236697D01*
X168194088Y-72236700D01*
X168061700Y-72369088D01*
X168061697Y-72369092D01*
X167957681Y-72524762D01*
X167957676Y-72524771D01*
X167886027Y-72697748D01*
X167886025Y-72697756D01*
X167849500Y-72881379D01*
X166530499Y-72881379D01*
X166493973Y-72697749D01*
X166422322Y-72524769D01*
X166422321Y-72524768D01*
X166422318Y-72524762D01*
X166318302Y-72369092D01*
X166318299Y-72369088D01*
X166185911Y-72236700D01*
X166185907Y-72236697D01*
X166030237Y-72132681D01*
X166030228Y-72132676D01*
X165857251Y-72061027D01*
X165857243Y-72061025D01*
X165673620Y-72024500D01*
X165673616Y-72024500D01*
X164386384Y-72024500D01*
X164386379Y-72024500D01*
X164202756Y-72061025D01*
X164202748Y-72061027D01*
X164029771Y-72132676D01*
X164029762Y-72132681D01*
X163874092Y-72236697D01*
X163874088Y-72236700D01*
X163741700Y-72369088D01*
X163741697Y-72369092D01*
X163637681Y-72524762D01*
X163637676Y-72524771D01*
X163566027Y-72697748D01*
X163566025Y-72697756D01*
X163529500Y-72881379D01*
X163529500Y-72919007D01*
X163509815Y-72986046D01*
X163457011Y-73031801D01*
X163387853Y-73041745D01*
X163358048Y-73033569D01*
X163348158Y-73029472D01*
X163253497Y-72990263D01*
X163253492Y-72990262D01*
X163253489Y-72990261D01*
X163098845Y-72959500D01*
X163098842Y-72959500D01*
X162941158Y-72959500D01*
X162941155Y-72959500D01*
X162786510Y-72990261D01*
X162786498Y-72990264D01*
X162640827Y-73050602D01*
X162640814Y-73050609D01*
X162509711Y-73138210D01*
X162509707Y-73138213D01*
X162398213Y-73249707D01*
X162398210Y-73249711D01*
X162310609Y-73380814D01*
X162310604Y-73380823D01*
X162250103Y-73526888D01*
X162206262Y-73581291D01*
X162139968Y-73603356D01*
X162072269Y-73586077D01*
X162035223Y-73552320D01*
X162016466Y-73526503D01*
X161991966Y-73492781D01*
X161847219Y-73348034D01*
X161847213Y-73348028D01*
X161681614Y-73227715D01*
X161675006Y-73224348D01*
X161588917Y-73180483D01*
X161538123Y-73132511D01*
X161521328Y-73064690D01*
X161543865Y-72998555D01*
X161588917Y-72959516D01*
X161681610Y-72912287D01*
X161724152Y-72881379D01*
X161847213Y-72791971D01*
X161847215Y-72791968D01*
X161847219Y-72791966D01*
X161991966Y-72647219D01*
X161991968Y-72647215D01*
X161991971Y-72647213D01*
X162080935Y-72524762D01*
X162112287Y-72481610D01*
X162205220Y-72299219D01*
X162268477Y-72104534D01*
X162300500Y-71902352D01*
X162300500Y-71697648D01*
X162268477Y-71495466D01*
X162205220Y-71300781D01*
X162205218Y-71300778D01*
X162205218Y-71300776D01*
X162171503Y-71234607D01*
X162112287Y-71118390D01*
X162104556Y-71107749D01*
X161991971Y-70952786D01*
X161847213Y-70808028D01*
X161681613Y-70687715D01*
X161681612Y-70687714D01*
X161681610Y-70687713D01*
X161624653Y-70658691D01*
X161499223Y-70594781D01*
X161304534Y-70531522D01*
X161129995Y-70503878D01*
X161102352Y-70499500D01*
X160897648Y-70499500D01*
X160873329Y-70503351D01*
X160695465Y-70531522D01*
X160500776Y-70594781D01*
X160318386Y-70687715D01*
X160152786Y-70808028D01*
X160008028Y-70952786D01*
X159887715Y-71118386D01*
X159794781Y-71300776D01*
X159731522Y-71495465D01*
X159699500Y-71697648D01*
X112450500Y-71697648D01*
X112450500Y-55793713D01*
X113449500Y-55793713D01*
X113449500Y-56006287D01*
X113482754Y-56216243D01*
X113547738Y-56416243D01*
X113548444Y-56418414D01*
X113644951Y-56607820D01*
X113769890Y-56779786D01*
X113920213Y-56930109D01*
X114092182Y-57055050D01*
X114100946Y-57059516D01*
X114151742Y-57107491D01*
X114168536Y-57175312D01*
X114145998Y-57241447D01*
X114100946Y-57280484D01*
X114092182Y-57284949D01*
X113920213Y-57409890D01*
X113769890Y-57560213D01*
X113644951Y-57732179D01*
X113548444Y-57921585D01*
X113482753Y-58123760D01*
X113449500Y-58333713D01*
X113449500Y-58546286D01*
X113473594Y-58698414D01*
X113482754Y-58756243D01*
X113547738Y-58956243D01*
X113548444Y-58958414D01*
X113644951Y-59147820D01*
X113769890Y-59319786D01*
X113920213Y-59470109D01*
X114092179Y-59595048D01*
X114092181Y-59595049D01*
X114092184Y-59595051D01*
X114101493Y-59599794D01*
X114152290Y-59647766D01*
X114169087Y-59715587D01*
X114146552Y-59781722D01*
X114101502Y-59820762D01*
X114092443Y-59825378D01*
X113920540Y-59950272D01*
X113920535Y-59950276D01*
X113770276Y-60100535D01*
X113770272Y-60100540D01*
X113645379Y-60272442D01*
X113548904Y-60461782D01*
X113483242Y-60663870D01*
X113483242Y-60663873D01*
X113472769Y-60730000D01*
X114366988Y-60730000D01*
X114334075Y-60787007D01*
X114300000Y-60914174D01*
X114300000Y-61045826D01*
X114334075Y-61172993D01*
X114366988Y-61230000D01*
X113472769Y-61230000D01*
X113483242Y-61296126D01*
X113483242Y-61296129D01*
X113548904Y-61498217D01*
X113645379Y-61687557D01*
X113770272Y-61859459D01*
X113770276Y-61859464D01*
X113920535Y-62009723D01*
X113920540Y-62009727D01*
X114092444Y-62134622D01*
X114101495Y-62139234D01*
X114152292Y-62187208D01*
X114169087Y-62255029D01*
X114146550Y-62321164D01*
X114101499Y-62360202D01*
X114092182Y-62364949D01*
X113920213Y-62489890D01*
X113769890Y-62640213D01*
X113644951Y-62812179D01*
X113548444Y-63001585D01*
X113482753Y-63203760D01*
X113449500Y-63413713D01*
X113449500Y-63626286D01*
X113473594Y-63778414D01*
X113482754Y-63836243D01*
X113547738Y-64036243D01*
X113548444Y-64038414D01*
X113644951Y-64227820D01*
X113769890Y-64399786D01*
X113920213Y-64550109D01*
X114092182Y-64675050D01*
X114100946Y-64679516D01*
X114151742Y-64727491D01*
X114168536Y-64795312D01*
X114145998Y-64861447D01*
X114100946Y-64900484D01*
X114092182Y-64904949D01*
X113920213Y-65029890D01*
X113769890Y-65180213D01*
X113644951Y-65352179D01*
X113548444Y-65541585D01*
X113482753Y-65743760D01*
X113449500Y-65953713D01*
X113449500Y-66166286D01*
X113465338Y-66266287D01*
X113482754Y-66376243D01*
X113547738Y-66576243D01*
X113548444Y-66578414D01*
X113644951Y-66767820D01*
X113769890Y-66939786D01*
X113883430Y-67053326D01*
X113916915Y-67114649D01*
X113911931Y-67184341D01*
X113870059Y-67240274D01*
X113839083Y-67257189D01*
X113707669Y-67306203D01*
X113707664Y-67306206D01*
X113592455Y-67392452D01*
X113592452Y-67392455D01*
X113506206Y-67507664D01*
X113506202Y-67507671D01*
X113455908Y-67642517D01*
X113452965Y-67669896D01*
X113449501Y-67702123D01*
X113449500Y-67702135D01*
X113449500Y-69497870D01*
X113449501Y-69497876D01*
X113455908Y-69557483D01*
X113506202Y-69692328D01*
X113506206Y-69692335D01*
X113592452Y-69807544D01*
X113592455Y-69807547D01*
X113707664Y-69893793D01*
X113707671Y-69893797D01*
X113842517Y-69944091D01*
X113842516Y-69944091D01*
X113849444Y-69944835D01*
X113902127Y-69950500D01*
X115697872Y-69950499D01*
X115757483Y-69944091D01*
X115892331Y-69893796D01*
X116007546Y-69807546D01*
X116093796Y-69692331D01*
X116144091Y-69557483D01*
X116150500Y-69497873D01*
X116150499Y-67702128D01*
X116144091Y-67642517D01*
X116107701Y-67544951D01*
X116093797Y-67507671D01*
X116093793Y-67507664D01*
X116007547Y-67392455D01*
X116007544Y-67392452D01*
X115892335Y-67306206D01*
X115892328Y-67306202D01*
X115760917Y-67257189D01*
X115704983Y-67215318D01*
X115680566Y-67149853D01*
X115695418Y-67081580D01*
X115716563Y-67053332D01*
X115830104Y-66939792D01*
X115955051Y-66767816D01*
X116051557Y-66578412D01*
X116117246Y-66376243D01*
X116150500Y-66166287D01*
X116150500Y-65953713D01*
X116117246Y-65743757D01*
X116051557Y-65541588D01*
X115955051Y-65352184D01*
X115955049Y-65352181D01*
X115955048Y-65352179D01*
X115830109Y-65180213D01*
X115679786Y-65029890D01*
X115507820Y-64904951D01*
X115502279Y-64902128D01*
X115499054Y-64900485D01*
X115448259Y-64852512D01*
X115431463Y-64784692D01*
X115453999Y-64718556D01*
X115499054Y-64679515D01*
X115507816Y-64675051D01*
X115584257Y-64619514D01*
X115679786Y-64550109D01*
X115679788Y-64550106D01*
X115679792Y-64550104D01*
X115830104Y-64399792D01*
X115830106Y-64399788D01*
X115830109Y-64399786D01*
X115955048Y-64227820D01*
X115955047Y-64227820D01*
X115955051Y-64227816D01*
X116051557Y-64038412D01*
X116117246Y-63836243D01*
X116150500Y-63626287D01*
X116150500Y-63413713D01*
X116117246Y-63203757D01*
X116051557Y-63001588D01*
X115955051Y-62812184D01*
X115955049Y-62812181D01*
X115955048Y-62812179D01*
X115830109Y-62640213D01*
X115679786Y-62489890D01*
X115507817Y-62364949D01*
X115498504Y-62360204D01*
X115447707Y-62312230D01*
X115430912Y-62244409D01*
X115453449Y-62178274D01*
X115498507Y-62139232D01*
X115507558Y-62134620D01*
X115679459Y-62009727D01*
X115679464Y-62009723D01*
X115829723Y-61859464D01*
X115829727Y-61859459D01*
X115954620Y-61687557D01*
X116051095Y-61498217D01*
X116116757Y-61296129D01*
X116116757Y-61296126D01*
X116127231Y-61230000D01*
X115233012Y-61230000D01*
X115265925Y-61172993D01*
X115300000Y-61045826D01*
X115300000Y-60914174D01*
X115265925Y-60787007D01*
X115233012Y-60730000D01*
X116127231Y-60730000D01*
X116116757Y-60663873D01*
X116116757Y-60663870D01*
X116051095Y-60461782D01*
X115954620Y-60272442D01*
X115829727Y-60100540D01*
X115829723Y-60100535D01*
X115679464Y-59950276D01*
X115679459Y-59950272D01*
X115507555Y-59825377D01*
X115498500Y-59820763D01*
X115447706Y-59772788D01*
X115430912Y-59704966D01*
X115453451Y-59638832D01*
X115498508Y-59599793D01*
X115507816Y-59595051D01*
X115642108Y-59497483D01*
X115679786Y-59470109D01*
X115679788Y-59470106D01*
X115679792Y-59470104D01*
X115830104Y-59319792D01*
X115830106Y-59319788D01*
X115830109Y-59319786D01*
X115955048Y-59147820D01*
X115955047Y-59147820D01*
X115955051Y-59147816D01*
X116051557Y-58958412D01*
X116117246Y-58756243D01*
X116150500Y-58546287D01*
X116150500Y-58333713D01*
X116117246Y-58123757D01*
X116051557Y-57921588D01*
X115955051Y-57732184D01*
X115955049Y-57732181D01*
X115955048Y-57732179D01*
X115830107Y-57560211D01*
X115752031Y-57482135D01*
X119129500Y-57482135D01*
X119129500Y-59277870D01*
X119129501Y-59277876D01*
X119135908Y-59337483D01*
X119186202Y-59472328D01*
X119186206Y-59472335D01*
X119272452Y-59587544D01*
X119272455Y-59587547D01*
X119387664Y-59673793D01*
X119387671Y-59673797D01*
X119519082Y-59722810D01*
X119575016Y-59764681D01*
X119599433Y-59830145D01*
X119584582Y-59898418D01*
X119563431Y-59926673D01*
X119449889Y-60040215D01*
X119324951Y-60212179D01*
X119228444Y-60401585D01*
X119162753Y-60603760D01*
X119129500Y-60813713D01*
X119129500Y-61026286D01*
X119154841Y-61186287D01*
X119162754Y-61236243D01*
X119225001Y-61427820D01*
X119228444Y-61438414D01*
X119324951Y-61627820D01*
X119449890Y-61799786D01*
X119600213Y-61950109D01*
X119772182Y-62075050D01*
X119780946Y-62079516D01*
X119831742Y-62127491D01*
X119848536Y-62195312D01*
X119825998Y-62261447D01*
X119780946Y-62300484D01*
X119772182Y-62304949D01*
X119600213Y-62429890D01*
X119449890Y-62580213D01*
X119324951Y-62752179D01*
X119228444Y-62941585D01*
X119162753Y-63143760D01*
X119129500Y-63353713D01*
X119129500Y-63566286D01*
X119154841Y-63726287D01*
X119162754Y-63776243D01*
X119225001Y-63967820D01*
X119228444Y-63978414D01*
X119324951Y-64167820D01*
X119449890Y-64339786D01*
X119600213Y-64490109D01*
X119772182Y-64615050D01*
X119780946Y-64619516D01*
X119831742Y-64667491D01*
X119848536Y-64735312D01*
X119825998Y-64801447D01*
X119780946Y-64840484D01*
X119772182Y-64844949D01*
X119600213Y-64969890D01*
X119449890Y-65120213D01*
X119324951Y-65292179D01*
X119228444Y-65481585D01*
X119162753Y-65683760D01*
X119129500Y-65893713D01*
X119129500Y-66106286D01*
X119154841Y-66266287D01*
X119162754Y-66316243D01*
X119214741Y-66476243D01*
X119228444Y-66518414D01*
X119324951Y-66707820D01*
X119449890Y-66879786D01*
X119600213Y-67030109D01*
X119772182Y-67155050D01*
X119780946Y-67159516D01*
X119831742Y-67207491D01*
X119848536Y-67275312D01*
X119825998Y-67341447D01*
X119780946Y-67380484D01*
X119772182Y-67384949D01*
X119600213Y-67509890D01*
X119449890Y-67660213D01*
X119324951Y-67832179D01*
X119228444Y-68021585D01*
X119162753Y-68223760D01*
X119129500Y-68433713D01*
X119129500Y-68646286D01*
X119154841Y-68806287D01*
X119162754Y-68856243D01*
X119214741Y-69016243D01*
X119228444Y-69058414D01*
X119324951Y-69247820D01*
X119449890Y-69419786D01*
X119600213Y-69570109D01*
X119772179Y-69695048D01*
X119772181Y-69695049D01*
X119772184Y-69695051D01*
X119961588Y-69791557D01*
X120163757Y-69857246D01*
X120373713Y-69890500D01*
X120373714Y-69890500D01*
X120586286Y-69890500D01*
X120586287Y-69890500D01*
X120796243Y-69857246D01*
X120998412Y-69791557D01*
X121187816Y-69695051D01*
X121346458Y-69579792D01*
X121359786Y-69570109D01*
X121359788Y-69570106D01*
X121359792Y-69570104D01*
X121510104Y-69419792D01*
X121510106Y-69419788D01*
X121510109Y-69419786D01*
X121635048Y-69247820D01*
X121635047Y-69247820D01*
X121635051Y-69247816D01*
X121731557Y-69058412D01*
X121797246Y-68856243D01*
X121830500Y-68646287D01*
X121830500Y-68433713D01*
X121797246Y-68223757D01*
X121731557Y-68021588D01*
X121635051Y-67832184D01*
X121635049Y-67832181D01*
X121635048Y-67832179D01*
X121510109Y-67660213D01*
X121359786Y-67509890D01*
X121187820Y-67384951D01*
X121186623Y-67384341D01*
X121179054Y-67380485D01*
X121128259Y-67332512D01*
X121111463Y-67264692D01*
X121133999Y-67198556D01*
X121179054Y-67159515D01*
X121187816Y-67155051D01*
X121243425Y-67114649D01*
X121359786Y-67030109D01*
X121359788Y-67030106D01*
X121359792Y-67030104D01*
X121510104Y-66879792D01*
X121510106Y-66879788D01*
X121510109Y-66879786D01*
X121635048Y-66707820D01*
X121635047Y-66707820D01*
X121635051Y-66707816D01*
X121731557Y-66518412D01*
X121797246Y-66316243D01*
X121830500Y-66106287D01*
X121830500Y-65893713D01*
X121797246Y-65683757D01*
X121731557Y-65481588D01*
X121635051Y-65292184D01*
X121635049Y-65292181D01*
X121635048Y-65292179D01*
X121510109Y-65120213D01*
X121359786Y-64969890D01*
X121187820Y-64844951D01*
X121187115Y-64844591D01*
X121179054Y-64840485D01*
X121128259Y-64792512D01*
X121111463Y-64724692D01*
X121133999Y-64658556D01*
X121179054Y-64619515D01*
X121187816Y-64615051D01*
X121277209Y-64550104D01*
X121359786Y-64490109D01*
X121359788Y-64490106D01*
X121359792Y-64490104D01*
X121510104Y-64339792D01*
X121510106Y-64339788D01*
X121510109Y-64339786D01*
X121635048Y-64167820D01*
X121635047Y-64167820D01*
X121635051Y-64167816D01*
X121731557Y-63978412D01*
X121797246Y-63776243D01*
X121830500Y-63566287D01*
X121830500Y-63353713D01*
X121797246Y-63143757D01*
X121731557Y-62941588D01*
X121635051Y-62752184D01*
X121635049Y-62752181D01*
X121635048Y-62752179D01*
X121510109Y-62580213D01*
X121359786Y-62429890D01*
X121187820Y-62304951D01*
X121183508Y-62302754D01*
X121179054Y-62300485D01*
X121128259Y-62252512D01*
X121111463Y-62184692D01*
X121133999Y-62118556D01*
X121179054Y-62079515D01*
X121187816Y-62075051D01*
X121209789Y-62059086D01*
X121359786Y-61950109D01*
X121359788Y-61950106D01*
X121359792Y-61950104D01*
X121510104Y-61799792D01*
X121510106Y-61799788D01*
X121510109Y-61799786D01*
X121635048Y-61627820D01*
X121635047Y-61627820D01*
X121635051Y-61627816D01*
X121731557Y-61438412D01*
X121797246Y-61236243D01*
X121830500Y-61026287D01*
X121830500Y-60813713D01*
X121797246Y-60603757D01*
X121731557Y-60401588D01*
X121635051Y-60212184D01*
X121635049Y-60212181D01*
X121635048Y-60212179D01*
X121510109Y-60040213D01*
X121396569Y-59926673D01*
X121363084Y-59865350D01*
X121368068Y-59795658D01*
X121409940Y-59739725D01*
X121440915Y-59722810D01*
X121572331Y-59673796D01*
X121687546Y-59587546D01*
X121773796Y-59472331D01*
X121824091Y-59337483D01*
X121830500Y-59277873D01*
X121830499Y-57482135D01*
X126749500Y-57482135D01*
X126749500Y-59277870D01*
X126749501Y-59277876D01*
X126755908Y-59337483D01*
X126806202Y-59472328D01*
X126806206Y-59472335D01*
X126892452Y-59587544D01*
X126892455Y-59587547D01*
X127007664Y-59673793D01*
X127007671Y-59673797D01*
X127007674Y-59673798D01*
X127139598Y-59723002D01*
X127195531Y-59764873D01*
X127219949Y-59830337D01*
X127205098Y-59898610D01*
X127183947Y-59926865D01*
X127070271Y-60040541D01*
X126945379Y-60212442D01*
X126848904Y-60401782D01*
X126783242Y-60603870D01*
X126783242Y-60603873D01*
X126772769Y-60670000D01*
X127666988Y-60670000D01*
X127634075Y-60727007D01*
X127600000Y-60854174D01*
X127600000Y-60985826D01*
X127634075Y-61112993D01*
X127666988Y-61170000D01*
X126772769Y-61170000D01*
X126783242Y-61236126D01*
X126783242Y-61236129D01*
X126848904Y-61438217D01*
X126945379Y-61627557D01*
X127070272Y-61799459D01*
X127070276Y-61799464D01*
X127220535Y-61949723D01*
X127220540Y-61949727D01*
X127392444Y-62074622D01*
X127401495Y-62079234D01*
X127452292Y-62127208D01*
X127469087Y-62195029D01*
X127446550Y-62261164D01*
X127401499Y-62300202D01*
X127392182Y-62304949D01*
X127220213Y-62429890D01*
X127069890Y-62580213D01*
X126944951Y-62752179D01*
X126848444Y-62941585D01*
X126782753Y-63143760D01*
X126749500Y-63353713D01*
X126749500Y-63566286D01*
X126774841Y-63726287D01*
X126782754Y-63776243D01*
X126845001Y-63967820D01*
X126848444Y-63978414D01*
X126944951Y-64167820D01*
X127069890Y-64339786D01*
X127220213Y-64490109D01*
X127392182Y-64615050D01*
X127400946Y-64619516D01*
X127451742Y-64667491D01*
X127468536Y-64735312D01*
X127445998Y-64801447D01*
X127400946Y-64840484D01*
X127392182Y-64844949D01*
X127220213Y-64969890D01*
X127069890Y-65120213D01*
X126944951Y-65292179D01*
X126848444Y-65481585D01*
X126782753Y-65683760D01*
X126749500Y-65893713D01*
X126749500Y-66106286D01*
X126774841Y-66266287D01*
X126782754Y-66316243D01*
X126834741Y-66476243D01*
X126848444Y-66518414D01*
X126944951Y-66707820D01*
X127069890Y-66879786D01*
X127220213Y-67030109D01*
X127392182Y-67155050D01*
X127400946Y-67159516D01*
X127451742Y-67207491D01*
X127468536Y-67275312D01*
X127445998Y-67341447D01*
X127400946Y-67380484D01*
X127392182Y-67384949D01*
X127220213Y-67509890D01*
X127069890Y-67660213D01*
X126944951Y-67832179D01*
X126848444Y-68021585D01*
X126782753Y-68223760D01*
X126749500Y-68433713D01*
X126749500Y-68646286D01*
X126774841Y-68806287D01*
X126782754Y-68856243D01*
X126834741Y-69016243D01*
X126848444Y-69058414D01*
X126944951Y-69247820D01*
X127069890Y-69419786D01*
X127220213Y-69570109D01*
X127392179Y-69695048D01*
X127392181Y-69695049D01*
X127392184Y-69695051D01*
X127581588Y-69791557D01*
X127783757Y-69857246D01*
X127993713Y-69890500D01*
X127993714Y-69890500D01*
X128206286Y-69890500D01*
X128206287Y-69890500D01*
X128416243Y-69857246D01*
X128618412Y-69791557D01*
X128807816Y-69695051D01*
X128966458Y-69579792D01*
X128979786Y-69570109D01*
X128979788Y-69570106D01*
X128979792Y-69570104D01*
X129130104Y-69419792D01*
X129130106Y-69419788D01*
X129130109Y-69419786D01*
X129255048Y-69247820D01*
X129255047Y-69247820D01*
X129255051Y-69247816D01*
X129351557Y-69058412D01*
X129417246Y-68856243D01*
X129450500Y-68646287D01*
X129450500Y-68433713D01*
X129417246Y-68223757D01*
X129351557Y-68021588D01*
X129255051Y-67832184D01*
X129255049Y-67832181D01*
X129255048Y-67832179D01*
X129130109Y-67660213D01*
X128979786Y-67509890D01*
X128807820Y-67384951D01*
X128806623Y-67384341D01*
X128799054Y-67380485D01*
X128748259Y-67332512D01*
X128731463Y-67264692D01*
X128753999Y-67198556D01*
X128799054Y-67159515D01*
X128807816Y-67155051D01*
X128863425Y-67114649D01*
X128979786Y-67030109D01*
X128979788Y-67030106D01*
X128979792Y-67030104D01*
X129130104Y-66879792D01*
X129130106Y-66879788D01*
X129130109Y-66879786D01*
X129255048Y-66707820D01*
X129255047Y-66707820D01*
X129255051Y-66707816D01*
X129351557Y-66518412D01*
X129417246Y-66316243D01*
X129450500Y-66106287D01*
X129450500Y-65893713D01*
X129417246Y-65683757D01*
X129351557Y-65481588D01*
X129255051Y-65292184D01*
X129255049Y-65292181D01*
X129255048Y-65292179D01*
X129130109Y-65120213D01*
X128979786Y-64969890D01*
X128807820Y-64844951D01*
X128807115Y-64844591D01*
X128799054Y-64840485D01*
X128748259Y-64792512D01*
X128731463Y-64724692D01*
X128753999Y-64658556D01*
X128799054Y-64619515D01*
X128807816Y-64615051D01*
X128897209Y-64550104D01*
X128979786Y-64490109D01*
X128979788Y-64490106D01*
X128979792Y-64490104D01*
X129130104Y-64339792D01*
X129130106Y-64339788D01*
X129130109Y-64339786D01*
X129255048Y-64167820D01*
X129255047Y-64167820D01*
X129255051Y-64167816D01*
X129351557Y-63978412D01*
X129417246Y-63776243D01*
X129450500Y-63566287D01*
X129450500Y-63353713D01*
X129417246Y-63143757D01*
X129351557Y-62941588D01*
X129255051Y-62752184D01*
X129255049Y-62752181D01*
X129255048Y-62752179D01*
X129130109Y-62580213D01*
X128979786Y-62429890D01*
X128807817Y-62304949D01*
X128798504Y-62300204D01*
X128747707Y-62252230D01*
X128730912Y-62184409D01*
X128753449Y-62118274D01*
X128798507Y-62079232D01*
X128807558Y-62074620D01*
X128979459Y-61949727D01*
X128979464Y-61949723D01*
X129129723Y-61799464D01*
X129129727Y-61799459D01*
X129254620Y-61627557D01*
X129351095Y-61438217D01*
X129416757Y-61236129D01*
X129416757Y-61236126D01*
X129427231Y-61170000D01*
X128533012Y-61170000D01*
X128565925Y-61112993D01*
X128600000Y-60985826D01*
X128600000Y-60854174D01*
X128565925Y-60727007D01*
X128533012Y-60670000D01*
X129427231Y-60670000D01*
X129416757Y-60603873D01*
X129416757Y-60603870D01*
X129351095Y-60401782D01*
X129254620Y-60212442D01*
X129129727Y-60040540D01*
X129129723Y-60040535D01*
X129016053Y-59926865D01*
X128982568Y-59865542D01*
X128987552Y-59795850D01*
X129029424Y-59739917D01*
X129060400Y-59723002D01*
X129192331Y-59673796D01*
X129307546Y-59587546D01*
X129393796Y-59472331D01*
X129444091Y-59337483D01*
X129450500Y-59277873D01*
X129450499Y-58073713D01*
X132649500Y-58073713D01*
X132649500Y-58286287D01*
X132682754Y-58496243D01*
X132699014Y-58546287D01*
X132748444Y-58698414D01*
X132844951Y-58887820D01*
X132969890Y-59059786D01*
X133120213Y-59210109D01*
X133292182Y-59335050D01*
X133300946Y-59339516D01*
X133351742Y-59387491D01*
X133368536Y-59455312D01*
X133345998Y-59521447D01*
X133300946Y-59560484D01*
X133292182Y-59564949D01*
X133120213Y-59689890D01*
X132969890Y-59840213D01*
X132844951Y-60012179D01*
X132748444Y-60201585D01*
X132682753Y-60403760D01*
X132649500Y-60613713D01*
X132649500Y-60826286D01*
X132679258Y-61014174D01*
X132682754Y-61036243D01*
X132747738Y-61236243D01*
X132748444Y-61238414D01*
X132844951Y-61427820D01*
X132969890Y-61599786D01*
X133120213Y-61750109D01*
X133292182Y-61875050D01*
X133300946Y-61879516D01*
X133351742Y-61927491D01*
X133368536Y-61995312D01*
X133345998Y-62061447D01*
X133300946Y-62100484D01*
X133292182Y-62104949D01*
X133120213Y-62229890D01*
X132969890Y-62380213D01*
X132844951Y-62552179D01*
X132748444Y-62741585D01*
X132682753Y-62943760D01*
X132673594Y-63001588D01*
X132649500Y-63153713D01*
X132649500Y-63366287D01*
X132682754Y-63576243D01*
X132747738Y-63776243D01*
X132748444Y-63778414D01*
X132844951Y-63967820D01*
X132969890Y-64139786D01*
X133083430Y-64253326D01*
X133116915Y-64314649D01*
X133111931Y-64384341D01*
X133070059Y-64440274D01*
X133039083Y-64457189D01*
X132907669Y-64506203D01*
X132907664Y-64506206D01*
X132792455Y-64592452D01*
X132792452Y-64592455D01*
X132706206Y-64707664D01*
X132706202Y-64707671D01*
X132655908Y-64842517D01*
X132649676Y-64900486D01*
X132649501Y-64902123D01*
X132649500Y-64902135D01*
X132649500Y-66697870D01*
X132649501Y-66697876D01*
X132655908Y-66757483D01*
X132706202Y-66892328D01*
X132706206Y-66892335D01*
X132792452Y-67007544D01*
X132792455Y-67007547D01*
X132907664Y-67093793D01*
X132907671Y-67093797D01*
X133042517Y-67144091D01*
X133042516Y-67144091D01*
X133049444Y-67144835D01*
X133102127Y-67150500D01*
X134897872Y-67150499D01*
X134957483Y-67144091D01*
X135092331Y-67093796D01*
X135207546Y-67007546D01*
X135293796Y-66892331D01*
X135344091Y-66757483D01*
X135350500Y-66697873D01*
X135350499Y-64902128D01*
X135344353Y-64844951D01*
X135344091Y-64842516D01*
X135293797Y-64707671D01*
X135293793Y-64707664D01*
X135207547Y-64592455D01*
X135207544Y-64592452D01*
X135092335Y-64506206D01*
X135092328Y-64506202D01*
X134960917Y-64457189D01*
X134904983Y-64415318D01*
X134880566Y-64349853D01*
X134895418Y-64281580D01*
X134916563Y-64253332D01*
X135030104Y-64139792D01*
X135155051Y-63967816D01*
X135251557Y-63778412D01*
X135317246Y-63576243D01*
X135350500Y-63366287D01*
X135350500Y-63153713D01*
X135317246Y-62943757D01*
X135251557Y-62741588D01*
X135155051Y-62552184D01*
X135155049Y-62552181D01*
X135155048Y-62552179D01*
X135030109Y-62380213D01*
X134879786Y-62229890D01*
X134707820Y-62104951D01*
X134707115Y-62104591D01*
X134699054Y-62100485D01*
X134648259Y-62052512D01*
X134631463Y-61984692D01*
X134653999Y-61918556D01*
X134699054Y-61879515D01*
X134707816Y-61875051D01*
X134811402Y-61799792D01*
X134879786Y-61750109D01*
X134879788Y-61750106D01*
X134879792Y-61750104D01*
X135030104Y-61599792D01*
X135030106Y-61599788D01*
X135030109Y-61599786D01*
X135155048Y-61427820D01*
X135155047Y-61427820D01*
X135155051Y-61427816D01*
X135251557Y-61238412D01*
X135317246Y-61036243D01*
X135350500Y-60826287D01*
X135350500Y-60613713D01*
X135317246Y-60403757D01*
X135251557Y-60201588D01*
X135155051Y-60012184D01*
X135155049Y-60012181D01*
X135155048Y-60012179D01*
X135030109Y-59840213D01*
X134879786Y-59689890D01*
X134707820Y-59564951D01*
X134707115Y-59564591D01*
X134699054Y-59560485D01*
X134648259Y-59512512D01*
X134631463Y-59444692D01*
X134653999Y-59378556D01*
X134699054Y-59339515D01*
X134707816Y-59335051D01*
X134786502Y-59277883D01*
X134879786Y-59210109D01*
X134879788Y-59210106D01*
X134879792Y-59210104D01*
X135030104Y-59059792D01*
X135030106Y-59059788D01*
X135030109Y-59059786D01*
X135155048Y-58887820D01*
X135155047Y-58887820D01*
X135155051Y-58887816D01*
X135251557Y-58698412D01*
X135317246Y-58496243D01*
X135350500Y-58286287D01*
X135350500Y-58073713D01*
X135317246Y-57863757D01*
X135251557Y-57661588D01*
X135251557Y-57661587D01*
X135241646Y-57642135D01*
X154729500Y-57642135D01*
X154729500Y-59437870D01*
X154729501Y-59437876D01*
X154735908Y-59497483D01*
X154786202Y-59632328D01*
X154786206Y-59632335D01*
X154872452Y-59747544D01*
X154872455Y-59747547D01*
X154987664Y-59833793D01*
X154987671Y-59833797D01*
X155119082Y-59882810D01*
X155175016Y-59924681D01*
X155199433Y-59990145D01*
X155184582Y-60058418D01*
X155163431Y-60086673D01*
X155049889Y-60200215D01*
X154924951Y-60372179D01*
X154828444Y-60561585D01*
X154762753Y-60763760D01*
X154729500Y-60973713D01*
X154729500Y-61186287D01*
X154736424Y-61230000D01*
X154761119Y-61385925D01*
X154762754Y-61396243D01*
X154789968Y-61480000D01*
X154828444Y-61598414D01*
X154924951Y-61787820D01*
X155049890Y-61959786D01*
X155200213Y-62110109D01*
X155372182Y-62235050D01*
X155380946Y-62239516D01*
X155431742Y-62287491D01*
X155448536Y-62355312D01*
X155425998Y-62421447D01*
X155380946Y-62460484D01*
X155372182Y-62464949D01*
X155200213Y-62589890D01*
X155049890Y-62740213D01*
X154924951Y-62912179D01*
X154828444Y-63101585D01*
X154762753Y-63303760D01*
X154729500Y-63513713D01*
X154729500Y-63726286D01*
X154745338Y-63826287D01*
X154762754Y-63936243D01*
X154776456Y-63978414D01*
X154828444Y-64138414D01*
X154924951Y-64327820D01*
X155049890Y-64499786D01*
X155200213Y-64650109D01*
X155372182Y-64775050D01*
X155380946Y-64779516D01*
X155431742Y-64827491D01*
X155448536Y-64895312D01*
X155425998Y-64961447D01*
X155380946Y-65000484D01*
X155372182Y-65004949D01*
X155200213Y-65129890D01*
X155049890Y-65280213D01*
X154924951Y-65452179D01*
X154828444Y-65641585D01*
X154762753Y-65843760D01*
X154729500Y-66053713D01*
X154729500Y-66266286D01*
X154745338Y-66366287D01*
X154762754Y-66476243D01*
X154776456Y-66518414D01*
X154828444Y-66678414D01*
X154924951Y-66867820D01*
X155049890Y-67039786D01*
X155200213Y-67190109D01*
X155372182Y-67315050D01*
X155380946Y-67319516D01*
X155431742Y-67367491D01*
X155448536Y-67435312D01*
X155425998Y-67501447D01*
X155380946Y-67540484D01*
X155372182Y-67544949D01*
X155200213Y-67669890D01*
X155049890Y-67820213D01*
X154924951Y-67992179D01*
X154828444Y-68181585D01*
X154762753Y-68383760D01*
X154729500Y-68593713D01*
X154729500Y-68806287D01*
X154762754Y-69016243D01*
X154776456Y-69058414D01*
X154828444Y-69218414D01*
X154924951Y-69407820D01*
X155049890Y-69579786D01*
X155200213Y-69730109D01*
X155372179Y-69855048D01*
X155372181Y-69855049D01*
X155372184Y-69855051D01*
X155561588Y-69951557D01*
X155763757Y-70017246D01*
X155973713Y-70050500D01*
X155973714Y-70050500D01*
X156186286Y-70050500D01*
X156186287Y-70050500D01*
X156396243Y-70017246D01*
X156598412Y-69951557D01*
X156787816Y-69855051D01*
X156853200Y-69807547D01*
X156959786Y-69730109D01*
X156959788Y-69730106D01*
X156959792Y-69730104D01*
X157110104Y-69579792D01*
X157110106Y-69579788D01*
X157110109Y-69579786D01*
X157235048Y-69407820D01*
X157235047Y-69407820D01*
X157235051Y-69407816D01*
X157331557Y-69218412D01*
X157397246Y-69016243D01*
X157430500Y-68806287D01*
X157430500Y-68593713D01*
X157397246Y-68383757D01*
X157331557Y-68181588D01*
X157235051Y-67992184D01*
X157235049Y-67992181D01*
X157235048Y-67992179D01*
X157110109Y-67820213D01*
X156959786Y-67669890D01*
X156787820Y-67544951D01*
X156787115Y-67544591D01*
X156779054Y-67540485D01*
X156728259Y-67492512D01*
X156711463Y-67424692D01*
X156733999Y-67358556D01*
X156779054Y-67319515D01*
X156787816Y-67315051D01*
X156833885Y-67281580D01*
X156959786Y-67190109D01*
X156959788Y-67190106D01*
X156959792Y-67190104D01*
X157110104Y-67039792D01*
X157110106Y-67039788D01*
X157110109Y-67039786D01*
X157235048Y-66867820D01*
X157235047Y-66867820D01*
X157235051Y-66867816D01*
X157331557Y-66678412D01*
X157397246Y-66476243D01*
X157430500Y-66266287D01*
X157430500Y-66053713D01*
X157397246Y-65843757D01*
X157331557Y-65641588D01*
X157235051Y-65452184D01*
X157235049Y-65452181D01*
X157235048Y-65452179D01*
X157110109Y-65280213D01*
X156959786Y-65129890D01*
X156787820Y-65004951D01*
X156787115Y-65004591D01*
X156779054Y-65000485D01*
X156728259Y-64952512D01*
X156711463Y-64884692D01*
X156733999Y-64818556D01*
X156779054Y-64779515D01*
X156787816Y-64775051D01*
X156824439Y-64748443D01*
X156959786Y-64650109D01*
X156959788Y-64650106D01*
X156959792Y-64650104D01*
X157110104Y-64499792D01*
X157110106Y-64499788D01*
X157110109Y-64499786D01*
X157235048Y-64327820D01*
X157235047Y-64327820D01*
X157235051Y-64327816D01*
X157331557Y-64138412D01*
X157397246Y-63936243D01*
X157430500Y-63726287D01*
X157430500Y-63513713D01*
X157397246Y-63303757D01*
X157331557Y-63101588D01*
X157235051Y-62912184D01*
X157235049Y-62912181D01*
X157235048Y-62912179D01*
X157110109Y-62740213D01*
X156959786Y-62589890D01*
X156787820Y-62464951D01*
X156787115Y-62464591D01*
X156779054Y-62460485D01*
X156728259Y-62412512D01*
X156711463Y-62344692D01*
X156733999Y-62278556D01*
X156779054Y-62239515D01*
X156787816Y-62235051D01*
X156832269Y-62202754D01*
X156959786Y-62110109D01*
X156959788Y-62110106D01*
X156959792Y-62110104D01*
X157110104Y-61959792D01*
X157110106Y-61959788D01*
X157110109Y-61959786D01*
X157235048Y-61787820D01*
X157235047Y-61787820D01*
X157235051Y-61787816D01*
X157331557Y-61598412D01*
X157397246Y-61396243D01*
X157430500Y-61186287D01*
X157430500Y-60973713D01*
X157397246Y-60763757D01*
X157331557Y-60561588D01*
X157235051Y-60372184D01*
X157235049Y-60372181D01*
X157235048Y-60372179D01*
X157110109Y-60200213D01*
X156996569Y-60086673D01*
X156963084Y-60025350D01*
X156968068Y-59955658D01*
X157009940Y-59899725D01*
X157040915Y-59882810D01*
X157172331Y-59833796D01*
X157287546Y-59747546D01*
X157373796Y-59632331D01*
X157424091Y-59497483D01*
X157430500Y-59437873D01*
X157430499Y-57642135D01*
X162349500Y-57642135D01*
X162349500Y-59437870D01*
X162349501Y-59437876D01*
X162355908Y-59497483D01*
X162406202Y-59632328D01*
X162406206Y-59632335D01*
X162492452Y-59747544D01*
X162492455Y-59747547D01*
X162607664Y-59833793D01*
X162607671Y-59833797D01*
X162669902Y-59857007D01*
X162739598Y-59883002D01*
X162795531Y-59924873D01*
X162819949Y-59990337D01*
X162805098Y-60058610D01*
X162783947Y-60086865D01*
X162670271Y-60200541D01*
X162545379Y-60372442D01*
X162448904Y-60561782D01*
X162383242Y-60763870D01*
X162383242Y-60763873D01*
X162372769Y-60830000D01*
X163266988Y-60830000D01*
X163234075Y-60887007D01*
X163200000Y-61014174D01*
X163200000Y-61145826D01*
X163234075Y-61272993D01*
X163266988Y-61330000D01*
X162372769Y-61330000D01*
X162383242Y-61396126D01*
X162383242Y-61396129D01*
X162448904Y-61598217D01*
X162545379Y-61787557D01*
X162670272Y-61959459D01*
X162670276Y-61959464D01*
X162820535Y-62109723D01*
X162820540Y-62109727D01*
X162992444Y-62234622D01*
X163001495Y-62239234D01*
X163052292Y-62287208D01*
X163069087Y-62355029D01*
X163046550Y-62421164D01*
X163001499Y-62460202D01*
X162992182Y-62464949D01*
X162820213Y-62589890D01*
X162669890Y-62740213D01*
X162544951Y-62912179D01*
X162448444Y-63101585D01*
X162382753Y-63303760D01*
X162349500Y-63513713D01*
X162349500Y-63726286D01*
X162365338Y-63826287D01*
X162382754Y-63936243D01*
X162396456Y-63978414D01*
X162448444Y-64138414D01*
X162544951Y-64327820D01*
X162669890Y-64499786D01*
X162820213Y-64650109D01*
X162992182Y-64775050D01*
X163000946Y-64779516D01*
X163051742Y-64827491D01*
X163068536Y-64895312D01*
X163045998Y-64961447D01*
X163000946Y-65000484D01*
X162992182Y-65004949D01*
X162820213Y-65129890D01*
X162669890Y-65280213D01*
X162544951Y-65452179D01*
X162448444Y-65641585D01*
X162382753Y-65843760D01*
X162349500Y-66053713D01*
X162349500Y-66266286D01*
X162365338Y-66366287D01*
X162382754Y-66476243D01*
X162396456Y-66518414D01*
X162448444Y-66678414D01*
X162544951Y-66867820D01*
X162669890Y-67039786D01*
X162820213Y-67190109D01*
X162992182Y-67315050D01*
X163000946Y-67319516D01*
X163051742Y-67367491D01*
X163068536Y-67435312D01*
X163045998Y-67501447D01*
X163000946Y-67540484D01*
X162992182Y-67544949D01*
X162820213Y-67669890D01*
X162669890Y-67820213D01*
X162544951Y-67992179D01*
X162448444Y-68181585D01*
X162382753Y-68383760D01*
X162349500Y-68593713D01*
X162349500Y-68806287D01*
X162382754Y-69016243D01*
X162396456Y-69058414D01*
X162448444Y-69218414D01*
X162544951Y-69407820D01*
X162669890Y-69579786D01*
X162820213Y-69730109D01*
X162992179Y-69855048D01*
X162992181Y-69855049D01*
X162992184Y-69855051D01*
X163181588Y-69951557D01*
X163383757Y-70017246D01*
X163593713Y-70050500D01*
X163593714Y-70050500D01*
X163806286Y-70050500D01*
X163806287Y-70050500D01*
X164016243Y-70017246D01*
X164218412Y-69951557D01*
X164407816Y-69855051D01*
X164473200Y-69807547D01*
X164579786Y-69730109D01*
X164579788Y-69730106D01*
X164579792Y-69730104D01*
X164730104Y-69579792D01*
X164730106Y-69579788D01*
X164730109Y-69579786D01*
X164855048Y-69407820D01*
X164855047Y-69407820D01*
X164855051Y-69407816D01*
X164951557Y-69218412D01*
X165017246Y-69016243D01*
X165050500Y-68806287D01*
X165050500Y-68593713D01*
X165017246Y-68383757D01*
X164951557Y-68181588D01*
X164855051Y-67992184D01*
X164855049Y-67992181D01*
X164855048Y-67992179D01*
X164730109Y-67820213D01*
X164579786Y-67669890D01*
X164407820Y-67544951D01*
X164407115Y-67544591D01*
X164399054Y-67540485D01*
X164348259Y-67492512D01*
X164331463Y-67424692D01*
X164353999Y-67358556D01*
X164399054Y-67319515D01*
X164407816Y-67315051D01*
X164453885Y-67281580D01*
X164579786Y-67190109D01*
X164579788Y-67190106D01*
X164579792Y-67190104D01*
X164730104Y-67039792D01*
X164730106Y-67039788D01*
X164730109Y-67039786D01*
X164855048Y-66867820D01*
X164855047Y-66867820D01*
X164855051Y-66867816D01*
X164951557Y-66678412D01*
X165017246Y-66476243D01*
X165050500Y-66266287D01*
X165050500Y-66053713D01*
X165017246Y-65843757D01*
X164951557Y-65641588D01*
X164855051Y-65452184D01*
X164855049Y-65452181D01*
X164855048Y-65452179D01*
X164730109Y-65280213D01*
X164579786Y-65129890D01*
X164407820Y-65004951D01*
X164407115Y-65004591D01*
X164399054Y-65000485D01*
X164348259Y-64952512D01*
X164331463Y-64884692D01*
X164353999Y-64818556D01*
X164399054Y-64779515D01*
X164407816Y-64775051D01*
X164444439Y-64748443D01*
X164579786Y-64650109D01*
X164579788Y-64650106D01*
X164579792Y-64650104D01*
X164730104Y-64499792D01*
X164730106Y-64499788D01*
X164730109Y-64499786D01*
X164855048Y-64327820D01*
X164855047Y-64327820D01*
X164855051Y-64327816D01*
X164951557Y-64138412D01*
X165017246Y-63936243D01*
X165050500Y-63726287D01*
X165050500Y-63513713D01*
X165017246Y-63303757D01*
X164951557Y-63101588D01*
X164855051Y-62912184D01*
X164855049Y-62912181D01*
X164855048Y-62912179D01*
X164730109Y-62740213D01*
X164579786Y-62589890D01*
X164407817Y-62464949D01*
X164398504Y-62460204D01*
X164347707Y-62412230D01*
X164330912Y-62344409D01*
X164353449Y-62278274D01*
X164398507Y-62239232D01*
X164407558Y-62234620D01*
X164579459Y-62109727D01*
X164579464Y-62109723D01*
X164729723Y-61959464D01*
X164729727Y-61959459D01*
X164854620Y-61787557D01*
X164951095Y-61598217D01*
X165016757Y-61396129D01*
X165016757Y-61396126D01*
X165027231Y-61330000D01*
X164133012Y-61330000D01*
X164165925Y-61272993D01*
X164200000Y-61145826D01*
X164200000Y-61014174D01*
X164165925Y-60887007D01*
X164133012Y-60830000D01*
X165027231Y-60830000D01*
X165016757Y-60763873D01*
X165016757Y-60763870D01*
X164951095Y-60561782D01*
X164854620Y-60372442D01*
X164729727Y-60200540D01*
X164729723Y-60200535D01*
X164616053Y-60086865D01*
X164582568Y-60025542D01*
X164587552Y-59955850D01*
X164629424Y-59899917D01*
X164660400Y-59883002D01*
X164792331Y-59833796D01*
X164907546Y-59747546D01*
X164993796Y-59632331D01*
X165044091Y-59497483D01*
X165050500Y-59437873D01*
X165050499Y-57642128D01*
X165044091Y-57582517D01*
X165035772Y-57560213D01*
X164993797Y-57447671D01*
X164993793Y-57447664D01*
X164907547Y-57332455D01*
X164907544Y-57332452D01*
X164792335Y-57246206D01*
X164792328Y-57246202D01*
X164657482Y-57195908D01*
X164657483Y-57195908D01*
X164597883Y-57189501D01*
X164597881Y-57189500D01*
X164597873Y-57189500D01*
X164597864Y-57189500D01*
X162802129Y-57189500D01*
X162802123Y-57189501D01*
X162742516Y-57195908D01*
X162607671Y-57246202D01*
X162607664Y-57246206D01*
X162492455Y-57332452D01*
X162492452Y-57332455D01*
X162406206Y-57447664D01*
X162406202Y-57447671D01*
X162355908Y-57582517D01*
X162352965Y-57609896D01*
X162349501Y-57642123D01*
X162349500Y-57642135D01*
X157430499Y-57642135D01*
X157430499Y-57642128D01*
X157424091Y-57582517D01*
X157415772Y-57560213D01*
X157373797Y-57447671D01*
X157373793Y-57447664D01*
X157287547Y-57332455D01*
X157287544Y-57332452D01*
X157172335Y-57246206D01*
X157172328Y-57246202D01*
X157037482Y-57195908D01*
X157037483Y-57195908D01*
X156977883Y-57189501D01*
X156977881Y-57189500D01*
X156977873Y-57189500D01*
X156977864Y-57189500D01*
X155182129Y-57189500D01*
X155182123Y-57189501D01*
X155122516Y-57195908D01*
X154987671Y-57246202D01*
X154987664Y-57246206D01*
X154872455Y-57332452D01*
X154872452Y-57332455D01*
X154786206Y-57447664D01*
X154786202Y-57447671D01*
X154735908Y-57582517D01*
X154732965Y-57609896D01*
X154729501Y-57642123D01*
X154729500Y-57642135D01*
X135241646Y-57642135D01*
X135160121Y-57482135D01*
X135155051Y-57472184D01*
X135155049Y-57472181D01*
X135155048Y-57472179D01*
X135030109Y-57300213D01*
X134879786Y-57149890D01*
X134707820Y-57024951D01*
X134518414Y-56928444D01*
X134518413Y-56928443D01*
X134518412Y-56928443D01*
X134316243Y-56862754D01*
X134316241Y-56862753D01*
X134316240Y-56862753D01*
X134154957Y-56837208D01*
X134106287Y-56829500D01*
X133893713Y-56829500D01*
X133845042Y-56837208D01*
X133683760Y-56862753D01*
X133481585Y-56928444D01*
X133292179Y-57024951D01*
X133120213Y-57149890D01*
X132969890Y-57300213D01*
X132844951Y-57472179D01*
X132748444Y-57661585D01*
X132682753Y-57863760D01*
X132673594Y-57921588D01*
X132649500Y-58073713D01*
X129450499Y-58073713D01*
X129450499Y-57482128D01*
X129444091Y-57422517D01*
X129439381Y-57409890D01*
X129393797Y-57287671D01*
X129393793Y-57287664D01*
X129307547Y-57172455D01*
X129307544Y-57172452D01*
X129192335Y-57086206D01*
X129192328Y-57086202D01*
X129057482Y-57035908D01*
X129057483Y-57035908D01*
X128997883Y-57029501D01*
X128997881Y-57029500D01*
X128997873Y-57029500D01*
X128997864Y-57029500D01*
X127202129Y-57029500D01*
X127202123Y-57029501D01*
X127142516Y-57035908D01*
X127007671Y-57086202D01*
X127007664Y-57086206D01*
X126892455Y-57172452D01*
X126892452Y-57172455D01*
X126806206Y-57287664D01*
X126806202Y-57287671D01*
X126755908Y-57422517D01*
X126749676Y-57480486D01*
X126749501Y-57482123D01*
X126749500Y-57482135D01*
X121830499Y-57482135D01*
X121830499Y-57482128D01*
X121824091Y-57422517D01*
X121819381Y-57409890D01*
X121773797Y-57287671D01*
X121773793Y-57287664D01*
X121687547Y-57172455D01*
X121687544Y-57172452D01*
X121572335Y-57086206D01*
X121572328Y-57086202D01*
X121437482Y-57035908D01*
X121437483Y-57035908D01*
X121377883Y-57029501D01*
X121377881Y-57029500D01*
X121377873Y-57029500D01*
X121377864Y-57029500D01*
X119582129Y-57029500D01*
X119582123Y-57029501D01*
X119522516Y-57035908D01*
X119387671Y-57086202D01*
X119387664Y-57086206D01*
X119272455Y-57172452D01*
X119272452Y-57172455D01*
X119186206Y-57287664D01*
X119186202Y-57287671D01*
X119135908Y-57422517D01*
X119129676Y-57480486D01*
X119129501Y-57482123D01*
X119129500Y-57482135D01*
X115752031Y-57482135D01*
X115679786Y-57409890D01*
X115507820Y-57284951D01*
X115507115Y-57284591D01*
X115499054Y-57280485D01*
X115448259Y-57232512D01*
X115431463Y-57164692D01*
X115453999Y-57098556D01*
X115499054Y-57059515D01*
X115507816Y-57055051D01*
X115542984Y-57029500D01*
X115679786Y-56930109D01*
X115679788Y-56930106D01*
X115679792Y-56930104D01*
X115830104Y-56779792D01*
X115830106Y-56779788D01*
X115830109Y-56779786D01*
X115955048Y-56607820D01*
X115955047Y-56607820D01*
X115955051Y-56607816D01*
X116051557Y-56418412D01*
X116117246Y-56216243D01*
X116150500Y-56006287D01*
X116150500Y-55993713D01*
X167949500Y-55993713D01*
X167949500Y-56206287D01*
X167982754Y-56416243D01*
X168045001Y-56607820D01*
X168048444Y-56618414D01*
X168144951Y-56807820D01*
X168269890Y-56979786D01*
X168420213Y-57130109D01*
X168592182Y-57255050D01*
X168600946Y-57259516D01*
X168651742Y-57307491D01*
X168668536Y-57375312D01*
X168645998Y-57441447D01*
X168600946Y-57480484D01*
X168592182Y-57484949D01*
X168420213Y-57609890D01*
X168269890Y-57760213D01*
X168144951Y-57932179D01*
X168048444Y-58121585D01*
X167982753Y-58323760D01*
X167981177Y-58333713D01*
X167949500Y-58533713D01*
X167949500Y-58746287D01*
X167982754Y-58956243D01*
X168045001Y-59147820D01*
X168048444Y-59158414D01*
X168144951Y-59347820D01*
X168269890Y-59519786D01*
X168420213Y-59670109D01*
X168592179Y-59795048D01*
X168592181Y-59795049D01*
X168592184Y-59795051D01*
X168601493Y-59799794D01*
X168652290Y-59847766D01*
X168669087Y-59915587D01*
X168646552Y-59981722D01*
X168601502Y-60020762D01*
X168592443Y-60025378D01*
X168420540Y-60150272D01*
X168420535Y-60150276D01*
X168270276Y-60300535D01*
X168270272Y-60300540D01*
X168145379Y-60472442D01*
X168048904Y-60661782D01*
X167983242Y-60863870D01*
X167983242Y-60863873D01*
X167972769Y-60930000D01*
X168866988Y-60930000D01*
X168834075Y-60987007D01*
X168800000Y-61114174D01*
X168800000Y-61245826D01*
X168834075Y-61372993D01*
X168866988Y-61430000D01*
X167972769Y-61430000D01*
X167983242Y-61496126D01*
X167983242Y-61496129D01*
X168048904Y-61698217D01*
X168145379Y-61887557D01*
X168270272Y-62059459D01*
X168270276Y-62059464D01*
X168420535Y-62209723D01*
X168420540Y-62209727D01*
X168592444Y-62334622D01*
X168601495Y-62339234D01*
X168652292Y-62387208D01*
X168669087Y-62455029D01*
X168646550Y-62521164D01*
X168601499Y-62560202D01*
X168592182Y-62564949D01*
X168420213Y-62689890D01*
X168269890Y-62840213D01*
X168144951Y-63012179D01*
X168048444Y-63201585D01*
X167982753Y-63403760D01*
X167949500Y-63613713D01*
X167949500Y-63826286D01*
X167973594Y-63978414D01*
X167982754Y-64036243D01*
X168045001Y-64227820D01*
X168048444Y-64238414D01*
X168144951Y-64427820D01*
X168269890Y-64599786D01*
X168420213Y-64750109D01*
X168592182Y-64875050D01*
X168600946Y-64879516D01*
X168651742Y-64927491D01*
X168668536Y-64995312D01*
X168645998Y-65061447D01*
X168600946Y-65100484D01*
X168592182Y-65104949D01*
X168420213Y-65229890D01*
X168269890Y-65380213D01*
X168144951Y-65552179D01*
X168048444Y-65741585D01*
X167982753Y-65943760D01*
X167949500Y-66153713D01*
X167949500Y-66366286D01*
X167973594Y-66518414D01*
X167982754Y-66576243D01*
X168045001Y-66767820D01*
X168048444Y-66778414D01*
X168144951Y-66967820D01*
X168269890Y-67139786D01*
X168383430Y-67253326D01*
X168416915Y-67314649D01*
X168411931Y-67384341D01*
X168370059Y-67440274D01*
X168339083Y-67457189D01*
X168207669Y-67506203D01*
X168207664Y-67506206D01*
X168092455Y-67592452D01*
X168092452Y-67592455D01*
X168006206Y-67707664D01*
X168006202Y-67707671D01*
X167955908Y-67842517D01*
X167949501Y-67902116D01*
X167949501Y-67902123D01*
X167949500Y-67902135D01*
X167949500Y-69697870D01*
X167949501Y-69697876D01*
X167955908Y-69757483D01*
X168006202Y-69892328D01*
X168006206Y-69892335D01*
X168092452Y-70007544D01*
X168092455Y-70007547D01*
X168207664Y-70093793D01*
X168207671Y-70093797D01*
X168342517Y-70144091D01*
X168342516Y-70144091D01*
X168349444Y-70144835D01*
X168402127Y-70150500D01*
X170197872Y-70150499D01*
X170257483Y-70144091D01*
X170392331Y-70093796D01*
X170507546Y-70007546D01*
X170593796Y-69892331D01*
X170644091Y-69757483D01*
X170650500Y-69697873D01*
X170650499Y-67902128D01*
X170644091Y-67842517D01*
X170640235Y-67832179D01*
X170593797Y-67707671D01*
X170593793Y-67707664D01*
X170507547Y-67592455D01*
X170507544Y-67592452D01*
X170392335Y-67506206D01*
X170392328Y-67506202D01*
X170260917Y-67457189D01*
X170204983Y-67415318D01*
X170180566Y-67349853D01*
X170195418Y-67281580D01*
X170216563Y-67253332D01*
X170330104Y-67139792D01*
X170455051Y-66967816D01*
X170551557Y-66778412D01*
X170617246Y-66576243D01*
X170650500Y-66366287D01*
X170650500Y-66153713D01*
X170617246Y-65943757D01*
X170551557Y-65741588D01*
X170455051Y-65552184D01*
X170455049Y-65552181D01*
X170455048Y-65552179D01*
X170330109Y-65380213D01*
X170179786Y-65229890D01*
X170007820Y-65104951D01*
X170007115Y-65104591D01*
X169999054Y-65100485D01*
X169948259Y-65052512D01*
X169931463Y-64984692D01*
X169953999Y-64918556D01*
X169999054Y-64879515D01*
X170007816Y-64875051D01*
X170029789Y-64859086D01*
X170179786Y-64750109D01*
X170179788Y-64750106D01*
X170179792Y-64750104D01*
X170330104Y-64599792D01*
X170330106Y-64599788D01*
X170330109Y-64599786D01*
X170455048Y-64427820D01*
X170455047Y-64427820D01*
X170455051Y-64427816D01*
X170551557Y-64238412D01*
X170617246Y-64036243D01*
X170650500Y-63826287D01*
X170650500Y-63613713D01*
X170617246Y-63403757D01*
X170551557Y-63201588D01*
X170455051Y-63012184D01*
X170455049Y-63012181D01*
X170455048Y-63012179D01*
X170330109Y-62840213D01*
X170179786Y-62689890D01*
X170007817Y-62564949D01*
X169998504Y-62560204D01*
X169947707Y-62512230D01*
X169930912Y-62444409D01*
X169953449Y-62378274D01*
X169998507Y-62339232D01*
X170007558Y-62334620D01*
X170179459Y-62209727D01*
X170179464Y-62209723D01*
X170329723Y-62059464D01*
X170329727Y-62059459D01*
X170454620Y-61887557D01*
X170551095Y-61698217D01*
X170616757Y-61496129D01*
X170616757Y-61496126D01*
X170627231Y-61430000D01*
X169733012Y-61430000D01*
X169765925Y-61372993D01*
X169800000Y-61245826D01*
X169800000Y-61114174D01*
X169765925Y-60987007D01*
X169733012Y-60930000D01*
X170627231Y-60930000D01*
X170616757Y-60863873D01*
X170616757Y-60863870D01*
X170551095Y-60661782D01*
X170454620Y-60472442D01*
X170329727Y-60300540D01*
X170329723Y-60300535D01*
X170179464Y-60150276D01*
X170179459Y-60150272D01*
X170007555Y-60025377D01*
X169998500Y-60020763D01*
X169947706Y-59972788D01*
X169930912Y-59904966D01*
X169953451Y-59838832D01*
X169998508Y-59799793D01*
X170007816Y-59795051D01*
X170087007Y-59737515D01*
X170179786Y-59670109D01*
X170179788Y-59670106D01*
X170179792Y-59670104D01*
X170330104Y-59519792D01*
X170330106Y-59519788D01*
X170330109Y-59519786D01*
X170455048Y-59347820D01*
X170455047Y-59347820D01*
X170455051Y-59347816D01*
X170551557Y-59158412D01*
X170617246Y-58956243D01*
X170650500Y-58746287D01*
X170650500Y-58533713D01*
X170617246Y-58323757D01*
X170551557Y-58121588D01*
X170455051Y-57932184D01*
X170455049Y-57932181D01*
X170455048Y-57932179D01*
X170330109Y-57760213D01*
X170179786Y-57609890D01*
X170007820Y-57484951D01*
X170002279Y-57482128D01*
X169999054Y-57480485D01*
X169948259Y-57432512D01*
X169931463Y-57364692D01*
X169953999Y-57298556D01*
X169999054Y-57259515D01*
X170007816Y-57255051D01*
X170029789Y-57239086D01*
X170179786Y-57130109D01*
X170179788Y-57130106D01*
X170179792Y-57130104D01*
X170330104Y-56979792D01*
X170330106Y-56979788D01*
X170330109Y-56979786D01*
X170455048Y-56807820D01*
X170455047Y-56807820D01*
X170455051Y-56807816D01*
X170551557Y-56618412D01*
X170617246Y-56416243D01*
X170650500Y-56206287D01*
X170650500Y-55993713D01*
X170617246Y-55783757D01*
X170551557Y-55581588D01*
X170455051Y-55392184D01*
X170455049Y-55392181D01*
X170455048Y-55392179D01*
X170330109Y-55220213D01*
X170179786Y-55069890D01*
X170007820Y-54944951D01*
X169818414Y-54848444D01*
X169818413Y-54848443D01*
X169818412Y-54848443D01*
X169616243Y-54782754D01*
X169616241Y-54782753D01*
X169616240Y-54782753D01*
X169454957Y-54757208D01*
X169406287Y-54749500D01*
X169193713Y-54749500D01*
X169145042Y-54757208D01*
X168983760Y-54782753D01*
X168781585Y-54848444D01*
X168592179Y-54944951D01*
X168420213Y-55069890D01*
X168269890Y-55220213D01*
X168144951Y-55392179D01*
X168048444Y-55581585D01*
X167982753Y-55783760D01*
X167981177Y-55793713D01*
X167949500Y-55993713D01*
X116150500Y-55993713D01*
X116150500Y-55793713D01*
X116117246Y-55583757D01*
X116051557Y-55381588D01*
X115955051Y-55192184D01*
X115955049Y-55192181D01*
X115955048Y-55192179D01*
X115830109Y-55020213D01*
X115679786Y-54869890D01*
X115507820Y-54744951D01*
X115318414Y-54648444D01*
X115318413Y-54648443D01*
X115318412Y-54648443D01*
X115116243Y-54582754D01*
X115116241Y-54582753D01*
X115116240Y-54582753D01*
X114954957Y-54557208D01*
X114906287Y-54549500D01*
X114693713Y-54549500D01*
X114645042Y-54557208D01*
X114483760Y-54582753D01*
X114281585Y-54648444D01*
X114092179Y-54744951D01*
X113920213Y-54869890D01*
X113769890Y-55020213D01*
X113644951Y-55192179D01*
X113548444Y-55381585D01*
X113482753Y-55583760D01*
X113451077Y-55783757D01*
X113449500Y-55793713D01*
X112450500Y-55793713D01*
X112450500Y-53574500D01*
X112470185Y-53507461D01*
X112522989Y-53461706D01*
X112574500Y-53450500D01*
X171435391Y-53450500D01*
X171502430Y-53470185D01*
G37*
%TD.AperFunction*%
%TD*%
M02*
