%TF.GenerationSoftware,KiCad,Pcbnew,9.0.0*%
%TF.CreationDate,2025-09-12T14:39:54-04:00*%
%TF.ProjectId,Full-Board_rev1,46756c6c-2d42-46f6-9172-645f72657631,rev?*%
%TF.SameCoordinates,Original*%
%TF.FileFunction,Soldermask,Bot*%
%TF.FilePolarity,Negative*%
%FSLAX46Y46*%
G04 Gerber Fmt 4.6, Leading zero omitted, Abs format (unit mm)*
G04 Created by KiCad (PCBNEW 9.0.0) date 2025-09-12 14:39:54*
%MOMM*%
%LPD*%
G01*
G04 APERTURE LIST*
G04 Aperture macros list*
%AMRoundRect*
0 Rectangle with rounded corners*
0 $1 Rounding radius*
0 $2 $3 $4 $5 $6 $7 $8 $9 X,Y pos of 4 corners*
0 Add a 4 corners polygon primitive as box body*
4,1,4,$2,$3,$4,$5,$6,$7,$8,$9,$2,$3,0*
0 Add four circle primitives for the rounded corners*
1,1,$1+$1,$2,$3*
1,1,$1+$1,$4,$5*
1,1,$1+$1,$6,$7*
1,1,$1+$1,$8,$9*
0 Add four rect primitives between the rounded corners*
20,1,$1+$1,$2,$3,$4,$5,0*
20,1,$1+$1,$4,$5,$6,$7,0*
20,1,$1+$1,$6,$7,$8,$9,0*
20,1,$1+$1,$8,$9,$2,$3,0*%
G04 Aperture macros list end*
%ADD10C,1.150000*%
%ADD11R,1.700000X1.700000*%
%ADD12O,1.700000X1.700000*%
%ADD13RoundRect,0.250000X-0.625000X0.350000X-0.625000X-0.350000X0.625000X-0.350000X0.625000X0.350000X0*%
%ADD14O,1.750000X1.200000*%
%ADD15C,1.600000*%
%ADD16O,1.600000X1.600000*%
%ADD17C,0.600000*%
%ADD18O,2.000000X0.900000*%
%ADD19O,1.700000X0.900000*%
G04 APERTURE END LIST*
D10*
%TO.C,C7*%
X138700000Y-75100000D03*
X133700000Y-75100000D03*
%TD*%
D11*
%TO.C,J12*%
X114500000Y-102900000D03*
D12*
X114500000Y-100360000D03*
%TD*%
D13*
%TO.C,J8*%
X115340000Y-84090000D03*
D14*
X115340000Y-86090000D03*
X115340000Y-88090000D03*
%TD*%
D11*
%TO.C,J5*%
X120480000Y-58380000D03*
D12*
X120480000Y-60920000D03*
X120480000Y-63460000D03*
X120480000Y-66000000D03*
X120480000Y-68540000D03*
%TD*%
D11*
%TO.C,J13*%
X134000000Y-65800000D03*
D12*
X134000000Y-63260000D03*
X134000000Y-60720000D03*
X134000000Y-58180000D03*
%TD*%
D15*
%TO.C,R8*%
X128500000Y-98200000D03*
D16*
X125960000Y-98200000D03*
%TD*%
D15*
%TO.C,R3*%
X161700000Y-79300000D03*
D16*
X159160000Y-79300000D03*
%TD*%
D11*
%TO.C,J11*%
X146500000Y-74800000D03*
D12*
X143960000Y-74800000D03*
%TD*%
D15*
%TO.C,R7*%
X128560000Y-75100000D03*
D16*
X131100000Y-75100000D03*
%TD*%
D11*
%TO.C,J6*%
X114800000Y-68600000D03*
D12*
X114800000Y-66060000D03*
X114800000Y-63520000D03*
X114800000Y-60980000D03*
X114800000Y-58440000D03*
X114800000Y-55900000D03*
%TD*%
D15*
%TO.C,R5*%
X161050000Y-82720000D03*
D16*
X158510000Y-82720000D03*
%TD*%
D11*
%TO.C,J4*%
X128100000Y-58380000D03*
D12*
X128100000Y-60920000D03*
X128100000Y-63460000D03*
X128100000Y-66000000D03*
X128100000Y-68540000D03*
%TD*%
D17*
%TO.C,J1*%
X165520000Y-80190000D03*
X165520000Y-74410000D03*
D18*
X165030000Y-81625000D03*
X165030000Y-72975000D03*
D19*
X169200000Y-81625000D03*
X169200000Y-72975000D03*
%TD*%
D15*
%TO.C,R1*%
X130445000Y-90200000D03*
D16*
X127905000Y-90200000D03*
%TD*%
D11*
%TO.C,J7*%
X169300000Y-68800000D03*
D12*
X169300000Y-66260000D03*
X169300000Y-63720000D03*
X169300000Y-61180000D03*
X169300000Y-58640000D03*
X169300000Y-56100000D03*
%TD*%
D11*
%TO.C,J3*%
X163700000Y-58540000D03*
D12*
X163700000Y-61080000D03*
X163700000Y-63620000D03*
X163700000Y-66160000D03*
X163700000Y-68700000D03*
%TD*%
D11*
%TO.C,J2*%
X156080000Y-58540000D03*
D12*
X156080000Y-61080000D03*
X156080000Y-63620000D03*
X156080000Y-66160000D03*
X156080000Y-68700000D03*
%TD*%
D13*
%TO.C,J9*%
X115350000Y-76300000D03*
D14*
X115350000Y-78300000D03*
%TD*%
D10*
%TO.C,C8*%
X167400000Y-91600000D03*
X167400000Y-96600000D03*
%TD*%
D11*
%TO.C,J10*%
X130090000Y-107400000D03*
D12*
X132630000Y-107400000D03*
X135170000Y-107400000D03*
X137710000Y-107400000D03*
X140250000Y-107400000D03*
X142790000Y-107400000D03*
X145330000Y-107400000D03*
X147870000Y-107400000D03*
X150410000Y-107400000D03*
X152950000Y-107400000D03*
X155490000Y-107400000D03*
%TD*%
D15*
%TO.C,R4*%
X161000000Y-74340000D03*
D16*
X161000000Y-71800000D03*
%TD*%
D15*
%TO.C,R6*%
X157745000Y-87300000D03*
D16*
X155205000Y-87300000D03*
%TD*%
M02*
